<svg width="154" height="219" viewBox="0 0 154 219" fill="none" xmlns="http://www.w3.org/2000/svg">
<path d="M102.37 59.7772C104.949 59.7233 108.096 59.7772 108.596 60.3926C109.003 60.8926 108.624 61.8082 108.794 62.2361C109.256 63.4012 110.507 63.4099 111.193 63.8094C111.929 64.2371 112.11 65.0098 112.281 65.3236C113.035 66.7107 116.337 65.8106 117.052 66.0962C117.528 66.2863 117.882 66.6681 118.224 67.1508C119.381 68.7828 119.026 70.2075 119.227 72.2001C119.578 75.6946 119.425 78.1009 119.768 78.2149C120.702 78.5264 121.826 78.5004 122.112 78.7568C122.646 79.2362 122.627 80.0987 122.828 80.8986C123.134 82.1206 122.799 83.2951 122.574 85.5527C122.46 86.696 120.859 86.6185 120.346 86.9863C118.558 88.2664 119.427 90.6655 119.285 92.3546C118.96 96.2054 118.745 97.8129 118.456 99.1608C118.055 101.032 118.683 103.079 118.939 103.393C119.647 104.259 121.482 104.106 122.112 104.651C123.307 105.684 122.342 108.736 122.427 109.307C122.577 110.316 124.683 110.452 126.002 110.537L126.049 110.54C126.521 110.57 126.571 110.794 126.544 110.967C126.486 111.332 126.287 111.767 126.371 112.252C126.511 113.048 127.762 113.252 128.649 113.397L128.656 113.398C129.031 113.46 129.598 113.541 130.17 113.683C131.086 113.91 130.118 115.424 130.144 116.225C130.157 116.608 130.8 116.854 131.228 117.226C131.547 117.503 132.679 117.486 133.966 117.57C134.356 117.596 134.178 117.825 133.864 118.054C133.551 118.283 133.098 118.566 132.95 118.768C132.801 118.971 132.971 119.084 133.257 119.142C134.496 119.395 135.54 119.372 136.402 119.571C136.589 119.614 136.744 119.77 136.746 119.885C136.748 119.958 136.511 120.077 136.711 120.077C137.661 119.989 138.943 119.912 140.251 119.886C141.891 119.854 142.574 119.488 144.172 119.626C145.68 119.757 145.033 121.769 145.804 122.285C146.638 122.844 148.003 122.97 148.436 123.628C148.816 124.206 147.894 125.195 147.751 126.114C147.602 127.079 148.178 127.997 148.321 128.915C148.921 129.374 149.718 129.603 150.748 129.746C150.978 129.831 150.95 130.546 150.475 131.155C149.93 131.854 149.464 132.788 149.034 133.724C148.581 134.71 147.439 135.052 146.696 135.752C145.98 136.428 143.865 136.768 141.904 137.816C140.752 138.432 139.954 139.262 139.328 140.155C139.121 140.45 139.248 140.969 139.132 141.285C138.931 141.834 138.315 142.068 137.925 142.418C137.054 143.201 137.302 144.95 136.445 145.848C135.701 146.628 135.043 147.523 134.3 148.576C133.727 149.39 132.47 149.473 131.805 150.331C131.069 151.279 131.221 152.902 130.519 153.877C129.633 155.11 128.494 155.246 127.751 155.944C126.88 156.763 126.389 157.659 125.529 158.323C124.799 158.886 124.359 159.685 123.62 160.233C122.662 160.944 121.945 162.103 121.008 162.883C120.203 163.554 119.138 163.666 118.202 164.093C117.225 164.538 116.098 164.756 115.161 165.339C114.104 165.997 112.519 166.472 111.031 166.667C109.24 166.9 108.377 167.251 107.988 167.484C107.179 167.967 106.822 169.429 105.651 170.135C104.167 171.031 103 170.837 102.451 171.46C101.488 172.555 99.4121 173.952 98.5935 174.695C97.4899 175.696 96.3715 177.227 96.1353 178.978C95.8951 180.759 95.436 182.76 95.2383 183.777C95.0521 184.734 94.9461 185.108 94.5964 185.893C94.5797 185.93 94.5964 185.893 94.4583 186.354C94.0365 187.764 93.0175 189.857 92.6667 190.793C92.4774 191.299 92.1592 191.73 91.9265 192.081C91.4403 192.814 89.9817 192.434 89.121 193.016C88.1884 193.648 86.7867 194.375 85.7296 195.665C85.3391 196.142 85.1425 196.642 84.8712 196.993C84.2268 197.826 82.1136 196.878 80.8179 197.576C79.7121 198.172 79.1432 199.526 78.0124 200.112C77.0653 200.602 76.1027 201.163 75.1274 201.981C74.0089 202.92 72.8282 203.736 71.8915 204.166C70.8493 204.645 70.1759 205.761 69.3959 206.504C68.6825 207.183 67.9166 207.946 66.9412 208.415C65.7404 208.992 64.876 209.737 63.9779 210.674C63.3908 211.611 63.0797 213.007 62.612 214.298C62.5324 214.649 62.76 215.17 62.5324 215.589C62.0964 216.393 55.1667 215.334 53.8826 214.416C52.591 213.492 51.0911 212.501 51.3693 211.558C51.4329 211.342 51.6198 211.163 51.7695 210.974C52.3549 210.236 52.9862 209.307 53.8605 209.194C54.8148 209.07 56.1542 209.085 56.8118 207.803C57.3945 206.667 57.9586 205.372 57.4793 204.704C57.2599 204.398 56.8366 204.269 56.3702 204.09C54.6193 203.417 53.1877 203.52 52.8104 202.707C52.5965 202.246 50.9127 201.495 51.6459 199.752C52.3549 198.065 54.0702 195.961 54.3805 194.347C54.564 193.393 54.835 192.388 54.5944 191.364C54.1878 189.635 54.0964 187.542 53.3924 187.497C52.2439 187.424 51.1245 187.496 50.4272 187.541L50.4123 187.542C49.4565 187.673 46.7372 187.759 44.1635 188.197C42.3739 188.105 40.7165 187.937 40.1476 186.663C39.5786 185.389 39.0897 180.657 38.7513 177.919C38.5297 176.127 37.2364 174.954 35.4683 172.764C34.5125 171.58 32.4331 169.555 32.7215 167.87C32.9391 166.598 33.5702 165.197 33.3744 163.446C33.2853 162.649 33.174 161.045 31.1088 160.921C25.3846 160.577 20.4479 160.927 20.3499 159.146C20.0903 154.426 20.2071 150.814 19.7376 150.345C19.3156 149.925 18.801 149.684 18.2221 149.413L18.2219 149.413L18.1617 149.384C16.6762 148.688 15.0052 148.834 14.6243 147.266C14.3214 146.019 14.3214 143.682 14.0094 142.425C13.6974 141.168 13.0916 140.995 12.2093 140.908C11.3269 140.822 10.1889 140.725 9.50576 140.866C8.0229 141.173 7.12267 141.4 6.75768 140.993C6.36566 140.557 7.14015 138.259 5.88317 137.017C5.66291 136.799 5.37246 136.745 5.18435 136.536C4.79233 136.099 4.50396 134.594 3.74345 132.859C2.23305 129.415 4.59619 123.393 4.09641 120.893C3.76554 119.237 1.91032 114.886 3.92307 114.16C4.88673 113.813 5.96522 113.686 7.38046 112.715C9.87942 111.002 13.2275 108.937 13.405 107.205C13.5348 105.938 13.4865 104.292 12.6996 103.408C12.3915 103.062 12.0089 103.003 11.694 103.24C10.9965 103.764 10.1221 104.812 9.07309 104.459C8.54996 104.284 7.76271 104.117 7.32539 103.539C6.36041 102.265 4.15351 100.57 4.83953 99.6935C5.14633 99.3015 6.6817 99.0281 7.11299 96.4997C7.5037 94.2092 7.33401 90.8197 6.67115 89.6845C6.36566 89.1614 5.74102 89.0959 5.31678 88.7681C5.14371 88.6344 5.1082 88.3599 5.23286 88.1112C5.49509 87.5881 5.87909 87.0233 6.5479 86.8014C8.39001 86.1904 13.2908 87.4796 15.2877 85.6201C15.8974 85.0524 15.73 82.8504 16.3799 80.3272C16.6028 79.4619 17.0375 79.4435 17.5192 79.5064C18.5222 79.6375 19.8094 79.4965 21.8931 78.6254C24.9099 77.3641 26.7312 75.2649 27.9609 75.5731C28.484 75.7042 29.5559 76.7981 31.4274 76.4843C32.5301 76.2995 33.9146 75.5207 34.4731 75.0421C35.0317 74.5636 34.7721 74.3905 34.464 74.1257C34.1559 73.8608 33.8097 73.5147 33.6367 73.1633C33.4636 72.8119 33.3815 72.4339 33.5527 72.1144C34.2555 70.8033 34.4731 70.2744 34.9462 69.6483C35.479 68.9432 36.7364 67.8927 38.1724 67.1457C38.9798 66.682 40.1145 66.1329 40.2423 65.3599C40.2993 65.0154 40.2971 64.3635 40.4729 63.5732C40.7035 62.537 41.6766 61.4256 41.1896 60.9576C41.1007 60.8721 40.8727 60.8721 40.7294 60.784C40.586 60.6959 40.529 60.5249 40.5593 60.3514C40.5895 60.1778 40.7315 60.0127 40.7605 59.8039C40.8762 58.9688 40.4725 57.3687 41.2518 56.7245C42.0886 56.0328 42.9965 55.6588 43.554 54.8532C43.8122 54.4801 43.2534 51.3118 43.9849 47.0105C44.3303 44.9795 43.936 43.8786 44.6766 43.4838C46.3096 42.6134 49.4624 41.8217 50.3181 40.806C50.4891 40.603 50.5143 40.3801 50.6066 39.85C51.18 36.5547 51.267 33.9238 51.382 33.2068C51.5254 32.313 51.3204 31.3649 51.7862 30.7621C51.8742 30.6481 52.0534 30.6797 52.3362 30.5894C53.6013 30.1853 54.7703 29.9856 55.0383 28.9176C55.2697 27.9953 55.2271 26.9111 55.8742 26.5593C56.1902 26.3874 57.6416 26.8969 57.8016 25.9807C58.033 24.6551 57.5814 23.1252 58.5218 21.6336C59.3042 20.3927 60.2439 19.1726 61.115 18.8729C62.5304 18.3858 64.3128 18.5589 64.7384 17.8366C64.8239 17.6915 64.8166 17.5188 64.8826 17.2589C65.2868 15.6674 65.8604 13.7913 65.8604 12.1684C65.8604 11.9217 65.6877 11.8213 65.7464 11.6477C65.8052 11.4742 65.9191 11.3032 66.0936 11.159C66.496 10.9008 67.1059 10.919 67.9122 10.6693C69.9536 10.0372 72.1445 9.69321 72.1349 8.56747C72.1332 8.3654 72.0192 8.19442 71.8154 8.10893C71.6116 8.02344 71.3266 8.02344 71.1842 7.906C71.0417 7.78856 71.0003 7.53 71.1591 7.35851C71.5045 6.98546 72.0728 6.7742 72.5416 6.43798C73.4665 5.77478 74.1335 4.69359 74.7566 4.25063C75.3628 3.81972 76.4106 2.77532 77.8386 3.04426C78.2971 3.13061 78.9034 3.06054 79.336 3.53734C79.9102 4.17032 80.1049 5.28231 80.7453 5.57875C81.1762 5.77823 83.3621 5.59633 83.7081 6.99064C83.8221 7.45005 83.5157 7.85841 83.3895 8.34295C83.1865 9.12186 80.9733 10.8205 82.3567 11.3645C82.7893 11.5346 83.9782 10.8088 85.1209 11.4215C85.5509 11.652 85.9656 12.0348 86.0103 12.6348C86.126 14.1891 85.9928 15.4369 86.5017 16.3463C86.6476 16.607 86.8884 17.0061 87.1657 16.9171C87.7978 16.7141 89.5776 15.4066 91.3116 15.3057C92.8098 15.2185 95.705 15.7797 95.9125 14.2953C95.9687 13.8938 95.3493 13.5947 95.7191 13.165C97.131 11.5242 98.2032 10.0633 98.6802 10.0087C99.428 9.92323 100.63 8.8437 102.682 8.94397C103.918 9.00442 104.786 9.296 105.269 9.95518C105.585 10.3861 106.022 10.7813 106.044 12.3973C106.101 16.4551 106.095 19.2883 105.869 19.5681C105.753 19.7123 105.584 19.8296 105.349 19.9714C104.253 20.6346 101.874 20.7947 100.37 22.0154C99.5904 22.6484 98.3046 22.4489 96.6267 23.2235C95.5006 23.7433 93.7218 23.632 93.5792 24.3176C93.435 25.011 93.1326 25.903 92.1086 26.5335C91.8772 26.6759 91.6492 26.6759 91.5059 29.4065L91.5024 29.4728C91.358 32.2223 91.0822 37.4758 91.3945 40.0876C91.7114 42.7378 91.9836 42.9218 91.8807 43.376C91.594 44.6411 90.892 45.4651 91.1346 46.6566C91.1933 46.945 91.2973 47.2446 91.8634 47.2869C93.3884 47.4009 95.8182 47.1108 95.5671 47.8068C95.2761 48.6133 94.1022 49.906 94.416 51.2903C94.4747 51.5494 94.5887 51.7204 94.8512 51.8059C95.1138 51.8914 95.5188 51.9305 95.8296 51.862C97.0135 51.6012 99.1637 50.8088 99.9427 51.6055C100.057 51.7221 100.07 51.8961 99.9979 52.1841C99.8252 52.8741 99.4095 53.3058 99.2493 53.6789C98.903 54.4854 98.0141 55.5624 98.6785 56.8498C99.5973 58.6304 99.7362 60.135 100.983 60.1226C101.331 60.1192 101.72 59.7908 102.37 59.7772Z" fill="#F68F58" stroke="black" stroke-width="6" stroke-linecap="round"/>
<path d="M35.7195 130.893H27.4395V129.473L29.8195 128.233L28.7995 125.713H22.9595L22.1395 127.753L24.9395 129.293L24.1395 130.893H17.4595V129.473L19.7995 127.733L24.5995 115.813L28.8795 114.793L34.4395 128.353L36.5195 129.293L35.7195 130.893ZM25.8395 118.453L23.6995 123.813H28.0195L25.8395 118.453ZM50.3467 130.913H37.1267V129.493L39.0067 128.013V117.313L36.7267 116.773L37.5267 115.173H45.2067V116.593L43.3067 118.073V128.993H47.4267L50.6067 124.453L52.0067 125.053V131.273L50.3467 130.913ZM70.6609 130.893H62.3809V129.473L64.7609 128.233L63.7409 125.713H57.9009L57.0809 127.753L59.8809 129.293L59.0809 130.893H52.4009V129.473L54.7409 127.733L59.5409 115.813L63.8209 114.793L69.3809 128.353L71.4609 129.293L70.6609 130.893ZM60.7809 118.453L58.6409 123.813H62.9609L60.7809 118.453ZM80.1081 127.753C80.1081 127.366 79.9547 126.993 79.6481 126.633C79.3414 126.273 78.9614 125.939 78.5081 125.633C78.0547 125.326 77.4281 124.939 76.6281 124.473C75.6414 123.899 74.8481 123.406 74.2481 122.993C73.6481 122.566 73.1347 122.073 72.7081 121.513C72.2814 120.953 72.0681 120.333 72.0681 119.653C72.0681 118.986 72.3881 118.273 73.0281 117.513C73.6814 116.739 74.4747 116.093 75.4081 115.573C76.3414 115.039 77.2014 114.773 77.9881 114.773C78.9347 114.773 80.0347 114.873 81.2881 115.073C82.5547 115.273 83.4814 115.486 84.0681 115.713V120.393H81.5081C81.0147 119.326 80.4547 118.493 79.8281 117.893C79.2147 117.279 78.5747 116.973 77.9081 116.973C77.5081 116.973 77.1947 117.099 76.9681 117.353C76.7414 117.606 76.6281 117.933 76.6281 118.333C76.6281 118.759 76.7814 119.166 77.0881 119.553C77.4081 119.926 77.8014 120.273 78.2681 120.593C78.7481 120.899 79.3947 121.286 80.2081 121.753C81.1681 122.299 81.9414 122.779 82.5281 123.193C83.1281 123.593 83.6347 124.066 84.0481 124.613C84.4614 125.159 84.6681 125.766 84.6681 126.433C84.6681 127.099 84.3214 127.819 83.6281 128.593C82.9481 129.353 82.1147 129.999 81.1281 130.533C80.1414 131.053 79.2414 131.313 78.4281 131.313C77.4414 131.313 76.2681 131.213 74.9081 131.013C73.5481 130.813 72.5681 130.599 71.9681 130.373V125.693H74.5281C75.0614 126.773 75.6814 127.613 76.3881 128.213C77.0947 128.813 77.8081 129.113 78.5281 129.113C79.0081 129.113 79.3881 128.979 79.6681 128.713C79.9614 128.446 80.1081 128.126 80.1081 127.753ZM94.552 129.273L93.752 130.873H86.072V129.453L87.952 127.813V117.373L85.672 116.773L86.472 115.173H94.152V116.593L92.252 118.253V128.673L94.552 129.273ZM102.832 130.873H98.212L92.812 122.993L98.372 118.073L96.032 116.753L96.832 115.153H103.212V116.573L97.072 121.993L101.512 128.313L103.632 129.273L102.832 130.873ZM122.126 130.893H113.846V129.473L116.226 128.233L115.206 125.713H109.366L108.546 127.753L111.346 129.293L110.546 130.893H103.866V129.473L106.206 127.733L111.006 115.813L115.286 114.793L120.846 128.353L122.926 129.293L122.126 130.893ZM112.246 118.453L110.106 123.813H114.426L112.246 118.453Z" fill="black"/>
</svg>
