<svg width="166" height="186" viewBox="0 0 166 186" fill="none" xmlns="http://www.w3.org/2000/svg">
<path d="M131.466 181.612C131.876 181.734 132.758 182.197 134.258 182.209C136.318 182.226 137.428 181.081 139.003 180.33C141.318 179.226 142.411 179.241 143.683 178.077C145.085 176.794 145.773 174.959 146.601 173.636C147.515 172.174 147.962 170.081 149.217 168.954C149.825 168.408 151.586 168.392 153.72 166.52C155.178 165.241 157.495 163.97 157.495 161.746C157.495 156.631 157.178 154.071 157.331 152.306C157.53 150.023 161.01 150.383 161.971 149.506C164.169 147.5 160.059 143.986 159.26 142.221C159.072 141.806 158.465 141.738 158.141 141.419C156.265 139.571 157.178 135.341 155.581 133.497C154.055 131.735 152.538 130.058 151.813 127.976C151.341 126.62 151.415 125.251 150.697 124.451C149.393 122.999 146.939 122.537 145.253 120.292C144.841 119.743 145.008 118.859 144.77 118.292C143.884 116.179 139.11 116.601 135.972 114.769C133.618 113.395 132.051 110.377 131.162 107.488C130.879 106.569 131.08 105.104 130.843 104.211C130.2 101.794 126.931 101.713 124.126 99.4825C122.102 97.8728 121.322 95.4796 119.561 94.034C119.079 93.7122 118.603 93.1272 118.279 92.7262C117.955 92.3252 117.818 91.7262 117.633 91.1477C115.386 84.1302 117.796 79.9577 117.553 75.7146C117.411 73.2271 119.064 71.3034 120.351 69.0678C122.511 65.3157 120.034 63.2975 120.272 62.4187C120.811 60.4238 123.549 59.3066 125.708 55.3829C126.597 53.7676 127.238 51.147 127.079 47.7876C126.907 44.1296 123.396 40.1059 122.918 37.366C122.744 36.3711 122.118 35.4426 121.242 34.326C118.455 30.7763 112.84 31.1251 110.518 29.6795C108.566 28.4647 106.596 27.917 104.594 26.7187C101.941 25.1315 99.5558 23.9116 97.3898 23.513C96.8314 23.4102 96.194 23.4314 95.7089 23.1936C93.7198 22.2188 92.6689 20.2328 90.7454 19.5917C89.7873 19.2723 88.3465 18.7921 85.4002 18.3118C83.4047 18.1485 80.3179 18.2262 78.0284 17.6093C77.8485 17.5608 77.6531 17.2368 77.3723 16.5327C76.6645 14.758 73.2368 15.2615 72.0135 14.5546C70.4226 13.6353 68.7218 13.7546 67.3574 13.0505C66.0213 12.361 64.7711 11.8752 62.8917 11.3094C61.382 10.1821 60.6286 8.86707 60.2998 7.83426C60.1573 7.36018 59.3179 4.2262 57.8179 3.72618C54.0231 2.46124 54.0478 5.37921 51.7466 6.5517C50.0195 7.43163 49.3409 9.13797 48.7765 10.7817C47.7075 13.8953 47.1765 16.1955 46.8492 16.7119C46.0486 17.9749 43.7987 17.6996 41.0248 17.938C39.3245 18.0842 38.059 19.1105 36.5987 20.0516C35.3951 20.8273 34.0124 21.464 32.6014 22.4488C31.038 23.5401 31.1849 27.8302 30.6699 30.3501C30.5215 31.0762 30.3383 31.8091 29.9192 32.7925C28.483 36.163 25.3605 36.0419 21.9798 37.1706C20.151 37.7813 18.5879 37.9269 15.8634 39.8938C14.8009 40.6608 13.881 40.8419 13.1304 41.2158C11.3072 42.124 11.6235 44.5979 11.0577 45.9651C10.87 46.2035 10.5907 46.2966 9.98115 46.3446C9.37162 46.3926 7.0826 45.6306 6.63438 46.3926C6.35219 46.8723 6.35219 47.3379 6.30422 47.8106C6.16312 48.7488 5.5028 50.5379 4.75218 52.564C4.46716 55.4339 2.63478 58.152 4.10032 60.1817C4.94689 61.3542 5.65043 62.2434 6.12079 62.7158C7.10846 63.7077 5.47338 69.2191 9.23052 74.3378C9.84569 75.1759 10.5033 75.2153 10.9674 75.1279C11.7166 74.9868 12.277 74.7034 12.8947 74.706C13.2263 74.7074 13.6977 74.7554 13.833 75.1829C14.1604 76.2171 14.1078 77.9286 15.2087 78.0471C17.3717 78.2799 19.7972 77.0701 20.7015 78.0937C21.8782 79.4256 21.6185 82.9855 22.8645 83.928C24.2317 84.9622 26.1271 85.2473 26.6261 86.4705C27.0479 87.5047 26.3385 89.6156 27.4261 90.5128C27.9905 90.9785 29.3178 90.2884 30.7672 91.4525C31.4699 92.0169 31.4972 93.7809 32.7905 93.9429C34.6727 94.1785 36.8179 93.9429 37.4297 95.47C38.3802 97.8421 37.91 100.104 37.593 101.543C37.2766 102.979 35.5135 103.471 34.7931 104.427C32.3643 107.649 33.5877 117.658 32.9513 122.756C32.6353 125.287 29.9089 126.197 29.1885 128.2C28.3263 130.597 27.1906 132.757 26.9433 134.923C26.8789 135.487 27.181 136.119 27.5004 136.604C28.1214 137.547 28.3621 137.074 30.3179 137.726C31.8179 138.226 32.8179 140.226 33.7628 140.772C34.8003 141.372 36.1454 141.798 37.3817 142.004C39.1874 142.128 40.1763 142.589 40.8699 143.362C41.2385 143.772 40.1264 148.383 42.1444 149.895C42.6362 150.263 43.116 150.798 44.9646 150.838C52.5833 151.003 53.7953 151.613 54.9634 151.866C56.286 152.152 58.07 152.197 58.8658 153.347C59.2344 153.88 69.0036 151.297 69.3823 155.118C69.5043 156.35 69.7223 157.317 70.2476 157.536C70.7394 157.74 71.9022 157.333 72.9199 157.947C73.5325 158.317 73.6382 159.15 74.2313 160.25C74.5185 160.782 79.6939 162.838 81.961 160.611C83.5559 159.044 84.1198 157.01 85.533 156.876C86.8494 156.752 88.0237 156.072 89.3179 155.726C90.5505 155.397 94.3348 155.839 96.1284 155.603C98.3179 155.314 98.9644 155.603 101.357 155.314C103.048 155.111 104.072 154.384 105.007 154.701C105.255 154.784 105.546 154.922 105.663 155.196C105.908 155.771 105.431 157.513 106.527 157.988C107.473 158.398 109.031 158.393 109.319 159.551C109.441 160.043 109.421 160.595 109.73 161.03C110.432 162.017 111.53 163.271 112.649 163.739C113.636 164.152 117.799 163.179 119.263 164.809C119.632 165.22 121.161 164.442 122.223 166.082C122.836 167.032 122.701 168.694 123.577 169.37C124.483 170.069 126.15 170.787 126.328 172.249C126.534 173.934 126.604 175.708 127.933 176.148C128.425 176.311 129.229 175.308 130.605 175.779C130.976 175.906 131.466 176.198 131.465 176.604C131.46 178.125 130.134 181.216 131.466 181.612Z" fill="#EC96EE" stroke="black" stroke-width="6" stroke-linecap="round"/>
<path d="M40.1854 84.5595L34.5346 81.9843L34.9762 81.0152L36.9862 80.9091L37.0738 78.8721L33.0882 77.0557L31.8941 78.1929L33.326 80.1148L32.2824 80.9579L27.7235 78.8803L28.1652 77.9112L30.3033 77.4515L37.2866 70.8093L40.5248 71.4444L40.1019 82.428L41.229 83.7164L40.1854 84.5595ZM37.3117 72.9967L34.1842 75.9892L37.1324 77.3328L37.3117 72.9967ZM50.1618 89.1226L41.1396 85.0109L41.5812 84.0418L43.3246 83.6164L46.6525 76.314L45.2644 75.2363L46.308 74.3932L51.5494 76.7818L51.1078 77.7509L49.3508 78.1701L45.9544 85.6226L48.7662 86.904L52.3485 84.7947L53.1173 85.6396L51.1828 89.8846L50.1618 89.1226ZM61.0017 94.0461L52.116 89.9966L52.5576 89.0275L54.301 88.6022L57.5978 81.368L56.2346 80.2358L57.2782 79.3926L65.7545 83.2555L66.9994 83.5261L65.3198 87.2115L64.1778 87.1855L63.6212 83.8493L60.6319 82.487L59.1266 85.7902L60.4506 86.3936L62.0877 85.4418L63.0568 85.8834L61.2902 89.7598L59.9494 89.8082L59.8187 87.6716L58.5357 87.0869L56.9246 90.6221L59.7909 91.9284L63.0577 90.0049L63.8266 90.8498L62.0227 94.8081L61.0017 94.0461ZM78.0466 101.83L72.8052 99.4418L73.2469 98.4727L74.9902 98.0474L77.6899 92.1236L70.8534 98.5523L69.4202 97.8992L69.715 88.3903L66.8287 94.7236L68.1434 95.9986L67.0998 96.8417L63.3598 95.1373L63.8015 94.1682L65.5448 93.7429L68.7732 86.6588L67.4847 85.3628L68.5283 84.5196L72.8961 86.5102L72.6334 94.8634L78.7108 89.1601L83.2151 91.2128L82.7734 92.1819L81.0164 92.601L77.6947 99.8898L79.0902 100.987L78.0466 101.83ZM91.3307 107.868L85.6798 105.293L86.1215 104.324L88.1314 104.218L88.2191 102.18L84.2335 100.364L83.0394 101.501L84.4713 103.423L83.4277 104.266L78.8688 102.189L79.3104 101.22L81.4486 100.76L88.4318 94.1178L91.67 94.7528L91.2471 105.736L92.3743 107.025L91.3307 107.868ZM88.457 96.3051L85.3294 99.2976L88.2777 100.641L88.457 96.3051ZM106.725 104.449L102.794 113.075L101.36 112.422L98.0926 102.773L95.8408 107.714L97.7571 109.478L96.7135 110.321L92.291 108.306L92.7327 107.337L94.5258 106.802L97.5614 100.141L96.4097 98.5447L97.4533 97.7016L100.06 98.8897L103.251 108.273L105.416 103.523L103.507 101.779L104.551 100.936L108.973 102.952L108.538 103.907L106.725 104.449ZM110.009 116.38L104.767 113.991L105.209 113.022L107.002 112.488L110.249 105.363L108.88 104.244L109.923 103.401L115.165 105.79L114.723 106.759L112.91 107.301L109.669 114.412L111.052 115.537L110.009 116.38ZM123.295 122.435L117.644 119.86L118.086 118.891L120.096 118.785L120.183 116.747L116.198 114.931L115.003 116.068L116.435 117.99L115.392 118.833L110.833 116.756L111.275 115.787L113.413 115.327L120.396 108.685L123.634 109.32L123.211 120.303L124.338 121.592L123.295 122.435ZM120.421 110.872L117.294 113.865L120.242 115.208L120.421 110.872Z" fill="black"/>
</svg>
