<svg width="166" height="185" viewBox="0 0 166 185" fill="none" xmlns="http://www.w3.org/2000/svg">
<path d="M131.648 181.386C132.058 181.508 132.94 181.97 134.44 181.983C136.5 182 137.61 180.855 139.185 180.104C141.5 179 142.593 179.015 143.865 177.851C145.267 176.568 145.955 174.733 146.783 173.41C147.697 171.948 148.144 169.855 149.399 168.728C150.007 168.182 151.768 168.166 153.902 166.294C155.36 165.015 157.677 163.744 157.677 161.519C157.677 156.405 157.36 153.845 157.513 152.08C157.712 149.797 161.192 150.156 162.153 149.28C164.352 147.273 160.241 143.759 159.442 141.994C159.254 141.58 158.647 141.512 158.323 141.192C156.447 139.345 157.36 135.115 155.763 133.271C154.237 131.508 152.72 129.832 151.995 127.75C151.523 126.394 151.597 125.025 150.879 124.225C149.575 122.773 147.121 122.311 145.435 120.066C145.023 119.517 145.19 118.632 144.952 118.066C144.066 115.953 139.292 116.375 136.154 114.543C133.8 113.169 132.233 110.151 131.344 107.262C131.061 106.343 131.263 104.878 131.025 103.984C130.382 101.568 127.113 101.487 124.308 99.2563C122.285 97.6467 121.504 95.2534 119.744 93.8078C119.261 93.486 118.785 92.901 118.461 92.5C118.137 92.099 118 91.5 117.815 90.9215C115.568 83.904 117.978 79.7315 117.736 75.4884C117.593 73.0009 119.246 71.0772 120.533 68.8416C122.693 65.0895 120.216 63.0713 120.454 62.1925C120.993 60.1976 123.732 59.0804 125.89 55.1567C126.779 53.5414 127.42 50.9208 127.261 47.5614C127.089 43.9034 123.578 39.8797 123.1 37.1398C122.926 36.1449 122.3 35.2164 121.424 34.0998C118.638 30.5501 113.022 30.8989 110.7 29.4533C108.748 28.2385 106.778 27.6908 104.776 26.4925C102.123 24.9053 99.7379 23.6854 97.5719 23.2868C97.0135 23.184 96.3761 23.2052 95.891 22.9674C93.9019 21.9926 92.851 20.0067 90.9276 19.3655C89.9694 19.0461 88.5287 18.5659 85.5823 18.0856C83.5868 17.9223 80.5 18 78.2105 17.3831C78.0307 17.3346 77.8352 17.0106 77.5544 16.3065C76.8466 14.5318 73.4189 15.0353 72.1956 14.3284C70.6047 13.4091 68.9039 13.5284 67.5395 12.8243C66.2034 12.1348 64.9533 11.649 63.0739 11.0832C61.5642 9.95588 60.8107 8.64088 60.482 7.60806C60.3395 7.13399 59.5 4 58 3.49999C54.2053 2.23504 54.23 5.15301 51.9287 6.32551C50.2017 7.20544 49.523 8.91177 48.9587 10.5555C47.8896 13.6691 47.3586 15.9693 47.0313 16.4857C46.2307 17.7487 43.9808 17.4734 41.2069 17.7118C39.5066 17.858 38.2411 18.8843 36.7808 19.8254C35.5772 20.6011 34.1945 21.2378 32.7836 22.2226C31.2201 23.3139 31.367 27.604 30.852 30.1239C30.7036 30.85 30.5204 31.5829 30.1014 32.5663C28.6651 35.9368 25.5426 35.8157 22.162 36.9445C20.3331 37.5551 18.7701 37.7007 16.0455 39.6676C14.9831 40.4346 14.0631 40.6157 13.3125 40.9896C11.4893 41.8978 11.8056 44.3717 11.2398 45.7389C11.0522 45.9773 10.7728 46.0704 10.1633 46.1184C9.55375 46.1664 7.26473 45.4044 6.81651 46.1664C6.53432 46.6461 6.53432 47.1117 6.48635 47.5844C6.34525 48.5226 5.68493 50.3117 4.9343 52.3378C4.64929 55.2077 2.81691 57.9258 4.28245 59.9555C5.12902 61.128 5.83256 62.0172 6.30292 62.4896C7.29058 63.4815 5.65551 68.9929 9.41265 74.1116C10.0278 74.9497 10.6854 74.9891 11.1495 74.9017C11.8987 74.7606 12.4591 74.4772 13.0769 74.4798C13.4084 74.4812 13.8798 74.5292 14.0152 74.9567C14.3425 75.991 14.2899 77.7024 15.3908 77.8209C17.5538 78.0537 19.9794 76.8439 20.8836 77.8675C22.0604 79.1994 21.8007 82.7593 23.0466 83.7018C24.4138 84.736 26.3092 85.0211 26.8082 86.2443C27.2301 87.2785 26.5206 89.3894 27.6082 90.2867C28.1726 90.7523 29.4999 90.0622 30.9493 91.2263C31.652 91.7907 31.6793 93.5547 32.9726 93.7167C34.8548 93.9523 37 93.7167 37.6119 95.2438C38.5623 97.6159 38.0921 99.8782 37.7751 101.317C37.4587 102.752 35.6956 103.245 34.9752 104.201C32.5464 107.423 33.7698 117.432 33.1335 122.53C32.8175 125.061 30.091 125.971 29.3706 127.973C28.5084 130.37 27.3728 132.531 27.1254 134.697C27.0611 135.261 27.3632 135.893 27.6825 136.378C28.3035 137.321 28.5442 136.848 30.5 137.5C32 138 33 140 33.9449 140.546C34.9825 141.146 36.3275 141.572 37.5638 141.777C39.3696 141.902 40.3584 142.363 41.0521 143.136C41.4206 143.546 40.3086 148.156 42.3266 149.669C42.8184 150.037 43.2981 150.571 45.1467 150.611C52.7654 150.777 53.9775 151.387 55.1455 151.639C56.4681 151.925 58.2521 151.971 59.0479 153.121C59.4165 153.654 69.1858 151.071 69.5644 154.892C69.6865 156.124 69.9045 157.091 70.4297 157.309C70.9215 157.514 72.0843 157.107 73.102 157.721C73.7146 158.091 73.8203 158.924 74.4135 160.024C74.7007 160.556 79.876 162.612 82.1431 160.385C83.7381 158.818 84.3019 156.784 85.7151 156.65C87.0316 156.525 88.2058 155.846 89.5 155.5C90.7326 155.171 94.517 155.613 96.3105 155.377C98.5 155.088 99.1466 155.377 101.539 155.088C103.23 154.884 104.254 154.158 105.189 154.474C105.437 154.558 105.728 154.696 105.845 154.97C106.09 155.544 105.613 157.287 106.709 157.762C107.655 158.172 109.213 158.167 109.501 159.325C109.623 159.817 109.604 160.369 109.912 160.804C110.614 161.791 111.712 163.045 112.831 163.513C113.818 163.926 117.981 162.953 119.445 164.583C119.814 164.993 121.343 164.215 122.405 165.856C123.019 166.805 122.883 168.468 123.759 169.144C124.665 169.842 126.332 170.561 126.51 172.023C126.716 173.708 126.786 175.482 128.115 175.922C128.607 176.084 129.411 175.082 130.788 175.553C131.159 175.68 131.648 175.971 131.647 176.378C131.642 177.899 130.316 180.99 131.648 181.386Z" fill="#EC96EE" stroke="black" stroke-width="6" stroke-linecap="round"/>
<path d="M25.8834 65.2971L19.0017 60.6928L19.7913 59.5126L22.459 59.8054L23.0125 57.1438L18.1587 53.8963L16.3428 55.1358L17.8136 57.9728L16.259 58.8577L10.707 55.1431L11.4967 53.9629L14.4091 53.818L25.027 46.5801L29.1514 48.1124L26.232 62.4743L27.4381 64.4122L25.8834 65.2971ZM24.5895 49.4638L19.8303 52.7286L23.4208 55.1309L24.5895 49.4638ZM38.0294 73.4476L27.0419 66.0963L27.8315 64.916L30.217 64.7314L36.1671 55.8383L34.5724 54.1217L36.127 53.2367L42.5101 57.5074L41.7205 58.6876L39.3183 58.8611L33.2459 67.9371L36.6702 70.2281L41.8378 68.2231L42.6677 69.5003L39.2089 74.6699L38.0294 73.4476ZM51.234 82.2584L40.4127 75.0182L41.2024 73.838L43.5879 73.6533L49.4823 64.8434L47.9321 63.0602L49.4868 62.1753L59.8094 69.0818L61.3892 69.7057L58.3864 74.1938L56.8892 73.9139L56.8745 69.4042L53.2341 66.9686L50.5427 70.9912L52.1551 72.07L54.5141 71.1698L55.6943 71.9594L52.5357 76.6802L50.7611 76.4554L51.0487 73.6158L49.4862 72.5704L46.6057 76.8756L50.0964 79.2112L54.8088 77.3829L55.6388 78.6601L52.4135 83.4806L51.234 82.2584ZM71.9881 96.1683L65.6051 91.8976L66.3947 90.7174L68.7802 90.5328L73.607 83.3186L63.228 90.3072L61.4827 89.1394L63.9163 76.6904L58.7559 84.4033L60.2115 86.3638L58.6568 87.2488L54.1022 84.2014L54.8919 83.0212L57.2774 82.8366L63.0495 74.2095L61.6328 72.2269L63.1874 71.3419L68.5066 74.9008L66.364 85.836L75.5878 79.6386L81.0733 83.3088L80.2837 84.489L77.8815 84.6625L71.9426 93.5389L73.5428 95.2833L71.9881 96.1683ZM88.1694 106.971L81.2876 102.366L82.0773 101.186L84.7449 101.479L85.2985 98.8172L80.4447 95.5697L78.6287 96.8092L80.0995 99.6462L78.5449 100.531L72.993 96.8165L73.7826 95.6363L76.695 95.4914L87.3129 88.2535L91.4374 89.7858L88.518 104.148L89.724 106.086L88.1694 106.971ZM86.8755 91.1372L82.1163 94.4021L85.7067 96.8043L86.8755 91.1372ZM109.162 105.783L102.133 116.289L100.387 115.121L98.1631 101.721L94.1371 107.739L96.2793 110.472L94.7246 111.356L89.3389 107.753L90.1286 106.573L92.6031 106.255L98.0304 98.1434L96.8583 95.7951L98.413 94.9102L101.588 97.0344L103.768 110.068L107.639 104.283L105.502 101.578L107.057 100.693L112.442 104.297L111.664 105.46L109.162 105.783ZM110.916 122.19L104.533 117.919L105.323 116.739L107.797 116.421L113.603 107.744L112.041 105.978L113.596 105.093L119.979 109.363L119.189 110.544L116.687 110.867L110.893 119.527L112.471 121.305L110.916 122.19ZM127.096 133.015L120.214 128.411L121.004 127.231L123.672 127.523L124.225 124.862L119.371 121.614L117.555 122.854L119.026 125.691L117.472 126.576L111.92 122.861L112.709 121.681L115.622 121.536L126.24 114.298L130.364 115.83L127.445 130.192L128.651 132.13L127.096 133.015ZM125.802 117.182L121.043 120.447L124.633 122.849L125.802 117.182Z" fill="black"/>
</svg>
