<svg width="144" height="112" viewBox="0 0 144 112" fill="none" xmlns="http://www.w3.org/2000/svg">
<path d="M127.916 79.6616C128.514 78.9947 128.767 77.5757 128.24 75.7886C128.103 75.3235 127.573 74.9896 127.239 74.5871C125.967 72.983 123.968 72.0539 122.431 70.1133C120.897 68.1768 116.216 66.7804 116.161 64.1696C116.099 61.2318 116.014 58.9568 116.9 56.5597C117.837 54.0224 117.542 51.3372 119.038 50.4878C121.73 48.9599 125.024 48.4132 127.978 46.9573C129.767 46.0757 130.657 45.5196 131.332 45.1976C132.003 44.8776 132.106 43.7322 132.627 42.5844C133.21 41.3007 133.248 39.1979 133.971 38.5224C134.756 37.7901 135.789 37.9007 136.363 37.1049C137.594 35.4002 137.334 33.8147 137.933 33.341C138.422 32.954 139.127 32.8672 139.577 32.2716C140.061 31.6289 140.525 31.1739 140.575 30.8758C140.677 30.2701 140.329 29.3925 140.032 28.6436L140.029 28.634C139.781 28.0097 138.984 27.9354 138.559 27.4384C138.122 26.9284 138.186 26.0941 138.035 25.4956C137.855 24.7824 137.191 24.2499 136.294 23.4795C135.401 22.7125 136.488 21.4134 136.714 20.3164C136.804 19.8765 136.887 19.3196 137.013 18.6978C137.214 17.6999 135.995 16.8312 135.818 15.8075C135.779 15.5838 135.744 15.3845 135.645 15.2583C135.192 14.6833 133.954 14.7359 133.329 14.3855C132.806 13.7884 132.109 13.3879 131.511 13.2392C131.361 13.1891 131.511 13.2392 130.767 13.0757C129.79 12.8611 127.079 12.4404 123.948 12.4665C123.139 12.4733 122.842 12.2924 122.568 12.119C121.873 11.6786 121.4 10.9488 120.626 10.7979C119.947 10.6654 119.011 10.3989 118.185 10.2255C117.152 10.0088 115.969 9.85188 115.122 9.77641C114.318 9.70475 113.428 9.55298 112.78 9.22942C111.995 8.83738 111.336 8.80573 110.613 8.60622C109.982 8.43187 109.393 8.20793 108.077 8.03308C106.679 7.84731 105.655 7.95835 105.381 7.80965C104.655 7.41456 103.914 6.41752 103.289 6.01625C102.494 5.5057 101.224 4.97085 100.574 4.72052C99.9505 4.47999 98.7877 4.12197 97.6116 3.94861C96.736 3.81955 95.5985 3.3269 94.5478 3.10123C93.569 2.89099 92.8546 3.02501 91.9078 3.34857C91.0185 3.6525 90.3139 3.92171 89.6399 4.12122C88.9064 4.33834 88.5175 4.86623 87.8473 5.68746C86.972 6.75984 86.5747 7.25743 85.8543 8.10407C85.3329 8.71694 84.8829 9.2511 84.7058 11.4114C84.6541 12.0421 84.4331 12.3402 84.1103 12.6877C83.4043 13.4476 82.6491 13.4861 80.7089 13.5851L80.6781 13.5866C79.6278 13.6402 79.0544 14.8794 78.7779 15.5272C78.4437 16.3103 78.5044 16.9717 78.0822 17.5456C77.4655 18.3838 76.2148 18.1195 75.3196 18.4184C73.7589 18.9395 72.2843 18.3197 71.3323 18.6418C70.6699 18.8659 70.6343 19.8112 70.2114 20.5084C69.1533 22.2526 66.6052 22.7494 64.959 23.3248C64.0141 23.6551 62.8689 23.2516 61.5702 23.4997C60.3586 23.7311 59.4764 24.495 58.8532 24.6459C58.0925 24.8302 57.6815 25.0943 57.408 25.317C56.5508 26.015 56.6847 27.1343 56.4605 27.8815C56.2134 28.7052 54.8494 29.3252 53.946 29.6772C53.371 29.9012 52.6525 29.926 50.9608 30.1988C50.2378 30.3153 50.5572 31.4698 50.3092 31.7433C49.7474 32.3626 48.4709 32.2186 47.6691 32.0945C47.5186 32.0712 47.371 32.0691 47.2454 32.1431C46.6914 32.4696 46.0797 34.2481 45.13 35.4288C44.0596 36.7594 42.3435 36.5496 38.7148 36.8754C37.2134 37.0102 36.3117 37.1504 35.814 37.2244C35.0638 37.3359 34.5691 38.343 34.0684 38.9416C33.5802 39.5252 33.0746 40.3845 32.3258 41.1579C31.876 41.7819 30.9072 42.235 30.4323 43.0014C29.7666 44.0757 30.3818 43.1255 29.7855 44.2202C29.3547 45.011 28.7887 45.6661 28.6624 46.7609C28.5797 47.4776 28.2895 48.0573 28.0653 48.6559C27.794 49.3804 27.1447 50.0002 26.597 50.5741C26.1265 51.0671 25.4021 51.0971 24.7789 51.2481C23.9898 51.4392 23.2112 51.7936 22.5865 52.2681C22.041 52.6824 21.8153 53.5362 21.5142 54.3096C21.2704 54.9355 20.9664 55.5298 21.2878 56.8465C21.541 57.8843 21.2653 58.6698 21.0419 58.9926C20.54 59.7177 19.8217 60.0133 19.0505 60.6119C18.1467 61.3134 17.1824 62.4554 16.5091 63.1271C16.0111 63.6241 15.7865 64.3474 15.3875 65.07C14.9681 65.8293 14.0439 66.4397 13.0987 67.5837C11.928 69.0005 10.7052 69.877 10.1328 70.3269C9.4833 70.8373 8.81317 71.1235 7.99269 71.4971C6.17557 72.3245 5.52527 72.8182 4.87741 73.3884C3.57041 74.5386 4.02778 75.5561 3.73038 76.2787C3.45814 76.9402 3.1819 77.499 3.10642 78.5937C3.03245 78.9935 2.98163 79.3432 3.00629 79.7161C3.03095 79.8917 3.08027 80.0396 3.13108 80.1921C5.2666 83.5757 5.95564 84.2095 6.29208 84.4758C7.83007 85.2788 8.62309 86.6126 9.83066 87.746C10.6297 88.0785 13.9205 87.7174 18.3897 88.2787C22.1206 88.7473 27.4283 89.331 31.5988 89.6805C34.801 89.9489 36.8736 90.7467 38.7361 91.0163C41.4897 91.4148 45.1696 91.1122 46.408 92.6884C46.6724 93.0249 46.6187 93.4437 46.8085 93.8239C47.6096 95.428 48.905 98.2614 51.4185 98.9606C53.0887 99.4252 54.9985 99.3155 58.3635 99.8938C60.298 100.226 62.5322 100.116 64.6356 98.6862C66.3058 97.5507 67.9525 95.5487 70.0446 95.5521C72.4497 95.5561 74.8562 95.9249 76.3168 97.1602C78.057 98.6321 80.1329 99.7587 81.5235 101.434C82.8552 103.038 83.7757 105.063 85.5287 105.435C87.4051 105.833 89.9003 105.312 94.5464 106.302C96.7452 106.771 98.2676 107.927 100.282 108.17C101.952 108.373 103.528 108.508 105.154 108.303C106.758 108.1 108.303 107.46 109.96 106.699C111.564 105.962 113.932 105.169 114.564 102.689C115.025 100.883 112.267 92.9379 114.63 89.4062C115.165 88.6071 116.847 86.8208 118.437 85.0005C119.839 83.3964 121.129 81.9492 122.777 81.3998C124.381 80.8651 126.714 80.9994 127.916 79.6616Z" fill="#587956" stroke="black" stroke-width="6" stroke-linecap="round"/>
<path d="M54.823 75.5704L47.6728 79.7456L46.9567 78.5193L48.3867 76.2484L46.2352 74.5866L41.192 77.5314L41.5126 79.7065L44.7071 79.6245L44.823 81.4096L39.0545 84.778L38.3384 83.5517L39.4818 80.8692L37.6162 68.1552L40.7979 65.1162L52.4369 74.0224L54.7071 73.7853L54.823 75.5704ZM40.0182 69.8097L40.873 75.5175L44.6035 73.3391L40.0182 69.8097ZM69.8551 66.7928L65.7792 69.1729L59.3105 65.0756L58.3431 65.0847L58.2561 63.7459L58.9643 63.3324C59.4824 63.0298 59.7836 62.6069 59.8678 62.0637C59.9453 61.5089 59.7857 60.8918 59.389 60.2125C58.952 59.4641 58.4066 58.9797 57.753 58.7592C57.1041 58.5205 56.4054 58.6197 55.657 59.0567C55.2079 59.3189 54.865 59.6967 54.6281 60.1901L60.2556 69.8274L62.5443 69.1858L62.6603 70.9709L56.0281 74.8435L55.3121 73.6173L56.1086 71.253L50.8442 62.2375L48.5728 62.8691L48.4568 61.084L51.842 59.1073C52.8092 58.5425 53.7447 57.95 54.6485 57.3296C55.3124 56.8801 55.8056 56.5613 56.128 56.373C57.0722 55.8217 58.0011 55.4954 58.9147 55.3943C59.8331 55.2749 60.6552 55.3738 61.3809 55.6912C62.1066 56.0086 62.6712 56.5127 63.0746 57.2035C63.5318 57.9865 63.6099 58.9136 63.309 59.9848C63.0197 61.0493 62.4735 62.0707 61.6706 63.049L63.4498 62.566L67.6648 65.2231L69.7392 65.0077L69.8551 66.7928ZM86.1439 57.2815L78.9936 61.4566L78.2776 60.2304L79.7076 57.9595L77.556 56.2976L72.5129 59.2425L72.8334 61.4176L76.0279 61.3356L76.1439 63.1207L70.3753 66.4891L69.6593 65.2628L70.8026 62.5803L68.937 49.8663L72.1187 46.8272L83.7577 55.7335L86.0279 55.4964L86.1439 57.2815ZM71.339 51.5208L72.1938 57.2286L75.9244 55.0502L71.339 51.5208ZM93.3881 43.1389C94.3891 43.0022 95.2922 43.1078 96.0976 43.4559C96.9078 43.7857 97.528 44.319 97.9583 45.0559C98.3819 45.7813 98.4538 46.658 98.174 47.686C97.8875 48.7026 97.3658 49.6865 96.609 50.638C95.8636 51.5827 95.0477 52.3139 94.1611 52.8316C93.5854 53.1678 93.0044 53.4684 92.4181 53.7336C91.4634 54.2139 90.7327 54.6019 90.2261 54.8978L87.3418 56.582L86.6257 55.3557L87.5029 53.1297L82.1176 43.9069L79.8763 44.5902L79.7604 42.8051L82.282 41.3327C83.3298 40.7209 84.3401 40.0846 85.313 39.4239C86.0691 38.9206 86.6313 38.5614 86.9998 38.3463C87.9094 37.8152 88.797 37.4976 89.6627 37.3935C90.5283 37.2895 91.2967 37.389 91.9677 37.692C92.6435 37.9767 93.1662 38.4357 93.536 39.069C93.8588 39.6217 93.9987 40.2579 93.9558 40.9778C93.9177 41.6794 93.7318 42.4055 93.3982 43.1562L93.3881 43.1389ZM90.2321 42.2952C89.7749 41.5123 89.2391 40.9914 88.6247 40.7325C88.0152 40.4554 87.3765 40.5118 86.7087 40.9018C86.3517 41.1102 86.0481 41.357 85.7977 41.6421L88.3089 45.9427L89.9151 45.0048C90.8592 44.4534 90.9649 43.5503 90.2321 42.2952ZM93.495 50.5803C94.0707 50.2442 94.4324 49.8323 94.58 49.3446C94.7391 48.8503 94.6606 48.3325 94.3446 47.7914C93.921 47.066 93.3848 46.5839 92.7359 46.3453C92.0803 46.095 91.3706 46.1621 90.6068 46.5463L90.2786 46.7379L89.156 47.3934L91.4655 51.3485C92.1324 51.2216 92.8114 50.9564 93.5022 50.553L93.495 50.5803ZM107.788 44.6431L101.156 48.5157L100.44 47.2894L101.236 44.9252L95.9718 35.9097L93.7004 36.5412L93.5844 34.7561L100.217 30.8835L100.933 32.1098L100.129 34.5013L105.383 43.4996L107.672 42.858L107.788 44.6431ZM124.599 34.8266L117.449 39.0018L116.733 37.7755L118.163 35.5046L116.011 33.8427L110.968 36.7876L111.289 38.9627L114.483 38.8807L114.599 40.6658L108.831 44.0342L108.115 42.8079L109.258 40.1254L107.392 27.4114L110.574 24.3724L122.213 33.2786L124.483 33.0415L124.599 34.8266ZM109.794 29.0659L110.649 34.7737L114.38 32.5953L109.794 29.0659Z" fill="black"/>
</svg>
