<svg width="112" height="156" viewBox="0 0 112 156" fill="none" xmlns="http://www.w3.org/2000/svg">
<path d="M54.0027 19.5026C54.0513 13.419 54.4508 3.27385 52.8604 3.23163C46.0215 3.05008 41.4546 2.74338 40.2585 3.40364C38.7478 4.23749 39.1576 7.1522 38.4047 8.12209C37.5581 9.21264 36.9558 13.1277 36.2426 15.4869C35.6432 17.4699 33.5208 20.4687 29.5076 23.5953C26.7813 25.7194 24.6873 28.2331 24.3777 29.7732C23.6897 33.1956 24.772 35.0183 24.9493 36.8324C25.1495 38.8806 26.0052 40.0517 26.4048 41.5509C26.8108 43.0742 26.7131 50.4473 26.4048 50.9752C25.2694 52.9195 17.29 50.5359 15.7868 50.9752C14.5029 51.3504 17.2868 57.9752 13.7868 57.9752C12.2668 57.9752 6.78684 60.9752 3.28684 61.9752C2.03203 62.3337 5.32631 68.2865 4.78645 70.9752C3.98329 74.9752 4.28079 77.0373 5.03025 77.8543C5.4353 78.2959 10.5982 76.6595 13.8118 78.8127C14.3618 79.1812 14.9721 79.4426 15.0623 79.9581C15.1719 80.5845 15.217 81.1893 15.4319 81.617C15.5437 81.8395 15.6793 82.1608 16.252 82.1682C18.939 82.2025 20.0978 80.4485 21.9647 81.5052C22.5512 81.8372 22.9623 81.9082 23.3646 82.094C24.2511 82.5035 25.5661 82.6732 25.9454 83.4984C26.1656 83.9776 26.2711 84.516 26.4987 84.9371C26.9779 85.8235 27.1436 86.8043 28.0127 87.8155C28.8991 88.847 29.6961 89.5616 30.0025 90.5081C30.3732 91.6535 31.0501 92.8384 31.4788 93.827C31.8473 94.6769 31.9588 95.7852 32.4372 96.6679C32.9584 97.6296 33.7429 98.8486 34.2444 101.06C34.5033 102.202 34.6312 105.752 34.2798 108.548C34.1315 109.728 33.8388 110.612 33.3568 111.497C32.8743 112.384 32.2267 113.234 31.7698 114.153C31.3294 115.04 31.0244 115.928 31.1457 117.401C31.3294 119.635 31.1726 122.673 31.626 123.45C32.1439 124.336 32.4335 125.618 33.3989 126.03C33.9146 126.25 36.2921 125.789 39.3096 126.361C41.0726 126.695 41.8473 127.531 42.8798 127.837C44.251 128.245 45.8154 128.833 47.011 129.166C47.934 129.422 48.8008 129.651 49.8884 129.828C51.0371 130.015 52.8469 130.633 53.391 131.675C53.8348 132.525 54.3621 133.57 55.0887 134.295C55.9021 135.106 56.7104 135.743 57.4503 136.36C57.8919 136.729 60.5184 136.329 63.9908 137.061C65.5656 137.393 66.8569 137.907 68.1884 138.833C69.4036 139.679 69.8797 140.754 71.7663 141.451C73.1663 141.968 74.1816 142.282 74.9359 142.815C75.8223 143.442 76.8143 144.033 77.4082 145.366C78.3278 147.43 78.1697 148.602 78.7705 149.715C79.2884 150.675 79.4643 151.743 80.0996 152.369C80.249 152.516 80.4712 152.625 80.6906 152.588C81.1322 152.514 82.4288 152.711 82.5697 151.809C82.6793 151.109 82.5966 150.229 82.977 150.116C83.3455 150.006 83.706 148.972 84.9004 148.973C86.8891 148.975 87.9707 148.766 88.88 148.197C89.7665 147.643 90.5588 146.923 91.536 146.759C92.4225 146.611 93.4164 146.347 94.4134 146.095C95.2999 145.872 96.2093 145.457 98.7328 145.839C99.9479 146.022 100.831 146.319 101.717 146.503C102.604 146.686 103.733 146.875 104.78 146.39C105.258 146.169 105.655 145.814 105.922 145.355C106.437 144.469 107.048 143.545 107.138 142.101C107.323 139.152 109.947 136.271 108.02 133.843C107.318 132.959 106.794 131.901 106.361 130.968C105.915 130.007 105.144 128.849 104.552 127.719C103.702 126.098 102.52 125.578 102.007 124.55C101.787 124.108 101.858 122.975 101.677 121.521C101.493 120.046 101.796 118.488 100.974 118.244C100.605 118.134 99.9348 118.301 99.7188 117.874C99.0581 116.567 99.0681 114.267 98.3543 113.336C97.7301 112.521 97.6414 111.467 97.2487 110.605C96.8448 109.719 95.71 108.749 96.4774 105.434C96.92 103.522 96.6661 103.649 97.1038 100.231C97.3627 98.2095 97.4809 97.3067 98.1385 96.4023C98.9165 95.3321 100.179 94.4273 101.053 93.7484C101.865 93.1187 102.749 92.3293 102.748 91.2363C102.746 89.7234 102.236 88.7387 102.156 87.8078C101.936 85.2657 101.343 81.2463 101.345 79.9437C101.347 77.4039 100.968 76.8325 100.968 75.7311C100.968 74.1946 99.9841 72.6408 98.9005 71.0683C97.0366 69.7963 95.3633 69.3678 94.1921 68.0766C93.7033 67.5378 93.8344 66.6414 93.3587 65.7165C92.3252 63.7069 89.2505 63.9413 88.7946 61.6412C88.5031 60.1704 88.6059 58.7956 88.749 57.7661C89.0979 55.2559 88.815 51.5893 89.5352 49.8687C89.7811 49.2813 90.2583 48.7596 90.9133 48.3979C92.337 47.6117 94.1398 47.0558 94.2951 45.6462C94.3923 44.7643 94.4488 43.8044 93.9963 43.0446C92.9141 41.2278 91.8697 39.5736 90.1594 39.3698C86.8247 38.9722 85.2724 38.1593 84.0317 37.7488C82.4078 37.2114 80.1122 36.5441 77.9953 34.9985C76.7188 34.0665 75.5764 33.3345 74.1188 33.0875C72.3903 32.7945 69.9411 31.7116 67.3373 31.7138C63.8568 31.7168 61.9528 33.1972 59.836 32.3999C59.0542 32.1054 58.4956 31.6472 58.1708 30.9732C57.4847 29.5495 57.6244 28.0277 56.6985 26.4091C56.3069 25.7245 54.4695 26.1593 54.1455 24.9324C53.7569 23.4601 53.9821 22.0919 54.0027 19.5026Z" fill="#587956" stroke="black" stroke-width="6" stroke-linecap="round"/>
<path d="M45.9102 82.4752H39.2862V81.3392L41.1902 80.3472L40.3742 78.3312H35.7022L35.0462 79.9632L37.2862 81.1952L36.6462 82.4752H31.3022V81.3392L33.1742 79.9472L37.0142 70.4112L40.4382 69.5952L44.8862 80.4432L46.5502 81.1952L45.9102 82.4752ZM38.0062 72.5232L36.2942 76.8112H39.7502L38.0062 72.5232ZM59.836 82.4752H56.06L53.244 77.0352L52.572 76.6512L53.052 75.6912H53.708C54.188 75.6912 54.5667 75.5206 54.844 75.1792C55.1213 74.8272 55.26 74.3366 55.26 73.7072C55.26 73.0139 55.0787 72.4592 54.716 72.0432C54.364 71.6166 53.8413 71.4032 53.148 71.4032C52.732 71.4032 52.3427 71.5259 51.98 71.7712V80.6992L53.82 81.1792L53.18 82.4592H47.036V81.3232L48.54 80.0112V71.6592L46.716 71.1792L47.356 69.8992H50.492C51.388 69.8992 52.2733 69.8672 53.148 69.8032C53.788 69.7606 54.2573 69.7392 54.556 69.7392C55.4307 69.7392 56.204 69.8886 56.876 70.1872C57.5587 70.4752 58.0867 70.8752 58.46 71.3872C58.8333 71.8992 59.02 72.4752 59.02 73.1152C59.02 73.8406 58.7 74.5126 58.06 75.1312C57.4307 75.7499 56.6413 76.2352 55.692 76.5872L57.116 76.9712L58.956 80.5072L60.476 81.1952L59.836 82.4752ZM74.9259 82.4752H68.3019V81.3392L70.2059 80.3472L69.3899 78.3312H64.7179L64.0619 79.9632L66.3019 81.1952L65.6619 82.4752H60.3179V81.3392L62.1899 79.9472L66.0299 70.4112L69.4539 69.5952L73.9019 80.4432L75.5659 81.1952L74.9259 82.4752ZM67.0219 72.5232L65.3099 76.8112H68.7659L67.0219 72.5232ZM86.6276 82.4912H76.0516V81.3552L77.5556 80.1712V71.6112L75.7316 71.1792L76.3716 69.8992H82.5156V71.0352L80.9956 72.2192V80.9552H84.2916L86.8356 77.3232L87.9556 77.8032V82.7792L86.6276 82.4912Z" fill="black"/>
</svg>
