<svg width="87" height="134" viewBox="0 0 127 196" fill="none" xmlns="http://www.w3.org/2000/svg">
<path d="M35.3766 3.26807C33.4859 3.85015 33.5907 4.46546 33.2817 5.7113C32.4746 8.96497 32.8795 10.0237 32.4165 11.4539L32.4043 11.4915C31.7015 13.6628 31.6324 15.0054 31.062 16.5043C30.5432 17.8676 29.9769 19.0356 29.3058 20.2772C28.9869 20.867 28.9415 22.2349 29.0438 23.9384C29.1058 24.9705 29.8684 25.3443 30.3335 25.7551C31.8801 27.1213 29.8715 30.0906 29.3569 31.4376C28.9076 32.6135 28.7369 33.9161 28.1169 35.1577C27.5545 36.2839 27.7015 39.8869 27.4441 42.3391C27.2747 43.9535 26.7714 48.8648 27.0287 52.3602C27.2002 54.6888 27.5961 55.9269 28.0099 57.1684C28.4238 58.41 28.6315 62.3069 28.1169 65.2272C27.9726 66.0459 27.5 68.4172 26.5715 71.3111C26.0498 72.937 24.1921 73.5975 23.3644 74.8391C22.5367 76.0807 21.9167 77.3176 21.2455 79.125C20.6187 80.8127 20.0566 82.2778 19.387 83.9301C18.3561 86.474 16.2373 86.7233 14.0176 89.7118C12.6108 91.6059 11.8909 93.4351 12.0444 94.8813C12.1952 96.3031 13.6456 97.3629 14.0083 98.9672C14.4411 100.882 16.4357 102.844 16.5922 103.464C17.0481 105.269 14.1664 108.009 13.7014 109.353C13.0647 111.193 12.5171 113.477 11.8925 115.398C11.4807 116.664 11.3763 117.929 10.7563 120.144C9.99571 122.861 10.4463 126.085 10.1362 128.612C9.4964 133.827 7.47461 138.965 7.34186 141.093C7.19536 143.441 6.57455 145.387 6.88149 148.077C7.45191 153.078 8.55545 155.867 7.49686 157.311C6.50948 158.658 5.0287 160.076 4.0852 161.706C3.51788 162.685 3.45279 167.631 3.10556 174.859C2.80175 181.184 3.18189 182.538 3.88524 183.662C4.66182 184.904 4.97461 184.465 4.97461 185.465C4.97461 191.984 5.97461 190.965 10.9746 192.465C17.2076 194.335 19.0337 184.219 19.9746 183.465C23.954 180.275 21.2289 180.331 26.4761 179.131C28.3711 178.698 30.8607 178.695 32.8965 177.521C33.9206 176.93 35.0314 176.114 35.2204 174.588C35.6537 171.092 30.2328 166.468 33.3254 163.949C40.7305 157.918 59.6639 154.565 62.6526 150.237C63.9612 148.342 65.5125 146.365 67.0292 144.548C70.7011 140.149 76.6671 135.84 81.3493 133.458C89.9404 129.085 93.0322 125.917 96.9385 124.569C100.742 123.256 116.96 115.465 116.96 111.722C116.96 111.317 117.161 109.589 116.727 108.304C116.385 107.29 115.354 106.961 114.581 106.626C113.761 106.27 113.808 105.086 113.407 104.213C112.605 102.47 110.051 103.071 109.917 102.636C109.765 102.141 109.715 101.463 109.649 100.76C109.555 99.7664 108.311 99.3824 107.505 98.7113C106.803 98.1268 105.562 98.175 104.954 97.371C104.255 96.446 104.35 95.4261 103.714 94.7871C102.942 94.0111 101.939 93.4096 100.964 93.143C100.57 93.0352 100.46 92.4719 100.125 92.171C99.3751 91.4976 100.125 88.6682 101.025 87.0936C102.167 85.0971 103.073 84.459 103.362 83.1329C103.651 80.0737 99.7079 76.2737 101.025 72.7681C102.92 69.2625 101.573 65.7681 101.573 61.7681C101.573 60.557 99.3594 59.9125 99.0733 58.7681C98.5733 56.7681 98.5733 56.7681 98.5733 55.2681C98.5733 54.4387 99.2803 54.5199 100.014 53.6699C103.669 49.4378 102.255 39.9294 106.877 37.3367C109.209 36.0281 111.829 35.0943 114.024 34.5707L115.975 33.965C119.595 33.1013 121.581 32.7679 123.35 29.7477C123.783 29.0081 124.111 27.6923 123.486 26.8286L123.448 26.7759C120.812 23.1363 117.65 18.7709 114.142 18.0886C110.339 17.349 106.444 14.9764 102.763 14.2898C94.1978 12.6923 78.7462 13.8946 76.8011 10.6397C75.9301 9.18233 75.0889 4.98779 71.2516 4.37688C70.3719 4.23683 69.4811 4.46113 68.6257 4.81891C65.12 6.28506 61.5395 10.0026 57.3911 9.04228C55.5004 8.60462 53.5435 7.40613 51.2639 6.85401C47.6139 5.96994 39.7112 1.93357 35.3766 3.26807Z" fill="#87AD6A" stroke="black" stroke-width="6" stroke-linecap="round"/>
<path d="M77.044 38.9125L72.4542 37.0114L72.7802 36.2242L74.3843 36.0833L74.3975 34.4522L71.1602 33.1113L70.2372 34.0538L71.4358 35.5504L70.6249 36.2536L66.922 34.7198L67.2481 33.9327L68.9447 33.5055L74.3424 28L76.9492 28.4173L76.9177 37.2106L77.8549 38.2093L77.044 38.9125ZM74.4236 29.7481L72.0067 32.228L74.4014 33.2199L74.4236 29.7481Z" fill="black"/>
<path d="M70.9005 52.6037L68.284 51.5199L67.8942 46.9422L67.5387 46.4833L68.1469 45.9559L68.6014 46.1441C68.934 46.2819 69.2454 46.2723 69.5355 46.1154C69.8287 45.9511 70.0656 45.6509 70.2462 45.2149C70.4452 44.7344 70.4788 44.2981 70.3469 43.9057C70.2254 43.5091 69.9245 43.2112 69.4441 43.0122C69.1558 42.8928 68.8509 42.8661 68.5292 42.932L65.9667 49.1183L67.1039 49.979L66.2931 50.6822L62.0358 48.9188L62.3619 48.1317L63.7806 47.6542L66.1777 41.8671L65.0516 41.0109L65.8624 40.3077L68.0354 41.2078C68.6562 41.4649 69.2789 41.6969 69.9033 41.9036C70.359 42.0577 70.6903 42.1776 70.8973 42.2633C71.5034 42.5144 71.9964 42.8398 72.3763 43.2396C72.7666 43.6351 73.0177 44.0638 73.1294 44.5257C73.2412 44.9877 73.2052 45.4404 73.0215 45.8838C72.8133 46.3864 72.3987 46.7602 71.7777 47.0052C71.164 47.2532 70.4778 47.363 69.719 47.3344L70.5955 48.0092L70.8555 50.9874L71.7113 51.9004L70.9005 52.6037Z" fill="black"/>
<path d="M65.5163 64.1935L65.4942 65.0935L62.9354 65.5013C62.5008 65.4425 62.0963 65.3529 61.7219 65.2325C61.3549 65.1151 60.9644 64.9707 60.5505 64.7992C59.6192 64.4135 58.8732 63.8837 58.3124 63.2098C57.7516 62.5359 57.4079 61.7873 57.2813 60.9642C57.1651 60.1368 57.2815 59.3018 57.6305 58.4592C57.9887 57.5944 58.6113 56.9171 59.4982 56.4273C60.3957 55.9331 61.364 55.6544 62.4033 55.5913C63.453 55.5239 64.3695 55.6525 65.153 55.977C65.6408 56.179 66.1869 56.4702 66.7914 56.8505C67.4033 57.2338 67.8348 57.5511 68.0857 57.8022L66.8734 60.7291L65.4543 60.1413C65.4329 59.3358 65.2833 58.6936 65.0054 58.2148C64.7379 57.7317 64.3676 57.3922 63.8946 57.1962C63.4733 57.0217 63.0348 56.9829 62.579 57.0799C62.1336 57.1725 61.7202 57.3866 61.3388 57.7222C60.9647 58.0608 60.6705 58.4888 60.4562 59.0062C60.196 59.6344 60.0585 60.2486 60.0438 60.8486C60.0321 61.4412 60.1689 61.9785 60.4542 62.4604C60.7396 62.9422 61.1852 63.3087 61.7913 63.5597L62.135 63.7021C62.4232 63.8215 62.6517 63.9075 62.8205 63.96L63.6057 62.0642L61.9574 60.9009L62.7683 60.1977L67.5798 62.1907L67.2538 62.9778L65.8194 63.4618L65.5163 64.1935Z" fill="black"/>
<path d="M58.0225 79.7412L50.8051 76.7517L51.1312 75.9645L52.5132 75.5758L54.947 69.6999L53.8255 68.8327L54.6363 68.1295L61.5211 70.9812L62.5239 71.1628L61.284 74.1562L60.3702 74.1673L59.8321 71.5155L57.4041 70.5098L56.2928 73.1928L57.3682 73.6382L58.6505 72.8316L59.4376 73.1576L58.1335 76.3062L57.0629 76.3823L56.8987 74.6777L55.8565 74.246L54.6672 77.1174L56.9953 78.0818L59.5535 76.4528L60.1918 77.1068L58.86 80.3219L58.0225 79.7412Z" fill="black"/>
<path d="M55.9993 86.9172L53.097 93.9239L51.9329 93.4417L49.0508 85.8185L47.3884 89.8318L48.9697 91.1882L48.1589 91.8914L44.5669 90.4036L44.8929 89.6164L46.3116 89.139L48.5526 83.7288L47.5872 82.4846L48.3981 81.7814L50.5156 82.6585L53.329 90.0714L54.927 86.2133L53.3522 84.8726L54.1631 84.1693L57.7551 85.6572L57.4337 86.4333L55.9993 86.9172Z" fill="black"/>
<path d="M50.2031 102.298L49.2893 102.309L48.6324 99.3482L47.8009 99.0038L45.119 105.478L46.27 106.306L45.4591 107.009L41.2019 105.246L41.528 104.458L42.9099 104.07L45.4173 98.0165L44.619 97.6859L42.0609 99.3149L41.4226 98.6609L42.7543 95.4458L43.5919 96.0265L50.532 98.9012L51.5349 99.0828L50.2031 102.298Z" fill="black"/>
<path d="M39.7255 120.87L35.4682 119.107L35.7943 118.319L37.213 117.842L39.6101 112.055L38.484 111.199L39.2949 110.495L43.5521 112.259L43.226 113.046L41.7917 113.53L39.3991 119.306L40.5363 120.167L39.7255 120.87Z" fill="black"/>
<path d="M38.7785 128.492L35.8763 135.498L34.7122 135.016L31.8301 127.393L30.1677 131.406L31.749 132.763L30.9382 133.466L27.3461 131.978L27.6722 131.191L29.0909 130.714L31.3319 125.303L30.3665 124.059L31.1773 123.356L33.2948 124.233L36.1082 131.646L37.7063 127.788L36.1315 126.447L36.9423 125.744L40.5344 127.232L40.2129 128.008L38.7785 128.492Z" fill="black"/>
<path d="M31.122 149.778L26.5322 147.877L26.8582 147.09L28.4623 146.949L28.4755 145.318L25.2382 143.977L24.3152 144.919L25.5137 146.416L24.7029 147.119L21 145.585L21.326 144.798L23.0227 144.371L28.4204 138.866L31.0271 139.283L30.9957 148.076L31.9329 149.075L31.122 149.778ZM28.5016 140.614L26.0846 143.094L28.4793 144.085L28.5016 140.614Z" fill="black"/>
</svg>
