<svg width="236" height="191" viewBox="0 0 236 191" fill="none" xmlns="http://www.w3.org/2000/svg">
<path d="M131.071 37.4187C132.931 37.7261 134.494 37.6697 137.773 37.2598C139.38 37.0355 142.246 36.4841 143.076 36.5897C143.905 36.6953 144.519 36.9002 145.144 36.7915C145.768 36.6828 146.535 36.4401 147.007 35.8569C148.86 33.5653 148.668 32.4741 151.773 30.5906C154.317 29.0474 154.773 25.6904 156.773 23.7598C157.573 22.9873 158.564 19.9493 163.773 18.7912C165.663 18.371 167.639 18.1279 168.957 18.7912C170.807 19.7227 173.912 19.915 174.636 22.8309C174.943 24.0699 174.921 25.4453 174.108 26.4515C173.689 26.97 173.115 27.5054 172.344 27.6904C169.342 28.4108 166.983 28.8525 165.83 30.5906C165.212 31.5221 162.468 40.039 166.361 43.2191C167.497 44.1475 169.189 44.5049 169.668 45.815C169.975 46.6565 169.975 48.091 170.081 49.125C170.186 50.159 170.367 51.0622 172.288 51.0813C181.998 51.1775 185.258 49.5394 188 49.212C192.344 48.6934 196.295 48.8882 196.993 46.3087C197.3 45.1722 197.367 43.859 198.03 42.5795C199.203 40.3148 200.816 38.6658 202.336 37.1782C202.439 37.0567 202.62 36.8824 202.854 36.672C204.141 35.5144 207.02 33.2682 207.273 32.7598C207.583 32.1357 209.72 31.5672 210.773 31.2598C211.826 30.9524 213.087 33.5668 213.773 34.2598C214.695 35.1913 214.476 36.9411 216.773 38.7598C217.295 39.1728 219.236 39.0967 219.773 38.7598C222.26 37.1979 221.343 33.3485 224.734 34.1087C225.246 34.2236 225.109 35.0725 225.352 35.8755C226.289 38.9807 230.146 41.5176 229.174 43.8402C227.73 47.2899 227.864 52.7946 226.898 55.1241C225.867 57.6113 222.213 59.1015 222.762 62.0579C222.973 63.1943 226.234 63.4161 226.802 66.5323C227.109 68.2184 227.541 71.4478 226.687 73.1462C225.445 75.6148 225.464 78.0226 222.445 81.8312C220.477 84.3153 216.426 87.6179 218.943 91.0379C219.471 91.7552 220.594 91.4535 221.324 91.8607C223.383 93.0096 227.019 93.3585 230.224 94.969C230.848 95.2826 231.462 95.6925 231.77 96.742C232.077 97.7915 232.517 99.684 231.655 100.673C228.96 103.766 225.141 103.178 224.103 106.355C223.799 107.287 225.607 108.669 226.386 110.811C226.687 111.64 226.048 112.261 226.178 112.879C226.699 115.366 229.601 119.326 223.992 123.337C222.129 124.669 216.931 123.079 215.822 126.439C215.31 127.992 215.371 129.839 214.369 130.994C213.024 132.544 204.273 134.76 203.773 137.26C203.445 138.901 200.981 140.136 200.773 140.76C200.565 141.384 199.989 141.443 199.253 142.173C195.635 145.175 194.949 148.123 192.841 150.035C190.667 152.007 190.721 155.373 189.012 157.487C188.593 158.006 188.02 158.541 187.248 158.726C184.246 159.447 180.692 160.971 178.349 158.403C177.216 157.161 176.688 153.91 172.856 152.404C171.813 151.994 170.225 151.612 169.863 152.311C168.733 154.491 168.594 157.241 166.957 157.276C162.51 157.372 159.799 156.665 157.545 157.795C156.306 158.416 154.646 159.363 154.76 160.698C154.865 161.937 156.273 166.377 154.235 165.759C153.201 165.446 149.065 163.483 147.273 165.759C147.062 167.225 146.581 168.563 146.479 170.134C146.376 173.96 145.544 177.462 144.193 179.633C143.668 179.94 142.783 180.154 142.122 179.835C139.744 178.686 137.102 175.948 136.85 177.158C136.44 179.127 136.803 182.32 135.288 182.636C133.322 183.045 131.447 180.355 128.978 180.769C127.739 180.977 126.188 180.666 125.358 181.499C124.429 182.431 121.529 184.915 120.914 186.151C119.66 187.393 119.045 187.393 118.104 187.182C115.933 186.561 111.791 186.151 108.59 184.797C107.661 183.66 107.401 181.693 106.099 181.49C104.134 181.182 101.906 181.047 101.243 179.829C100.625 178.692 100.792 174.747 98.2373 174.659C95.4396 174.562 91.1011 177.693 89.1331 174.854C88.6208 174.115 88.6208 172.681 89.0431 171.963C89.4654 171.246 90.5244 171.364 90.695 170.718C91.1049 169.166 90.9123 166.688 91.9402 166.691C92.9742 166.694 95.4161 169.911 98.8801 167.824C100.426 166.893 104.441 162.692 102.283 161.31L100.411 160.061C97.9239 158.615 95.446 157.372 92.757 154.466C91.9248 151.361 92.6117 147.156 90.2698 145.986C87.3541 144.53 82.9682 142.626 80.9576 139.565C80.5477 138.94 80.4605 138.273 80.8644 137.702C82.6219 135.214 87.612 132.246 85.5096 131.808C83.0193 131.29 79.5304 131.852 78.2654 129.526C77.6475 128.389 77.677 126.259 76.5017 126.219C73.704 126.123 68.7729 132.76 63.2729 131.26C61.4837 130.772 57.9735 132.743 57.1445 133.059C55.7006 133.991 54.2412 134.817 52.167 135.124C47.0001 134.805 41.829 135.568 41.8363 133.15C41.8394 132.116 44.5334 130.249 43.6993 127.765C42.8641 125.278 41.8579 122.05 39.4484 120.63C38.9268 120.322 38.312 120.322 38.0046 120.745C37.6972 121.167 37.7899 122.006 37.5916 122.713C36.865 125.303 37.2111 129.576 32.9246 131.094C30.0213 132.122 25.8836 136.879 17.5978 135.742C15.3341 135.432 12.8823 135.344 13.2692 134.392C14.1107 132.32 16.3184 128.206 14.6106 125.281C13.8871 124.042 9.42522 124.892 4.66186 122.583C2.91989 121.738 2.74875 120.051 3.23661 118.646C4.16814 115.963 5.34736 113.25 7.06832 111.305C9.35368 108.722 10.68 107.003 11.0988 105.511C11.8254 102.921 12.6513 100.443 14.0983 94.8604C14.6168 94.3387 15.6457 93.7783 16.2729 93.2598C19.1731 91.7103 20.1181 91.1104 19.7869 90.1995C19.6751 89.8921 19.0603 89.8921 18.7529 88.9419C18.4455 87.9918 17.9903 85.4831 19.079 85.2251C23.8608 84.0918 28.7011 85.7609 31.5988 85.753C32.7352 85.7499 34.2168 88.7729 36.5763 87.9204C39.1628 86.9857 42.3747 86.1753 44.5378 84.1911C45.7767 83.0546 45.8608 81.5819 46.6027 80.5674C48.267 78.2914 51.1425 75.2152 52.7073 71.9756C53.8562 69.5971 57.03 68.6493 58.4021 66.1752C58.812 65.4362 58.4673 63.8647 59.0231 62.9677C60.6875 60.2817 62.5625 56.8861 65.2427 57.1859C67.1026 57.394 69.2911 57.3087 69.683 58.6547C69.9904 59.7104 69.9904 61.7598 70.9406 62.7845C71.8907 63.8091 73.7352 63.8091 74.9741 63.4924C76.213 63.1757 76.7709 62.3955 77.452 62.2535C79.9392 61.7349 82.9108 60.5759 85.4228 58.6298C89.7729 55.2598 93.6141 53.2517 95.1605 53.0406C97.3216 52.4195 98.3587 51.3762 99.0791 50.1373C99.5946 48.8983 100.566 47.3719 99.8958 46.7279C99.5759 46.4205 98.7562 46.4205 98.3463 46.1037C97.9364 45.787 97.9364 45.1722 98.1476 44.5481C98.3587 43.924 98.7007 43.2339 99.5014 42.5794C102.917 39.7879 107.22 40.0885 109.64 38.1329C110.158 37.7137 110.685 37.1152 110.773 36.0525C110.978 33.5715 109.313 32.0032 109.528 30.7831C109.947 28.3984 109.994 23.6971 112.773 23.7598C113.186 23.7691 114.354 24.4524 114.773 24.7598C115.192 25.0672 116.159 25.4137 116.773 25.2598C118.012 24.9493 119.571 24.4142 119.883 22.2844C120.293 19.4929 120.071 15.4343 122.476 14.3291C123.821 13.7112 126.362 16.0099 128.376 14.5371C130.652 12.8728 131.706 9.13271 134.481 7.80526C138.074 6.08641 143.789 4.21002 146.837 3.20947C151.057 1.78138 148.734 7.95381 148.342 9.16841C147.606 11.4445 147.372 14.9932 143.976 16.2015C142.824 16.6114 140.825 16.1304 140.259 16.9281C138.713 19.1079 137.055 21.5858 134.567 22.9303C132.08 24.2748 128.973 25.4247 128.674 28.6406C128.367 31.9506 128.428 34.7208 129.202 35.8724C129.621 36.4965 130.193 37.2736 131.071 37.4187Z" fill="#71A4BD"/>
<path d="M203.773 35.7598C201.915 37.6565 199.585 39.5768 198.03 42.5795C197.367 43.859 197.3 45.1722 196.993 46.3087C196.295 48.8882 192.344 48.6934 188 49.212C185.258 49.5394 181.998 51.1775 172.288 51.0813C170.367 51.0622 170.186 50.159 170.081 49.125C169.975 48.091 169.975 46.6565 169.668 45.815C169.189 44.5049 167.497 44.1475 166.361 43.2191C162.468 40.039 165.212 31.5221 165.83 30.5906C166.983 28.8525 169.342 28.4108 172.344 27.6904C173.115 27.5054 173.689 26.97 174.108 26.4515C174.921 25.4453 174.943 24.0699 174.636 22.8309C173.912 19.915 170.807 19.7227 168.957 18.7912C167.639 18.1279 165.663 18.371 163.773 18.7912C158.564 19.9493 157.573 22.9873 156.773 23.7598C154.773 25.6904 154.317 29.0474 151.773 30.5906C148.668 32.4741 148.86 33.5653 147.007 35.8569C146.535 36.4401 145.768 36.6828 145.144 36.7915C144.519 36.9002 143.905 36.6953 143.076 36.5897C142.246 36.4841 139.38 37.0355 137.773 37.2598C134.494 37.6697 132.931 37.7261 131.071 37.4187C130.193 37.2736 129.621 36.4965 129.202 35.8724C128.428 34.7208 128.367 31.9506 128.674 28.6406C128.973 25.4247 132.08 24.2748 134.567 22.9303C137.055 21.5858 138.713 19.1079 140.259 16.9281C140.825 16.1304 142.824 16.6114 143.976 16.2015C147.372 14.9932 147.606 11.4445 148.342 9.16841C148.734 7.95381 151.057 1.78138 146.837 3.20947C143.789 4.21002 138.074 6.08641 134.481 7.80526C131.706 9.13271 130.652 12.8728 128.376 14.5371C126.362 16.0099 123.821 13.7112 122.476 14.3291C120.071 15.4343 120.293 19.4929 119.883 22.2844C119.571 24.4142 118.012 24.9493 116.773 25.2598C116.159 25.4137 115.192 25.0672 114.773 24.7598C114.354 24.4524 113.186 23.7691 112.773 23.7598C109.994 23.6971 109.947 28.3984 109.528 30.7831C109.313 32.0032 110.978 33.5715 110.773 36.0525C110.685 37.1152 110.158 37.7137 109.64 38.1329C107.22 40.0885 102.917 39.7879 99.5014 42.5794C98.7007 43.2339 98.3587 43.924 98.1476 44.5481C97.9364 45.1722 97.9364 45.787 98.3463 46.1037C98.7562 46.4205 99.5759 46.4205 99.8958 46.7279C100.566 47.3719 99.5946 48.8983 99.0791 50.1373C98.3587 51.3762 97.3216 52.4195 95.1605 53.0406C93.6141 53.2517 89.7729 55.2598 85.4228 58.6298C82.9108 60.5759 79.9392 61.7349 77.452 62.2535C76.7709 62.3955 76.213 63.1757 74.9741 63.4924C73.7352 63.8091 71.8907 63.8091 70.9406 62.7845C69.9904 61.7598 69.9904 59.7104 69.683 58.6547C69.2911 57.3087 67.1026 57.394 65.2427 57.1859C62.5625 56.8861 60.6875 60.2817 59.0231 62.9677C58.4673 63.8647 58.812 65.4362 58.4021 66.1752C57.03 68.6493 53.8562 69.5971 52.7073 71.9756C51.1425 75.2152 48.267 78.2914 46.6027 80.5674C45.8608 81.5819 45.7767 83.0546 44.5378 84.1911C42.3747 86.1753 39.1628 86.9857 36.5763 87.9204C34.2168 88.7729 32.7352 85.7499 31.5988 85.753C28.7011 85.7609 23.8608 84.0917 19.079 85.2251C17.9903 85.4831 18.4455 87.9918 18.7529 88.9419C19.0603 89.8921 19.6751 89.8921 19.7869 90.1995C20.1181 91.1104 19.1731 91.7103 16.2729 93.2598C15.6457 93.7783 14.6169 94.3387 14.0983 94.8604C12.6513 100.443 11.8254 102.921 11.0988 105.511C10.68 107.003 9.35368 108.722 7.06832 111.305C5.34736 113.25 4.16814 115.963 3.23661 118.646C2.74875 120.051 2.91989 121.738 4.66186 122.583C9.42522 124.892 13.8871 124.042 14.6106 125.281C16.3184 128.206 14.1107 132.32 13.2692 134.392C12.8823 135.344 15.3341 135.432 17.5978 135.742C25.8836 136.879 30.0213 132.122 32.9246 131.094C37.2111 129.576 36.865 125.303 37.5916 122.713C37.7899 122.006 37.6972 121.167 38.0046 120.745C38.312 120.322 38.9268 120.322 39.4484 120.63C41.8579 122.05 42.8641 125.278 43.6993 127.765C44.5334 130.249 41.8394 132.116 41.8363 133.15C41.829 135.568 47.0001 134.805 52.167 135.124C54.2412 134.817 55.7006 133.991 57.1445 133.059C57.9735 132.743 61.4837 130.772 63.2729 131.26C68.7729 132.76 73.704 126.123 76.5017 126.219C77.677 126.259 77.6475 128.389 78.2654 129.526C79.5304 131.852 83.0193 131.29 85.5096 131.808C87.612 132.246 82.6219 135.214 80.8644 137.702C80.4605 138.273 80.5477 138.94 80.9576 139.565C82.9682 142.626 87.3541 144.53 90.2698 145.986C92.6117 147.156 91.9248 151.361 92.757 154.466C95.446 157.372 97.9239 158.614 100.411 160.061L102.283 161.31C104.441 162.692 100.426 166.893 98.8801 167.824C95.4161 169.911 92.9742 166.694 91.9402 166.691C90.9123 166.688 91.1049 169.166 90.695 170.718C90.5244 171.364 89.4654 171.246 89.0431 171.963C88.6208 172.681 88.6208 174.115 89.1331 174.854C91.1011 177.693 95.4396 174.562 98.2373 174.659C100.792 174.747 100.625 178.692 101.243 179.829C101.906 181.047 104.134 181.182 106.099 181.49C107.401 181.693 107.661 183.66 108.59 184.797C111.791 186.151 115.933 186.561 118.104 187.182C119.045 187.393 119.66 187.393 120.914 186.151C121.529 184.915 124.429 182.431 125.358 181.499C126.188 180.666 127.739 180.977 128.978 180.769C131.447 180.355 133.322 183.045 135.288 182.636C136.803 182.32 136.44 179.127 136.85 177.158C137.102 175.948 139.744 178.686 142.122 179.835C142.783 180.154 143.668 179.94 144.193 179.633C145.544 177.462 146.376 173.96 146.479 170.134C146.581 168.563 147.062 167.225 147.273 165.759C149.065 163.483 153.201 165.446 154.235 165.759C156.273 166.377 154.865 161.937 154.76 160.698C154.646 159.363 156.306 158.416 157.545 157.795C159.799 156.665 162.51 157.372 166.957 157.276C168.594 157.241 168.733 154.491 169.863 152.311C170.225 151.612 171.813 151.994 172.856 152.404C176.688 153.91 177.216 157.161 178.349 158.403C180.692 160.971 184.246 159.447 187.248 158.726C188.02 158.541 188.593 158.006 189.012 157.487C190.721 155.373 190.667 152.007 192.841 150.035C194.949 148.123 195.635 145.175 199.253 142.173C199.989 141.443 200.565 141.384 200.773 140.76C200.981 140.136 203.445 138.901 203.773 137.26C204.273 134.76 213.024 132.544 214.369 130.994C215.371 129.839 215.31 127.992 215.822 126.439C216.931 123.079 222.129 124.669 223.992 123.337C229.601 119.326 226.699 115.366 226.178 112.879C226.048 112.261 226.687 111.64 226.386 110.811C225.607 108.669 223.799 107.287 224.103 106.355C225.141 103.178 228.96 103.766 231.655 100.673C232.517 99.684 232.077 97.7915 231.77 96.742C231.462 95.6925 230.848 95.2826 230.224 94.969C227.019 93.3585 223.383 93.0096 221.324 91.8607C220.594 91.4535 219.471 91.7552 218.943 91.0379C216.426 87.6179 220.477 84.3153 222.445 81.8312C225.464 78.0226 225.445 75.6148 226.687 73.1462C227.541 71.4478 227.109 68.2184 226.802 66.5323C226.234 63.4161 222.973 63.1943 222.762 62.0579C222.213 59.1015 225.867 57.6113 226.898 55.1241C227.864 52.7946 227.73 47.2899 229.174 43.8402C230.146 41.5176 226.289 38.9807 225.352 35.8755C225.109 35.0725 225.246 34.2236 224.734 34.1087C221.343 33.3485 222.26 37.1979 219.773 38.7598C219.236 39.0967 217.295 39.1728 216.773 38.7598C214.476 36.9411 214.695 35.1913 213.773 34.2598C213.087 33.5668 211.826 30.9524 210.773 31.2598C209.72 31.5672 207.583 32.1357 207.273 32.7598C206.962 33.3839 202.695 36.6263 202.273 37.2598" stroke="black" stroke-width="6" stroke-linecap="round"/>
<path d="M70.1482 108.26H61.8682V106.84L64.2482 105.6L63.2282 103.08H57.3882L56.5682 105.12L59.3682 106.66L58.5682 108.26H51.8882V106.84L54.2282 105.1L59.0282 93.1798L63.3082 92.1598L68.8682 105.72L70.9482 106.66L70.1482 108.26ZM60.2682 95.8198L58.1282 101.18H62.4482L60.2682 95.8198ZM86.6154 95.4398V102.06C86.6154 103.46 86.2554 104.66 85.5354 105.66C84.8287 106.66 83.9487 107.413 82.8954 107.92C81.842 108.413 80.8154 108.66 79.8154 108.66C78.4687 108.66 77.262 108.4 76.1954 107.88C75.142 107.346 74.3154 106.62 73.7154 105.7C73.1287 104.766 72.8354 103.72 72.8354 102.56V94.6798L70.5554 94.1398L71.3554 92.5398H79.0354V93.9598L77.1354 95.4398V102C77.1354 103.253 77.4687 104.233 78.1354 104.94C78.802 105.633 79.8154 105.98 81.1754 105.98C81.6954 105.98 82.2087 105.833 82.7154 105.54C83.2354 105.233 83.662 104.793 83.9954 104.22C84.342 103.646 84.5154 102.973 84.5154 102.2V94.9798L82.0354 94.1398L82.8354 92.5398H88.5154V93.9598L86.6154 95.4398ZM97.5641 105.12C97.5641 104.733 97.4108 104.36 97.1041 104C96.7975 103.64 96.4175 103.306 95.9641 103C95.5108 102.693 94.8841 102.306 94.0841 101.84C93.0975 101.266 92.3041 100.773 91.7041 100.36C91.1041 99.9331 90.5908 99.4398 90.1641 98.8798C89.7375 98.3198 89.5241 97.6998 89.5241 97.0198C89.5241 96.3531 89.8441 95.6398 90.4841 94.8798C91.1375 94.1064 91.9308 93.4598 92.8641 92.9398C93.7975 92.4064 94.6575 92.1398 95.4441 92.1398C96.3908 92.1398 97.4908 92.2398 98.7441 92.4398C100.011 92.6398 100.937 92.8531 101.524 93.0798V97.7598H98.9641C98.4708 96.6931 97.9108 95.8598 97.2841 95.2598C96.6708 94.6464 96.0308 94.3398 95.3641 94.3398C94.9641 94.3398 94.6508 94.4664 94.4241 94.7198C94.1975 94.9731 94.0841 95.2998 94.0841 95.6998C94.0841 96.1264 94.2375 96.5331 94.5441 96.9198C94.8641 97.2931 95.2575 97.6398 95.7241 97.9598C96.2041 98.2664 96.8508 98.6531 97.6641 99.1198C98.6241 99.6664 99.3975 100.146 99.9841 100.56C100.584 100.96 101.091 101.433 101.504 101.98C101.917 102.526 102.124 103.133 102.124 103.8C102.124 104.466 101.777 105.186 101.084 105.96C100.404 106.72 99.5708 107.366 98.5841 107.9C97.5975 108.42 96.6975 108.68 95.8841 108.68C94.8975 108.68 93.7241 108.58 92.3641 108.38C91.0041 108.18 90.0241 107.966 89.4241 107.74V103.06H91.9841C92.5175 104.14 93.1375 104.98 93.8441 105.58C94.5508 106.18 95.2641 106.48 95.9841 106.48C96.4641 106.48 96.8441 106.346 97.1241 106.08C97.4175 105.813 97.5641 105.493 97.5641 105.12ZM119.168 97.9798L117.768 98.5798L114.868 94.4398H113.368V106.12L115.668 106.66L114.868 108.26H107.188V106.84L109.068 105.36V94.4398H107.628L104.728 98.5798L103.328 97.9798V92.1798L104.988 92.5398H117.508L119.168 92.1798V97.9798ZM136.559 108.26H131.839L128.319 101.46L127.479 100.98L128.079 99.7798H128.899C129.499 99.7798 129.973 99.5664 130.319 99.1398C130.666 98.6998 130.839 98.0864 130.839 97.2998C130.839 96.4331 130.613 95.7398 130.159 95.2198C129.719 94.6864 129.066 94.4198 128.199 94.4198C127.679 94.4198 127.193 94.5731 126.739 94.8798V106.04L129.039 106.64L128.239 108.24H120.559V106.82L122.439 105.18V94.7398L120.159 94.1398L120.959 92.5398H124.879C125.999 92.5398 127.106 92.4998 128.199 92.4198C128.999 92.3664 129.586 92.3398 129.959 92.3398C131.053 92.3398 132.019 92.5264 132.859 92.8998C133.713 93.2598 134.373 93.7598 134.839 94.3998C135.306 95.0398 135.539 95.7598 135.539 96.5598C135.539 97.4664 135.139 98.3064 134.339 99.0798C133.553 99.8531 132.566 100.46 131.379 100.9L133.159 101.38L135.459 105.8L137.359 106.66L136.559 108.26ZM155.422 108.26H147.142V106.84L149.522 105.6L148.502 103.08H142.662L141.842 105.12L144.642 106.66L143.842 108.26H137.162V106.84L139.502 105.1L144.302 93.1798L148.582 92.1598L154.142 105.72L156.222 106.66L155.422 108.26ZM145.542 95.8198L143.402 101.18H147.722L145.542 95.8198ZM170.049 108.28H156.829V106.86L158.709 105.38V94.6798L156.429 94.1398L157.229 92.5398H164.909V93.9598L163.009 95.4398V106.36H167.129L170.309 101.82L171.709 102.42V108.64L170.049 108.28ZM180.583 108.26H172.903V106.84L174.783 105.2V94.7598L172.503 94.1598L173.303 92.5598H180.983V93.9798L179.083 95.6398V106.06L181.383 106.66L180.583 108.26ZM200.051 108.26H191.771V106.84L194.151 105.6L193.131 103.08H187.291L186.471 105.12L189.271 106.66L188.471 108.26H181.791V106.84L184.131 105.1L188.931 93.1798L193.211 92.1598L198.771 105.72L200.851 106.66L200.051 108.26ZM190.171 95.8198L188.031 101.18H192.351L190.171 95.8198Z" fill="black"/>
</svg>
