<svg width="86" height="121" viewBox="0 0 86 121" fill="none" xmlns="http://www.w3.org/2000/svg">
<path d="M44.7156 3.40692C46.5725 4.64896 47.6714 4.89053 48.9072 6.3313C49.5407 7.16347 50.9072 8.1839 51.4072 8.8313C53.261 11.2316 54.2483 13.542 56.0927 14.281C56.7076 15.02 56.7076 16.4546 57.341 17.1719C57.9744 17.8892 59.2628 17.7124 60.1356 18.1003C62.9302 19.3424 64.9901 20.754 66.3365 23.4877C66.6439 24.1118 66.8371 24.9147 66.3272 25.2452C63.9363 26.7946 57.9332 25.2873 56.2884 28.0398C55.6705 29.0738 52.7641 29.0738 52.0468 31.2474C51.7394 32.1789 51.8802 33.4565 52.4691 34.7717C53.8136 37.7743 53.6782 42.1709 56.8193 43.6678C59.2041 44.8043 62.3073 44.5696 63.958 46.2575C64.371 46.6798 64.7431 47.5197 64.5728 48.2261C63.9487 50.8158 60.1952 56.3197 62.6135 55.7716C63.545 55.5604 66.1726 55.0406 68.4072 56.8313C69.3294 57.5703 69.749 58.0631 69.6435 59.0971C69.5379 60.1311 69.4183 60.8286 68.9138 61.2645C66.6315 63.2362 63.0954 65.7563 62.6073 68.8223C62.5079 69.4465 62.7205 70.2824 63.132 70.1575C64.166 69.8439 66.9032 68.6911 69.4478 69.8563C70.3701 70.2786 70.3701 71.0984 70.2645 71.825C70.1589 72.5516 69.954 73.1664 69.5348 73.5794C69.1156 73.9924 68.4277 74.1203 67.9822 74.6165C67.0538 75.6505 65.2373 78.5682 66.9606 79.8952C67.8922 80.6125 70.8648 80.9202 71.5127 83.7269C72.2331 86.8475 72.1853 90.7115 73.913 90.8624C77.4311 91.1698 80.7068 91.3833 81.2411 92.8404C81.5485 93.6788 81.5744 94.9117 81.4429 95.8399C80.9274 99.4791 83.6081 102.847 82.6849 106.397C81.9583 109.192 82.1259 111.919 80.8188 114.157C80.0953 115.396 79.052 116.222 77.813 116.635C76.5741 117.048 75.0257 117.675 73.5683 117.147C70.9787 116.209 68.7287 114.331 66.6346 112.067C64.1474 109.378 61.5607 108.328 57.1081 107.211C54.211 106.484 46.0578 108.692 43.9735 105.134C43.6661 104.609 43.6661 103.789 43.5605 103.062C43.4549 102.336 43.2728 101.524 41.4583 101.414C36.3877 101.106 32.3845 101.104 31.2363 100.482C28.538 99.0196 23.5464 98.5272 22.8587 95.7002C22.5513 94.4364 22.8005 92.0972 22.2346 90.8438C20.6882 87.4189 21.3211 82.267 18.9183 80.4013C18.3905 79.9914 17.3658 79.9914 16.5367 79.7803C15.7076 79.5691 14.9054 79.1906 14.7854 77.8986C14.478 74.5885 15.8196 69.0897 13.4347 68.4994C12.1927 68.192 10.064 68.4426 9.81724 67.3567C9.29869 65.0745 9.6846 60.8836 7.22136 60.4261C5.56634 60.1187 3.53858 59.9202 3.09156 58.7649C2.88973 58.2432 3.01771 57.5553 3.51386 57.1099C4.54786 56.1814 7.31336 55.1395 7.96038 52.0361C8.47894 49.5489 8.54535 45.8897 11.3822 44.9006C14.0806 43.9597 15.614 40.2011 18.3159 39.2058C21.123 38.1718 24.5515 37.5691 24.728 35.669C25.0354 32.359 25.0981 29.4125 24.2001 28.754C23.7809 28.4466 23.1661 28.4466 22.542 28.341C21.9179 28.2354 21.0753 27.8787 21.6291 27.2946C25.259 23.466 29.1735 23.3354 31.3605 21.4011C33.9409 19.1188 37.4203 17.9928 37.7695 15.0728C38.4992 8.97128 39.0897 4.3878 41.713 3.29203C42.4489 2.98462 43.7848 2.78433 44.7156 3.40692Z" fill="#71A4BD" stroke="black" stroke-width="6" stroke-linecap="round"/>
<path d="M23.8045 57.8293C24.0365 58.3894 24.1128 58.9296 24.0336 59.45C23.9658 59.9704 23.7508 60.4117 23.3888 60.7737C23.0324 61.1301 22.5346 61.3055 21.8953 61.2998C21.2618 61.2885 20.6112 61.1358 19.9437 60.8416C19.2819 60.5531 18.7332 60.1911 18.2976 59.7555C18.0147 59.4726 17.7517 59.1813 17.5085 58.8815C17.0842 58.4007 16.7476 58.0358 16.4987 57.7869L15.0817 56.3699L15.6841 55.7674L17.1097 55.9371L21.6408 51.406L20.9026 50.2095L21.9208 49.8701L23.1597 51.109C23.6744 51.6238 24.1977 52.1131 24.7294 52.5769C25.1367 52.939 25.4309 53.2105 25.6119 53.3915C26.0588 53.8384 26.3784 54.3051 26.5707 54.7916C26.7631 55.2781 26.8225 55.7391 26.7489 56.1747C26.6867 56.6103 26.5 56.9836 26.1889 57.2948C25.9174 57.5663 25.5695 57.7445 25.1452 57.8293C24.7323 57.9142 24.2825 57.917 23.7961 57.8378L23.8045 57.8293ZM23.813 55.8692C24.1977 55.4846 24.4183 55.0942 24.4749 54.6983C24.5428 54.3023 24.4126 53.9402 24.0846 53.6121C23.9092 53.4368 23.7197 53.2982 23.516 53.1964L21.4032 55.3092L22.1923 56.0983C22.6562 56.5622 23.1964 56.4858 23.813 55.8692ZM19.5025 59.0258C19.7853 59.3086 20.0795 59.4557 20.385 59.467C20.6961 59.484 20.9846 59.3595 21.2505 59.0936C21.6068 58.7373 21.8048 58.3526 21.8444 57.9396C21.8897 57.521 21.7426 57.1194 21.4032 56.7347L21.242 56.5735L20.6904 56.022L18.7473 57.9651C18.9227 58.3328 19.1801 58.6863 19.5195 59.0258L19.5025 59.0258ZM32.8229 60.4329C33.5018 61.1117 33.9571 61.8555 34.1891 62.6645C34.421 63.4734 34.4238 64.2739 34.1976 65.0658C33.9713 65.8578 33.5357 66.5762 32.8908 67.2211C32.229 67.8829 31.4031 68.2789 30.4131 68.409C29.4288 68.5448 28.4558 68.4599 27.4942 68.1545C26.5382 67.8433 25.7773 67.4049 25.2116 66.8392C24.5328 66.1604 24.0746 65.4194 23.837 64.6161C23.6107 63.8128 23.6079 63.0124 23.8285 62.2148C24.0548 61.4228 24.4904 60.7044 25.1353 60.0595C25.7971 59.3976 26.6202 58.9988 27.6045 58.8631C28.6001 58.7273 29.5759 58.815 30.5319 59.1261C31.4936 59.4316 32.2572 59.8672 32.8229 60.4329ZM31.1938 61.0777C30.9109 60.7949 30.5574 60.628 30.1331 60.5771C29.7201 60.5262 29.2817 60.5912 28.8179 60.7723C28.3597 60.9589 27.9326 61.2503 27.5366 61.6462C27.0558 62.1271 26.6881 62.6362 26.4335 63.1736C26.179 63.711 26.0771 64.2427 26.128 64.7688C26.1846 65.3006 26.4222 65.7757 26.8408 66.1944C27.1237 66.4772 27.4715 66.6441 27.8845 66.695C28.3088 66.7459 28.75 66.678 29.2082 66.4913C29.6721 66.3103 30.102 66.0218 30.498 65.6258C30.9845 65.1394 31.355 64.6274 31.6095 64.09C31.8641 63.5526 31.9631 63.0237 31.9065 62.5033C31.8556 61.9772 31.618 61.502 31.1938 61.0777ZM36.9596 78.2478L34.9571 76.2453L36.3487 71.8669L36.196 71.3069L36.9596 71.0523L37.3075 71.4002C37.5621 71.6548 37.8534 71.7651 38.1815 71.7311C38.5153 71.6915 38.849 71.5049 39.1828 71.1711C39.5505 70.8034 39.7485 70.4131 39.7768 70.0001C39.8164 69.5872 39.6523 69.1969 39.2846 68.8292C39.064 68.6086 38.7925 68.4671 38.47 68.4049L33.7352 73.1397L34.4565 74.3701L33.4382 74.7095L30.1799 71.4511L30.7824 70.8487L32.2758 70.9505L36.7051 66.5212L35.9923 65.2993L37.0106 64.9599L38.6737 66.623C39.1488 67.0982 39.6353 67.5507 40.1331 67.9806C40.4952 68.2974 40.7554 68.535 40.9138 68.6934C41.3776 69.1573 41.7086 69.6466 41.9066 70.1614C42.1159 70.6761 42.1837 71.1683 42.1102 71.6378C42.0367 72.1073 41.8302 72.5118 41.4908 72.8512C41.1061 73.2359 40.58 73.4225 39.9125 73.4112C39.2507 73.4056 38.5747 73.2443 37.8845 72.9276L38.4361 73.8864L37.5366 76.7375L37.9779 77.9084L36.9596 78.2478ZM49.451 79.9968L44.0883 85.3595L43.1973 84.4685L43.4519 76.3227L40.3802 79.3943L41.3221 81.2526L40.3038 81.592L37.5546 78.8428L38.1571 78.2403L39.6505 78.3422L43.7913 74.2013L43.3755 72.6825L44.3937 72.3431L46.0144 73.9638L45.7768 81.889L48.7297 78.9361L47.7879 77.0948L48.8061 76.7554L51.5553 79.5046L50.9614 80.0986L49.451 79.9968ZM50.8346 92.1228L45.3107 86.5989L45.9131 85.9964L47.3387 86.1661L51.8359 81.6689L51.1316 80.4386L52.1498 80.0991L57.4192 85.3685L58.2762 85.9201L55.9852 88.2111L55.1366 87.8717L55.6542 85.2158L53.796 83.3575L51.7425 85.4109L52.5656 86.234L54.059 85.9794L54.6615 86.5819L52.2516 88.9917L51.2334 88.6523L51.734 87.0147L50.9364 86.217L48.7387 88.4147L50.5206 90.1966L53.5075 89.6705L53.8469 90.5191L51.3861 92.9798L50.8346 92.1228ZM63.2589 90.8688C63.9377 91.5476 64.3931 92.2915 64.625 93.1005C64.857 93.9094 64.8598 94.7098 64.6335 95.5018C64.4073 96.2938 63.9717 97.0122 63.3268 97.6571C62.6649 98.3189 61.839 98.7149 60.8491 98.845C59.8648 98.9808 58.8918 98.8959 57.9302 98.5904C56.9741 98.2793 56.2133 97.8409 55.6476 97.2752C54.9688 96.5964 54.5106 95.8553 54.273 95.0521C54.0467 94.2488 54.0439 93.4484 54.2645 92.6507C54.4908 91.8588 54.9264 91.1404 55.5712 90.4955C56.2331 89.8336 57.0562 89.4348 58.0405 89.2991C59.0361 89.1633 60.0119 89.251 60.9679 89.5621C61.9296 89.8676 62.6932 90.3031 63.2589 90.8688ZM61.6297 91.5137C61.3469 91.2309 60.9933 91.064 60.5691 91.0131C60.1561 90.9622 59.7177 91.0272 59.2539 91.2082C58.7957 91.3949 58.3686 91.6862 57.9726 92.0822C57.4917 92.5631 57.1241 93.0722 56.8695 93.6096C56.6149 94.147 56.5131 94.6787 56.564 95.2048C56.6206 95.7366 56.8582 96.2117 57.2768 96.6303C57.5596 96.9132 57.9075 97.0801 58.3205 97.131C58.7447 97.1819 59.186 97.114 59.6442 96.9273C60.108 96.7463 60.538 96.4578 60.9339 96.0618C61.4204 95.5753 61.791 95.0634 62.0455 94.526C62.3001 93.9886 62.3991 93.4597 62.3425 92.9392C62.2916 92.4131 62.054 91.938 61.6297 91.5137Z" fill="black"/>
</svg>
