<svg width="251" height="180" viewBox="0 0 251 180" fill="none" xmlns="http://www.w3.org/2000/svg">
<path d="M30.5244 33.99C35.3386 30.782 43.4999 22.5 46 18.9263C51.8428 10.5744 62.9381 9.26524 67.1702 6.78373C69.3083 5.53008 70.8247 4.00463 72.4265 4.00025C74.1725 3.99548 74.9124 7.48836 76.2209 9.82106C79.3605 15.4177 91.8233 11.8737 96.4931 12.749C100.602 13.5191 99.421 20.0315 98.8477 23.5372C98.5506 25.3537 97.968 27.3316 98.4013 29.3711C101.46 32.5835 122.284 34.9293 132.249 37.5421C132.394 38.4218 134.5 38 137.519 40.3344C141.608 43.4964 146.119 45.1442 149.624 46.3128C153.13 47.4813 156.761 49.7693 160.128 48.7855C163.634 47.7614 175.156 44.0892 181.14 49.0919C185.517 52.7507 188.552 60.8344 194.445 60.7554C206.524 60.5934 218.984 55.923 219.203 61.3462C219.339 64.7074 213.629 75.692 217.457 73.2986C220.529 71.3773 223.636 68.4399 225.632 69.364C227.523 70.2394 223.308 82.0033 231.759 87.1678C233.65 88.3233 237.47 84.7977 240.512 87.7456C244.162 91.2818 247.884 101.498 245.598 110.219C245 112.5 242.954 113.13 240.924 114.009C237.703 116.928 231.513 118.717 226.472 122.473C221.369 126.277 220.895 132.755 217.728 137.358C216.126 139.686 201.395 135.664 198.336 142.019C198.051 142.61 198.57 143.474 198.484 145.993C198.034 159.276 197.26 166.823 194.826 169.74C193.368 171.486 191.638 172.822 189.565 173.084C183.713 173.824 177.544 172.869 171.494 174.979C170 175.5 170.109 174.953 169.446 174.873C168.55 174.638 167.687 173.852 166.828 172.99C166.829 172.442 167.063 171.904 167.103 171.422C167.142 170.953 165.968 169.001 162.409 166.664C158.184 163.888 155.434 161.684 153.043 160.874C148.539 159.348 145.515 158.32 144.997 157.982C143.86 157.239 141.409 155.749 138.633 155.712C135.774 155.673 132.169 157.184 128.798 157.124C126.456 157.081 122.965 156.872 118.683 157.045C113.75 157.243 111.268 157.452 109.799 157.357C106.711 157.159 105.658 156.244 104.036 155.787C100.282 154.728 99.2717 153.622 98.0511 153.124C96.9907 152.691 95.8489 151.443 94.4443 151.518C92.9137 151.6 88.7382 153.106 87.1967 155.286C86.255 156.618 85.4734 157.556 84.8466 158.694C84.2189 159.834 83.8764 161.607 81.9264 162.819C76.1448 166.413 75.1507 166.937 74.225 167.51C73.0882 168.214 72.2402 168.691 71.4035 169.155C70.2667 169.785 69.7108 171.475 68.5832 171.78C68.153 171.896 67.6516 171.87 67.1713 171.58C65.8746 170.796 63.7147 169.948 61.6448 168.915C60.3916 168.289 58.4339 169.062 57.6113 168.171C56.7049 167.189 53.7015 166.342 51.2559 165.702C48.8706 165.078 47.7259 165.056 47.267 164.134C47.1495 163.897 47.0719 163.665 47.0331 160.95C46.9943 158.236 47.0623 153.19 46.9543 150.551C46.8368 147.676 46.5993 147.124 46.2866 146.498C45.9739 145.873 45.4353 145.5 44.9135 145.09C44.0129 144.382 43.247 143.487 42.996 142.422C42.6822 141.09 42.3948 139.975 41.9768 136.972C41.5865 134.169 41.7766 130.603 41.6641 128.898C41.5065 126.513 41.2232 125.312 40.5649 124.358C39.7807 123.221 39.1654 122.297 37.8998 120.988C36.9546 120.009 35.0464 117.51 33.5089 116.246C32.1769 115.152 31.0272 115.164 30.062 114.76C29.1203 114.366 28.0416 113.861 27.3204 112.877C26.6891 112.015 24.2461 112.289 24.6577 111.389C25.0527 110.525 26.6335 109.31 25.7533 108.056C25.1232 107.158 24.2559 106.314 23.2434 106.101C22.3017 105.902 21.3364 105.291 20.8945 104.413C20.4208 103.471 19.5281 102.618 19.2875 101.395C19.0947 100.414 19.32 99.0116 19.4462 97.5929C19.5649 96.2574 19.7041 94.8475 19.9564 93.8321C20.1903 92.8904 20.8053 91.8635 20.8969 90.7755C21.1308 87.9952 20.5643 83.4224 20.228 82.1148C19.9552 81.0544 19.744 79.7033 18.6973 79.3344C17.3595 78.863 15.9323 78.6462 14.8178 78.3164C13.7574 78.0025 12.6161 77.9933 10.9371 77.5722C9.84026 77.2971 7.40839 76.6727 6.07948 75.4537C5.61041 75.0235 5.13812 73.9113 4.6725 72.2043C3.9998 69.7382 6.07392 62.0908 9.81022 60.3981C13.9999 58.5 20.4296 61.1464 22.0558 57.479C23.9421 53.2249 18.8842 46.2364 22.6379 40.8437C23.9509 38.9574 26.6528 36.5699 30.5244 33.99Z" fill="#87AD6A" stroke="black" stroke-width="8" stroke-linecap="round"/>
<path d="M87.2741 93.44C88.2075 93.8267 88.9341 94.3733 89.4541 95.08C89.9875 95.7733 90.2541 96.5467 90.2541 97.4C90.2541 98.24 89.8741 99.0333 89.1141 99.78C88.3541 100.513 87.4075 101.1 86.2741 101.54C85.1541 101.98 84.0808 102.2 83.0541 102.2C82.3875 102.2 81.7341 102.167 81.0941 102.1C80.0275 102.033 79.2008 102 78.6141 102H75.2741V100.58L77.1541 99.1V88.42L74.8741 87.88L75.6741 86.28H78.5941C79.8075 86.28 81.0008 86.24 82.1741 86.16C83.0808 86.1067 83.7475 86.08 84.1741 86.08C85.2275 86.08 86.1541 86.2533 86.9541 86.6C87.7541 86.9467 88.3675 87.42 88.7941 88.02C89.2341 88.6067 89.4541 89.2667 89.4541 90C89.4541 90.64 89.2541 91.26 88.8541 91.86C88.4675 92.4467 87.9408 92.98 87.2741 93.46V93.44ZM84.9741 91.12C84.9741 90.2133 84.7741 89.4933 84.3741 88.96C83.9875 88.4133 83.4075 88.14 82.6341 88.14C82.2208 88.14 81.8341 88.2 81.4741 88.32V93.3H83.3341C84.4275 93.3 84.9741 92.5733 84.9741 91.12ZM83.6141 99.92C84.2808 99.92 84.8008 99.7467 85.1741 99.4C85.5608 99.0533 85.7541 98.5667 85.7541 97.94C85.7541 97.1 85.5341 96.4133 85.0941 95.88C84.6541 95.3333 84.0075 95.0333 83.1541 94.98H82.7741H81.4741V99.56C82.1141 99.7867 82.8341 99.9 83.6341 99.9L83.6141 99.92ZM107.271 102H102.551L99.0307 95.2L98.1907 94.72L98.7907 93.52H99.6107C100.211 93.52 100.684 93.3067 101.031 92.88C101.377 92.44 101.551 91.8267 101.551 91.04C101.551 90.1733 101.324 89.48 100.871 88.96C100.431 88.4267 99.7774 88.16 98.9107 88.16C98.3907 88.16 97.904 88.3133 97.4507 88.62V99.78L99.7507 100.38L98.9507 101.98H91.2707V100.56L93.1507 98.92V88.48L90.8707 87.88L91.6707 86.28H95.5907C96.7107 86.28 97.8174 86.24 98.9107 86.16C99.7107 86.1067 100.297 86.08 100.671 86.08C101.764 86.08 102.731 86.2667 103.571 86.64C104.424 87 105.084 87.5 105.551 88.14C106.017 88.78 106.251 89.5 106.251 90.3C106.251 91.2067 105.851 92.0467 105.051 92.82C104.264 93.5933 103.277 94.2 102.091 94.64L103.871 95.12L106.171 99.54L108.071 100.4L107.271 102ZM126.133 102H117.853V100.58L120.233 99.34L119.213 96.82H113.373L112.553 98.86L115.353 100.4L114.553 102H107.873V100.58L110.213 98.84L115.013 86.92L119.293 85.9L124.853 99.46L126.933 100.4L126.133 102ZM116.253 89.56L114.113 94.92H118.433L116.253 89.56ZM135.58 98.86C135.58 98.4733 135.427 98.1 135.12 97.74C134.814 97.38 134.434 97.0467 133.98 96.74C133.527 96.4333 132.9 96.0467 132.1 95.58C131.114 95.0067 130.32 94.5133 129.72 94.1C129.12 93.6733 128.607 93.18 128.18 92.62C127.754 92.06 127.54 91.44 127.54 90.76C127.54 90.0933 127.86 89.38 128.5 88.62C129.154 87.8467 129.947 87.2 130.88 86.68C131.814 86.1467 132.674 85.88 133.46 85.88C134.407 85.88 135.507 85.98 136.76 86.18C138.027 86.38 138.954 86.5933 139.54 86.82V91.5H136.98C136.487 90.4333 135.927 89.6 135.3 89C134.687 88.3867 134.047 88.08 133.38 88.08C132.98 88.08 132.667 88.2067 132.44 88.46C132.214 88.7133 132.1 89.04 132.1 89.44C132.1 89.8667 132.254 90.2733 132.56 90.66C132.88 91.0333 133.274 91.38 133.74 91.7C134.22 92.0067 134.867 92.3933 135.68 92.86C136.64 93.4067 137.414 93.8867 138 94.3C138.6 94.7 139.107 95.1733 139.52 95.72C139.934 96.2667 140.14 96.8733 140.14 97.54C140.14 98.2067 139.794 98.9267 139.1 99.7C138.42 100.46 137.587 101.107 136.6 101.64C135.614 102.16 134.714 102.42 133.9 102.42C132.914 102.42 131.74 102.32 130.38 102.12C129.02 101.92 128.04 101.707 127.44 101.48V96.8H130C130.534 97.88 131.154 98.72 131.86 99.32C132.567 99.92 133.28 100.22 134 100.22C134.48 100.22 134.86 100.087 135.14 99.82C135.434 99.5533 135.58 99.2333 135.58 98.86ZM149.224 102H141.544V100.58L143.424 98.94V88.5L141.144 87.9L141.944 86.3H149.624V87.72L147.724 89.38V99.8L150.024 100.4L149.224 102ZM164.452 102.02H151.232V100.6L153.112 99.12V88.42L150.832 87.88L151.632 86.28H159.312V87.7L157.412 89.18V100.1H161.532L164.712 95.56L166.112 96.16V102.38L164.452 102.02Z" fill="black"/>
</svg>
