<svg width="270" height="191" viewBox="0 0 270 191" fill="none" xmlns="http://www.w3.org/2000/svg">
<path d="M243.281 62.12C242.385 62.7467 241.214 64.2783 239.469 64.463C239.183 64.4933 238.902 64.463 238.715 64.3192C238.527 64.1753 238.434 63.8961 238.244 63.8044C237.774 63.8059 237.129 63.8751 236.645 64.2783C235.515 65.2189 234.702 66.5058 233.542 66.7209C232.029 67.0015 230.108 66.9638 228.794 66.436C227.617 65.9636 226.492 65.2133 225.362 64.4602C224.233 63.7071 223.179 62.8685 221.978 61.9683C221.415 61.5466 219.755 60.6597 218.07 61.6002C216.806 62.3053 216.276 63.217 215.726 63.5252C214.547 64.1866 213.042 64.7259 211.824 65.0286C210.694 65.3092 209.55 65.1139 202.787 65.6392C199.773 65.8733 197.139 65.1573 191.319 65.6392C188.491 65.8733 185.115 66.4786 184.231 65.4939C183.809 65.0243 183.884 63.1543 182.582 63.1924C180.797 63.2446 179.541 63.4986 178.777 64.4673C177.886 65.5969 178.333 67.4071 177.32 67.7081C176.851 67.8477 175.672 67.6208 174.687 68.5556C173.745 69.4498 172.75 71.2567 171.538 70.9954C171.303 70.9446 171.116 70.6654 170.832 70.7176C170.547 70.7698 170.157 71.1234 169.844 71.4241C168.764 72.4621 168.596 74.6032 167.492 74.7594C166.505 74.899 165.181 74.7637 164.157 75.277C163.594 75.559 164.731 79.3752 162.935 80.4484C162.466 80.7291 161.666 81.0572 160.726 81.9546C159.643 82.9883 158.833 84.0951 157.386 85.0572C155.976 85.995 154.85 86.3702 153.721 86.7467C152.591 87.1232 151.243 87.1609 150.384 87.9708C149.489 88.8156 148.305 89.4531 146.998 90.1793C145.726 90.8858 143.216 91.516 141.592 90.9747C140.463 90.5981 139.577 89.657 138.347 89.1413C138.015 89.0017 137.511 88.927 137.173 89.1456C136.517 89.5686 135.233 89.4993 134.541 90.5093C133.699 91.7376 133.664 94.0055 132.141 94.2211C131.155 94.3607 130.258 94.3664 129.698 94.7401C128.995 95.2097 128.43 95.7766 128.055 96.3393C127.68 96.902 128.472 98.7175 127.35 99.3009C126.36 99.8157 124.686 100.318 124.531 101.986C124.295 104.52 123.904 106.071 122.695 106.774C121.565 107.431 118.463 108.344 116.772 107.286C115.642 106.579 114.228 104.619 112.209 105.739C110.847 106.495 110.122 108.429 108.874 108.322C108.311 108.274 107.535 107.822 106.336 107.428C106.052 107.335 105.773 107.335 105.633 107.863C105.494 108.39 105.79 109.599 105.35 109.974C104.36 110.816 102.479 113.102 102.313 114.097C101.948 116.288 101.76 117.964 101.912 118.946C102.169 120.603 104.275 120.673 105.016 121.286C105.188 121.428 105.201 121.654 105.324 121.778C105.574 122.033 106.182 122.026 106.857 122.148C108.06 122.365 108.273 123.804 108.612 124.666C109.044 125.761 109.38 126.632 109.749 127.371C110.197 128.266 110.917 128.845 111.408 129.614C112.052 130.623 113.005 130.815 113.743 131.091C114.603 131.491 115.586 131.737 116.231 131.951C116.51 132.045 116.693 132.105 117.25 132.537C117.983 132.843 119.698 133.577 121.301 134.103C122.596 134.529 123.637 133.706 124.53 133.276C125.148 132.978 127.19 132.966 129.893 133.089C132.737 133.218 135.678 133.337 137.221 133.214C138.034 133.148 138.699 132.784 139.159 132.63C139.899 132.382 140.864 133.641 141.657 134.676L141.711 134.746C142.339 135.565 142.386 136.59 143.001 137.328C143.265 137.645 143.797 138.493 144.749 139.415C145.57 140.211 149.973 139.913 152.62 140.249C152.853 140.279 153.019 140.403 153.143 140.526C153.268 140.648 153.329 140.831 153.269 141.047C153.13 141.547 152.655 141.939 152.409 142.398C152.106 142.964 152.956 144.268 153.785 145.62C154.439 146.687 155.6 146.673 156.675 146.919C157.637 147.139 158.366 147.41 159.318 148.084C161.028 149.296 161.87 149.623 162.792 149.869C163.876 150.159 165.005 150.298 168.711 151.463C170.3 151.963 171.091 152.389 172.433 152.573C175.692 153.021 178.281 152.758 179.078 153.125L179.258 153.208L179.258 153.208C181.164 154.087 183.501 155.164 185.745 155.555C187.66 155.889 188.788 155.771 190.021 155.954C190.463 156.02 190.822 156.2 191.129 156.384C192.2 157.024 191.62 159.82 191.776 161.665C191.875 162.841 192.173 164.552 192.605 165.877C192.906 166.803 193.888 168.177 195.061 169.015C195.276 169.169 195.552 169.169 195.677 169.413C196.425 170.871 196.783 172.363 197.765 173.346C198.564 174.147 200.04 174.269 200.534 175.036C200.883 175.578 200.84 176.298 201.331 176.697C202.112 177.333 202.99 177.71 203.79 178.632C203.916 179.123 204.098 179.495 204.405 179.771C204.491 179.877 204.547 179.997 204.655 180.246C204.661 180.991 204.683 181.876 204.775 182.777C204.914 184.144 206.678 184.411 207.264 185.056C207.74 185.579 206.929 186.44 206.653 186.869C206.522 187.073 206.316 187.177 206.07 187.24C204.932 187.53 203.798 186.628 202.843 186.381C201.788 186.109 200.416 186.318 197.718 186.198C196.843 186.159 196.909 184.666 196.664 183.71C196.101 181.505 190.458 183.308 189.781 182.818C188.476 181.874 189.411 179.191 189.135 178.884C188.582 178.268 187.508 178.33 185.974 177.808C184.79 177.405 183.392 176.98 181.491 176.945C177.733 176.876 176.997 177.282 176.075 177.376C175.084 177.476 173.745 177.773 172.725 178.235C171.804 178.652 171.095 179.003 170.697 179.279C170.503 179.414 170.237 179.373 170.021 179.252C169.549 178.987 169.19 178.332 168.7 177.84C167.956 177.095 164.178 177.345 162.305 176.764C161.365 176.473 161.324 175.073 160.738 174.305C160.606 174.131 160.402 174.089 160.216 174.118C160.031 174.148 159.849 174.269 159.663 174.363C159.478 174.456 159.19 174.395 158.739 174.395C156.967 174.395 156.161 175.07 155.392 175.469C154.562 175.9 152.912 176.478 150.939 177.373C149.53 178.011 149.397 179.739 148.784 180.661C148.155 181.606 147.31 181.892 146.511 182.078C145.464 182.32 144.485 181.343 143.591 180.79C142.569 180.157 142.696 179.069 142.575 178.517C142.3 177.269 139.816 177.286 137.755 177.13C137.163 177.085 136.797 176.915 136.43 176.641C135.393 175.866 135.568 174.767 135.444 171.58C135.417 170.891 135.261 170.711 134.895 170.616C133.165 170.173 132.374 171.013 131.269 170.863C129.053 170.561 128.808 168.867 127.367 166.905C126.532 165.767 125.612 165.238 125.06 164.992C124.186 164.604 122.18 164.382 120.451 163.702C119.092 163.167 117.622 162.534 116.792 162.165C116.143 161.876 115.592 161.55 115.194 161.335C114.987 161.223 114.734 161.181 114.609 161.849C114.484 162.518 114.484 163.917 114.362 164.547C114.24 165.177 113.997 164.994 113.75 164.779C112.765 163.886 111.662 162.907 110.706 161.89C110.55 161.673 110.49 161.491 110.058 161.118C109.813 160.382 109.446 159.282 108.892 158.172C108.365 157.113 107.111 157.309 106.189 156.696C105.248 156.069 104.345 155.896 103.331 155.037C102.432 154.275 101.948 153.193 101.179 152.546C100.821 152.244 100.226 152.33 99.7657 151.963C98.3021 150.796 98.6916 147.971 97.5234 147.137C96.3272 146.284 93.1744 146.492 90.6418 146.55C89.8933 146.567 89.0421 147.1 87.9994 147.593C86.4464 148.326 85.5958 146.368 85.2592 146.092C84.7402 145.998 83.8648 145.602 83.1362 145.629C75.8688 145.899 73.6251 146.492 72.2596 146.183C72.0691 146.14 71.8917 146.06 71.7064 146.09C70.7435 146.243 68.7681 147.285 66.9462 147.534C64.7617 147.832 63.2878 148.085 59.9161 148.241C58.6796 148.298 57.4517 148.395 56.1618 148.273C55.6507 148.225 55.4805 147.908 55.3865 147.418C54.9347 145.061 55.5985 143.789 55.8143 142.47C55.8987 141.954 55.8456 141.218 55.7239 140.781C55.2295 139.006 51.1804 140.34 48.8183 140.007C46.2843 139.649 44.6675 140.709 43.1287 140.988C39.691 141.61 35.5694 140.776 34.4593 140.008C33.6497 139.448 32.313 139.909 30.4377 140.188C27.9995 140.552 26.534 140.466 25.1501 140.313C23.8457 140.169 21.9886 139.673 20.2387 138.69C19.202 138.108 17.8084 138.921 15.6638 139.725C11.253 141.378 10.001 137.209 7.08573 137.208C5.2178 137.39 4.86476 138.102 3.86483 137.602C1.75878 136.549 4.15581 130.78 4.20109 129.501C4.33427 127.959 4.42217 127.333 4.46746 126.67C4.96023 125.65 6.38483 125.229 7.35619 124.407C8.51355 123.428 9.64015 122.407 10.2849 121.299C10.9055 120.232 11.5969 119.473 12.3279 118.325C13.0364 117.211 13.231 115.705 14.1032 114.951C15.0821 114.105 16.1714 113.142 16.6324 111.931C17.1225 110.643 17.1433 108.91 18.144 108.383C19.2534 107.798 23.5299 108.268 24.5794 106.338C24.8444 105.851 24.9938 105.186 25.5583 104.784C26.8022 103.898 29.1388 104.497 29.952 103.319C30.3502 102.742 30.5723 101.631 31.417 100.788C32.3959 99.8122 33.9072 99.6463 34.6574 98.5696C34.9663 98.1261 35.4136 97.1493 35.8547 95.7715C36.2103 94.6607 36.7326 93.6367 36.9201 92.4406C37.1852 90.7505 37.0868 89.0869 38.0322 88.3145C38.5197 87.9163 39.089 87.718 39.5865 87.4275C40.1179 87.1172 40.5928 82.4986 40.8264 78.6721C41.0049 75.7487 41.3624 74.6888 42.5178 73.3514C43.6685 72.0196 43.952 70.779 44.8712 69.7542C46.4227 68.0241 47.4279 67.2267 48.1541 66.1156C48.9958 64.8277 50.333 63.295 50.3716 61.7192C50.4129 60.0331 49.6443 58.8092 49.7936 57.4148C49.9707 55.7606 50.1127 53.4441 50.7725 52.3099C51.3931 51.2431 51.8411 50.1372 52.4599 49.0229C53.3483 47.4234 54.2167 46.384 55.0357 45.5628C56.0119 44.5839 56.5665 43.3499 56.8976 42.188C57.2532 40.94 58.0444 39.9483 58.7635 38.9916C59.5652 37.9248 60.2102 36.187 61.9172 35.1746C63.1186 34.462 66.3021 34.9626 67.2432 33.5764C67.9078 32.5975 68.5796 30.4881 69.9522 30.6051C70.4836 30.6503 73.1851 31.7145 74.1235 30.38C74.7481 29.4916 75.2279 27.794 76.4835 27.6737C77.8592 27.5418 79.1319 26.2148 80.6561 25.8091C81.1515 25.6773 82.0068 25.4989 82.474 25.7679C83.714 26.4817 85.2422 28.9627 89.3596 27.406C91.3533 26.6522 92.8833 25.703 94.4139 25.4096C95.7963 25.1446 97.7914 23.7217 99.7878 25.0593C100.583 25.592 100.793 26.5308 101.386 26.6109C102.362 26.7428 103.422 26.8779 104.225 27.0104C105.833 27.2755 107.817 27.1373 109.509 26.6975C110.707 26.3858 112.052 26.1894 113.014 25.0966C113.994 23.9832 114.736 22.2228 115.992 21.8137C116.397 21.6818 117.051 21.5694 117.456 21.7724C118.698 22.3957 119.21 23.6737 120.341 23.9912C120.654 24.0791 121.045 24.1391 121.407 23.8527C122.249 23.1868 122.686 22.4261 123.002 21.9442C123.759 20.7868 123.935 19.0883 125.002 18.3948C125.272 18.219 125.73 18.1646 126.067 18.3096C126.687 18.576 126.85 19.4017 127.354 19.419C128.554 19.4603 129.563 18.8273 130.729 18.2617C131.926 17.681 132.367 15.6856 133.706 15.4648C134.771 15.289 136.097 15.3716 136.096 14.9308C136.095 14.4873 135.816 13.8055 136.097 13.198C136.364 12.6227 136.636 11.8178 137.075 11.8276C137.254 11.8316 137.412 12.1726 137.834 12.2271C138.854 12.359 139.918 12.4434 140.182 12.0007C140.447 11.5572 140.261 10.5154 141.115 9.46892C141.872 8.53931 143.205 7.23948 144.178 7.7442C144.355 7.8361 144.426 8.18202 144.894 8.23165C146.137 8.3635 147.216 8.31203 147.776 8.05052C148.441 7.74021 149.026 7.31989 149.283 6.76131C149.773 5.69452 149.943 3.96402 150.391 3.30255C150.851 2.62236 155.462 3.27892 156.588 3.43922L156.68 3.45233C157.453 3.5617 157.624 5.05116 158.287 6.45716C159.159 8.30705 161.774 7.20034 162.008 7.73462C162.124 7.99809 162.176 8.2689 162.309 8.47177C163.066 9.62011 165.651 9.54636 166.693 9.74621C167.684 9.93609 168.467 10.2815 169.703 10.6832C171.781 11.3583 172.552 11.3501 175.789 11.5881C177.216 11.693 178.506 13.1538 179.282 14.3961C179.924 15.4241 179.719 16.3715 179.818 17.0072C180.187 19.3668 186.144 17.181 186.479 16.7802C187.31 15.7843 188.685 14.5035 189.624 14.2334C190.204 14.0666 190.764 14.4332 191.165 14.5999C191.977 14.938 192.104 15.9698 192.638 17.4742C192.902 18.2177 193.576 18.7818 194.01 19.4507C194.679 20.4824 196.848 20.2561 199.289 20.5594C202.157 20.9156 204.221 20.6598 204.722 21.1248C205.693 22.0283 206.162 23.4015 206.763 24.0372C207.673 24.9989 209.643 24.5424 210.414 25.2103C211.114 25.8162 212.25 26.1493 213.259 26.4174C214.101 26.6411 214.865 27.2861 216.669 27.9228C219.688 28.9889 223.566 29.7647 224.54 29.6C225.619 29.4176 226.977 28.431 228.919 28.0594C233.136 27.2526 235.742 28.6278 238.155 28.1287C241.515 27.4339 244.521 27.2881 246.123 27.488C249.355 27.8912 250.216 28.9613 252.053 29.3961C253.201 29.668 254.034 29.7647 254.435 30.065C255.328 30.734 255.84 31.705 257.178 32.2081C258.757 32.8023 260.861 32.3116 261.965 32.3096C263.541 32.8438 264.344 33.4464 264.845 33.7809C265.081 33.9164 265.28 33.9827 265.887 34.2519C266.675 34.6018 266.865 35.6018 265.575 37.4856C265.074 38.2168 265.412 40.0297 265.547 40.9403C265.844 42.9439 266.353 45.7408 265.424 46.4532C264.645 47.0512 263.688 47.5059 262.678 47.7952C261.536 48.122 259.897 48.2421 259.606 49.0199C259.338 49.737 259.149 51.0988 257.932 52.0351C256.888 52.8381 254.199 52.1489 253.548 53.3466C253.37 53.6743 252.994 54.2376 252.203 54.3896C251.277 54.5677 250.231 54.5531 249.758 55.1666C249.25 55.8246 249.604 58.0305 248.623 58.8067C248.473 58.9258 248.296 58.9866 248.085 59.0448L247.987 59.0718C247.159 59.3001 246.391 59.5118 245.727 60.0009C244.835 60.659 244.217 61.4644 243.281 62.12Z" fill="#F68F58" stroke="black" stroke-width="6" stroke-linecap="round"/>
<path d="M57.3029 97.5379C57.9475 97.1664 58.741 96.8129 59.6834 96.4775C60.6259 96.142 61.3455 95.9488 61.8425 95.8979L63.8559 99.3911L61.8598 100.542C61.0496 100.025 60.2858 99.7453 59.5682 99.7018C58.861 99.6524 58.2059 99.8014 57.6029 100.149C57.0935 100.443 56.7245 100.884 56.496 101.473C56.2719 102.045 56.2058 102.699 56.2979 103.436C56.4003 104.166 56.6613 104.895 57.0808 105.623C57.5542 106.444 58.1134 107.126 58.7584 107.669C59.3974 108.201 60.0885 108.523 60.8316 108.634C61.5748 108.746 62.3206 108.586 63.0692 108.155C64.0569 107.586 65.1984 106.346 66.4936 104.436L67.8761 105.177L66.292 109.061C65.8769 109.494 65.4526 109.863 65.0191 110.168C64.596 110.467 64.1193 110.77 63.5891 111.076C62.3727 111.777 61.1438 112.132 59.9025 112.141C58.6612 112.15 57.514 111.842 56.4608 111.216C55.4017 110.58 54.5305 109.669 53.8474 108.484C53.1463 107.268 52.8838 105.923 53.0599 104.45C53.2404 102.961 53.7317 101.591 54.5337 100.339C55.3402 99.0708 56.2633 98.1371 57.3029 97.5379ZM83.8806 98.9644L77.4243 102.686L76.7861 101.578L78.0846 99.542L76.1567 98.0354L71.6029 100.66L71.8804 102.619L74.7558 102.562L74.8511 104.169L69.6424 107.171L69.0042 106.064L70.0468 103.655L68.4323 92.2035L71.3112 89.4846L81.741 97.5592L83.7853 97.3573L83.8806 98.9644ZM70.5857 93.7047L71.326 98.846L74.6945 96.9044L70.5857 93.7047ZM95.2951 92.4061L84.9868 98.3476L84.3486 97.2404L85.1494 95.2414L80.3405 86.8981L78.32 87.5017L78.2247 85.8946L84.2132 82.4429L84.8514 83.5502L84.035 85.5581L88.9428 94.073L92.1554 92.2213L92.5945 87.2521L93.9559 87.0907L96.7513 91.9408L95.2951 92.4061ZM103.5 87.6561L97.5117 91.1077L96.8735 90.0005L97.6024 87.8768L92.9103 79.7362L90.8628 80.293L90.7675 78.6859L96.756 75.2342L97.3942 76.3415L96.6588 78.4898L101.342 86.6148L103.405 86.049L103.5 87.6561ZM111.556 71.9184L110.734 73.0154L107.011 71.2767L103.673 73.2002L105.849 76.9742L107.361 76.1023L107.574 73.8399L108.681 73.2017L111.414 77.9426L110.526 79.2854L108.137 77.6288L106.702 78.4557L108.851 82.183L112.05 81.0659L112.146 82.673L105.066 86.7539L104.427 85.6466L105.228 83.6477L100.464 75.3823L98.4077 75.9236L98.3124 74.3164L107.997 68.7345L109.129 67.7077L111.556 71.9184ZM117.614 62.7761C118.861 62.057 120.116 61.6869 121.378 61.6658C122.64 61.6448 123.801 61.9523 124.86 62.5884C125.919 63.2244 126.79 64.1351 127.473 65.3203C128.175 66.5367 128.427 67.8873 128.23 69.372C128.043 70.8507 127.542 72.2271 126.725 73.5013C125.902 74.765 124.971 75.6965 123.931 76.2958C122.683 77.0149 121.431 77.3901 120.175 77.4216C118.924 77.4367 117.763 77.1292 116.693 76.4991C115.634 75.863 114.763 74.9524 114.08 73.7671C113.379 72.5507 113.122 71.2032 113.308 69.7245C113.499 68.2294 114.006 66.85 114.829 65.5862C115.646 64.312 116.574 63.3753 117.614 62.7761ZM117.914 65.3872C117.394 65.6868 117.014 66.134 116.775 66.7288C116.541 67.3071 116.465 67.9675 116.546 68.71C116.638 69.4464 116.894 70.1785 117.313 70.9063C117.823 71.79 118.417 72.5208 119.097 73.0988C119.776 73.6767 120.507 74.0312 121.288 74.1623C122.081 74.2873 122.862 74.1281 123.631 73.6847C124.151 73.3851 124.528 72.9461 124.762 72.3677C125.001 71.7729 125.075 71.1073 124.983 70.3709C124.901 69.6285 124.651 68.8934 124.231 68.1656C123.716 67.2715 123.118 66.5355 122.439 65.9575C121.76 65.3795 121.032 65.0302 120.256 64.9096C119.474 64.7785 118.693 64.9377 117.914 65.3872ZM145.031 63.7187L141.35 65.84L135.55 62.1197L134.679 62.123L134.607 60.9176L135.247 60.5491C135.715 60.2794 135.988 59.9004 136.066 59.4119C136.139 58.913 135.998 58.3568 135.645 57.7434C135.255 57.0676 134.767 56.6289 134.18 56.4271C133.597 56.209 132.968 56.2947 132.292 56.6842C131.886 56.9179 131.576 57.2562 131.36 57.6991L136.376 66.4011L138.439 65.8353L138.534 67.4424L132.546 70.894L131.908 69.7868L132.636 67.6631L127.944 59.5225L125.897 60.0793L125.802 58.4722L128.858 56.7104C129.732 56.2071 130.577 55.6785 131.393 55.1247C131.993 54.7236 132.438 54.4391 132.73 54.2713C133.582 53.78 134.42 53.4911 135.242 53.4047C136.07 53.3019 136.809 53.3951 137.461 53.6844C138.112 53.9737 138.618 54.4303 138.977 55.0541C139.385 55.761 139.45 56.5958 139.174 57.5584C138.908 58.5149 138.411 59.4314 137.684 60.3078L139.288 59.8821L143.067 62.2949L144.936 62.1116L145.031 63.7187ZM152.427 46.3046L158.108 56.1606L156.47 57.1044L144.769 53.5646L148.023 59.21L151.082 58.569L151.177 60.1761L146.124 63.0885L145.486 61.9812L146.215 59.8575L141.829 52.2471L139.466 52.2582L139.371 50.651L142.35 48.9342L153.738 52.3635L150.61 46.9365L147.576 47.5841L147.481 45.9769L152.533 43.0646L153.163 44.1563L152.427 46.3046ZM166.368 51.4207L160.379 54.8723L159.741 53.765L160.47 51.6413L155.778 43.5007L153.73 44.0576L153.635 42.4504L159.623 38.9988L160.262 40.106L159.526 42.2543L164.209 50.3794L166.272 49.8135L166.368 51.4207ZM181.547 42.6713L175.091 46.3926L174.453 45.2854L175.751 43.2488L173.823 41.7423L169.27 44.367L169.547 46.3262L172.423 46.2686L172.518 47.8758L167.309 50.878L166.671 49.7707L167.714 47.3623L166.099 35.9104L168.978 33.1915L179.408 41.266L181.452 41.0642L181.547 42.6713ZM168.253 37.4116L168.993 42.5529L172.361 40.6113L168.253 37.4116Z" fill="black"/>
</svg>
