<svg width="246" height="278" viewBox="0 0 246 278" fill="none" xmlns="http://www.w3.org/2000/svg">
<path d="M199.03 146.577C201.87 146.291 205.751 150.023 207.113 146.112C207.5 145 207.78 143.582 207.714 142.694C207.615 141.366 205.915 140.599 205.602 139.956C204.988 138.694 205.069 137.977 204.867 137.31C204.676 136.676 204.757 135.667 204.557 134.712C204.165 132.836 200.629 131.397 199.489 131.215C198.949 131.129 199.066 129.753 198.355 128.971C197.919 128.491 196.891 128.238 195.91 127.947C195.052 127.693 194.574 127.48 194.396 127.149C194.093 126.585 194.483 125.925 194.638 125.592C195.009 124.793 195.816 124.369 196.305 123.835C196.775 123.321 197.105 122.592 197.351 121.371C197.575 120.266 197.462 119.432 197.706 119.099C198.059 118.618 198.44 118.275 198.728 118.12C199.388 117.763 200.173 118.051 200.818 118.362C201.447 118.665 203.802 118.721 205.354 118.386C205.656 118.321 206.307 118.098 207.173 117.853C208.355 117.521 208.978 115.698 209.401 115.185C209.602 114.942 211.102 114.894 213.345 114.762C214.804 114.677 215.691 113.918 216.71 113.233C218.253 112.196 218.895 110.982 219.36 110.915C220.039 110.818 220.63 110.936 221.689 111.025C224.15 111.231 225.922 111.115 226.276 110.806C226.968 110.203 227.168 109.382 227.235 109.027C227.383 108.24 227.036 107.426 226.747 106.848C226.348 106.049 226.102 105.116 225.68 104.601L225.624 104.533C225.194 104.008 224.701 103.405 224.147 102.979C223.074 102.153 223.346 101.068 223.078 100.312C222.712 99.2757 221.79 98.9309 220.902 98.4653C220.441 98.2239 220.144 97.8197 219.833 97.5095C219.51 97.1872 219.52 96.3562 219.344 95.4677C219.075 94.1102 217.388 94.5285 216.633 93.7767C215.682 92.8299 215.519 91.7269 214.856 91.5935C214.335 91.4884 213.402 91.5482 212.859 91.4821C212.317 91.4161 212.185 91.284 212.117 90.6217C212.049 89.9593 212.049 88.7706 212.115 88.1363C212.181 87.5019 212.313 87.4579 212.887 87.4352C214.473 87.3726 215.738 87.3685 216.203 87.2138C218.472 86.4596 218.577 86.4896 219 86C219.068 85.8226 219.089 84.8979 219.5 84C219.588 83.8081 219.413 81.8901 219.5 81C219.636 78.9589 219.499 76.9994 219.111 75.3599C218.368 72.2173 219.767 70.6758 220.313 69.9014C220.795 69.2171 221.539 68.947 222.693 68.5829C226.311 67.4408 226.856 67.3545 227.923 67.3306C229.032 67.3058 229.72 68.1698 230.469 68.6695C230.991 69.0175 232.123 69.0806 233.35 69.0356C234.411 68.9967 235.037 67.7662 235.583 67.2645C236.294 66.6111 236.856 65.811 237.424 65.265C238.002 64.7089 238.039 62.3697 238.22 61.1972C238.309 60.6225 239.354 60.72 239.946 60.3334L239.998 60.2994C240.576 59.9229 241.328 59.4318 242.059 58.8568C242.308 58.6617 242.311 58.3108 242.379 58.0388C242.524 57.4618 242.04 56.8124 241.7 55.9043C241.402 55.11 240.995 54.7208 240.633 54.4257C239.291 53.3334 236.09 53.7692 235.248 53.1529C234.249 52.4219 233.27 52.4466 232.521 52.0621C230.986 51.2744 228.907 51.6749 228.248 51.4929C227.514 51.2902 226.679 51.2659 226.362 51.0171C225.383 50.2509 225.951 48.494 225.747 48.2445C225.328 47.731 224.274 47.8109 223.476 48.0373C223.315 48.0828 223.181 48.0836 223.066 47.9486C222.438 47.2087 222.633 46.3139 222.136 45.5197C221.561 44.5997 220.626 44.3662 220.333 44.2933L220.317 44.2892C219.609 44.1119 218.681 44.5387 218.249 44.8557C216.625 46.047 213.863 44.6764 213.568 44.3819C212.643 43.4593 213.181 41.2692 212.795 40.5643C212.261 39.5903 210.411 38.7686 209.795 37.7938C209.055 36.621 210.089 34.4083 209.704 33.4982C209.296 32.5317 208.365 31.9514 207.796 31.678C207.591 31.4524 207.363 31.2233 207.091 31.087L206.544 31.0407C206.179 30.7653 206.089 30.6303 205.997 30.4933C205.816 30.2213 205.452 29.7209 205.157 29.1298C204.676 28.4911 203.985 27.2055 203.27 27.2681C202.724 27.3158 202.274 27.4997 202.066 27.2892C201.952 27.174 201.847 26.996 201.817 26.7186C201.679 25.4451 201.359 23.0494 199.627 22.8587C198.402 22.7237 197.434 22.7211 197.02 22.8839C196.269 23.1791 193.988 22.7442 192.565 23.2711C192.312 23.3645 191.91 23.5649 191.84 23.9801C191.683 24.9107 191.671 25.6448 191.569 25.9755C191.222 27.1004 190.107 29.0965 189.135 29.6561C188.544 29.9963 187.783 31.1752 186.703 31.2234C185.724 31.267 183.731 30.3208 182.295 29.9268C181.544 29.7209 180.685 29.6178 180.273 28.8333C180.047 28.4024 180.132 27.8982 179.934 27.5155C179.45 26.5795 178.367 25.5901 177.545 24.743C176.818 23.9944 176.264 23.6123 175.888 22.9712C175.501 22.312 175.119 21.5121 174.501 21.5648C174.229 21.588 173.972 21.7729 173.66 21.8607C173.5 21.9057 173.262 21.9181 173.23 21.6275C173.14 20.8095 173.159 20.0301 173.46 19.6982C174.06 19.0367 174.578 18.7564 175.889 16.8264C178.319 14.9329 178.638 14.5217 178.685 14.2474C178.825 13.4086 177.065 13.0422 176.811 12.7887C176.147 12.1262 176.785 11.0986 176.993 10.6596C177.088 10.4596 177.064 10.2665 176.881 10.0116C175.988 8.77094 173.057 8.27707 170.427 7.90198C169.143 7.71886 168.221 7.43797 167.691 7.64427C166.101 8.26211 165.997 9.38014 164.36 11.4119C163.588 12.3695 162.528 12.5782 161.695 12.5553C161.224 12.5423 158.979 12.4393 155.394 12.3934C153.134 12.3645 151.969 12.0239 151.367 11.7009C150.525 11.2486 150.807 8.38544 151.13 6.7232C151.177 6.47676 151.452 6.28489 151.569 6.09804C151.687 5.91118 151.732 5.77365 151.596 5.63403C150.705 4.72563 148.64 4.29827 147.615 3.50362C146.919 2.90068 147 3 146.248 2.50752C146.11 2.41767 146.248 2.0199 145.945 2.0199L143.349 2.36028C142.604 2.36028 141.88 2.36028 141.394 2.31888C140.667 2.19712 135.858 2.11676 132.873 2.3615C131.898 2.76941 130.677 2.79383 129.992 3.62176C129.219 4.55691 128.969 5.85666 128.166 6.42111C127.354 6.99219 125.627 6.89707 125.245 8.17451C125.084 8.71149 125.084 9.67586 125.001 10.2822C124.919 10.8886 124.769 11.2069 124.181 11.2503C121.426 11.4536 119.99 11.5738 119.522 12.5921C119.074 13.5674 118.228 15.9604 116.715 16.1208C115.579 16.2414 113.977 16.5127 113.474 15.6703C113.232 15.2648 113.126 14.3469 112.866 13.274C112.581 12.0965 112.641 10.4987 111.24 10.0704C110.714 9.90965 110.008 10.6914 109.008 10.5173C108.763 10.4746 108.458 10.3359 108.401 10.0679C108.281 9.50052 108.372 8.69347 107.953 8.56903C107.548 8.44848 106.779 8.38905 106.697 7.75199C106.576 6.81928 106.328 6.09113 105.842 5.76724L105.789 5.73207C104.81 5.07874 103.254 4.04062 102.308 4.84062C100.726 6.1788 99.6798 7.15325 98.2912 7.15048C97.0736 7.14804 96.3596 6.16106 95.3287 6.05338C94.1512 5.9304 90.5349 6.99281 89.6082 5.44213C89.3659 5.03666 89.2182 4.18246 88.3078 3.57549C87.8219 3.2516 87.1429 2.94254 86.4399 3.13227C85.3842 3.4172 84.3345 3.65941 83.4786 4.55569C82.7054 5.36542 81.744 5.87801 80.7584 6.25795C79.7003 6.66586 76.9278 6.3864 75.6029 7.51821C74.5083 8.45335 74.7338 10.3033 73.6559 10.5611C72.3068 10.8838 70.3953 10.4156 68.8986 10.4369C65.902 10.4795 64.7116 10.6091 63.7114 10.1106C62.4877 9.50052 59.4408 8.71929 58.1103 9.8719C57.2178 10.6451 54.4076 10.5188 52.7527 11.4134C51.7774 11.9407 50.7525 13.218 49.4626 13.2789C48.6115 13.319 47.8219 13.0349 47.1089 12.5848C46.3394 12.099 46.7493 9.56715 45.0682 9.41772C40.5751 9.01834 39.3438 10.0809 38.18 9.25699C37.492 8.76994 37.1126 8.04343 36.6397 7.4695C35.7045 6.33466 34.8576 5.51863 33.7575 4.83331C32.7822 4.22571 31.8567 3.80593 30.8352 3.37336C29.7778 2.9256 28.4834 2.60429 27.9178 2.60382C26.3263 3.46862 25.4115 4.08776 25.2565 4.6273C24.6932 6.5876 25.3701 7.69622 25.5129 9.27026C25.7161 11.5083 25.4854 13.1507 25.2289 13.5509C23.4597 16.3116 17.5696 15.5621 16.9981 15.9597C15.8198 16.7796 15.1633 18.483 14.8991 19.5416C14.4471 21.3525 17.6815 21.5829 17.7675 22.4401C18.0036 24.7913 18.6539 26.1716 18.7443 27.034C18.8233 27.7879 17.1152 27.9514 16.2219 28.7268C15.4751 29.375 14.7571 29.8447 14.3845 30.534C14.2976 30.707 14.2967 30.6649 14.2967 30.9936L14.7296 33.1838C15.0445 34.1546 16.5 35.5 17.0213 37.1839C17.9309 40.1219 16.9953 43.279 16.9938 44.9741C16.9929 45.9156 16.3938 47.5987 15.2089 49.7393C14.4662 51.0809 13.1766 52.1543 11.2975 53.7867C9.12186 55.6766 7.70301 56.8289 7.66916 57.2764C7.58654 58.3685 8.04372 59.6336 9.02203 60.4598C9.94115 61.2361 11.5247 61.7803 12.4937 63.8187C13.1495 65.1983 12.1512 67.6101 12.8638 68.5779C13.5006 69.4428 14.4199 70.9955 15.7072 71.3017C16.2242 71.4246 17.8937 71.3105 20.6663 70.9866C20.7862 70.8727 20.9055 70.7671 21.0258 70.6773C21.4576 70.4078 22.7757 70.3007 24.4932 70.3559C25.7334 70.6805 26.6364 70.922 27.0029 71.7373C27.3567 72.5246 27.9391 73.9038 28.7098 73.8176C29.196 73.7632 29.8632 73.55 30.2243 73.9004C30.928 74.583 30.7534 75.9281 31.7681 78.5398C32.9832 81.6671 33.6462 82.79 32.9515 83.4804C32.0546 84.3716 29.6768 83.3681 29.1627 85.3253C28.8145 86.6507 28.8491 88.1492 28.2423 88.3211C27.6749 88.4818 26.9334 88.3593 26.7837 88.7277C26.4866 89.459 26.7331 91.3586 23.1986 92.4102C21.12 93.0287 19.1924 92.8457 19.0997 93.4654C18.8571 95.0887 17.2746 97.0649 14.5204 99.6908C13.3881 100.77 12.805 101.547 12.9336 101.931L12.9496 101.979C13.248 102.867 14.9564 107.95 12.9303 108.883C12.5797 109.044 12.0927 109.098 9.17236 109.26L9.38788 111.894C9.24835 114.633 8.96507 116.752 8.57925 118.019C8.20193 119.259 8.40061 120.274 8.61096 121.154C8.73308 121.665 9.66482 121.618 10.5792 121.828C12.3338 122.229 12.0643 125.965 12.3465 128.443C12.6314 130.946 12.6287 132.96 12.7693 134.884C13.0877 139.24 12.912 142.334 12.6668 142.756C11.9771 143.942 10.8001 144.657 9.88468 146.03C9.2878 146.926 9.24835 148.665 9.07077 149.943C9.04116 150.157 9.24412 150.365 9.24624 150.578C9.26064 152.025 7.56133 153.748 6.32672 154.945C5.87561 155.383 5.65445 155.864 5.40816 156.286C4.8681 157.21 5.37117 158.889 5.93245 162.439C6.59306 166.616 6.85101 168.897 6.53601 171.318C6.02332 175.257 5.72421 178.061 5.51386 178.483C4.60348 180.309 3.89132 183.273 3.75074 184.367C3.62715 185.328 5.26921 186.218 6.19205 186.718L6.21362 186.73C6.41051 186.837 6.63537 186.871 6.84784 187.011C8.34769 188.004 7.83404 191.308 8.88579 191.837C10.4571 192.626 11.9226 192.156 12.3444 192.507C13.2779 193.284 13.2629 194.128 13.4733 194.48C13.6833 194.832 14.3876 194.974 14.951 195.396C16.1436 196.288 15.7301 198.707 15.8696 199.236C16.1566 200.323 18.0513 200.468 18.6527 201.385C19.3708 202.479 19.1125 203.5 19.2521 204.062C20.3768 204.982 21.4359 205.193 22.1716 205.299C22.5324 205.324 23 205 23.6 205.47C23.7987 206.004 23.9902 206.198 24.1537 206.395C24.8249 207.098 25.5268 207.663 26.0553 208.758C26.6599 210.278 29.1413 211.489 29.8617 212.772C30.3172 213.584 29.725 216.73 31.0952 217.069C31.518 217.174 32.3987 217.279 33.1036 217.987C33.8435 218.73 33.0074 221.137 34.9756 221.722C36.0315 222.036 37.0624 222.163 37.189 222.673C37.2936 223.095 37.2411 223.527 37.0812 223.942C36.7271 224.86 35.4788 226.652 36.5241 231.826C37.3697 236.012 37.8064 238.623 37.9638 239.164C38.3549 240.509 39.7534 241.856 40.044 243.004C40.321 244.098 39.3648 246.167 40.3622 247.162C40.8199 247.618 43.2063 247.764 43.4265 250.194C43.6358 252.504 43.4668 256.287 44.8725 258.051C45.826 259.248 46.8433 259.914 47.8682 260.939C48.9252 261.996 49.6992 262.863 50.7919 263.226C51.961 263.615 55.1369 262.804 56.1468 264.355C56.6753 265.167 56.7806 266.407 57.6626 266.785C58.6499 267.209 60.3034 266.927 60.4436 267.773C60.6202 268.837 59.4935 274.176 61.4721 274.36C62.551 274.46 63.6252 274.35 64.4613 274.264L64.462 274.264H65.5C67.5527 274.053 69.3062 274.031 70.8765 273.795C72.0403 273.619 73.2362 273.08 75.5317 272.878C77.5368 272.702 78.8413 272.893 79.578 272.278C79.9997 271.926 80.4535 271.542 80.598 271.043C80.9151 269.949 81.5571 269.018 81.654 268.119C81.7607 267.129 81.1231 264.419 82.3284 263.927C83.1032 263.611 84.3699 263.604 84.7585 262.87C85.4942 261.48 85.7882 259.248 86.3419 258.359C86.9782 257.337 87.7878 256.561 88.4211 255.434C88.7371 254.872 89.0264 251.857 88.8407 247.633C88.6653 243.642 89.0106 240.449 89.3005 239.58C89.4411 239.158 93.2428 240.498 94.2707 238.488C94.796 237.46 94.8511 236.144 95.4366 236.094C97.4851 235.917 99.8802 236.036 99.9765 235.03C100.081 233.938 100.025 232.886 100.473 232.603C101.142 232.181 102.709 231.998 103.113 230.877C103.252 230.49 101.543 228.82 103.679 227.175C104.314 226.687 107.062 227.087 107.306 225.271C107.552 223.44 108.74 222.301 108.395 220.794C108.112 219.563 106.787 215.534 107.802 210.275C108.472 206.802 108.408 204.231 108.996 202.438C109.387 201.246 108.814 198.947 110.486 198.073C111.024 197.792 112.004 197.68 112.596 197.583C114.33 197.297 116.609 197.089 119.468 196.631C121.015 196.384 125.533 197.433 127.496 195.784C127.708 195.606 127.809 195.346 128.025 195.22C129.052 194.621 130.735 193.063 132.466 193.78C133.488 194.202 134.327 194.421 135.537 194.377C138.426 194.27 141.079 194.377 141.5 194.377L158.352 185.332C158.286 185.065 159.503 182.739 160.87 179.273C161.533 177.593 164.947 177.155 165.023 175.407C165.089 173.895 165.048 171.697 165.915 171.525C166.247 171.459 166.666 171.524 166.937 171.302C167.403 170.923 168.149 170.251 168.315 167.804C168.427 166.152 169.073 163.07 168.399 161.524C167.221 158.826 166.553 157.963 166.869 157.227C167.003 156.917 167.557 155.45 168.788 153.257C169.808 151.44 170.307 150.34 170.948 150.313C172.571 150.247 173.947 150.168 174.118 150.495C174.34 150.917 174.428 151.539 174.763 151.984C174.963 152.25 175.211 152.549 175.656 152.627C177.056 152.873 177.993 153.721 179.1 153.381C179.321 153.313 179.434 153.185 179.453 152.979C179.497 152.513 178.601 151.692 178.896 151.001C179.511 149.562 181.14 146.996 181.992 146.978C182.969 146.958 183.807 146.452 185.661 147.782C186.124 148.114 185.547 150.006 186.615 150.918C187.553 151.718 189.36 152.505 192.261 152.09C195.526 151.623 197.529 151.176 197.485 150.912C197.462 150.778 197.413 150.647 197.396 150.49C197.329 149.845 196.842 149.008 197.175 147.487C197.243 147.176 197.366 147.027 197.555 146.933C197.954 146.733 198.311 146.65 199.03 146.577Z" fill="#F68F58" stroke="black" stroke-width="6" stroke-linecap="round"/>
</svg>
