<svg width="245" height="270" viewBox="0 0 245 270" fill="none" xmlns="http://www.w3.org/2000/svg">
<path d="M23.4414 42.1048C21.9414 44.1047 16.9414 60.6047 21.4414 61.1047C27.9414 60.6047 28.9414 71.1047 29.118 73.0848C30.9414 79.6047 28.1054 80.234 27.4986 80.4059C26.9313 80.5666 26.1897 80.4441 26.0401 80.8126C25.743 81.5439 25.9894 83.4434 22.455 84.4951C20.3763 85.1135 18.4487 84.9306 18.3561 85.5502C18.1134 87.1735 16.531 89.1497 13.7767 91.7756C12.6445 92.8551 12.0613 93.6316 12.1899 94.0158L12.4414 94.6047C12.7398 95.4925 14.2127 100.034 12.1867 100.968C11.8361 101.129 9.94141 99.6047 8.42871 101.345L8.64423 103.978C8.5047 106.718 8.22141 108.836 7.8356 110.104C7.45828 111.343 7.65696 112.359 7.86731 113.239C7.98942 113.75 8.92117 113.703 9.8355 113.912C11.5902 114.314 11.3206 118.05 11.6029 120.528C11.8878 123.031 11.8851 125.045 12.0257 126.969C12.344 131.325 12.1684 134.419 11.9231 134.84C11.2335 136.027 10.0564 136.742 9.14103 138.115C8.54415 139.011 8.5047 140.75 8.32712 142.028C8.29751 142.241 8.50047 142.45 8.50258 142.663C8.51699 144.11 6.81768 145.833 5.58307 147.03C5.13196 147.468 4.9108 147.949 4.66451 148.37C4.12444 149.295 4.62751 150.974 5.1888 154.523C5.8494 158.701 6.10735 160.982 5.79236 163.402C5.27967 167.342 4.98056 170.146 4.77021 170.568C3.85983 172.393 3.14767 175.357 3.00709 176.452C2.88349 177.413 4.52556 178.303 5.4484 178.803L5.46997 178.815C5.66686 178.922 5.89172 178.956 6.10418 179.096C7.60404 180.089 7.09039 183.393 8.14214 183.922C9.71348 184.711 11.179 184.241 11.6007 184.592C12.5342 185.368 12.5193 186.213 12.7296 186.565C12.9396 186.917 13.644 187.059 14.2074 187.481C15.3999 188.373 14.9864 190.792 15.1259 191.321C15.4129 192.408 17.3076 192.553 17.9091 193.47C18.6272 194.564 18.3689 195.585 18.5084 196.147C19.6331 197.067 20.6922 197.278 21.4279 197.384C21.7887 197.409 22.2563 197.085 22.8564 197.555C23.055 198.089 23.2466 198.283 23.41 198.48C24.0813 199.183 24.7831 199.747 25.3116 200.843C25.9163 202.363 28.3976 203.573 29.118 204.857C29.5736 205.669 28.9813 208.815 30.3516 209.154C30.7744 209.259 31.655 209.364 32.3599 210.071C33.0998 210.815 32.2637 213.222 34.2319 213.807C35.2879 214.121 36.3187 214.248 36.4453 214.758C36.55 215.18 36.4974 215.612 36.3375 216.027C35.9834 216.945 34.7351 218.737 35.7805 223.911C36.6261 228.097 37.0627 230.708 37.2201 231.249C37.6112 232.594 39.0097 233.941 39.3004 235.089C39.5773 236.183 38.6211 238.251 39.6185 239.247C40.0762 239.703 42.4626 239.849 42.6829 242.279C42.8921 244.589 42.7232 248.372 44.1289 250.136C45.0823 251.333 46.0996 251.999 47.1245 253.024C48.1815 254.081 48.9555 254.948 50.0482 255.311C51.2173 255.7 54.3932 254.889 55.4031 256.44C55.9317 257.252 56.0369 258.492 56.9189 258.87C57.9062 259.294 59.5597 259.012 59.7 259.858C59.8765 260.922 58.7498 266.261 60.7285 266.445C61.8071 266.545 62.8818 266.435 63.7179 266.349L63.7184 266.348H64.7563C66.8091 266.138 68.5626 266.116 70.1329 265.879C71.2966 265.704 72.4925 265.165 74.788 264.963C76.7932 264.786 78.0976 264.978 78.8343 264.363C79.2561 264.011 79.7098 263.627 79.8544 263.128C80.1715 262.034 80.8135 261.103 80.9103 260.204C81.0171 259.214 80.3794 256.504 81.5847 256.012C82.3595 255.696 83.6262 255.689 84.0148 254.955C84.7505 253.565 85.0446 251.333 85.5983 250.444C86.2346 249.422 87.0441 248.646 87.6774 247.519C87.9935 246.957 88.2828 243.942 88.0971 239.718C87.9216 235.727 88.2669 232.534 88.5569 231.664C88.6975 231.243 92.4992 232.583 93.527 230.573C94.0524 229.545 94.1074 228.229 94.6929 228.178C96.7415 228.002 99.1365 228.121 99.2329 227.115C99.3375 226.023 99.2817 224.97 99.7297 224.688C100.399 224.266 101.965 224.083 102.369 222.962C102.509 222.575 100.8 220.905 102.936 219.26C103.57 218.772 106.318 219.172 106.562 217.355C106.809 215.525 107.996 214.386 107.651 212.879C107.369 211.647 106.043 207.618 107.058 202.359C107.728 198.887 107.664 196.316 108.253 194.523C108.644 193.331 108.071 191.031 109.742 190.158C110.28 189.877 111.26 189.765 111.853 189.668C113.586 189.382 115.866 189.174 118.725 188.716C120.271 188.469 124.79 189.518 126.753 187.869C126.964 187.691 127.065 187.431 127.281 187.305C128.309 186.706 129.991 185.148 131.723 185.864C132.744 186.287 133.584 186.506 134.793 186.462C137.682 186.355 140.336 186.462 140.756 186.462L157.608 177.416C157.542 177.15 158.76 174.824 160.127 171.358C160.789 169.678 164.203 169.24 164.28 167.492C164.346 165.98 164.304 163.782 165.171 163.61C165.504 163.544 165.922 163.609 166.193 163.387C166.659 163.008 167.406 162.336 167.572 159.889C167.684 158.237 168.329 155.154 167.655 153.609C166.478 150.91 165.809 150.047 166.125 149.312C166.259 149.001 166.814 147.535 168.045 145.342C169.064 143.525 169.563 142.424 170.204 142.398C171.827 142.332 173.203 142.252 173.375 142.58C173.596 143.002 173.685 143.624 174.019 144.069C174.219 144.335 174.467 144.634 174.912 144.712C176.312 144.958 177.249 145.806 178.356 145.466C178.578 145.398 178.69 145.27 178.71 145.064C178.754 144.598 177.858 143.777 178.153 143.086C178.767 141.647 180.396 139.081 181.248 139.063C182.225 139.042 183.063 138.537 184.917 139.867C185.38 140.199 184.804 142.091 185.872 143.003C186.809 143.802 188.616 144.589 191.517 144.175C194.783 143.708 196.786 143.261 196.741 142.997C196.718 142.863 196.669 142.732 196.652 142.574C196.585 141.929 196.098 141.093 196.432 139.571C196.5 139.261 196.622 139.112 196.811 139.018C197.211 138.818 197.567 138.735 198.287 138.662C201.126 138.375 205.007 142.108 206.369 138.197C206.756 137.085 207.036 135.667 206.97 134.779C206.871 133.45 205.171 132.684 204.858 132.041C204.244 130.779 204.325 130.061 204.124 129.395C203.932 128.761 204.013 127.752 203.814 126.797C203.422 124.92 199.885 123.482 198.746 123.3C198.206 123.213 198.322 121.838 197.612 121.056C197.176 120.576 196.147 120.323 195.166 120.032C194.308 119.778 193.83 119.565 193.652 119.233C193.349 118.67 193.739 118.009 193.894 117.677C194.266 116.878 195.072 116.454 195.561 115.92C196.031 115.406 196.361 114.677 196.608 113.456C196.831 112.351 196.718 111.516 196.962 111.184C197.315 110.703 197.696 110.36 197.984 110.204C198.645 109.848 199.429 110.136 200.074 110.447C200.704 110.75 203.058 110.805 204.61 110.471C204.913 110.406 205.563 110.182 206.43 109.938C207.611 109.605 208.234 107.782 208.658 107.27C208.859 107.027 210.358 106.979 212.601 106.847C214.06 106.761 214.947 106.003 215.966 105.318C217.51 104.281 218.152 103.066 218.617 103C219.295 102.902 219.886 103.021 220.945 103.11C223.406 103.316 225.178 103.2 225.532 102.891C226.224 102.288 226.424 101.467 226.491 101.112C226.639 100.325 226.292 99.5112 226.003 98.9328C225.604 98.1338 225.863 98.119 225.441 97.6047L224.88 96.6176C224.451 96.0929 223.957 95.4902 223.403 95.064C222.33 94.2383 222.602 93.153 222.335 92.3965C221.968 91.3605 221.047 91.0158 220.158 90.5502C219.697 90.3088 219.4 89.9045 219.089 89.5943C218.766 89.272 218.776 88.441 218.6 87.5525C218.331 86.1951 216.644 86.6133 215.889 85.8616C214.938 84.9148 214.775 83.8118 214.113 83.6783C213.591 83.5733 212.658 83.633 212.116 83.567C211.573 83.5009 211.441 83.3689 211.373 82.7065C211.305 82.0441 211.305 80.8555 211.371 80.2211C211.437 79.5867 211.569 79.5427 212.144 79.52C213.729 79.4574 214.994 79.4533 215.459 79.2986C217.729 78.5444 217.833 78.5744 218.256 78.0848C218.324 77.9074 218.346 76.9827 218.756 76.0848C218.844 75.8929 218.669 73.975 218.756 73.0848C218.893 71.0438 218.756 69.0843 218.368 67.4448C217.624 64.3022 219.023 62.7607 219.569 61.9863C220.051 61.3019 220.795 61.0318 221.949 60.6678C225.568 59.5257 226.113 59.4394 227.179 59.4155C228.289 59.3907 228.976 60.2547 229.725 60.7544C230.247 61.1024 231.38 61.1655 232.606 61.1205C233.667 61.0816 234.293 59.8511 234.839 59.3494C235.551 58.6959 236.112 57.8959 236.68 57.3499C237.258 56.7937 237.296 54.4546 237.476 53.2821C237.565 52.7074 238.61 52.8049 239.202 52.4183L240.441 51.6047C241.019 51.2282 240.585 51.5166 241.316 50.9417C241.564 50.7466 241.567 50.3957 241.636 50.1237C241.78 49.5467 241.296 48.8972 240.956 47.9892C240.658 47.1949 240.252 46.8057 239.889 46.5105C238.547 45.4183 235.346 45.854 234.504 45.2378C233.505 44.5068 232.526 44.5315 231.777 44.147C230.242 43.3593 228.163 43.7598 227.504 43.5778C226.77 43.3751 225.936 43.3508 225.618 43.102C224.64 42.3358 225.207 40.5789 225.004 40.3294C224.584 39.8159 223.53 39.8958 222.732 40.1222C222.572 40.1676 222.437 40.1685 222.322 40.0335C221.695 39.2936 221.889 38.3988 221.393 37.6046C220.818 36.6846 219.882 36.4511 219.589 36.3782L219.573 36.3741C218.866 36.1968 217.938 36.6236 217.505 36.9406C215.881 38.1319 213.119 36.7613 212.824 36.4668C211.899 35.5442 212.438 33.354 212.051 32.6491C211.517 31.6751 209.667 30.8535 209.051 29.8786C208.311 28.7059 209.345 26.4932 208.961 25.5831C208.552 24.6166 207.622 24.0363 207.052 23.7629C206.847 23.5373 206.62 23.3082 206.348 23.1719L205.8 23.1256C205.435 22.8502 205.345 22.7152 205.254 22.5782C205.072 22.3061 204.708 21.8058 204.413 21.2147C203.932 20.576 203.241 19.2904 202.526 19.3529C201.98 19.4007 201.53 19.5846 201.322 19.3741C201.208 19.2589 201.103 19.0809 201.073 18.8035C200.936 17.53 200.616 15.1343 198.884 14.9436C197.658 14.8086 196.69 14.8059 196.276 14.9688C195.526 15.264 193.244 14.8291 191.821 15.356C191.569 15.4494 191.167 15.6497 191.096 16.065C190.939 16.9956 190.927 17.7296 190.825 18.0604C190.478 19.1852 189.441 20.6047 187.441 21.6048C186.108 22.1048 183.441 20.8048 179.441 17.6048C178.191 16.6047 163.941 1.60474 161.941 3.10472L148.441 7.10481C146.441 7.60474 141.341 5.80481 128.941 10.6048C125.441 12.6048 124.441 13.1048 121.941 10.6048C119.941 8.60482 116.441 14.6047 113.941 14.6048L111.441 14.1047L105.941 13.6047H101.441L97.4414 14.6048L89.9414 17.6048C87.4414 18.6047 76.9414 21.6047 74.4414 20.1048C72.6682 19.0409 71.4414 20.6048 68.9414 21.6047C65.9471 22.8024 65.9414 27.6047 65.4414 27.1047L46.4414 27.1048C44.4414 27.1048 47.0414 34.1048 43.4414 34.1048H33.9414L30.9414 35.1047L23.4414 42.1048Z" fill="#F68F58" stroke="black" stroke-width="6" stroke-linecap="round"/>
<path d="M54.7487 100.179C55.6167 100.179 56.6247 100.284 57.7727 100.494C58.9207 100.704 59.7607 100.928 60.2927 101.166V105.87H57.6047C57.0867 104.876 56.4777 104.148 55.7777 103.686C55.0917 103.224 54.3427 102.993 53.5307 102.993C52.8447 102.993 52.2147 103.224 51.6407 103.686C51.0807 104.134 50.6327 104.757 50.2967 105.555C49.9747 106.353 49.8137 107.242 49.8137 108.222C49.8137 109.328 49.9817 110.343 50.3177 111.267C50.6537 112.177 51.1647 112.905 51.8507 113.451C52.5367 113.997 53.3837 114.27 54.3917 114.27C55.7217 114.27 57.5977 113.682 60.0197 112.506L60.9857 114.06L57.1217 117.063C56.4497 117.259 55.8057 117.385 55.1897 117.441C54.5877 117.497 53.9297 117.525 53.2157 117.525C51.5777 117.525 50.1287 117.168 48.8687 116.454C47.6087 115.74 46.6287 114.76 45.9287 113.514C45.2287 112.254 44.8787 110.826 44.8787 109.23C44.8787 107.592 45.3967 106.08 46.4327 104.694C47.4827 103.294 48.7777 102.195 50.3177 101.397C51.8717 100.585 53.3487 100.179 54.7487 100.179ZM80.782 117.105H72.088V115.614L74.587 114.312L73.516 111.666H67.384L66.523 113.808L69.463 115.425L68.623 117.105H61.609V115.614L64.066 113.787L69.106 101.271L73.6 100.2L79.438 114.438L81.622 115.425L80.782 117.105ZM70.408 104.043L68.161 109.671H72.697L70.408 104.043ZM98.4085 103.812V117.084H96.2035L86.4385 106.689V114.291L89.9035 115.425L89.0635 117.105H82.2595V115.614L84.2335 113.892V103.644L81.8395 102.279L82.6795 100.599H86.6905L96.2035 110.7V103.392L92.7595 102.279L93.5995 100.599H100.404V102.069L98.4085 103.812ZM119.788 117.105H111.094V115.614L113.593 114.312L112.522 111.666H106.39L105.529 113.808L108.469 115.425L107.629 117.105H100.615V115.614L103.072 113.787L108.112 101.271L112.606 100.2L118.444 114.438L120.628 115.425L119.788 117.105ZM109.414 104.043L107.167 109.671H111.703L109.414 104.043ZM130.715 100.389C132.367 100.389 133.823 100.739 135.083 101.439C136.357 102.125 137.344 103.084 138.044 104.316C138.744 105.548 139.094 106.941 139.094 108.495C139.094 110.091 138.569 111.568 137.519 112.926C136.483 114.27 135.188 115.341 133.634 116.139C132.094 116.923 130.624 117.315 129.224 117.315C128.608 117.315 127.985 117.28 127.355 117.21C126.347 117.14 125.556 117.105 124.982 117.105H121.265V115.614L123.239 114.06V102.993L120.845 102.279L121.685 100.599H124.961C126.235 100.599 127.488 100.557 128.72 100.473C129.616 100.417 130.281 100.389 130.715 100.389ZM129.812 115.131C130.61 115.131 131.338 114.886 131.996 114.396C132.668 113.906 133.193 113.234 133.571 112.38C133.963 111.512 134.159 110.546 134.159 109.482C134.159 108.208 133.97 107.053 133.592 106.017C133.228 104.967 132.661 104.134 131.891 103.518C131.135 102.888 130.197 102.573 129.077 102.573C128.615 102.573 128.181 102.692 127.775 102.93V114.795C128.377 115.019 129.056 115.131 129.812 115.131ZM159.327 117.105H150.633V115.614L153.132 114.312L152.061 111.666H145.929L145.068 113.808L148.008 115.425L147.168 117.105H140.154V115.614L142.611 113.787L147.651 101.271L152.145 100.2L157.983 114.438L160.167 115.425L159.327 117.105ZM148.953 104.043L146.706 109.671H151.242L148.953 104.043ZM155.169 95.0127L149.247 98.0367L147.819 97.3857L150.066 93.2697L154.56 93.6687L155.169 95.0127Z" fill="black"/>
</svg>
