<svg width="43" height="133" viewBox="0 0 61 188" fill="none" xmlns="http://www.w3.org/2000/svg">
<path d="M29.2669 159.303C25.6745 160.71 29.5 175.5 26.5986 179.227C26.5986 183.227 17.5952 184.86 15.2625 184.427C7.8516 183.05 9.74371 162.435 5.48095 156.728C0.320847 149.819 7.94057 144.613 9.9888 139.664C14.1298 129.656 11.7394 125.357 11.7482 115.168C11.7532 109.324 9.9888 113 5.31902 106.5C4.37676 105.188 4.73694 98.3884 5.31902 97.5C5.9011 96.6116 5.48095 96 7.66048 89.4514C11.3465 83.9514 12.1926 87.0911 13.5144 81.4148C16.0025 70.729 11.9125 66.959 11.186 60.9938C9.71624 48.9256 14.2409 45.3739 14.1052 27.185C14.0556 20.5307 3.0583 17.4151 3.99986 17L9.13477 13.6027C9.13477 12.4123 9.13476 11.2569 10.1764 10.6792C11.218 10.1015 11.4935 6.3031 12.5986 6.3031C14.0986 6.3031 14.7547 3.30301 18.0986 3.3031C22.943 3.30323 27.9067 3.81004 29.28 5.30038C31.0263 7.19543 33.0986 6.30319 36.0986 6.30319H44.5986C49.0986 6.30319 49.6676 6.28646 53.5986 6.30319L53.67 6.30348C54.725 6.30765 56.8248 6.31594 57.0986 6.89345C57.3787 7.48428 58.3114 9.98392 57.0986 11.8031C50.0986 22.3031 55.6793 24.7478 54.3532 29.0913C52.305 35.8005 51.2672 40.4379 51.8805 44.5493C52.6201 49.5079 55.5817 59.2004 51.5698 64.8302C46.458 72.0034 49.5099 76.0921 45.0986 79.3032C43.9082 80.1697 42.0516 86.3568 40.5986 86.8032C39.1456 87.2496 35.8875 90.5843 35.5986 92.8032C35.3098 95.0221 38.7361 96.7796 39.5986 98.8032C41.6469 103.609 35.6612 107.919 35.5986 113.803C35.4454 128.206 36.6887 128.268 34.0986 131.803C31.7484 135.011 32.5986 136.803 31.5986 142.303C31.201 144.49 31.5241 146.957 31.5986 148.803C31.7343 152.164 33.0986 157.803 29.2669 159.303Z" fill="#87AD6A" stroke="black" stroke-width="6" stroke-linecap="round"/>
<path d="M37.9831 34.5772C38.4716 34.6633 39.0284 34.8224 39.6536 35.0545C40.2788 35.2866 40.7293 35.496 41.005 35.6827L40.5383 38.3299L39.0256 38.0632C38.8327 37.4524 38.5623 36.9823 38.2142 36.6528C37.874 36.3248 37.4754 36.1205 37.0184 36.0399C36.6324 35.9718 36.2549 36.0393 35.8861 36.2423C35.5265 36.4389 35.2126 36.745 34.9443 37.1608C34.6839 37.5779 34.5051 38.0622 34.4079 38.6137C34.2981 39.2361 34.2919 39.8239 34.3893 40.3773C34.4881 40.9227 34.7034 41.3831 35.0353 41.7584C35.3672 42.1337 35.8167 42.3714 36.384 42.4714C37.1324 42.6034 38.2465 42.4587 39.7262 42.0372L40.1156 43.0076L37.6431 44.3141C37.2455 44.3577 36.8706 44.3647 36.5184 44.3351C36.1741 44.3069 35.801 44.2573 35.3992 44.1865C34.4774 44.024 33.6974 43.6793 33.0592 43.1524C32.421 42.6256 31.9668 41.9769 31.6965 41.2062C31.4276 40.4277 31.3723 39.5894 31.5307 38.6912C31.6932 37.7695 32.1347 36.97 32.8553 36.2928C33.5851 35.6092 34.4229 35.1192 35.3687 34.8229C36.3238 34.5202 37.1953 34.4383 37.9831 34.5772ZM36.9123 64.5181L32.3743 63.7179L32.5222 62.8789L33.804 62.1057L34.202 59.8485L30.5976 59.213L30.11 61.9783L31.4065 62.5725L30.7671 63.4345L26.2291 62.6344L26.377 61.7953L27.6588 61.0221L28.7465 54.8533L27.4618 54.2612L28.1012 53.3992L32.6392 54.1993L32.4913 55.0384L31.1956 55.8213L30.7935 58.1021L34.3978 58.7377L34.8917 55.9369L33.607 55.3448L34.2464 54.4827L38.7844 55.2829L38.6365 56.122L37.3408 56.9049L36.2552 63.0619L37.5517 63.656L36.9123 64.5181ZM30.364 83.672L25.826 82.8718L25.9739 82.0328L27.2556 81.2596L28.3434 75.0908L27.0587 74.4987L27.6981 73.6366L32.2361 74.4368L32.0881 75.2758L30.7925 76.0587L29.7068 82.2158L31.0034 82.8099L30.364 83.672ZM28.2755 103.624L20.464 102.247L20.612 101.408L21.877 100.729L22.9918 94.4069L21.7009 93.8503L22.3403 92.9882L26.8783 93.7884L26.7303 94.6275L25.4535 95.304L24.3157 101.756L26.7502 102.186L29.1022 99.8344L29.8669 100.335L29.2189 104.01L28.2755 103.624ZM24.5653 123.267L16.8719 121.91L17.0199 121.071L18.285 120.392L19.3894 114.129L18.1067 113.525L18.7461 112.663L26.0849 113.957L27.1033 113.917L26.5407 117.108L25.6509 117.317L24.5516 114.844L21.9635 114.388L21.4592 117.248L22.6055 117.45L23.6829 116.385L24.5219 116.533L23.9301 119.889L22.9014 120.195L22.3721 118.566L21.2613 118.37L20.7216 121.431L23.2033 121.869L25.3482 119.725L26.1129 120.225L25.5086 123.652L24.5653 123.267Z" fill="black"/>
</svg>
