<svg width="61" height="188" viewBox="0 0 61 188" fill="none" xmlns="http://www.w3.org/2000/svg">
<path d="M29.2669 159.303C25.6745 160.71 29.5 175.5 26.5986 179.227C26.5986 183.227 17.5952 184.86 15.2625 184.427C7.8516 183.05 9.74371 162.435 5.48095 156.728C0.320847 149.819 7.94057 144.613 9.9888 139.664C14.1298 129.656 11.7394 125.357 11.7482 115.168C11.7532 109.324 9.9888 113 5.31902 106.5C4.37676 105.188 4.73694 98.3884 5.31902 97.5C5.9011 96.6116 5.48095 96 7.66048 89.4514C11.3465 83.9514 12.1926 87.0911 13.5144 81.4148C16.0025 70.729 11.9125 66.959 11.186 60.9938C9.71624 48.9256 14.2409 45.3739 14.1052 27.185C14.0556 20.5307 3.0583 17.4151 3.99986 17L9.13477 13.6027C9.13477 12.4123 9.13476 11.2569 10.1764 10.6792C11.218 10.1015 11.4935 6.3031 12.5986 6.3031C14.0986 6.3031 14.7547 3.30301 18.0986 3.3031C22.943 3.30323 27.9067 3.81004 29.28 5.30038C31.0263 7.19543 33.0986 6.30319 36.0986 6.30319H44.5986C49.0986 6.30319 49.6676 6.28646 53.5986 6.30319L53.67 6.30348C54.725 6.30765 56.8248 6.31594 57.0986 6.89345C57.3787 7.48428 58.3114 9.98392 57.0986 11.8031C50.0986 22.3031 55.6793 24.7478 54.3532 29.0913C52.305 35.8005 51.2672 40.4379 51.8805 44.5493C52.6201 49.5079 55.5817 59.2004 51.5698 64.8302C46.458 72.0034 49.5099 76.0921 45.0986 79.3032C43.9082 80.1697 42.0516 86.3568 40.5986 86.8032C39.1456 87.2496 35.8875 90.5843 35.5986 92.8032C35.3098 95.0221 38.7361 96.7796 39.5986 98.8032C41.6469 103.609 35.6612 107.919 35.5986 113.803C35.4454 128.206 36.6887 128.268 34.0986 131.803C31.7484 135.011 32.5986 136.803 31.5986 142.303C31.201 144.49 31.5241 146.957 31.5986 148.803C31.7343 152.164 33.0986 157.803 29.2669 159.303Z" fill="#87AD6A" stroke="black" stroke-width="6" stroke-linecap="round"/>
</svg>
