<svg width="288" height="292" viewBox="0 0 288 292" fill="none" xmlns="http://www.w3.org/2000/svg">
<path d="M18.9191 281.272C21.0837 282.61 25.3282 284.226 29.1318 285.011C31.5 285.5 33.6599 283.074 34.4968 283.114C35.6121 283.166 36.5334 283.711 37.5319 284.031C40.3759 284.941 44.8377 284.034 45.1562 283.557C45.7909 282.605 45.7165 281.64 45.9153 281.162C46.8851 278.831 51.9401 278.764 52.5375 278.843C53.6365 278.988 54.4927 279.64 55.4122 280.238C56.3704 280.86 56.5712 282.112 57.5661 283.19C58.3564 284.047 59.7607 283.951 60.7198 284.071C61.6917 284.194 69.6255 284.827 70.4999 284C72.6682 281.949 70.6496 281.16 72.9999 281C74.4324 280.902 76.4999 281 77.4999 281C78.4999 281 80.3493 280.924 82.7451 280.601C84.3779 280.38 85.9053 280.657 90.4999 281C93.4942 281.223 94.1814 280.983 94.4999 281.5C95.1824 282.608 95.4447 282.667 95.6829 283.789C95.7876 284.281 96.2397 284.906 97.0347 285.584C98.7976 287.086 100.866 286.503 101.906 287.064C102.777 287.532 103.821 287.782 104.859 288.062C106.176 288.418 107.173 288.342 108.608 288.143C110.987 287.814 111.962 287.705 113.079 287.386C115.088 286.811 114.685 286.863 116 286.5C116.367 286.399 116.5 287 117.5 286.5C117.996 286.252 118.5 286.5 119.5 286C119.761 285.869 120.337 284.744 120.5 284.5C121.5 283.5 121.701 284.074 122 284C124 283.5 123.541 284.639 124.5 285C125.785 285.437 126.719 286.132 128.738 285.627C130.65 285.148 131.73 284.747 132.242 283.789C132.973 282.423 135.181 281.067 136.634 280.318C136.871 280.196 136.81 279.909 137.115 279.596C138.552 278.122 139.941 278.033 140.706 277.204C141.184 276.685 141.102 275.097 142.316 274.97C144.95 274.693 147.353 274.334 147.929 273.371C148.286 272.775 149.197 272 149.699 271.921C152.813 269.908 154.095 268.989 157.892 268.759C159.615 268.655 160.423 267.063 161.525 266.467C163.001 265.669 165.375 266.326 168.075 266.328C169.691 266.33 171.058 265.049 172.299 264.176C173.643 263.229 174.456 262.661 175.005 262.432C176.195 261.933 177.936 262.749 181.323 262.797C183.637 262.83 185.089 262.205 186.513 261.927C187.849 261.666 188.396 260.097 188.763 258.995C188.946 258.447 189.312 257.803 189.861 257.162C190.795 256.07 192.61 256.152 193.712 255.006C193.963 254.746 194.261 254.683 194.583 254.682C196.106 254.675 197.287 256.51 198.161 257.566C198.997 258.578 200.495 259.442 201.781 259.954C203.817 260.764 207.719 255.8 211.359 253.449C213.295 252.199 215.722 252.848 216.18 252.574C217.48 251.798 217.466 249.64 217.74 249.137C218.617 247.525 222.228 248.174 223.424 247.394C224.596 246.629 224.528 245.06 226.035 242.449C227.088 240.623 228.374 239.646 231.988 236.171C233.005 235.193 233.877 235.239 235.845 234.877C238.365 234.414 239.104 232.768 239.932 231.531C240.719 230.356 241.855 229.648 243.002 228.779C244.572 227.589 247.626 227.453 249.328 226.805C251.104 226.129 252.859 226.165 253.869 225.112C255.314 223.603 260.5 219.5 267 222.5C268.872 223.364 271.503 216.009 272.971 213.805C275.459 210.068 273.914 203.858 273.047 202.254C272.173 200.637 271.647 198.651 271.309 197.047C270.964 195.412 270.574 192.259 271.836 189.703C272.799 187.752 275.773 187.965 277.575 186.767C280.684 184.702 281.516 182.23 282.918 180.559C284.322 178.887 284.192 177.023 283.993 175.689C283.72 173.849 282.061 172.617 280.593 171.412C279.206 170.273 277.126 169.549 275.186 168.74C274.848 168.476 274.715 167.947 274.647 166.617C274.579 165.288 276 162.5 275.38 160.594C275.13 159.825 273.249 159.4 271.715 157.862C270.232 156.374 269.508 154.994 268.243 153.058C267.136 151.365 266.304 149.523 265.039 147.783C263.895 146.211 262.435 144.981 260.967 144.108C259.241 143.082 256.964 143.107 255.36 142.506C254.495 142.182 252.831 141.769 250.63 141.901C248.528 142.028 246.695 145.622 244.348 147.24C242.201 148.72 240.142 146.712 236.424 145.911C229.439 144.406 224.25 145.378 223.717 144.579C222.623 142.937 222.247 140.976 221.913 132.856C221.845 131.213 221.318 131.091 220.783 131.023C218.353 130.714 216.512 128.961 215.24 127.156C213.854 125.189 209.703 127.343 207.967 128.082C205.228 129.247 204.761 131.748 204.687 133.619C204.617 135.372 206.355 136.555 206.293 138.093C206.258 138.937 204.893 139.23 203.499 139.631C198.921 139.634 197.703 139.11 196.774 138.711L196.752 138.701C196.218 138.565 195.557 138.565 194.876 138.565C192.076 138.697 188.1 138.966 185.138 138.501C182.684 138.116 181.531 136.17 180.594 134.434C179.507 132.42 180.057 130.298 179.593 128.558C179.354 127.665 178.591 126.954 177.992 126.221C176.715 124.657 169.7 124.547 165.644 124.148C163.793 123.967 161.513 121.887 158.906 120.414C156.549 119.082 155.233 117.61 154.492 116.142C153.704 114.582 154.023 109.632 154.356 103.688C154.424 100.444 154.424 94.3638 154.292 91.0335C154.16 87.7032 153.141 84.6689 152.231 83.8375C148.772 80.6799 145.314 77.5223 142.593 74.7679C139.871 72.0136 137.992 69.7581 136.836 68.2955C134.26 65.0369 133.779 61.9029 132.874 58.3136C131.359 52.3118 129.829 48.5275 129.715 47.5092C129.627 46.7203 129.676 45.3631 129.789 44.6284C129.902 43.8936 130.127 43.8185 130.431 43.7421C131.72 43.4189 133.235 43.2854 134.646 43.4369C136.495 43.6353 139.691 43.5861 140.95 44.421C142.011 45.1248 142.054 46.7756 142.769 47.2312C143.325 47.5851 144.612 47.3861 145.307 47.2358C146.243 47.0331 146.533 46.0238 146.912 45.1899C147.892 43.0359 146.918 39.6448 146.499 38.7324C145.882 37.3913 144.867 34.7193 144.108 32.9628C143.879 32.1312 142.44 32.3771 141.751 31.4387C140.842 30.6824 139.933 29.4704 138.831 27.8756C137.952 26.6035 136.971 25.8981 135.908 25.0632C134.462 23.9272 133.025 23.3967 132.336 22.3293C131.65 21.2673 130.747 18.2479 129.453 15.3477C128.601 13.4383 127.252 12.5342 126.262 11.886C125.447 11.3521 124.29 10.9394 123.452 9.8003C122.401 8.37247 120.873 7.44464 119.127 5.8909C118.13 5.00347 117.151 4.48297 116.238 4.06378C115.072 3.52794 113.355 3.49422 111.307 3.49195C109.476 3.48991 108.343 4.47841 107.316 4.78255C105.81 5.22832 103.787 5.16187 102.759 5.42842C101.541 5.74437 100.141 5.84534 98.2825 6.11189C96.1319 6.42024 93.9903 6.60626 92.7738 7.02203C91.3987 7.49199 88.0852 7.97318 86.1282 8.19986C84.9198 8.33983 83.4999 6.11189 80.7296 6.05586C79.3894 6.02876 76.987 5.16518 74.5961 4.33298C69.3467 2.50583 67.2434 5.00324 65.5903 6.19981C62.7634 8.2459 64.0855 12 64.0858 14.5C64.0859 15.8887 65.926 19.2329 64.4999 21C63.8318 21.8277 61.8972 21.9017 60.9998 22.5C60.5477 22.8013 59.4999 22.5 58.8112 24.2165C58.5381 24.8971 57.4249 25.7748 56.9454 26.8184C56.4408 27.9167 55.1683 28.4692 53.8224 28.6034C52.9943 28.6859 52.2133 28.3858 51.4772 28.5578C49.5142 29.0164 48.4818 31.3303 45.9242 33.5035C44.5462 34.6745 42.8325 33.7719 42.1823 33.6846C39.1334 33.2753 36.4999 38 34.9999 38.5C34.0218 38.826 32.9508 38.2913 32.2869 39.5C31.6973 40.5734 31.8878 41.9641 31.4999 43C30.9888 44.3647 31.9842 45.2998 32.2869 46.637C32.5422 47.7655 32.4162 48.7528 32.6735 49.1834C32.9305 49.6133 33.8776 49.5313 34.7389 49.702C35.1201 49.7776 35.2588 50.2141 35.3467 50.6034C35.6991 52.1634 34.9173 53.5766 34.4026 55.1298C34.184 55.7896 33.8827 56.4244 33.9681 57.199C34.1078 58.4666 34.9173 60.7206 35.1747 62.46C35.3464 63.6206 35.864 64.9573 36.2093 66.3385C36.5346 67.6395 37.0693 69.1785 37.5879 70.6502C37.79 71.2237 38.6212 71.5994 39.1385 72.2875C39.9833 73.411 39.5731 75.0447 39.101 76.3832C38.7193 77.4657 38.0263 78.4951 37.4625 79.531C36.8992 80.5658 35.8744 82.4524 35.0053 84.5708C34.5319 85.7247 35.0881 86.7745 35.4747 87.2052C36.2025 88.0157 37.0693 89.0118 40.3361 92.4972C41.668 93.9182 41.9009 95.2195 42.6303 96.386C43.0183 97.03 43.2795 97.6379 43.4089 98.666C43.4528 99.4381 43.4089 107.46 44.2372 108.337C45.4067 109.575 46.0927 110.536 47.2633 111.228C48.1931 111.778 49.8741 111.85 51.6635 111.952C52.3682 111.992 52.6347 112.259 52.7752 112.739C53.4344 114.993 53.4612 116.867 54.016 118.012C54.4339 118.874 55.7342 119.012 56.8035 119.665C57.7643 120.251 58.3543 121.351 59.2831 122.212C60.2141 123.076 60.9702 123.558 61.7978 124.005C62.6722 124.478 63.9995 124.111 65.1018 123.87C65.506 123.781 66.1278 123.834 66.5462 123.971C67.2548 124.202 67.4481 124.865 67.5514 125.278C67.7541 126.086 67.0369 126.93 67.0008 128.477C66.9735 129.643 67.6527 130.579 68.2385 132.025C68.8132 133.444 69.4463 134.848 69.5837 136.261C69.7279 137.744 69.1735 139.39 69.0671 142.489C69.0184 143.909 69.6529 147.837 70.2346 150.28C70.4402 151.144 71.7854 150.971 72.335 151.075C73.3659 151.268 73.9901 150.422 74.4023 150.387C74.6119 150.369 74.8146 150.556 74.9541 150.763C75.5276 151.612 75.8477 152.688 76.1949 153.552C76.644 154.67 78.1207 154.966 78.9142 155.653C79.0877 155.86 79.2241 156.065 79.3284 156.307C79.4328 156.548 79.501 156.821 79.5712 157.102C80.5086 160.852 78.8809 164.467 79.0194 165.672C79.2008 167.253 79.6372 168.731 79.9833 170.527C80.2755 172.043 80.2612 173.009 79.8139 174.042C79.3299 175.16 78.6082 176.108 77.9552 176.764C77.2663 177.456 76.4757 177.765 75.6482 178.211C74.595 178.777 73.7895 179.691 72.7574 180.175C71.8262 180.611 70.69 180.518 69.8315 181.238C67.8781 182.876 67.5885 184.167 67.3126 184.923C67.1002 185.506 67.7889 186.097 68.3427 186.854C68.838 187.531 68.4832 188.506 68.2415 189.951C68.0014 191.385 67.7269 192.771 67.5523 194.566C67.5185 194.914 67.45 195.118 67.3126 195.258C67.0318 195.543 66.4871 195.536 65.9375 195.638C64.9705 196.565 64.7612 197.5 64.4864 198.015C63.3954 200.879 62.6288 202.423 61.8074 202.526C58.9302 202.888 57.8122 202.768 56.0899 203.316C55.6715 203.45 55.3326 203.524 55.1229 203.662C53.9949 204.401 54.2292 207.851 53.3314 208.794C53.0037 209.139 52.6402 208.142 52.4005 207.798C52.2741 207.617 51.9562 207.591 51.6793 207.624C50.4705 207.768 49.0675 210.054 47.8226 211.716C46.9357 212.9 46.1003 214.129 45.3781 214.783C44.9297 215.189 42.8086 216.598 39.7464 218.938C38.0272 220.252 37.1449 220.811 36.6975 221.463C35.8012 222.769 36.6572 223.977 37.2089 225.148C37.823 226.452 37.7606 227.353 37.7286 230.786C37.7142 232.335 37.0064 233.209 36.5601 233.69C35.7199 234.597 34.3223 234.312 33.5629 234.998C32.1176 236.304 33.1486 238.304 33.0102 239.647C32.8586 241.116 31.5658 242.78 31.0482 243.678C30.5935 244.467 30.1194 245.466 29.3621 245.953C28.6443 246.414 27.5737 246.433 25.6468 246.54C24.5652 246.6 22.1475 245.954 20.4769 246.16C19.6111 246.266 18.9613 246.983 18.3755 247.776C17.2646 249.281 13.6591 248.5 12.8997 248.914C12.1612 249.317 11.8655 250.425 11.4182 251.323C10.8262 252.511 11.1072 254.217 10.8334 254.527C10.6804 254.7 10.2868 254.632 10.1112 254.735C10.0416 254.854 4.49999 258.5 4.13563 260.361C3.65294 262.827 4.12402 265.642 5.30386 266.414C7.96166 268.153 11.0341 268.419 11.6905 270.564C12.2759 272.477 11.0661 276.23 12.9435 276.704C15.9325 277.459 16.8163 279.973 18.9191 281.272Z" fill="#587956" stroke="black" stroke-width="6" stroke-linecap="round"/>
<path d="M99.952 188.192C100.983 187.889 102.217 187.661 103.654 187.509C105.091 187.358 106.167 187.33 106.882 187.427L108.525 193.015L105.333 193.954C104.37 192.954 103.392 192.302 102.399 191.998C101.423 191.689 100.453 191.676 99.4884 191.96C98.6736 192.199 98.006 192.694 97.4856 193.443C96.9769 194.171 96.6625 195.067 96.5422 196.133C96.4385 197.193 96.5579 198.305 96.9003 199.469C97.2867 200.783 97.8408 201.93 98.5627 202.91C99.2798 203.873 100.141 204.56 101.147 204.969C102.152 205.377 103.254 205.406 104.451 205.054C106.031 204.589 108.054 203.235 110.519 200.992L112.21 202.5L108.669 207.417C107.94 207.885 107.219 208.259 106.507 208.541C105.811 208.818 105.039 209.081 104.191 209.331C102.246 209.903 100.4 209.985 98.6538 209.577C96.9078 209.169 95.4014 208.348 94.1346 207.112C92.863 205.86 91.9483 204.286 91.3907 202.391C90.8185 200.445 90.9055 198.468 91.6518 196.46C92.4098 194.43 93.5641 192.672 95.1144 191.187C96.6766 189.679 98.2891 188.681 99.952 188.192ZM137.56 198.973L127.982 201.791L127.461 200.02L129.204 197.285L127.803 192.521L120.195 194.758L121.912 200.595L125.001 200.5L124.59 202.789L115.012 205.606L114.491 203.835L116.234 201.1L112.404 188.079L109.34 188.168L109.751 185.879L119.329 183.061L119.85 184.832L118.09 187.6L119.506 192.414L127.113 190.176L125.375 184.264L122.311 184.352L122.722 182.063L132.3 179.246L132.821 181.017L131.06 183.784L134.883 196.78L137.971 196.684L137.56 198.973ZM149.631 195.423L140.052 198.24L139.532 196.469L141.275 193.734L137.445 180.714L134.381 180.802L134.792 178.513L144.37 175.696L144.891 177.467L143.13 180.234L146.953 193.23L150.041 193.134L149.631 195.423ZM166.672 173.256L171.308 189.02L168.689 189.79L153.459 180.855L156.115 189.884L160.627 190.021L160.216 192.31L152.134 194.687L151.613 192.916L153.357 190.181L149.776 178.008L146.456 177.223L146.867 174.934L151.631 173.533L166.459 182.207L163.906 173.527L159.426 173.408L159.837 171.119L167.919 168.742L168.432 170.488L166.672 173.256ZM196.71 181.575L186.383 184.613L185.862 182.842L188.376 180.422L186.179 177.654L178.896 179.796L178.621 182.641L182.678 183.534L182.268 185.823L173.936 188.274L173.416 186.503L175.696 183.474L177.309 166.847L182.273 164.005L194.182 178.877L197.121 179.286L196.71 181.575ZM179.824 169.685L179.122 177.155L184.509 175.57L179.824 169.685Z" fill="black"/>
</svg>
