<svg width="165" height="109" viewBox="0 0 165 109" fill="none" xmlns="http://www.w3.org/2000/svg">
<path d="M3.78329 59.1458C3.36314 64.1394 4.68262 71.1619 4.68262 74.348C4.68262 76.492 5.23744 78.7258 6.3599 80.1831C7.19954 81.2733 8.60062 81.5396 10.3285 81.7736C11.8474 81.9794 11.2183 85.2727 11.7802 86.5339C11.9674 86.954 12.2441 87.5093 12.572 87.8414C13.6334 88.9164 15.6969 87.896 17.8942 88.032C21.102 88.2304 18.5108 95.6426 18.1829 97.0439C18.0127 97.7713 18.0428 98.448 17.9951 99.0071C17.8868 100.278 19.531 101.248 20.1882 102.324C20.8655 103.433 22.3336 103.866 23.4561 104.846C24.5428 105.796 26.2573 105.827 27.6124 105.693C29.0191 105.553 29.9008 104.151 31.2559 103.545C32.3911 103.036 33.7292 102.38 34.947 101.769C36.1089 101.186 37.0924 99.8577 38.7263 98.4578C42.0369 95.6214 43.8188 94.0675 45.0365 93.4074C46.1542 92.8017 47.9275 92.8455 49.1943 93.4495C49.7919 93.7344 49.8052 94.6168 50.0364 95.1773C50.3108 95.8423 51.484 95.2754 51.9969 94.9966C53.3172 94.2787 53.6337 92.2906 57.2168 89.586C59.6583 87.7432 64.0763 86.7806 68.4289 86.4457C70.2852 86.3028 72.1199 87.1449 74.8315 87.0076C77.5487 86.87 79.5918 87.5205 81.9348 87.7993C83.8121 88.0228 85.8586 87.896 87.3089 87.2893C88.7569 86.6835 90.5306 86.1191 91.604 86.2579C92.9329 86.4296 93.8013 87.9801 96.9234 88.4538C99.171 88.7947 104.222 89.8579 108.93 89.949C112.324 90.0146 115.286 88.5518 116.829 87.9899C118.72 87.3012 119.681 85.8445 120.987 83.5589C122.087 81.6342 123.885 80.5194 124.726 79.0733C126.501 76.0202 127.058 72.9579 128.508 70.2463C129.712 67.9956 134.72 69.7685 137.006 69.725C137.544 69.7148 137.803 69.3088 137.946 68.6572C138.769 64.9054 138.834 61.837 139.441 60.3866C140.301 58.3312 141.732 54.8359 142.799 52.6849C145.247 47.746 146.682 47.1679 149.382 44.4619C150.182 43.6603 152.371 42.6892 154.29 41.0034C156.902 38.708 157.421 37.5436 158.914 36.3791C160.748 34.9476 160.886 35.9999 161.492 32.7328C162 29.9999 151.138 28.8567 150.253 24.6893C149.82 22.6498 151.452 17.6197 148.642 16.9603C141.854 15.3673 130.021 20.1318 119.009 15.7962C115.674 14.4832 113.715 13.2315 112.168 11.5597C108.663 7.76956 104.585 6.936 100.352 4.41713C96.6885 2.23761 97.2389 4.42017 90.9999 6.49994C87.9999 7.5 85.2244 12.2187 79.9999 14.4999C71.9999 17.9931 71.7258 15.9635 65.7902 17.9931C64.8974 18.2907 64.0308 18.5796 63.0024 19.1704C61.9739 19.7612 60.8185 20.6278 59.4967 21.0611C56.7308 21.4944 54.5993 19.1052 52.6474 19.5993C50.9012 20.0413 53.1822 28.5779 41.1021 35.2323C34.2616 39.0005 30.5876 41.9276 24.9264 43.237C20.5367 44.2524 15.2107 43.6532 11.9499 46.305C11.2234 46.8958 10.95 47.7692 10.4925 48.7909C8.59749 53.023 4.12368 55.1001 3.78329 59.1458Z" fill="#87AD6A" stroke="black" stroke-width="6" stroke-linecap="round"/>
<path d="M31.5466 59.7416C32.1455 59.5811 32.8604 59.4672 33.6912 59.3999C34.5221 59.3325 35.1431 59.3318 35.5541 59.3977L36.4238 62.6432L34.5692 63.1401C34.028 62.5501 33.4733 62.1604 32.9049 61.971C32.3462 61.7791 31.7867 61.7582 31.2265 61.9083C30.7532 62.0351 30.3612 62.311 30.0506 62.7358C29.747 63.1484 29.5531 63.6611 29.4688 64.2738C29.3942 64.8839 29.4475 65.527 29.6286 66.2032C29.8331 66.9663 30.1367 67.6355 30.5393 68.2109C30.9394 68.7766 31.4265 69.1844 32.0007 69.4343C32.575 69.6842 33.2098 69.716 33.9053 69.5296C34.8229 69.2838 36.0086 68.5313 37.4622 67.2721L38.416 68.1657L36.3052 70.952C35.8778 71.2114 35.4568 71.4174 35.0421 71.5699C34.6371 71.7199 34.1883 71.8608 33.6957 71.9928C32.5656 72.2956 31.4998 72.3172 30.4985 72.0575C29.4972 71.7978 28.6398 71.3029 27.9265 70.5726C27.2106 69.8327 26.7052 68.9121 26.4101 67.811C26.1073 66.6809 26.1851 65.5419 26.6437 64.3941C27.1093 63.2341 27.7996 62.2364 28.7146 61.4011C29.6367 60.5536 30.5807 60.0004 31.5466 59.7416ZM43.8865 56.4351C45.0456 56.1246 46.1355 56.0965 47.1561 56.351C48.1768 56.6055 49.0451 57.1027 49.761 57.8427C50.4769 58.5826 50.9823 59.5031 51.2774 60.6043C51.5802 61.7344 51.4927 62.876 51.0148 64.0289C50.5466 65.1793 49.8466 66.1796 48.9149 67.0297C47.9806 67.8701 47.0305 68.4198 46.0646 68.6786C44.9054 68.9892 43.8169 69.022 42.7988 68.7772C41.7878 68.5201 40.9195 68.0229 40.194 67.2856C39.4781 66.5456 38.9726 65.6251 38.6775 64.5239C38.3747 63.3938 38.4574 62.2535 38.9256 61.1032C39.4009 59.9405 40.1057 58.939 41.04 58.0985C41.9718 57.2484 42.9206 56.694 43.8865 56.4351ZM43.5664 58.6018C43.0834 58.7312 42.6818 59.0097 42.3615 59.4371C42.0483 59.8523 41.8447 60.3676 41.7508 60.9829C41.6665 61.5956 41.7149 62.24 41.8961 62.9161C42.1161 63.7372 42.4374 64.4534 42.8601 65.0648C43.2827 65.6763 43.7947 66.1189 44.396 66.3926C45.007 66.6637 45.6699 66.7034 46.3847 66.5119C46.8677 66.3825 47.2657 66.1102 47.5789 65.695C47.8992 65.2675 48.1015 64.7474 48.1858 64.1348C48.2798 63.5195 48.2361 62.8738 48.055 62.1976C47.8324 61.3669 47.5098 60.6458 47.0871 60.0344C46.6645 59.423 46.1538 58.9852 45.555 58.7212C44.9537 58.4475 44.2908 58.4077 43.5664 58.6018ZM63.7472 63.6455L54.17 66.2117L53.8944 65.183L54.969 63.7459L52.892 55.9943L51.1354 56.0457L51.4044 54.7313L56.9682 53.2405L57.2438 54.2692L56.1546 55.7102L58.2744 63.6211L61.2591 62.8214L62.6815 58.9151L63.8122 59.078L65.0196 63.5841L63.7472 63.6455ZM69.709 49.516C70.8681 49.2054 71.958 49.1774 72.9786 49.4319C73.9993 49.6864 74.8675 50.1836 75.5834 50.9236C76.2993 51.6635 76.8048 52.584 77.0999 53.6852C77.4027 54.8153 77.3152 55.9569 76.8373 57.1098C76.3691 58.2602 75.6691 59.2605 74.7374 60.1106C73.8031 60.951 72.853 61.5007 71.887 61.7595C70.7279 62.0701 69.6393 62.1029 68.6213 61.8581C67.6103 61.601 66.742 61.1038 66.0165 60.3664C65.3006 59.6265 64.7951 58.706 64.5 57.6048C64.1972 56.4747 64.2799 55.3344 64.7481 54.184C65.2234 53.0214 65.9282 52.0199 66.8625 51.1794C67.7942 50.3293 68.7431 49.7748 69.709 49.516ZM69.3889 51.6827C68.9059 51.8121 68.5043 52.0906 68.184 52.518C67.8708 52.9332 67.6672 53.4485 67.5732 54.0638C67.489 54.6764 67.5374 55.3209 67.7186 55.997C67.9386 56.8181 68.2599 57.5343 68.6825 58.1457C69.1052 58.7572 69.6172 59.1997 70.2185 59.4734C70.8295 59.7445 71.4924 59.7843 72.2072 59.5928C72.6901 59.4634 73.0882 59.1911 73.4014 58.7759C73.7217 58.3484 73.924 57.8283 74.0083 57.2156C74.1022 56.6004 74.0586 55.9546 73.8775 55.2785C73.6549 54.4478 73.3323 53.7267 72.9096 53.1153C72.4869 52.5038 71.9762 52.0661 71.3775 51.8021C70.7762 51.5284 70.1133 51.4886 69.3889 51.6827ZM95.5825 55.1152L90.0188 56.606L89.7431 55.5773L90.8178 54.1402L89.1329 47.852L87.9469 57.1612L86.4255 57.5689L80.6046 50.044L82.406 56.7669L84.2314 56.9144L83.9624 58.2288L79.9925 59.2926L79.7168 58.2639L80.7915 56.8268L78.7766 49.307L76.9579 49.1266L77.2269 47.8122L81.8633 46.5699L86.9739 53.1825L88.0356 44.916L92.8169 43.6348L93.0926 44.6636L92.0034 46.1046L94.0766 53.8416L95.8515 53.8008L95.5825 55.1152ZM104.042 46.1866C104.793 46.2856 105.425 46.5406 105.939 46.9516C106.46 47.3503 106.803 47.8588 106.969 48.477C107.132 49.0855 107.011 49.734 106.605 50.4225C106.197 51.1012 105.625 51.71 104.889 52.2488C104.163 52.7849 103.429 53.1527 102.685 53.3519C102.202 53.4814 101.722 53.584 101.246 53.66C100.46 53.8187 99.8545 53.955 99.4295 54.0689L97.0099 54.7173L96.7342 53.6886L97.8089 52.2514L95.7358 44.5144L93.9792 44.5658L94.2482 43.2514L96.3635 42.6845C97.2425 42.449 98.0993 42.1884 98.9338 41.9027C99.5802 41.688 100.058 41.5393 100.367 41.4565C101.13 41.252 101.835 41.1977 102.482 41.2936C103.129 41.3894 103.665 41.6133 104.091 41.9651C104.523 42.3047 104.811 42.7401 104.953 43.2714C105.077 43.735 105.053 44.223 104.88 44.7353C104.713 45.2354 104.435 45.724 104.045 46.2011L104.042 46.1866ZM101.925 44.9524C101.749 44.2956 101.464 43.8128 101.071 43.5041C100.685 43.1831 100.212 43.0977 99.6514 43.2478C99.3519 43.328 99.0834 43.4465 98.8459 43.6034L99.8126 47.2111L101.16 46.85C101.952 46.6378 102.207 46.0053 101.925 44.9524ZM102.648 51.5915C103.131 51.4621 103.474 51.2356 103.677 50.912C103.89 50.5858 103.936 50.1957 103.814 49.7417C103.651 49.1332 103.358 48.6784 102.936 48.3775C102.511 48.0668 101.984 47.975 101.356 48.102L101.081 48.1758L100.139 48.4282L101.028 51.7461C101.535 51.7861 102.079 51.7284 102.659 51.5731L102.648 51.5915ZM114.162 50.1213L108.598 51.6121L108.323 50.5834L109.366 49.0304L107.34 41.4672L105.572 41.4751L105.841 40.1607L111.404 38.6699L111.68 39.6986L110.626 41.27L112.649 48.8187L114.431 48.8069L114.162 50.1213ZM128.265 46.3424L122.267 47.9496L121.991 46.9209L123.475 45.5606L122.247 43.933L118.016 45.0667L117.818 46.7037L120.145 47.2758L119.876 48.5902L115.037 49.8869L114.761 48.8582L116.119 47.1434L117.282 37.5763L120.185 36.0066L126.845 44.7508L128.534 45.028L128.265 46.3424ZM118.693 39.2481L118.183 43.5466L121.313 42.708L118.693 39.2481Z" fill="black"/>
</svg>
