<svg width="275" height="126" viewBox="0 0 275 126" fill="none" xmlns="http://www.w3.org/2000/svg">
<path d="M185.798 24.5788C184.927 24.8399 184.5 25.5417 183.811 25.3537C182.66 25.04 181.859 24.6693 181.49 24.2741C180.764 23.4966 180.538 22.084 180.431 21.2119C180.289 20.0421 179.799 18.7065 178.535 17.5422C178.081 17.1238 177.582 16.8547 177.186 16.1972C176.681 15.3567 176.682 13.2238 176.63 10.6915C176.585 8.54019 176.102 7.722 175.707 6.95368C175.483 6.5188 175.099 6.23923 174.574 5.97626C172.39 4.88247 170.347 5.44557 170.188 5.57705C170.161 5.59931 170 6 169.977 5.98305C168.862 5.15318 167.966 4.65506 167.128 4.65349C165.891 4.65117 165.121 5.70695 164.225 6.10378C162.105 7.04279 161.635 7.6618 160.843 8.2424C159.898 8.93564 158.838 9.56279 158.097 9.82814C157.641 9.99154 155.055 9.98734 151.335 10.0135C148.266 10.035 146.743 10.6733 146.401 10.7002C144.281 10.867 141.571 7.66814 140.356 6.76913C139.42 6.07555 137.297 6.97745 136.341 6.63606C135.67 6.39628 135.655 5.0828 134.995 4.15527C134.691 3.72951 134.123 3.65072 133.649 3.67686C132.739 3.727 131.644 4.59963 130.852 5.59527C128.312 8.78793 128.27 11.0836 127.468 12.2812C127.333 12.4837 127.415 12.8325 127.493 13.0202C127.735 13.5986 130.142 13.8368 131.453 14.7097C132.531 15.4284 131.166 16.8467 130.848 17.825C130.458 19.0268 130.215 19.6475 129.924 20.282C129.447 21.3206 128.527 22.6574 127.708 23.0028C125.825 23.7978 122.615 23.0851 121.794 22.9251C121.243 22.7683 120.501 22.6083 119.789 22.5291C117.682 22.7382 115.911 23.3956 114.903 24.0055C114.709 24.1231 114.482 24.0863 114.269 23.8249C113.108 22.3949 112.685 21.2379 112.182 20.472C111.668 19.6886 110.943 18.811 110.308 17.9374C110.034 17.56 109.621 17.2237 109.226 16.8546C108.91 16.5589 107.99 16.4823 106.776 16.5869C105.559 16.6917 105.344 17.9049 104.895 19.0122C104.338 20.3849 103.18 21.1271 102.125 21.4977C100.897 21.9291 99.749 24.1845 99.0345 25.2973C98.4986 26.1322 98.0033 26.6177 97.7656 27.5144C97.5715 28.2468 97.3696 28.8371 97.1066 29.2055C96.3247 30.3006 94.2631 30.4229 92.6274 30.6843C90.3667 31.0455 90.1902 33.588 89.5557 34.0387C88.3893 34.8673 85.8084 34.0157 84.6734 33.3829C83.5998 32.7843 82.9569 32.327 82.2425 31.9555C81.2985 31.4647 79.9502 31.1104 76.4706 30.9781C75.5848 30.9445 73.4156 30.6858 70.1435 30.8181C68.5454 30.8827 67.4877 30.3738 65.6738 29.7932C64.5744 29.4413 62.9712 29.5262 61.4576 29.5255C58.532 29.5239 56.9213 29.7354 56.553 29.9983C55.5723 30.6986 54.9681 31.3702 54.2306 31.8462C52.4826 32.9747 51.2738 33.6957 47.0924 35.0898C44.0959 36.0888 42.0841 36.1258 41.5051 36.0736C39.7947 35.9191 37.3934 35.2324 36.1705 34.3603C34.9389 33.4821 33.8988 32.7991 33.4774 32.8514C32.6043 32.9597 32.3146 34.1678 31.0505 35.1983C30.6002 35.5654 30.0968 35.649 29.6754 36.0957C28.6847 37.1461 28.8295 38.0237 28.2489 38.4743C27.5166 39.0428 23.7855 38.8189 21.7808 39.0811C20.2864 39.2765 20.9626 42.6145 20.3543 43.5421C19.862 44.2926 16.8121 44.5219 14.9697 44.6534C13.6739 44.628 13.1464 44.5219 12.725 44.4957C11.5794 44.2926 11.3669 43.2387 10.3188 42.7634C8.49571 41.9366 7.50763 43.5027 6.66063 43.7769C5.50714 44.1503 4.79881 45.3295 4.29006 46.1764L4.28923 46.1778C3.75908 47.0603 3.84745 47.9713 3.51028 49.0194C2.89615 50.9283 3.2381 54.0425 3.43919 58.0032C3.50823 59.3631 4.04245 59.3499 4.38368 59.4169C5.52206 59.6405 6.41486 60.0933 7.33091 60.1959C8.3358 60.3084 9.12444 60.7027 10.4437 61.1424C11.3427 61.4421 12.0371 61.7833 14.2989 61.9569C16.2958 62.1103 18.8741 61.6533 21.609 61.6512C22.6155 61.6505 23.2086 62.0575 23.7489 62.2931C24.9142 62.8012 25.3048 63.8835 26.558 64.763C27.5277 65.4435 28.9568 65.8456 31.2266 66.0863L31.3236 66.0966L31.3237 66.0966C32.5391 66.2253 33.5093 66.3281 33.8387 66.525C34.7946 67.0963 34.246 68.9614 34.5832 69.4012C35.3468 70.3971 37.1546 69.8429 38.3053 70.0806C39.3909 70.3048 41.546 68.7664 43.111 68.3216C45.2009 67.7276 46.0918 67.8158 48.9618 67.7112C49.8868 67.6775 51.0966 67.8808 53.3898 68.1154C58.6437 68.6529 61.1062 69.0995 62.8154 69.3352C63.4598 69.424 63.9681 69.91 64.2728 70.3152C64.8118 71.0321 64.7136 72.0082 65.0172 72.4479C65.8964 73.7211 68.8409 73.1578 70.0251 74.1064C71.0746 74.9471 72.0908 75.6643 73.4415 75.971C77.0461 76.7895 80.0774 77.6305 82.0679 77.4284C85.5745 77.0723 88.6083 76.9561 89.8585 76.4828C90.8896 76.0925 92.9997 76.0055 96.1074 75.6369C101.043 75.0514 101.409 72.4225 102.927 71.4719C104.046 70.7713 105.536 71.5349 106.416 71.9401C107.931 72.6383 107.433 75.6643 108.28 76.1731C109.408 76.8507 110.817 77.9636 111.531 78.7791C112.17 79.5088 113.324 79.9297 114.306 80.7077C115.364 81.5458 115.83 83.1065 116.608 84.3973C117.278 85.5083 119.348 84.8736 121.068 85.0778C126.154 85.6812 127.27 85.1458 128.589 85.3144C130.778 85.5942 131.671 85.552 132.483 85.7531C134.566 86.2695 134.832 87.8906 135 88.5C135.071 88.7569 138 88 138.645 88.0585C139.452 88.1317 140.137 88.1235 140.542 88.4272C141.607 89.225 141.356 91.0342 141.795 91.3388C142.614 91.908 144.795 91.7796 146.196 92.1178C147.151 92.3481 147.988 93.6036 148.803 94.6547C149.399 95.4224 149.5 96.7191 149.988 96.7204C151.103 96.7235 151.059 96.6098 151.468 96.7204C152.5 97 152.188 97.934 153.101 99.0897C153.749 99.9101 154.894 100.107 155.945 100.412C156.894 100.687 157.94 101.054 162.363 101.158C164.511 101.209 166.54 101.123 167.387 101.428C168.401 101.792 169.181 102.004 170.129 102.611C170.954 103.138 170.81 105.575 171.382 106.979C171.957 108.391 174.255 106.676 175.443 106.508C175.812 106.455 176.351 106.473 176.661 106.574C177.528 106.855 178.118 107.891 178.561 108.873C178.766 109.328 179.002 109.721 179.204 110.126C179.653 111.028 181.965 110.942 183.265 111.548C184.372 112.064 184.959 112.766 185.466 113.546C186.119 114.551 187.327 115.406 188.005 116.388C188.28 116.787 188.412 117.236 188.749 117.608C189.833 118.803 192.135 118.252 192.473 118.657C192.504 118.694 192.531 118.733 192.554 118.77C192.629 118.76 192.78 118.824 192.913 118.929C193.651 119.514 193.963 120.35 194.569 120.723C196.701 122.033 199.242 120.959 201.605 120.592C204.286 120.175 206.485 121.366 207.368 121.706C208.19 122.023 211.271 122.316 213.258 122.552C213.663 122.787 214.608 122.926 215.96 122.758C216.574 122.59 217.043 122.255 217.73 121.707L218.208 120.987C219 120.5 219.842 120.565 221.067 120.416C222.904 120.192 223.975 119.898 224.772 119.241C224.929 119.111 224.923 118.859 224.961 118.637C225.119 117.714 224.285 115.793 225.188 115.689C226.84 115.498 228.034 115.354 228.898 114.832C229.692 114.352 229.934 113.253 230.547 112.77C230.708 112.643 230.959 112.58 231.215 112.516C232.231 112.262 233.184 111.946 233.846 111.182C234.451 110.484 235.21 110.032 235.909 109.406C236.544 108.836 237.112 108.516 237.048 108.136C236.984 107.757 236.731 107.374 236.795 106.994C236.859 106.614 237.51 106.279 238.419 105.628C239.971 104.519 240.097 102.937 241.113 101.821C242.065 100.776 243.32 100.904 245.207 99.4419C245.617 99.124 245.794 98.8692 245.74 98.4558C245.613 97.4736 245.206 96.4917 245.49 96.4314C245.935 96.3372 247.767 96.865 249.521 95.8918C250.44 95.3816 251.387 94.8835 251.707 94.1776C252.024 93.4781 252.5 93.5 252.522 92.8544C252.539 92.3732 252.699 90.9788 252.728 89.1655C252.745 88.1176 253.17 87.5478 253.479 87.2669C253.804 86.9725 254.201 86.7798 254.731 86.6029C254.983 86.5187 255.433 86.5728 255.79 86.4122C256.506 86.0902 256.68 84.4318 256.871 83.5953C256.963 83.1906 257.915 83.3595 258.742 83.2847C259.039 83.2578 259.245 83.1817 259.407 83.0936C259.774 82.8943 259.688 81.9776 259.953 81.4573C260.16 81.0485 260.69 80.9123 260.853 80.558C261.021 80.1918 261.221 79.7923 261.428 79.3787C261.656 78.9228 261.752 78.5236 262.135 78.0958C262.49 77.6988 262.96 77.4018 263.373 77.1076C263.754 76.8368 263.817 76.1366 264.213 75.4279C264.433 75.0353 264.672 74.7485 264.716 73.9434C264.817 72.1191 264.907 70.7088 265.245 70.3408C265.797 69.7402 266.439 69.4976 266.94 69.3954C267.795 69.2209 267.561 68.0537 268.003 67.8467C268.727 67.5074 269.328 67.6114 269.993 67.1991C270.406 66.9427 270.747 66.7851 270.894 66.6528C271.19 66.3874 271.16 65.8136 271.395 65.0784C271.73 64.0283 272.045 63.1594 271.972 62.718C271.839 61.9166 271.103 61.5068 270.793 61.1679C270.569 60.9226 270.277 60.7981 269.531 60.7539C267.766 60.6493 266.443 60.6804 266.062 60.592C265.518 60.4661 265.086 60.5327 264.866 60.5177C264.24 60.4749 263.937 61.2378 263.392 61.8425C263.085 62.1821 262.934 62.595 262.697 62.9493C262.58 63.1258 262.432 63.3329 262.256 63.5244C262.079 63.6283 261.901 63.6876 261.608 63.7319C261.402 63.7469 260.708 63.9544 260.377 63.9544C259.134 63.9544 257.927 63.9544 257.087 63.8656C255.788 63.6044 255.032 63.1953 254.631 62.7617C254.574 62.3857 254.74 61.832 254.543 61.2523C254.454 60.9911 254.293 60.7881 253.929 60.6734C252.365 60.1798 251.491 59.5504 250.388 59.4851C248.431 59.3693 247.085 59.5159 243.956 59.8569L243.885 59.8646C241.504 60.1241 238.686 59.0802 238.555 60.0718C238.44 60.9423 238.446 61.8836 238.06 62.128C237.742 62.33 237.153 62.3554 236.285 62.417C234.251 62.5615 232.612 63.1162 231.501 62.8801C230.542 62.6764 229.61 62.5344 228.86 61.9495C227.931 61.2244 225.436 58.8871 224.16 59.6322C223.813 59.835 223.334 60.1136 222.97 59.8612C222.594 59.6 220.748 56.0716 218.618 54.4343C218.242 54.1453 217.499 54.2376 216.613 53.9712C215.454 53.623 214.794 53.2347 213.917 52.5191C213.132 51.8784 212.142 51.1064 211.219 50.6336C211.046 50.5448 210.945 50.3589 211.019 50.1975C211.339 49.5002 211.316 48.2646 212.122 47.9341C213.389 47.4144 216.127 47.8592 217.29 47.1219C217.84 46.7737 218.361 46.4013 218.36 45.9597C218.358 44.7958 218.931 41.6316 217.69 40.5059C217.371 40.2169 216.401 40.6361 215.656 40.0428C214.699 39.2802 213.983 36.2144 212.639 35.7189C212.089 35.5161 210.631 36.0987 209.621 35.2828C209.19 34.9345 209.243 33.7617 208.434 32.874C208.144 32.5563 207.062 32.7567 206.402 32.0914C205.823 31.5082 204.822 30.5926 204.721 29.5051C204.545 27.6117 204.509 25.7195 203.907 25.3596C203.617 25.1864 200.717 25.2972 196.55 25.0993C193.507 24.9548 191.661 24.8382 190.731 24.6058C189.802 24.3733 187.654 24.0226 185.798 24.5788Z" fill="#BF7C52" stroke="black" stroke-width="6" stroke-linecap="round"/>
<path d="M118.742 61.3366L106.076 58.3226L106.404 56.9412L108.576 55.9366L111.03 45.6245L108.955 44.4936L110.104 43.1222L122.186 45.9973L123.885 46.0314L122.635 51.2847L121.134 51.5443L119.548 47.3225L115.287 46.3086L114.167 51.0172L116.054 51.4662L117.951 49.8002L119.332 50.1289L118.018 55.6546L116.276 56.0625L115.556 53.3007L113.727 52.8655L112.528 57.9048L116.613 58.8771L120.393 55.5209L121.616 56.4287L120.274 62.0711L118.742 61.3366ZM138.539 62.2235L138.74 63.7105L134.637 65.0572C133.906 65.0752 133.217 65.0345 132.569 64.9352C131.934 64.8389 131.253 64.7043 130.527 64.5315C128.892 64.1426 127.525 63.4677 126.424 62.5068C125.323 61.5458 124.56 60.4048 124.134 59.0837C123.725 57.7527 123.696 56.3479 124.048 54.8692C124.409 53.3515 125.254 52.0726 126.585 51.0323C127.931 49.9821 129.451 49.2679 131.145 48.8896C132.854 48.5015 134.396 48.471 135.771 48.7982C136.628 49.0019 137.603 49.3369 138.698 49.803C139.806 50.2723 140.6 50.6805 141.08 51.0275L139.857 56.1641L137.367 55.5715C137.119 54.2516 136.703 53.2344 136.119 52.5198C135.552 51.7954 134.853 51.3344 134.023 51.1369C133.283 50.9609 132.551 51.0129 131.827 51.2928C131.118 51.5628 130.495 52.0243 129.955 52.6772C129.429 53.3333 129.058 54.1153 128.842 55.0232C128.58 56.1258 128.516 57.1727 128.65 58.164C128.787 59.1424 129.154 59.9904 129.751 60.708C130.348 61.4256 131.178 61.911 132.241 62.1641L132.845 62.3076C133.35 62.428 133.749 62.5092 134.041 62.5511L134.832 59.224L131.813 57.7448L132.961 56.3735L141.406 58.3828L141.077 59.7643L138.844 60.9393L138.539 62.2235ZM148.261 68.3609L140.79 66.583L141.119 65.2016L143.327 64.0413L145.744 53.8849L143.665 52.7734L144.813 51.4021L152.285 53.1799L151.956 54.5614L149.723 55.7364L147.311 65.8734L149.41 66.9895L148.261 68.3609ZM160.147 63.1097C160.731 63.2486 161.249 63.1182 161.7 62.7185C162.151 62.3189 162.477 61.6975 162.678 60.8543C162.894 59.9463 162.85 59.1545 162.544 58.4788C162.255 57.7933 161.689 57.3502 160.846 57.1496C160.34 57.0292 159.831 57.0657 159.319 57.2591L156.759 68.0187L160.196 69.5562L159.048 70.9275L150.214 68.8256L150.543 67.4442L152.715 66.4396L155.154 56.1859L153.094 54.9965L154.242 53.6252L158.056 54.5326C159.146 54.7919 160.231 55.0092 161.314 55.1844C162.104 55.3177 162.681 55.4276 163.044 55.514C164.108 55.7671 165 56.192 165.722 56.7885C166.456 57.3882 166.967 58.0922 167.255 58.9007C167.542 59.7092 167.584 60.5414 167.38 61.3975C167.158 62.3315 166.57 63.1305 165.617 63.7946C164.68 64.4488 163.584 64.8801 162.328 65.0884C161.089 65.2868 159.95 65.2351 158.912 64.9332L158.206 64.2718L159.354 62.9004L160.152 63.0903L160.147 63.1097ZM183.352 66.1438L181.851 66.4034L179.988 61.7045L178.529 61.3573L175.825 72.72L177.938 73.7778L176.789 75.1491L169.317 73.3713L169.646 71.9898L171.818 70.9852L174.346 60.3619L172.945 60.0285L169.165 63.3847L167.942 62.4769L169.285 56.8345L170.816 57.569L182.996 60.4672L184.694 60.5013L183.352 66.1438ZM195.494 63.0299C197.05 63.4003 198.346 64.0582 199.382 65.0037C200.418 65.9492 201.122 67.0828 201.492 68.4045C201.863 69.7263 201.873 71.1265 201.521 72.6052C201.16 74.1228 200.333 75.4064 199.042 76.456C197.764 77.5087 196.309 78.2383 194.677 78.6449C193.048 79.0386 191.585 79.0811 190.288 78.7725C188.731 78.4021 187.434 77.7506 186.395 76.8181C185.372 75.8757 184.668 74.7421 184.285 73.4173C183.914 72.0955 183.904 70.6953 184.256 69.2166C184.617 67.699 185.437 66.4138 186.716 65.3612C188.01 64.2986 189.472 63.5705 191.1 63.1769C192.732 62.7702 194.197 62.7212 195.494 63.0299ZM193.745 65.3686C193.096 65.2143 192.449 65.2863 191.802 65.5847C191.171 65.8732 190.606 66.3486 190.106 67.0108C189.619 67.6761 189.267 68.4627 189.051 69.3707C188.788 70.4732 188.711 71.5171 188.82 72.5022C188.928 73.4874 189.248 74.331 189.78 75.0332C190.325 75.7385 191.077 76.2054 192.037 76.4338C192.685 76.5881 193.325 76.521 193.956 76.2325C194.602 75.9341 195.169 75.4522 195.656 74.7869C196.157 74.1247 196.515 73.3397 196.731 72.4317C196.996 71.3162 197.075 70.2658 196.967 69.2807C196.858 68.2955 196.537 67.4583 196.002 66.7691C195.47 66.0669 194.718 65.6001 193.745 65.3686Z" fill="black"/>
</svg>
