<svg width="152" height="134" viewBox="0 0 152 134" fill="none" xmlns="http://www.w3.org/2000/svg">
<path d="M144.273 64.0555C144.482 64.413 147.208 63.5327 148.177 64.576C149.5 66.0001 147.935 68.971 147.629 77.383C147.565 79.1338 147.084 79.3677 145.989 79.4924C144.894 79.6171 143.078 79.6171 142.142 79.8593C141.207 80.1014 141.207 80.5856 141.267 81.0167C141.328 81.4477 141.449 81.8109 141.33 82.1191C140.743 83.6361 138.279 84.2542 136.81 85.7271C135.387 87.1536 132.41 86.4627 130.636 87.2569C129.15 87.9223 127.883 88.7812 126.659 89.946C125.509 91.0406 125.432 92.6955 124.948 93.6127C124.254 94.9266 122.134 94.2877 121.463 95.0196C120.844 95.6944 120.542 96.4888 120.177 97.0996C119.325 98.526 116.635 98.5616 114.982 99.9116C113.318 101.271 114.911 104.189 115.525 105.658C115.823 106.37 115.894 108.217 115.712 110.479C115.646 111.305 115.168 111.409 114.617 111.471C114.067 111.534 113.341 111.534 112.845 111.715C112.108 112.26 111.737 113.239 111.554 114.641C111.492 115.437 112.5 116 112.225 116.67C111.994 117.232 110.398 117.645 106.31 117.952C104.575 118.082 104.646 120.94 103.914 122.655C102.33 126.367 95.3573 124.131 93.8881 123.946C93.1399 123.852 91.3445 123.765 90 123.946C88.4265 124.159 90 124.502 89 127.002C88.2496 128.878 87.3912 127.564 83 127.5C81.162 127.682 75.5355 127.5 72 127.5C70 127.5 67.5 125.5 65 124.5L59.5 123.5C56.4365 123.289 53.1885 122.99 48.9993 122.986C47.6959 122.985 47.0555 123.555 46.5444 123.893C45.6874 124.458 46.0333 125.825 45.3536 126.222C44.1255 126.939 42.4046 127.072 39.5101 127.247C37.724 127.355 36.1557 126.738 33.3771 126.734C31.5423 126.732 30.8132 128.659 29.6802 129.685C28.5086 130.746 21.1093 130.711 16.7327 130.033C15.2198 129.798 15.2523 127.988 14.9133 127.421C14.0664 126.004 11.6202 126.625 10.9966 125.946C10.4218 125.319 10.2539 123.232 10.4225 120.564C10.4847 119.58 10.9194 119.362 11.2603 119.191L11.2709 119.186C11.9294 118.855 12.8604 118.785 13.8809 118.673C14.3499 118.621 14.6765 118.336 14.8502 117.489C15.685 113.421 14.4584 111.978 13.7804 109.65C13.2182 109.245 12.0938 109.245 11.5145 108.908C10.9353 108.57 10.5 108 10.935 106.86C11.6566 104.969 10.935 102.332 10.5977 100.117C10.4078 98.8701 8.66579 99.0268 8.21263 98.347C7.28157 96.9504 7.18705 93.4832 7.46985 90.8545C7.65091 89.1715 7.41534 87.7829 7.13254 87.1031C6.98562 86.75 6.7373 86.4234 6.22791 86.2496C5.71853 86.0758 4.93146 86.0758 4.41356 85.9072C3.89566 85.7385 3.67078 85.4012 3.55493 83.9906C3.43909 82.58 3.43925 80.1064 3.77981 77.5577C3.96752 76.153 6.50924 76.1914 7.81592 75.1113C8.89772 73.687 9.57251 71.437 11.1107 70.9681C11.8484 70.7432 12.7908 70.8071 13.3254 70.227C14.0052 69.4893 16.3976 64.325 13.8842 63.0735C12.6321 62.45 10.8629 62.141 9.96589 60.7429C9.4565 59.9491 8.67484 58.9092 9.12089 58.1875C9.57576 57.4515 13.1613 58.4472 14.2318 56.656C14.5708 56.0886 14.5799 52.9973 14.9677 50.6354C15.0239 50.2929 15.0239 49.9556 14.4447 49.787C13.8655 49.6183 12.548 49.9141 12.063 49.3866C10.7036 47.9079 9.98779 46.6415 9.62687 45.1838C9.23163 43.5875 10.1446 41.8602 10.1414 38.986C10.138 35.9825 9.86515 34.405 9.57065 32.9177C9.23163 31.2056 9.59371 28.9779 9.91478 27.4661C10.2538 25.8698 10.7696 23.3356 12.3595 22.4711C12.983 22.1321 14.625 22.6988 14.7428 21.8459C14.9081 20.6499 14.1554 18.4987 14.6832 17.2495C14.9999 16.5001 16.2775 16.2206 17.0782 15.7146C18.5535 15.546 20.0236 15.4169 20.4224 16.0043C21.2725 17.2564 21.5036 19.1268 22.9216 19.9226C24.23 20.6568 25.6324 20.9554 30.9371 20.2582C33.0888 19.9754 35.0366 20.296 35.6391 19.0605C35.8078 18.7147 35.7064 18.0903 35.9815 17.7556C36.4926 17.1338 37.4993 16.8397 38.8794 16.5664C40.5915 16.2274 42.7253 16.6488 46.6615 15.7129C47.3924 15.5392 47.2814 15.1409 47.5082 14.8594C48.4214 13.7265 49.9746 13.0517 51.8286 12.8764C53.6481 12.7043 55.6163 12.8508 56.9378 12.0791C57.6175 11.6822 57.9657 10.7933 58.7555 10.1455C60.3467 8.84053 60.2736 6.94356 61.8221 6.17266C62.6159 5.77742 63.5793 5.94851 64.0351 5.49121C64.5444 4.98013 64.9977 3.16488 66.8835 3.05163C68.7558 2.93919 70.2132 3.15148 71.0233 3.22369C72.9535 3.39576 76.7745 2.32733 77.6061 4.13683C77.9451 4.8745 78.311 5.81063 79.2586 6.35154C80.4494 7.03129 83.6828 7.59727 87.5569 7.31068C91.3799 7.02788 96.0552 4.35715 103.913 6.86092C106.576 7.70933 111.929 9.2706 112.168 11.0148C112.168 11.624 112.168 12.2153 112.199 12.6023C112.288 13.1668 112.469 13.5878 112.86 13.9426C113.132 14.0609 113.554 14.0184 113.845 14.0913C114.681 14.301 115.456 14.6613 115.873 15.497C116.051 15.8545 114.071 22.8519 116.953 23.2601L117.038 23.2722C117.834 23.3846 118.486 23.4766 118.831 23.7994C119.278 24.2169 119.132 26.8568 119.576 30.3799C119.755 31.8017 120.075 32.2658 120.294 33.4278C120.712 35.6363 120.544 38.0347 120.979 39.4815C121.31 40.5835 122.528 40.9657 122.651 41.9587C122.74 42.6745 121.537 44.2696 122.652 46.9767C122.921 47.6289 123.18 48.1765 123.7 48.4953C123.941 48.6431 124.246 48.6736 124.476 48.5822C125.188 48.298 127.026 48.3098 127.5 48.5001C127.629 48.473 128.318 48.8636 128.509 48.8519C129.976 48.7614 132.445 48.1148 133.674 48.8841C134.151 49.1825 134.767 49.6868 134.836 50.5622C134.986 52.4705 134.574 54.4862 135.884 54.5579C136.899 54.6135 137.976 54.1442 138.002 54.6816C138.089 56.4734 137.062 59.4448 138.212 60.591C138.51 60.8885 138.899 60.9247 139.258 61.0981C140.307 61.6052 141.859 60.6346 143.141 61.6661C143.586 62.0245 143.765 63.184 144.273 64.0555Z" fill="#E698E8" stroke="black" stroke-width="6" stroke-linecap="round"/>
<path d="M36.4794 77.0001H23.4594V75.5801L25.3394 74.1001V63.5001L23.0594 62.8801L23.8594 61.2801H36.2794L37.9394 60.9201V66.3201L36.5394 66.9201L34.0194 63.1801H29.6394V68.0201H31.5794L33.0394 65.9601H34.4594V71.6401L32.8594 72.4401L31.5194 69.9201H29.6394V75.1001H33.8394L36.7394 70.9601L38.1394 71.5601V77.3601L36.4794 77.0001ZM47.9837 73.8601C47.9837 73.4735 47.8304 73.1001 47.5237 72.7401C47.2171 72.3801 46.8371 72.0468 46.3837 71.7401C45.9304 71.4335 45.3037 71.0468 44.5037 70.5801C43.5171 70.0068 42.7237 69.5135 42.1237 69.1001C41.5237 68.6735 41.0104 68.1801 40.5837 67.6201C40.1571 67.0601 39.9437 66.4401 39.9437 65.7601C39.9437 65.0935 40.2637 64.3801 40.9037 63.6201C41.5571 62.8468 42.3504 62.2001 43.2837 61.6801C44.2171 61.1468 45.0771 60.8801 45.8637 60.8801C46.8104 60.8801 47.9104 60.9801 49.1637 61.1801C50.4304 61.3801 51.3571 61.5935 51.9437 61.8201V66.5001H49.3837C48.8904 65.4335 48.3304 64.6001 47.7037 64.0001C47.0904 63.3868 46.4504 63.0801 45.7837 63.0801C45.3837 63.0801 45.0704 63.2068 44.8437 63.4601C44.6171 63.7135 44.5037 64.0401 44.5037 64.4401C44.5037 64.8668 44.6571 65.2735 44.9637 65.6601C45.2837 66.0335 45.6771 66.3801 46.1437 66.7001C46.6237 67.0068 47.2704 67.3935 48.0837 67.8601C49.0437 68.4068 49.8171 68.8868 50.4037 69.3001C51.0037 69.7001 51.5104 70.1735 51.9237 70.7201C52.3371 71.2668 52.5437 71.8735 52.5437 72.5401C52.5437 73.2068 52.1971 73.9268 51.5037 74.7001C50.8237 75.4601 49.9904 76.1068 49.0037 76.6401C48.0171 77.1601 47.1171 77.4201 46.3037 77.4201C45.3171 77.4201 44.1437 77.3201 42.7837 77.1201C41.4237 76.9201 40.4437 76.7068 39.8437 76.4801V71.8001H42.4037C42.9371 72.8801 43.5571 73.7201 44.2637 74.3201C44.9704 74.9201 45.6837 75.2201 46.4037 75.2201C46.8837 75.2201 47.2637 75.0868 47.5437 74.8201C47.8371 74.5535 47.9837 74.2335 47.9837 73.8601ZM62.2876 69.1401C62.8876 69.1401 63.361 68.8935 63.7076 68.4001C64.0543 67.9068 64.2276 67.2268 64.2276 66.3601C64.2276 65.4268 64.001 64.6668 63.5476 64.0801C63.1076 63.4801 62.4543 63.1801 61.5876 63.1801C61.0676 63.1801 60.581 63.3335 60.1276 63.6401V74.7001L63.8276 75.4001L63.0276 77.0001H53.9476V75.5801L55.8276 74.1001V63.5601L53.5476 62.8801L54.3476 61.2801H58.2676C59.3876 61.2801 60.4943 61.2401 61.5876 61.1601C62.3876 61.1068 62.9743 61.0801 63.3476 61.0801C64.441 61.0801 65.4076 61.2868 66.2476 61.7001C67.101 62.1135 67.761 62.6801 68.2276 63.4001C68.6943 64.1201 68.9276 64.9201 68.9276 65.8001C68.9276 66.7601 68.541 67.6735 67.7676 68.5401C67.0076 69.3935 66.041 70.0668 64.8676 70.5601C63.7076 71.0401 62.5876 71.2535 61.5076 71.2001L60.6676 70.7201L61.4676 69.1201H62.2876V69.1401ZM85.1772 77.0001H76.8972V75.5801L79.2772 74.3401L78.2572 71.8201H72.4172L71.5972 73.8601L74.3972 75.4001L73.5972 77.0001H66.9172V75.5801L69.2572 73.8401L74.0572 61.9201L78.3372 60.9001L83.8972 74.4601L85.9772 75.4001L85.1772 77.0001ZM75.2972 64.5601L73.1572 69.9201H77.4772L75.2972 64.5601ZM101.964 64.3401V76.9801H99.8644L90.5644 67.0801V74.3201L93.8644 75.4001L93.0644 77.0001H86.5844V75.5801L88.4644 73.9401V64.1801L86.1844 62.8801L86.9844 61.2801H90.8044L99.8644 70.9001V63.9401L96.5844 62.8801L97.3844 61.2801H103.864V62.6801L101.964 64.3401ZM94.8244 53.8601C95.491 54.5268 96.0044 55.0001 96.3644 55.2801C96.7377 55.5468 97.071 55.6801 97.3644 55.6801C97.591 55.6801 97.831 55.6001 98.0844 55.4401L99.3044 54.6801L100.184 56.1401L95.1444 59.2401C94.4777 58.5601 93.9577 58.0868 93.5844 57.8201C93.2244 57.5535 92.9044 57.4201 92.6244 57.4201C92.4244 57.4201 92.171 57.5068 91.8644 57.6801L90.6644 58.4201L89.7844 56.9601L94.8244 53.8601ZM122.326 77.0001H114.046V75.5801L116.426 74.3401L115.406 71.8201H109.566L108.746 73.8601L111.546 75.4001L110.746 77.0001H104.066V75.5801L106.406 73.8401L111.206 61.9201L115.486 60.9001L121.046 74.4601L123.126 75.4001L122.326 77.0001ZM112.446 64.5601L110.306 69.9201H114.626L112.446 64.5601Z" fill="black"/>
</svg>
