<svg width="227" height="105" viewBox="0 0 227 105" fill="none" xmlns="http://www.w3.org/2000/svg">
<path d="M192.562 96.269C193.312 96.1337 195.736 96.3083 198.713 96.8495C199.983 97.0805 200.229 96.1054 201.21 96.1151C203.718 96.14 204.646 96.3103 205.234 96.7805C205.804 97.2359 205.653 98.8244 206.682 99.1301C207.951 99.5072 209.652 99.4873 210.858 99.3407C211.83 99.2226 212.711 99.3254 213.013 98.7701C213.155 98.5096 213.379 98.0931 213.44 97.5347C213.535 96.6581 213.758 95.9059 213.748 94.8001C213.723 92.104 213.417 90.8598 213.915 90.1122C214.104 89.8283 214.334 89.5729 214.627 89.4256C215.246 89.1153 215.956 88.6413 216.287 87.9775C216.428 87.6936 216.44 86.7773 216.499 85.5788C216.618 83.2035 216.564 79.5058 216.784 78.7262C216.999 77.9663 217.181 77.1975 217.877 76.6399C218.471 76.1646 219.589 75.8173 219.75 74.2896C219.842 73.4122 219.335 72.7688 219.345 71.5293C219.37 68.3372 219.302 67.4384 219.607 66.6536L219.637 66.5763C219.933 65.8128 220.496 64.3604 221.054 63.6415C221.459 63.1199 224.291 61.1254 223.426 59.1206C222.483 56.9363 217.909 57.3197 216.706 56.6632C214.577 55.5015 208.41 55.5068 204.613 54.8593C201.241 54.2844 201.143 52.2934 200.592 52.1956C199.777 52.0508 199.936 50.3932 199.638 49.4897C199.341 48.5916 197.831 49.2819 197.329 49.0846C196.364 48.7048 196.825 47.0774 196.476 46.5263C195.642 45.2107 193.419 46.171 191.21 44.7224C190.699 44.3874 190.702 43.8701 190.552 43.5163C190.262 42.8357 187.613 42.5571 183.949 42.3087C182.65 42.2205 182.571 41.5633 182.619 40.9098C182.668 40.2563 182.866 39.4612 182.969 38.8032C183.071 38.1452 183.071 37.6483 182.326 37.3923C178.473 36.0693 174.669 36.4437 172.135 36.1816C170.231 35.9848 168.025 36.534 166.361 35.6351C165.748 35.3036 165.706 34.2302 165.157 33.4773C164.182 32.1413 162.599 31.9203 161.444 30.6163C161.083 30.2096 160.298 30.1134 159.89 29.8122C159.195 29.2995 159.28 28.3064 159.081 27.6544C158.623 26.1522 155.973 26.9994 154.217 26.5492C152.912 26.2145 152.956 24.1927 152.807 23.2395C152.747 22.8574 152.359 22.7833 152.007 22.7321C150.564 22.5224 148.95 23.1808 147.44 23.5331C147.045 23.6252 146.541 23.5843 146.086 23.3856C145.133 22.969 144.725 21.9822 144.425 21.3302C143.81 19.9906 137.341 20.9733 130.565 20.5773C127.771 20.414 127.863 17.6636 127.112 17.4122C126.773 17.2986 126.46 17.4588 126.207 17.3113C125.595 16.9546 125.451 15.9591 125.002 15.3568C123.808 13.754 121.741 14.3509 120.988 13.6025C119.025 11.6515 121.033 9.63482 120.884 8.98282C120.509 7.34241 117.425 7.12319 116.12 6.87022C114.195 6.49725 112.408 7.42133 111.104 7.72098C109.645 8.05633 109.89 10.0263 109.741 10.9795C109.682 11.3616 109.294 11.4357 108.942 11.4869C107.302 11.7252 102.898 11.237 100.008 11.0864C98.4532 11.0054 96.5492 11.8393 94.8883 12.8888C94.2612 13.2851 93.0347 13.3451 91.6298 13.196C90.2375 13.0482 88.5204 12.1404 86.2617 11.6405C85.2336 11.413 83.4249 11.5381 82.4536 11.24C81.12 10.8306 81.1813 9.33367 80.8319 8.68166C80.4834 8.03127 78.9798 8.22542 77.6261 7.92727C76.4165 7.66087 75.9653 5.92158 75.0136 5.119C73.7046 4.01503 65.2953 4.00924 60.6094 3.00941C56.1884 2.904 54.785 3.70206 52.7341 4.50916C51.5868 4.61155 49.5743 4.29386 47.5513 4.61155C45.4834 4.93628 47.8006 6.4758 46.8451 7.22393C45.9432 7.93014 45.7875 10.5974 44.1317 11.2398C42.3233 11.9415 40.0662 11.5643 39.518 12.848C39.2184 13.5497 39.2511 14.7903 38.4625 15.0555C36.3845 15.7542 33.0262 14.7129 30.4276 16.1577C28.9761 16.9648 27.018 17.2033 26.0654 19.2731C25.4646 20.5787 25.3922 22.0109 24.1079 23.4893C23.1517 24.59 22.9487 25.9859 21.5978 26.7493C20.4413 27.4028 19.2729 28.1204 18.0336 28.4042C16.7251 28.7038 15.9157 29.2544 15.2735 29.5606C13.9123 30.2096 12.219 30.7117 11.107 31.8208C9.38894 33.5344 7.72358 36.7784 5.98288 37.2882C5.47392 37.4373 4.67887 37.4373 4.17896 37.5909C3.67904 37.7445 3.42346 38.0348 3.3809 38.5501C3.28151 39.7532 2.81329 40.9961 3.08125 41.8598C3.4863 43.1653 3.622 44.5809 3.88396 47.3754C3.9834 48.4363 5.40371 47.9125 8.40871 48.4146C10.9973 48.8472 12.8698 49.2152 14.2713 49.0481C15.5896 48.891 16.7078 48.8977 18.7235 49.2572C21.0224 49.6673 22.6682 49.6942 23.175 49.4582C23.5153 49.2996 24.7382 48.7878 26.3704 49.2566C27.4816 49.5757 28.0696 50.0127 28.2531 50.4415C28.3891 50.7593 28.2795 51.1871 28.5039 51.5349C28.7089 51.8527 28.9651 52.1183 29.2563 52.2395C29.529 52.3529 30.685 52.7261 32.2002 52.3515C33.4939 52.0317 34.4223 51.0458 35.1791 50.3458C35.7709 49.7985 36.0915 49.488 36.6422 49.4137C38.8761 49.1124 41.0974 47.3706 43.0173 48.0941C43.5613 48.2992 43.8813 48.5538 44.0396 48.9859C44.2898 49.6686 44.1437 51.1997 44.3342 52.9297C44.4715 54.1775 44.8717 55.0504 44.5146 56.0479C44.0588 57.321 43.6698 57.8729 43.7649 58.5278C43.7882 58.6878 43.8267 58.866 44.1346 58.8907C44.9772 58.9584 46.1095 58.8246 46.4772 59.4162C46.9317 60.1474 47.0973 61.4527 47.9369 61.7841C48.1672 61.875 48.4827 61.9258 48.9661 61.9426C50.9444 62.0117 51.9834 61.4363 52.3522 62.1019L53.744 64.4266C54.4834 65.4363 56.0682 64.5927 56.4543 65.2029C57.0016 66.0681 57.0179 67.1785 57.9584 67.3658C59.6641 67.7054 62.6863 67.2423 62.8082 67.7758C62.8759 68.0717 62.8735 68.6572 62.5089 69.3736C61.8262 70.715 61.2271 71.4821 61.1442 72.4016C61.0991 72.9018 61.1289 73.3922 61.3971 73.538C61.6472 73.674 65.3283 72.6512 65.6798 74.4797C65.9292 75.7774 65.9864 76.8043 66.2497 77.0013C66.6139 77.274 68.7335 78.1768 72.0857 77.5221C72.9009 77.3628 73.8562 76.8623 74.8424 77.3888C76.6882 78.3742 77.8151 79.4606 78.5729 79.825C79.1428 80.099 79.9775 80.0098 80.9695 80.5562C82.7893 81.5587 82.8683 83.2299 84.0863 83.6751C84.5182 83.833 85.4816 84.7231 88.7374 83.9232C89.8499 83.6498 93.0768 82.6998 94.0403 84.0872C94.4039 84.6107 94.2471 86.5253 96.2278 87.6168C96.6358 87.8416 97.619 88.3208 99.2414 88.3671C101.563 88.4334 103.429 88.2148 104.337 88.6179C104.746 88.7997 104.976 89.2936 105.384 89.5979C105.656 89.8015 107.006 89.4731 108.072 90.0072C108.39 90.1665 108.703 90.3663 108.96 90.7384C109.575 91.6261 109.368 92.9048 109.939 93.6065C110.031 93.72 110.174 93.7526 110.304 93.8341L112.354 95.1531C112.825 95.1531 112.627 94.9938 112.741 94.879C113.175 94.4471 113.78 93.7827 115.34 93.8553C116.367 93.9032 118.159 94.347 120.267 95.0902C122.971 96.0435 123.85 96.7841 125.73 97.0241C127.299 97.2244 128.992 96.0803 131.058 96.0886C131.399 96.09 131.613 96.1592 131.716 96.3647C131.943 96.8198 132.178 97.5061 132.929 98.1449C133.998 99.0544 135.478 100.018 137.123 100.556C138.509 101.01 139.711 101.305 141.137 101.074C143.253 100.733 145.335 100.162 147.266 100.028C149.54 99.869 151.772 99.5427 153.224 98.8644C153.902 98.5474 154.18 98.4209 154.496 98.3198C155.503 97.9979 158.59 95.968 160.581 97.208C161.422 97.7314 161.917 98.5363 162.515 98.9157L162.551 98.9389C163.545 99.5696 164.583 100.228 169.104 99.9373C170.166 99.869 171.788 99.7413 174.325 99.7098C176.14 99.6872 177.555 99.9125 179.039 99.8922C180.744 99.869 181.774 99.7092 182.197 99.5027C183.983 98.6321 185.912 97.0297 187.516 96.9988C189.861 96.9537 191.684 96.4275 192.562 96.269Z" fill="#BF7C52" stroke="black" stroke-width="6" stroke-linecap="round"/>
<path d="M82.0004 51.2634L69.6379 47.1783L70.0834 45.83L72.3328 45.0146L75.6587 34.9499L73.6883 33.6458L74.9499 32.3776L86.7428 36.2745L88.4319 36.4535L86.7376 41.5808L85.22 41.7113L84.0007 37.3695L79.8419 35.9952L78.3233 40.5908L80.1654 41.1995L82.198 39.7016L83.5463 40.1471L81.7641 45.5403L79.9939 45.7979L79.5123 42.9847L77.7272 42.3949L76.1019 47.3133L80.0898 48.6311L84.1424 45.61L85.2834 46.619L83.4636 52.1261L82.0004 51.2634ZM103.365 47.4967L101.848 47.6271L100.393 42.7863L98.9691 42.3157L95.3044 53.4059L97.3188 54.6402L96.0572 55.9084L88.765 53.4988L89.2105 52.1505L91.46 51.3351L94.8862 40.9665L93.5189 40.5147L89.4664 43.5357L88.3254 42.5268L90.1452 37.0197L91.6084 37.8823L103.496 41.8106L105.185 41.9896L103.365 47.4967ZM108.753 60.1038L101.461 57.6941L101.907 56.3458L104.206 55.3785L107.482 45.4657L105.505 44.1806L106.767 42.9124L114.059 45.3221L113.613 46.6704L111.289 47.6504L108.019 57.5442L110.015 58.8356L108.753 60.1038ZM124.927 48.4711C126.447 48.9731 127.682 49.7394 128.633 50.7699C129.585 51.8005 130.188 52.99 130.445 54.3386C130.701 55.6872 130.591 57.0831 130.114 58.5263C129.625 60.0076 128.692 61.2159 127.316 62.1513C125.952 63.0909 124.44 63.6935 122.779 63.9593C121.123 64.2123 119.662 64.1297 118.396 63.7114C116.877 63.2093 115.639 62.4494 114.684 61.4315C113.745 60.4052 113.141 59.2156 112.872 57.8628C112.615 56.5143 112.726 55.1184 113.202 53.6751C113.692 52.1939 114.618 50.9835 115.982 50.0439C117.363 49.0958 118.881 48.4953 120.537 48.2422C122.198 47.9765 123.661 48.0528 124.927 48.4711ZM122.985 50.6518C122.352 50.4426 121.701 50.4591 121.031 50.7012C120.378 50.9348 119.774 51.3601 119.219 51.9771C118.677 52.5983 118.259 53.3521 117.966 54.2383C117.611 55.3144 117.445 56.3478 117.468 57.3386C117.492 58.3294 117.739 59.1973 118.209 59.9424C118.691 60.6917 119.401 61.2211 120.338 61.5306C120.971 61.7398 121.614 61.7276 122.267 61.494C122.937 61.2519 123.543 60.8203 124.085 60.1991C124.64 59.582 125.064 58.8304 125.357 57.9442C125.717 56.8554 125.885 55.8157 125.861 54.8249C125.837 53.8341 125.588 52.9725 125.114 52.2401C124.644 51.495 123.935 50.9656 122.985 50.6518ZM139.626 62.0276C140.196 62.2159 140.723 62.1302 141.207 61.7705C141.691 61.4109 142.069 60.8196 142.341 59.9967C142.634 59.1105 142.657 58.3178 142.41 57.6185C142.181 56.9107 141.655 56.4209 140.832 56.149C140.338 55.9858 139.828 55.9787 139.301 56.1276L135.831 66.6291L139.125 68.4547L137.863 69.7229L129.241 66.874L129.687 65.5257L131.936 64.7103L135.243 54.7025L133.292 53.3415L134.554 52.0733L138.276 53.3032C139.339 53.6546 140.402 53.9639 141.466 54.231C142.242 54.4313 142.807 54.5901 143.162 54.7072C144.2 55.0503 145.053 55.5498 145.721 56.2058C146.401 56.866 146.85 57.6111 147.067 58.4412C147.285 59.2713 147.255 60.1041 146.979 60.9396C146.678 61.8512 146.024 62.5971 145.018 63.1773C144.029 63.7491 142.899 64.0851 141.631 64.1854C140.379 64.2772 139.248 64.1284 138.239 63.7389L137.592 63.0196L138.854 61.7514L139.633 62.0086L139.626 62.0276ZM151.703 74.2964L144.411 71.8868L144.857 70.5385L147.156 69.5711L150.432 59.6583L148.455 58.3733L149.717 57.1051L157.009 59.5147L156.564 60.863L154.239 61.8431L150.969 71.7369L152.965 73.0282L151.703 74.2964ZM159.596 54.7456L153.337 55.7106L152.241 54.6952L155.502 51.6445L159.447 53.3482L159.596 54.7456ZM170.188 80.4045L162.326 77.8066L162.771 76.4583L165.42 76.0277L165.243 73.3149L159.697 71.4825L158.279 73.1622L160.454 75.503L159.193 76.7712L152.85 74.6753L153.295 73.327L156.063 72.409L164.361 62.597L168.745 62.9714L169.769 77.5912L171.449 79.1363L170.188 80.4045ZM164.71 65.4928L160.996 69.9106L165.098 71.2661L164.71 65.4928Z" fill="black"/>
</svg>
