<svg width="161" height="173" viewBox="0 0 161 173" fill="none" xmlns="http://www.w3.org/2000/svg">
<path d="M137.695 122.569C137.411 127.13 139 130.5 137.205 131.009C135.498 131.493 132.972 129.822 129.227 129.693C125.307 129.557 120.177 129.648 118.004 130.456C116.586 130.984 115.315 131.526 113.991 132.799C112.64 134.098 111.733 135.528 109.008 136.514C107.065 137.216 105.254 137.913 103.077 139.284C101.727 140.134 99.9643 141.411 97.7968 143.537C95.0745 146.206 93.2189 147.985 92.6661 148.624C90.7834 150.798 85.3782 149.777 83.8019 150.077C81.8564 150.448 80.7695 148.333 78.469 148.711C77.2825 148.905 75.9101 149.439 74.4182 149.312C72.7248 149.168 72.8317 145.948 72.1932 144.454C72.0479 144.114 71.7262 143.983 71.5535 144.107C71.3807 144.231 71.2963 144.654 71.0839 144.787C70.0567 145.43 68.0669 144.065 66.607 144.659C65.0266 145.301 64.8989 147.387 64.0481 148.115C63.1893 148.849 61.2396 148.159 59.9115 148.669C59.237 148.927 58.673 149.436 58.2469 149.947C57.5027 150.838 57.2272 153.262 56.1575 155.318C55.3199 156.928 54.1564 158.134 53.2992 159.159C52.5376 160.069 52.36 161.712 51.806 162.997C51.3742 164 50.0621 164.787 48.569 165.261C46.7354 165.842 44.9493 165.048 43.2847 165.091C42.7167 165.105 43.1499 166.669 41.9996 168C41.5589 168.51 41.3169 169.894 39.8225 169.95C37.9996 170.019 36.4653 168.093 35.6057 167.405C35.1111 167.01 33.7137 167.473 32.6637 166.679C32.1394 166.282 31.9689 165.732 31.6081 165.19C30.6149 163.697 30.4882 160.927 29.8586 159.674C29.7585 159.475 29.6276 159.278 29.2926 159.18C28.9576 159.082 28.4342 159.082 28.0714 159.015C27.7086 158.947 27.5123 158.816 27.4142 158.414C27.3161 158.012 27.4485 157.314 27.2487 156.929C26.7174 155.906 26.441 154.767 25.6944 154.157C25.3316 153.86 23.8144 153.629 22.2182 153.564C19.7788 153.464 18.95 153.427 17.6972 153.101C16.8051 152.869 15.7082 152.882 15.2876 152.108C15.0903 151.745 14.8868 151.293 14.8257 150.786C14.6284 149.15 14.4143 146.763 13.999 145.995C13.5698 145.201 12.4996 145 12.413 143.22C12.413 143.22 11.7444 138.185 11.7201 137.187C11.5873 131.72 11.1318 130.834 10.496 129.772C10.0014 128.945 8.68265 128.646 8.51354 127.558C8.08632 124.81 8.04959 119.907 7.22494 119.332C6.89486 119.102 6.04651 119.754 5.34063 119.1C4.91242 118.704 4.31579 117.98 3.92119 117.051C3.52668 116.122 3.5345 114.766 3.32861 114.279L5.14488 108.714C6.29706 107.015 9.98438 107.372 12.249 106.251C13.9434 105.412 15.6238 104.282 18.435 101.962C19.4267 101.144 21.2505 101.884 22.8672 101.675C24.8481 101.419 25.3323 99.0729 27.0925 98.2287C28.049 97.7699 29.1355 97.9458 29.9776 97.5258C31.9458 96.5442 31.951 93.8725 32.5842 91.8316C32.8914 90.8414 33.6395 90.0693 34.2705 89.3665C35.5937 87.8928 38.4177 88.5201 40.5283 88.2373C41.7157 88.0782 42.6431 87.3931 43.4155 86.9731C45.0628 86.0774 45.0364 83.7418 45.9503 81.9816C46.1982 81.5042 46.3028 80.9306 46.1656 80.5042C45.6134 78.7882 42.7993 78.8116 38.1624 78.5984C35.9041 78.4946 34.6356 76.701 33.5044 75.0886C32.6567 73.8803 34.1966 72.2013 35.1865 70.2343C36.3285 67.965 37.4384 66.4353 37.9323 63.6283C38.0041 62.3662 38.0041 60.416 37.8648 59.2024L37.8588 59.1506C37.7249 57.9825 37.6989 57.7564 37 56.4999C35.3708 54.1998 35.4983 52.5015 36.4997 51.4999C38.4996 49.4999 40.2858 50.3312 41.0003 49.9999C42.8311 49.2967 43.4703 49.6716 45.7628 48.8081C46.5112 48.5262 47.2623 48.1135 47.261 47.4424C47.2581 46.0796 46.6475 44.3234 48.2518 42.7464C48.583 42.4208 49.0313 42.5176 49.2369 42.277C50.0825 41.2877 51.0359 40.55 51.6315 39.5978C52.3376 38.4689 52.4708 37.1268 53.3227 35.9799C54.1247 34.9003 55.0243 34.0045 56.849 33.0216C58.0709 32.3634 58.252 30.6879 59.338 30.4396C59.9482 30.3001 61.0542 29.9787 62.6768 29.7829C64.6499 29.5447 66.6115 27.6683 68.2171 26.8683C69.4418 26.258 70.4691 25.5498 71.4107 25.0361C72.4466 24.4709 74.0097 24.0653 75.264 23.4857C76.5846 22.8755 78.2296 22.8416 79.6331 22.0284C79.9614 21.8382 80.2169 21.5617 80.1926 21.2758C80.1447 20.7135 79.6944 20.1049 79.9121 19.5846C80.1475 19.0222 80.7018 18.7858 81.1834 18.412C82.2165 17.61 82.1125 15.7315 83.203 14.8406C83.7189 14.4192 84.2778 13.9089 85.0395 13.9978C87.1042 14.2388 88.2985 15.0808 89.4057 15.9751C90.8644 17.1534 91.4204 19.5318 92.6952 19.7311C93.5874 19.8707 95.4306 19.6073 96.9699 18.6459C98.4751 17.7059 99.6605 16.4734 100.823 15.2127C102.512 13.3819 102.988 12.2031 103.732 11.1283C104.581 9.90352 105.511 7.21871 107.451 7.04389C109 6.90436 110.304 6.93238 110.828 6.47731C111.532 5.86705 111.743 5.05414 112.047 4.45767C112.191 4.17579 112.468 3.87583 114.095 3.89673C121.775 3.99539 123.091 3.20167 125.5 4.45767C126.541 5 125.371 8.50684 124.682 10.0579C123.782 12.0856 122.714 14.598 122.666 16.8648C122.639 18.1647 124.076 18.7975 124.636 19.7395C125.257 20.7823 125.623 23.9994 125.879 26.378C125.999 27.4981 126.564 28.4765 126.907 29.5483C127.357 30.9548 127.849 32.0772 128.233 32.5052C129.591 34.0179 132.904 33.1053 133.075 33.618C133.246 34.1308 133.503 34.6473 133.887 35.1177C135.203 36.7287 138.983 35.8476 139.969 36.2755C141.017 36.7297 140.787 39.2607 141.298 40.8143C141.491 41.3996 141.984 41.9284 142.369 42.4849C143.034 43.4483 144.637 43.3009 145.581 43.9421C146.564 44.6094 146.611 46.2102 147.249 47.9656C147.465 48.5581 148.903 48.2715 149.471 48.4835C151.002 49.055 150.895 50.839 151.193 51.2669C151.944 52.345 153.632 52.0392 155.13 52.5956C155.514 52.7381 155.858 52.8102 156.117 53.066C157.931 54.853 156.552 58.8037 155.911 59.8331C155.187 60.994 153.417 62.6681 152.609 64.0724C151.5 66 152.095 72.1477 152.607 74.9928C152.798 76.0567 153.208 76.797 153.337 77.3521C153.7 78.9212 152.183 80.6496 151.669 81.7213C151.111 82.8845 150.471 84.1603 149.742 85.3195C148.912 86.6396 148.584 87.8459 148.284 89.1733C147.927 90.7482 147.299 91.958 146.999 93.0722C146.798 93.814 147.125 94.5307 147.509 94.9586C148.26 95.7956 149.777 95.6435 150.806 96.2874C151.751 96.8438 152.35 97.6148 152.778 98.1276C152.951 98.3858 152.778 98.7542 152.448 99.3251C151.261 101.381 152.529 103.76 152.53 104.211C152.534 105.625 149.573 104.993 149.327 105.606C148.722 107.113 148.425 108.358 148.052 109.469C148.011 109.758 148 110.5 146.931 110.671C144.926 110.992 142.207 111.809 141.681 112.969C141.271 113.875 142.53 118.206 140.777 119.954C140.366 120.363 137.849 120.113 137.695 122.569Z" fill="#EC96EE" stroke="black" stroke-width="6" stroke-linecap="round"/>
<path d="M41.665 121.058L40.7696 122.291L36.6042 120.419L32.9277 122.611L35.4058 126.768L37.0722 125.775L37.2717 123.258L38.4914 122.531L41.6043 127.754L40.6396 129.26L37.9591 127.458L36.3786 128.4L38.8259 132.506L42.3626 131.213L42.4946 132.997L34.695 137.646L33.9679 136.426L34.8251 134.193L29.3979 125.087L27.122 125.722L26.99 123.938L37.6586 117.579L38.9002 116.42L41.665 121.058ZM61.9108 121.424L57.8564 123.841L51.3512 119.802L50.3839 119.82L50.2849 118.482L50.9892 118.062C51.5046 117.755 51.802 117.329 51.8813 116.785C51.9538 116.23 51.7887 115.614 51.3859 114.938C50.9422 114.194 50.3925 113.714 49.7369 113.5C49.0858 113.267 48.3881 113.372 47.6437 113.816C47.197 114.082 46.8574 114.463 46.625 114.959L52.3389 124.545L54.6218 123.883L54.7538 125.667L48.1568 129.599L47.4297 128.379L48.2049 126.008L42.8597 117.04L40.594 117.692L40.462 115.908L43.8293 113.901C44.7913 113.328 45.7215 112.727 46.6197 112.098C47.2795 111.643 47.7698 111.32 48.0905 111.128C49.0297 110.569 49.9556 110.234 50.8683 110.125C51.7856 109.997 52.6086 110.089 53.3371 110.399C54.0656 110.71 54.6347 111.209 55.0443 111.896C55.5085 112.675 55.595 113.602 55.3037 114.675C55.0239 115.742 54.487 116.769 53.693 117.754L55.4677 117.255L59.7064 119.874L61.7788 119.64L61.9108 121.424ZM78.1133 111.767L71.0009 116.006L70.2739 114.786L71.6834 112.503L69.517 110.86L64.5005 113.85L64.8406 116.023L68.0343 115.912L68.1663 117.696L62.4282 121.116L61.7012 119.896L62.8203 117.203L60.8405 104.507L63.9947 101.439L75.7134 110.24L77.9813 109.983L78.1133 111.767ZM63.2573 106.14L64.1634 111.839L67.8742 109.628L63.2573 106.14ZM86.0515 92.2971L92.5231 103.155L90.7192 104.23L77.6619 100.488L81.3687 106.707L84.7563 105.945L84.8883 107.729L79.3221 111.046L78.5951 109.827L79.3703 107.455L74.3732 99.0716L71.7491 99.1223L71.6171 97.3383L74.8985 95.3825L87.6063 99.0073L84.0428 93.0287L80.6826 93.7976L80.5506 92.0136L86.1169 88.6958L86.8336 89.8984L86.0515 92.2971ZM95.0184 82.9245C95.7285 82.5012 96.6043 82.0956 97.6459 81.7076C98.6874 81.3196 99.4839 81.0933 100.035 81.0286L102.329 84.8768L100.13 86.1876C99.2214 85.627 98.3682 85.3284 97.5703 85.2917C96.7838 85.2483 96.0584 85.4245 95.3941 85.8205C94.8329 86.155 94.4302 86.6511 94.1859 87.309C93.9462 87.9486 93.8835 88.6767 93.9977 89.4933C94.1234 90.3032 94.4252 91.109 94.903 91.9107C95.4423 92.8155 96.0747 93.5639 96.8001 94.156C97.5187 94.7366 98.2918 95.083 99.1192 95.1952C99.9467 95.3074 100.773 95.1177 101.597 94.6262C102.685 93.9776 103.933 92.5818 105.341 90.4388L106.889 91.239L105.193 95.5799C104.738 96.0679 104.273 96.485 103.796 96.8312C103.331 97.1706 102.807 97.5143 102.222 97.8625C100.882 98.6612 99.5229 99.0757 98.144 99.106C96.7651 99.1362 95.4855 98.8124 94.3052 98.1344C93.1182 97.4449 92.1355 96.4474 91.3573 95.1417C90.5586 93.8017 90.2451 92.3121 90.4168 90.6731C90.5931 89.0158 91.1167 87.4853 91.9874 86.0815C92.8627 84.6595 93.8731 83.6071 95.0184 82.9245ZM116.168 89.0845L109.571 93.0166L108.844 91.7968L109.619 89.4255L104.274 80.4577L102.009 81.1097L101.877 79.3257L108.474 75.3936L109.201 76.6133L108.418 79.012L113.753 87.9627L116.036 87.3005L116.168 89.0845ZM132.891 79.1172L125.778 83.3565L125.051 82.1368L126.461 79.8531L124.294 78.2106L119.278 81.2007L119.618 83.3729L122.812 83.2621L122.944 85.0461L117.205 88.4662L116.478 87.2465L117.598 84.5538L115.618 71.857L118.772 68.7895L130.491 77.5907L132.759 77.3332L132.891 79.1172ZM118.035 73.4899L118.941 79.1897L122.651 76.9779L118.035 73.4899Z" fill="black"/>
</svg>
