<svg width="136" height="153" viewBox="0 0 136 153" fill="none" xmlns="http://www.w3.org/2000/svg">
<path d="M94.9897 5.23205C95.0746 4.59015 94.8828 4.01626 95.0746 3.73601C95.5254 3.07739 97.4801 2.96419 97.8673 3.00793C99.1961 3.30894 101.946 3.47874 103.782 3.82477C104.599 4.5953 106.316 4.71609 106.525 5.88423C106.739 7.0857 106.327 9.07397 107.47 9.56966C108.458 9.99802 109.802 10.2137 110.471 11.2432C111.113 12.2311 111.127 13.6582 112.145 14.1568C112.404 14.2842 112.744 14.2842 112.958 14.153C113.171 14.0218 113.291 13.6819 113.386 13.7709C114.118 14.4591 114.888 15.8692 115.918 15.7416L116.017 15.7292C117.398 15.5575 119.427 15.3051 119.946 16.1738C120.202 16.6022 119.51 19.8652 120.546 21.7489C121.064 22.6918 121.658 24.401 121.788 25.9528C121.918 27.4977 122.215 29.1987 122.303 30.7586C122.433 33.0702 121.999 34.0385 122.259 35.7716C122.433 36.9293 122.467 38.1593 123.206 38.9424C123.977 39.7593 123.342 41.7504 124.666 42.1146C125.438 42.3269 126.794 40.8244 128.525 41.9435C129.122 42.3294 128.887 44.1108 129.594 45.418C130.151 46.4484 131.574 46.9425 131.737 48.2081L131.764 48.4131C131.879 49.3114 131.979 50.0848 132.123 50.6072C132.467 51.8511 132.541 54.2484 132.422 56.1848C132.292 58.2829 132.262 59.3719 131.777 60.9843C131.35 62.4044 130.532 63.8575 130.363 65.0582C130.146 66.6031 130.001 68.2133 128.988 68.7423C128 69.2581 127.125 70.4004 125.943 70.8429C124.913 71.2288 123.55 71.4415 122.901 72.4316C122.34 73.287 120.867 73.6139 120.672 74.6621C120.545 75.3478 119.992 76.2565 120.072 77.5384C120.205 79.6365 120.528 81.3505 120.33 83.0724C120.025 85.7236 118.681 86.3617 118.055 87.6107C117.54 88.641 117.041 89.7839 116.339 90.6979C115.481 91.8158 114.954 93.7688 113.59 93.9113C111.535 94.1261 109.814 93.7437 109.007 94.6419C108.623 95.0703 108.263 95.5792 107.979 96.1006C107.419 97.131 106.997 98.9049 105.874 99.0567C104.931 99.1841 103.49 98.9349 102.833 99.7874C102.103 100.733 101.549 101.895 100.774 102.832C99.9576 103.82 99.1182 104.865 98.1143 105.662C96.8704 106.65 96.1083 107.773 94.8559 108.878C93.7831 109.825 92.9192 111.028 91.941 111.751C90.9531 112.48 89.2855 113.039 89.0699 114.888C88.9001 116.344 89.1003 117.422 89.2024 117.969C89.6719 120.486 89.7669 124.64 88.8538 125.386C88.3829 125.771 87.6418 125.827 87.1815 126.286C86.3222 127.144 84.819 127.795 84.5676 129.032C84.2692 130.499 85.5641 132.711 84.9111 133.662C84.264 134.605 83.485 135.635 82.4644 135.975C80.9092 136.494 75.4585 136.374 72.9878 137.95C71.915 138.634 70.7482 138.504 68.3543 139.362C67.0268 139.838 66.4335 140.946 65.4407 141.939C64.0218 143.358 62.5482 144.588 61.6266 146.141C60.9397 147.299 60.3604 149.185 58.313 149.182C54.6777 149.177 52.8747 148.929 52.752 147.802C52.5372 145.828 52.6087 143.432 51.2058 141.671C50.2166 140.43 49.0128 139.773 48.5482 138.543C47.9938 137.075 49.0143 135.357 48.7218 133.997C48.5932 133.399 48.4178 132.71 47.7725 132.5C47.3815 132.372 46.7872 132.372 46.4463 132.241C46.1054 132.11 46.0205 131.855 45.9343 131.597L45.906 131.511C45.5657 130.488 45.106 129.106 43.8736 128.081C43.3603 127.654 37.461 129.403 35.4273 127.138C35.0427 126.71 34.4721 126.404 34.1409 125.894C33.499 124.906 32.8404 124.202 32.1677 123.364C31.2711 122.246 30.6712 121.007 30.0683 119.503C29.5525 118.217 28.9715 117.225 28.4822 116.16C28.0089 115.13 27.8533 113.367 27.4107 112C26.9798 110.669 26.8735 109.39 26.3392 107.798C25.9507 106.64 24.7692 105.709 24.6669 103.839C24.407 99.0914 25.3662 97.0756 23.4217 95.2336C22.5187 94.3782 21.3356 93.9248 20.418 93.1343C19.1741 92.0628 18.1102 91.6107 17.1172 90.9488C16.0868 90.2618 14.2193 90.2174 13.0009 89.4051C12.4876 89.063 12.0434 88.639 11.7595 88.1175C11.1987 87.0871 11.6066 83.7797 10.0808 83.6178C8.88065 83.4904 7.76912 83.4003 7.38461 82.9296C6.99999 82.4588 7.42474 80.7968 6.43656 79.4114C6.04294 78.8595 5.22668 78.9803 4.80932 78.7283C4.16999 78.3424 4.46072 76.0355 3.95646 72.9281C3.56798 70.5342 2.11316 66.376 3.78923 65.0067C4.26004 64.6221 5.80179 65.3129 8.08182 63.5055C9.49039 62.389 9.77923 60.5549 10.778 59.604C11.636 58.7871 12.1153 57.7225 13.0086 56.9888C13.9515 56.2144 14.5368 55.1145 15.3228 54.1575C16.0971 53.2146 17.0885 52.6352 18.1978 52.1006C19.4417 51.5012 20.6125 51.5085 23.6468 50.5158C25.1017 50.0399 26.2423 49.558 27.6319 48.9285C28.9608 48.3265 29.5785 46.5926 30.8877 45.5389C31.7908 44.8121 33.032 44.3957 33.5029 43.3096C33.9313 42.3217 33.7847 40.667 34.3185 39.4493C34.451 39.147 34.7864 38.8037 35.0916 38.4626C36.1644 37.2637 37.194 36.4158 38.6509 35.8938C39.8537 35.4628 40.9748 34.7908 42.1241 34.3488C43.4555 33.8369 44.5199 33.2111 45.7259 33.1062C49.1566 32.8078 54.7773 32.9378 55.7595 32.1607C57.0034 31.1767 58.1908 31.1223 59.0603 30.4473C60.0032 29.7154 60.7339 28.7287 61.6755 27.9595C62.1463 27.5749 63.1043 27.3496 64.2508 27.4488C66.718 27.6623 70.998 28.7884 71.8815 27.616C72.6919 26.5406 73.3565 25.1406 74.5404 24.2278C75.8718 23.2012 77.0593 22.6658 79.1726 21.785C80.5027 21.2305 81.6319 20.9109 82.7294 20.4999C83.7598 20.114 85.0269 20.0392 85.7729 19.126C86.1575 18.6552 86.4686 17.6006 86.2836 16.3359C86.0701 14.8759 86.4681 13.4081 86.757 12.0909C87.1043 10.5074 87.8075 7.50417 89.8571 7.2928C91.9153 7.08055 93.3297 6.66684 93.8346 6.39235C94.3054 6.13636 94.9094 5.83923 94.9897 5.23205Z" fill="#587956" stroke="black" stroke-width="6" stroke-linecap="round"/>
<path d="M54.1651 80.5273L54.9189 81.8247L51.6408 84.6362C50.9724 84.9319 50.3197 85.1575 49.683 85.3131C49.0594 85.4665 48.3789 85.6021 47.6415 85.7197C45.9825 85.9843 44.4608 85.8828 43.0765 85.415C41.6922 84.9472 40.5511 84.1841 39.6532 83.1257C38.7663 82.052 38.2032 80.7646 37.9637 79.2636C37.718 77.723 38.0113 76.2181 38.8435 74.7486C39.6868 73.2639 40.8189 72.0234 42.2397 71.0272C43.6716 70.0157 45.0854 69.3986 46.4811 69.176C47.3501 69.0373 48.3797 68.9744 49.5699 68.9871C50.7732 68.9976 51.6627 69.0718 52.2382 69.2095L53.0699 74.4236L50.5419 74.8268C49.8088 73.7016 49.0361 72.9202 48.2237 72.4827C47.4224 72.03 46.6004 71.8708 45.7577 72.0052C45.0072 72.125 44.3506 72.4525 43.7879 72.9878C43.2362 73.5078 42.836 74.1725 42.587 74.9819C42.3512 75.7891 42.3068 76.6535 42.4538 77.5752C42.6324 78.6944 42.9729 79.6865 43.4754 80.5514C43.9758 81.4032 44.6388 82.0468 45.4644 82.4822C46.2899 82.9176 47.2426 83.0492 48.3222 82.877L48.9345 82.7793C49.448 82.6974 49.8475 82.6202 50.133 82.5477L49.5943 79.1703L46.2386 78.9563L46.7766 77.2502L55.3483 75.8829L55.5719 77.2852L53.9571 79.2238L54.1651 80.5273ZM64.95 66.2502C66.53 65.9982 67.9793 66.1113 69.2977 66.5896C70.6162 67.0679 71.6991 67.847 72.5465 68.927C73.3938 70.007 73.9372 71.2975 74.1767 72.7985C74.4224 74.3391 74.1489 75.8409 73.3561 77.304C72.5766 78.7651 71.5103 79.9951 70.1575 80.994C68.8025 81.9797 67.4666 82.5776 66.15 82.7876C64.5699 83.0397 63.1217 82.9331 61.8054 82.468C60.5001 81.9876 59.4172 81.2085 58.5566 80.1306C57.7092 79.0506 57.1658 77.7601 56.9264 76.259C56.6807 74.7185 56.9476 73.2177 57.7272 71.7567C58.5179 70.2804 59.5907 69.0493 60.9456 68.0636C62.2985 67.0647 63.6333 66.4602 64.95 66.2502ZM64.2266 69.0795C63.5683 69.1845 62.9973 69.4983 62.5136 70.0211C62.0409 70.5285 61.6999 71.1837 61.4904 71.9868C61.2941 72.7877 61.2695 73.649 61.4165 74.5707C61.595 75.6898 61.9224 76.684 62.3986 77.5532C62.8748 78.4224 63.4927 79.0799 64.2525 79.5258C65.0254 79.9696 65.899 80.1138 66.8733 79.9584C67.5317 79.8534 68.0972 79.5471 68.5698 79.0397C69.0535 78.5169 69.3935 77.8551 69.5898 77.0542C69.7992 76.2512 69.8304 75.3888 69.6834 74.4672C69.5028 73.3348 69.1744 72.334 68.6982 71.4649C68.222 70.5957 67.6051 69.9447 66.8475 69.512C66.0878 69.0661 65.2141 68.9219 64.2266 69.0795ZM87.7184 70.2739C88.701 70.5087 89.5047 70.9341 90.1295 71.5501C90.7654 72.1507 91.1505 72.8724 91.2849 73.7151C91.4173 74.5446 91.167 75.3879 90.5341 76.2449C89.8991 77.0888 89.0566 77.8173 88.0068 78.4303C86.9701 79.0413 85.9448 79.4276 84.9309 79.5893C84.2726 79.6943 83.6222 79.7643 82.9797 79.7993C81.9158 79.9015 81.0942 79.9988 80.5149 80.0912L77.2166 80.6173L76.9929 79.215L78.6163 77.4574L76.934 66.9107L74.5974 66.7366L75.1353 65.0306L78.0189 64.5706C79.2171 64.3795 80.3892 64.152 81.5353 63.8882C82.4222 63.6927 83.0764 63.5613 83.4977 63.4941C84.5379 63.3282 85.4803 63.3534 86.3249 63.5697C87.1695 63.786 87.8498 64.1569 88.3656 64.6822C88.8925 65.1922 89.2138 65.8093 89.3293 66.5335C89.4301 67.1655 89.3303 67.8092 89.0298 68.4648C88.7403 69.105 88.3043 69.7147 87.7215 70.2937L87.7184 70.2739ZM85.0816 68.3452C84.9388 67.4498 84.6279 66.7703 84.1489 66.3067C83.6809 65.8277 83.0651 65.6492 82.3014 65.771C81.8933 65.8361 81.5209 65.9563 81.1843 66.1315L81.9687 71.0493L83.8055 70.7563C84.8852 70.5841 85.3106 69.7804 85.0816 68.3452ZM85.1248 77.2496C85.7831 77.1445 86.2693 76.8915 86.5834 76.4903C86.9106 76.0871 87.0249 75.576 86.9262 74.9572C86.7939 74.1277 86.4685 73.4842 85.9499 73.0269C85.4293 72.5563 84.7435 72.3619 83.8924 72.4437L83.5171 72.5035L82.2334 72.7083L82.9548 77.2311C83.6225 77.3542 84.3514 77.3527 85.1414 77.2267L85.1248 77.2496ZM100.598 76.8877L93.0134 78.0975L92.7897 76.6952L94.3879 74.7796L92.7434 64.4699L90.3974 64.2366L90.9353 62.5305L98.5195 61.3207L98.7431 62.723L97.1283 64.6616L98.7697 74.9515L101.136 75.1817L100.598 76.8877Z" fill="black"/>
</svg>
