<svg width="140" height="157" viewBox="0 0 140 157" fill="none" xmlns="http://www.w3.org/2000/svg">
<path d="M118.881 114.006C119.588 118.042 119.988 123.281 119.383 128.507L122.005 130.936C122.202 131.544 122.002 132.143 121.8 132.751C121.597 133.359 121.42 134.239 119.446 134.258C109.486 134.351 106.904 132.709 103.641 132.745C102.831 132.754 102.032 133.353 101.633 134.27C101.234 135.186 101.234 136.384 100.925 137.189C100.617 137.993 100.018 138.393 99.4097 138.489C98.8017 138.586 98.214 138.363 97.5948 138.081C95.1719 136.977 93.3603 135.525 91.3454 135.062C90.9371 134.969 90.2232 135.306 89.9359 135.979C89.3339 137.388 88.3653 139.27 87.4162 142.434C86.5087 145.459 86.9192 150.546 83.1662 151.097C80.4469 151.496 78.124 151.484 76.9229 150.683C75.4135 149.675 74.3891 148.016 72.6791 147.561C71.5538 147.262 69.5917 146.938 68.7558 147.57C67.555 148.478 66.9702 150.968 64.8205 152.613C63.907 153.311 62.8687 153.443 61.9983 153.106C58.8736 151.896 56.3807 150.865 53.934 149.678C51.4204 148.459 49.9103 147.008 46.9799 145.943C42.2853 144.237 33.6364 145.035 32.0613 142.612C31.662 141.998 31.8673 140.857 31.2507 140.192C28.6251 137.364 27.1399 132.006 23.7853 132.642C22.1761 132.948 20.8612 136.128 17.5329 136.678C15.721 136.977 14.1256 136.721 12.8989 136.266C10.4759 135.368 3.37398 137.642 3.52785 134.448L3.53334 134.334C3.64508 132 3.82521 128.238 6.36214 127.494C9.09661 126.693 14.2163 127.617 14.9285 124.563L15.3281 122.458C14.7231 118.574 14.7231 115.979 15.0317 114.887C15.9391 114.194 19.3753 114.593 22.494 113.779C23.3984 112.772 24.2958 111.6 25.6217 110.752C29.073 108.543 35.7691 109.227 36.2026 106.311C36.5021 104.297 35.3659 102.15 36.2026 101.275C37.9298 99.4689 37.8824 94.9252 40.9486 93.6158C42.3582 93.0138 47.0006 93.3481 47.0921 90.6877C47.1859 87.9623 45.2476 83.0519 47.6003 80.7057C49.8235 78.4885 56.208 79.7048 56.7716 76.6705C57.0711 75.0583 57.1186 72.6913 55.7523 71.3286C54.6452 70.2246 53.25 69.846 52.4279 69.0116C52.0256 68.6032 51.826 68.0043 51.829 67.3963C51.832 66.7883 51.9567 66.1182 52.44 65.6843C53.4473 64.7798 63.5047 66.9666 67.3647 62.4537C67.9727 61.7429 68.8484 60.9752 68.871 59.5166C68.9648 53.479 66.4828 49.9205 68.2691 48.1401C69.1766 47.2357 70.3925 45.8079 71.5904 43.8115C72.5099 43.5121 75.0326 43.2065 76.0399 43.3094C77.6461 43.6119 77.8588 45.1773 79.0678 45.3269C81.4876 45.6264 84.0037 45.4903 84.8059 44.3076C86.521 41.7788 89.1512 38.9014 88.4267 35.5325C88.1242 34.1259 88.12 32.2403 86.8023 31.5064C86.0854 31.1071 84.8876 31.1071 84.2887 30.6957C83.6897 30.2843 83.5858 29.4469 83.8954 28.778C84.5004 27.4712 85.0473 25.5614 86.6299 25.3568C88.9469 25.0574 91.2235 25.1815 92.0656 24.2437C92.97 23.2364 93.7528 21.6914 95.1933 20.9164C97.6162 19.6126 101.908 19.6918 102.144 16.7663C102.65 10.526 102.181 6.51727 104.467 5.99778C106.691 5.49262 109.874 2.03109 114.456 4.79691C115.959 5.70436 117.861 6.68456 117.771 8.12727C117.568 11.3729 115.497 14.5398 115.448 16.7027C115.354 20.8347 115.721 23.6033 117.677 25.5686C119.589 27.4894 123.787 27.2659 124.528 30.0061C124.828 31.1131 124.711 32.3669 124.117 33.6389C123.412 35.1483 122.222 36.4323 120.684 37.06C117.955 38.1732 115.142 40.1877 114.543 41.3916C114.843 42.3172 115.148 44.4347 116.382 45.3331C117.616 46.2314 120.012 46.2314 121.21 46.54C122.408 46.8485 122.478 47.4635 122.305 48.0554C121.597 50.4783 121.406 53.4737 119.274 55.1094C117.156 56.7337 113.463 57.5015 113.028 59.8524C112.522 62.5778 110.276 65.5285 111.119 68.0195C111.325 68.6275 111.663 69.3718 112.232 69.5258C113.339 69.8253 122.158 66.4323 124.232 70.639C126.037 74.3021 123.721 82.4528 126.854 83.3404C128.264 83.7396 130.842 84.2116 130.98 86.0688C131.077 87.3755 130.514 89.6889 131.485 92.7235C132.293 95.2462 135.239 96.4005 136.022 99.0847C136.322 100.11 136.505 101.953 136.116 103.114C135.511 104.92 134.822 106.75 133.288 107.642C132.081 108.344 125.419 108.117 120.584 108.141C119.976 108.144 119.377 108.344 119.077 109.472C118.778 110.6 118.636 112.614 118.881 114.006Z" fill="#E698E8" stroke="black" stroke-width="6" stroke-linecap="round"/>
<path d="M70.5108 84.3028L70.7038 85.1822L68.3158 86.188C67.8798 86.2344 67.4656 86.2438 67.0732 86.216C66.6888 86.1895 66.2752 86.1423 65.8324 86.0744C64.836 85.9216 63.9852 85.5849 63.28 85.064C62.5748 84.5431 62.0626 83.8981 61.7435 83.1288C61.4334 82.3529 61.3475 81.5142 61.4857 80.6127C61.6275 79.6875 62.0708 78.8814 62.8155 78.1943C63.5693 77.5005 64.4434 76.9991 65.4376 76.6902C66.441 76.3746 67.3618 76.281 68.2001 76.4095C68.722 76.4895 69.3218 76.6422 69.9995 76.8674C70.6851 77.0939 71.1797 77.2993 71.4833 77.4834L71.0033 80.6148L69.485 80.3821C69.2723 79.6049 68.9739 79.0169 68.5899 78.6181C68.215 78.2126 67.7746 77.9711 67.2685 77.8935C66.8177 77.8244 66.3826 77.8913 65.963 78.094C65.5526 78.2901 65.2021 78.5965 64.9116 79.0133C64.629 79.4314 64.4453 79.9171 64.3604 80.4707C64.2574 81.1428 64.2702 81.772 64.3989 82.3583C64.5287 82.9366 64.7896 83.4258 65.1815 83.8258C65.5735 84.2258 66.0936 84.4755 66.7421 84.5749L67.1098 84.6313C67.4182 84.6785 67.6606 84.7076 67.837 84.7184L68.1479 82.6901L66.2699 81.9531L66.8898 81.0769L72.0376 81.866L71.9086 82.7081L70.6308 83.5199L70.5108 84.3028ZM81.5592 88.2544L78.7599 87.8253L77.2904 83.4724L76.8359 83.1113L77.3008 82.4542L77.7871 82.5287C78.143 82.5833 78.4431 82.4998 78.6875 82.2783C78.9331 82.0488 79.0916 81.7008 79.1631 81.2343C79.2419 80.7203 79.1705 80.2885 78.9489 79.9389C78.7365 79.5826 78.3732 79.365 77.8592 79.2862C77.5508 79.239 77.2483 79.2857 76.9515 79.4263L75.937 86.045L77.2465 86.61L76.6266 87.4861L72.0718 86.788L72.2009 85.9458L73.465 85.1441L74.4141 78.9524L73.1164 78.3893L73.7363 77.5131L76.0611 77.8694C76.7254 77.9713 77.3854 78.0481 78.0411 78.1001C78.5204 78.1412 78.8707 78.1787 79.0921 78.2126C79.7406 78.312 80.2969 78.5106 80.7611 78.8084C81.2345 79.0995 81.5805 79.456 81.7991 79.878C82.0177 80.3 82.0906 80.7482 82.0179 81.2227C81.9354 81.7604 81.6218 82.2222 81.0771 82.6081C80.5402 82.9953 79.8999 83.2654 79.1561 83.4184L80.1682 83.8649L81.1304 86.6954L82.1791 87.3782L81.5592 88.2544ZM92.7459 89.9691L87.8353 89.2164L87.9644 88.3742L89.4886 87.8552L89.1128 86.2679L85.6492 85.737L84.9774 86.8723L86.498 88.0402L85.8781 88.9164L81.9164 88.3091L82.0455 87.467L83.5915 86.6477L87.5218 80.0147L90.1529 79.7988L92.2177 88.3463L93.3658 89.0929L92.7459 89.9691ZM88.0173 81.6931L86.2608 84.6774L88.8229 85.0702L88.0173 81.6931ZM103.853 83.9869L102.704 91.4833L101.458 91.2924L96.8427 84.5756L96.1845 88.8694L98.0435 89.8099L97.4236 90.6861L93.5805 90.097L93.7096 89.2549L94.9736 88.4531L95.8609 82.6647L94.6269 81.6865L95.2468 80.8103L97.5123 81.1575L102.011 87.6865L102.644 83.5587L100.795 82.6319L101.415 81.7557L105.258 82.3448L105.131 83.1751L103.853 83.9869ZM50.8555 103.644C51.3739 103.958 51.7551 104.348 51.9993 104.815C52.2526 105.275 52.3404 105.757 52.2629 106.263C52.1865 106.762 51.889 107.198 51.3704 107.571C50.853 107.937 50.2382 108.199 49.5261 108.357C48.8218 108.516 48.1653 108.549 47.5564 108.456C47.161 108.395 46.7765 108.316 46.403 108.218C45.7765 108.082 45.2892 107.987 44.9413 107.933L42.9604 107.63L43.0895 106.788L44.3391 106.081L45.31 99.7468L44.0068 99.2193L44.6267 98.3431L46.3585 98.6085C47.0781 98.7188 47.7895 98.8036 48.4926 98.8628C49.0352 98.9136 49.433 98.9584 49.6861 98.9972C50.3108 99.0929 50.8446 99.28 51.2875 99.5583C51.7305 99.8366 52.0512 100.173 52.2497 100.568C52.4573 100.956 52.5278 101.367 52.4611 101.802C52.4029 102.182 52.228 102.531 51.9362 102.851C51.6535 103.163 51.2927 103.432 50.8537 103.656L50.8555 103.644ZM49.7023 102.059C49.7848 101.521 49.7316 101.076 49.5428 100.723C49.3632 100.364 49.0441 100.149 48.5854 100.079C48.3403 100.041 48.1055 100.042 47.8811 100.08L47.4284 103.034L48.5315 103.203C49.1799 103.302 49.5702 102.921 49.7023 102.059ZM48.0958 107.154C48.4911 107.215 48.8153 107.159 49.0682 106.988C49.3291 106.817 49.488 106.546 49.5449 106.175C49.6213 105.676 49.5532 105.249 49.3408 104.893C49.1295 104.529 48.7733 104.292 48.272 104.183L48.0467 104.148L47.2757 104.03L46.8593 106.746C47.2183 106.939 47.635 107.072 48.1094 107.144L48.0958 107.154ZM61.9367 110.539L59.1374 110.109L57.668 105.757L57.2135 105.396L57.6784 104.738L58.1647 104.813C58.5205 104.867 58.8207 104.784 59.065 104.562C59.3106 104.333 59.4692 103.985 59.5407 103.518C59.6195 103.004 59.5481 102.573 59.3265 102.223C59.114 101.867 58.7508 101.649 58.2368 101.57C57.9284 101.523 57.6259 101.57 57.3291 101.711L56.3146 108.329L57.6241 108.894L57.0042 109.77L52.4494 109.072L52.5785 108.23L53.8425 107.428L54.7916 101.237L53.494 100.673L54.1139 99.7973L56.4387 100.154C57.103 100.255 57.7629 100.332 58.4186 100.384C58.8979 100.425 59.2483 100.463 59.4697 100.497C60.1181 100.596 60.6745 100.795 61.1387 101.093C61.6121 101.384 61.9581 101.74 62.1766 102.162C62.3952 102.584 62.4682 103.032 62.3954 103.507C62.313 104.045 61.9994 104.506 61.4547 104.892C60.9178 105.279 60.2775 105.55 59.5337 105.703L60.5457 106.149L61.508 108.98L62.5567 109.662L61.9367 110.539ZM70.4902 111.85L62.7684 110.666L62.8975 109.824L64.147 109.117L65.1107 102.83L63.8148 102.255L64.4347 101.379L71.8007 102.508L72.8179 102.446L72.327 105.648L71.4422 105.877L70.2876 103.43L67.69 103.032L67.25 105.902L68.4005 106.078L69.4537 104.989L70.2959 105.119L69.7795 108.487L68.7579 108.816L68.1922 107.2L67.0773 107.029L66.6064 110.101L69.0973 110.483L71.1935 108.291L71.9693 108.774L71.442 112.214L70.4902 111.85ZM82.7551 107.49L81.8702 107.718L80.5267 104.999L79.6371 104.863L78.5753 111.79L79.8902 112.319L79.2703 113.196L74.7155 112.497L74.8446 111.655L76.0941 110.948L77.0868 104.472L76.2328 104.341L74.1366 106.533L73.3608 106.05L73.8881 102.61L74.8398 102.974L82.2651 104.112L83.2823 104.05L82.7551 107.49ZM91.6918 115.1L86.7811 114.347L86.9102 113.505L88.4345 112.986L88.0586 111.398L84.5951 110.867L83.9233 112.003L85.4439 113.171L84.824 114.047L80.8623 113.44L80.9914 112.597L82.5373 111.778L86.4677 105.145L89.0988 104.929L91.1636 113.477L92.3117 114.223L91.6918 115.1ZM86.9631 106.824L85.2067 109.808L87.7687 110.201L86.9631 106.824ZM102.799 109.117L101.65 116.614L100.404 116.423L95.7886 109.706L95.1304 114L96.9894 114.94L96.3695 115.817L92.5263 115.227L92.6554 114.385L93.9195 113.584L94.8068 107.795L93.5727 106.817L94.1926 105.941L96.4582 106.288L100.957 112.817L101.59 108.689L99.7407 107.762L100.361 106.886L104.204 107.475L104.076 108.306L102.799 109.117ZM99.5169 102.253C99.8517 102.709 100.113 103.036 100.301 103.235C100.498 103.427 100.684 103.536 100.858 103.563C100.992 103.584 101.142 103.558 101.307 103.486L102.099 103.146L102.488 104.092L99.2176 105.473C98.884 105.009 98.6186 104.681 98.4215 104.489C98.2322 104.298 98.0545 104.19 97.8885 104.164C97.7699 104.146 97.6117 104.174 97.4141 104.249L96.6352 104.579L96.246 103.633L99.5169 102.253ZM113.724 118.477L108.813 117.724L108.942 116.882L110.466 116.363L110.09 114.775L106.627 114.244L105.955 115.38L107.476 116.548L106.856 117.424L102.894 116.817L103.023 115.974L104.569 115.155L108.499 108.522L111.131 108.306L113.195 116.854L114.343 117.6L113.724 118.477ZM108.995 110.201L107.238 113.185L109.8 113.578L108.995 110.201Z" fill="black"/>
</svg>
