<svg width="140" height="157" viewBox="0 0 140 157" fill="none" xmlns="http://www.w3.org/2000/svg">
<path d="M118.881 114.006C119.588 118.042 119.988 123.281 119.383 128.507L122.005 130.936C122.202 131.544 122.002 132.143 121.8 132.751C121.597 133.359 121.42 134.239 119.446 134.258C109.486 134.351 106.904 132.709 103.641 132.745C102.831 132.754 102.032 133.353 101.633 134.27C101.234 135.186 101.234 136.384 100.925 137.189C100.617 137.993 100.018 138.393 99.4097 138.489C98.8017 138.586 98.214 138.363 97.5948 138.081C95.1719 136.977 93.3603 135.525 91.3454 135.062C90.9371 134.969 90.2232 135.306 89.9359 135.979C89.3339 137.388 88.3653 139.27 87.4162 142.434C86.5087 145.459 86.9192 150.546 83.1662 151.097C80.4469 151.496 78.124 151.484 76.9229 150.683C75.4135 149.675 74.3891 148.016 72.6791 147.561C71.5538 147.262 69.5917 146.938 68.7558 147.57C67.555 148.478 66.9702 150.968 64.8205 152.613C63.907 153.311 62.8687 153.443 61.9983 153.106C58.8736 151.896 56.3807 150.865 53.934 149.678C51.4204 148.459 49.9103 147.008 46.9799 145.943C42.2853 144.237 33.6364 145.035 32.0613 142.612C31.662 141.998 31.8673 140.857 31.2507 140.192C28.6251 137.364 27.1399 132.006 23.7853 132.642C22.1761 132.948 20.8612 136.128 17.5329 136.678C15.721 136.977 14.1256 136.721 12.8989 136.266C10.4759 135.368 3.37398 137.642 3.52785 134.448L3.53334 134.334C3.64508 132 3.82521 128.238 6.36214 127.494C9.09661 126.693 14.2163 127.617 14.9285 124.563L15.3281 122.458C14.7231 118.574 14.7231 115.979 15.0317 114.887C15.9391 114.194 19.3753 114.593 22.494 113.779C23.3984 112.772 24.2958 111.6 25.6217 110.752C29.073 108.543 35.7691 109.227 36.2026 106.311C36.5021 104.297 35.3659 102.15 36.2026 101.275C37.9298 99.4689 37.8824 94.9252 40.9486 93.6158C42.3582 93.0138 47.0006 93.3481 47.0921 90.6877C47.1859 87.9623 45.2476 83.0519 47.6003 80.7057C49.8235 78.4885 56.208 79.7048 56.7716 76.6705C57.0711 75.0583 57.1186 72.6913 55.7523 71.3286C54.6452 70.2246 53.25 69.846 52.4279 69.0116C52.0256 68.6032 51.826 68.0043 51.829 67.3963C51.832 66.7883 51.9567 66.1182 52.44 65.6843C53.4473 64.7798 63.5047 66.9666 67.3647 62.4537C67.9727 61.7429 68.8484 60.9752 68.871 59.5166C68.9648 53.479 66.4828 49.9205 68.2691 48.1401C69.1766 47.2357 70.3925 45.8079 71.5904 43.8115C72.5099 43.5121 75.0326 43.2065 76.0399 43.3094C77.6461 43.6119 77.8588 45.1773 79.0678 45.3269C81.4876 45.6264 84.0037 45.4903 84.8059 44.3076C86.521 41.7788 89.1512 38.9014 88.4267 35.5325C88.1242 34.1259 88.12 32.2403 86.8023 31.5064C86.0854 31.1071 84.8876 31.1071 84.2887 30.6957C83.6897 30.2843 83.5858 29.4469 83.8954 28.778C84.5004 27.4712 85.0473 25.5614 86.6299 25.3568C88.9469 25.0574 91.2235 25.1815 92.0656 24.2437C92.97 23.2364 93.7528 21.6914 95.1933 20.9164C97.6162 19.6126 101.908 19.6918 102.144 16.7663C102.65 10.526 102.181 6.51727 104.467 5.99778C106.691 5.49262 109.874 2.03109 114.456 4.79691C115.959 5.70436 117.861 6.68456 117.771 8.12727C117.568 11.3729 115.497 14.5398 115.448 16.7027C115.354 20.8347 115.721 23.6033 117.677 25.5686C119.589 27.4894 123.787 27.2659 124.528 30.0061C124.828 31.1131 124.711 32.3669 124.117 33.6389C123.412 35.1483 122.222 36.4323 120.684 37.06C117.955 38.1732 115.142 40.1877 114.543 41.3916C114.843 42.3172 115.148 44.4347 116.382 45.3331C117.616 46.2314 120.012 46.2314 121.21 46.54C122.408 46.8485 122.478 47.4635 122.305 48.0554C121.597 50.4783 121.406 53.4737 119.274 55.1094C117.156 56.7337 113.463 57.5015 113.028 59.8524C112.522 62.5778 110.276 65.5285 111.119 68.0195C111.325 68.6275 111.663 69.3718 112.232 69.5258C113.339 69.8253 122.158 66.4323 124.232 70.639C126.037 74.3021 123.721 82.4528 126.854 83.3404C128.264 83.7396 130.842 84.2116 130.98 86.0688C131.077 87.3755 130.514 89.6889 131.485 92.7235C132.293 95.2462 135.239 96.4005 136.022 99.0847C136.322 100.11 136.505 101.953 136.116 103.114C135.511 104.92 134.822 106.75 133.288 107.642C132.081 108.344 125.419 108.117 120.584 108.141C119.976 108.144 119.377 108.344 119.077 109.472C118.778 110.6 118.636 112.614 118.881 114.006Z" fill="#E698E8" stroke="black" stroke-width="6" stroke-linecap="round"/>
</svg>
