<svg width="247" height="252" viewBox="0 0 247 252" fill="none" xmlns="http://www.w3.org/2000/svg">
<path d="M157.726 247.145C158.65 247.839 160.601 247.691 162.395 247.967C162.71 248.072 163.186 248.126 163.741 248.021C164.827 247.816 165.461 246.172 166.336 245.691C167.566 245.016 168.793 244.949 169.831 244.607C170.654 244.335 171.128 243.732 172.976 243.652C174.899 243.568 176.157 243.097 177.427 242.596C178.927 242.004 178.597 238.458 178.202 236.718C178.038 235.997 177.593 235.262 176.959 234.442C176.19 233.448 175.423 233.248 174.524 233.168C173.761 233.1 172.936 232.877 172.246 233.035C172.082 233.072 171.929 233.14 171.795 233.062C171.662 232.985 171.557 232.775 171.503 232.588C171.211 231.579 172.453 230.179 173.035 229.649C173.872 228.886 174.15 226.853 174.492 225.257C174.754 224.033 175.894 223.562 176.372 222.872C176.796 222.236 177.088 221.147 177.167 220.646C176.688 220.592 176.53 220.539 176.398 220.432C176.16 220.167 176.056 218.627 176.242 217.466C176.694 216.884 177.049 215.734 177.834 215.641C178.495 215.563 179.437 215.731 180.241 214.925C180.557 214.608 180.831 214.086 180.981 213.279C181.297 211.585 181.539 210.659 181.722 209.151C181.882 207.824 180.604 203.299 181.905 201.346C182.815 199.98 184.911 199.381 185.589 199.015C186.225 198.671 188.074 199.135 188.711 198.326C188.817 198.191 188.825 197.926 188.977 197.85L189.02 197.828C189.597 197.541 190.316 197.184 190.83 196.285C191.467 195.173 191.925 193.668 193.058 193.721C194.86 193.804 195.809 194.919 196.708 194.86C197.557 194.805 200.577 190.866 203.116 191.631C203.644 191.79 204.42 192.242 204.57 191.814C205.127 190.23 205.335 187.05 205.574 186.174C205.763 185.484 206.147 184.722 206.555 184.109C206.979 183.473 207.86 182.584 207.532 181.993C207.504 181.942 207.281 182.051 207.241 181.939C207.03 181.354 206.755 180.522 206.58 179.555C206.446 178.812 206.383 177.876 205.996 177.198C205.439 176.22 204.951 175.572 204.006 175.32C202.421 174.898 201.637 174.879 201.178 174.367C200.94 174.103 200.619 173.371 200.862 172.538C201.102 171.718 200.862 170.944 201.18 169.494C201.366 168.646 202.358 165.961 201.257 165.206C199.539 164.03 196.49 162.18 196.228 161.394C196.016 160.758 195.319 159.03 196.523 156.943C197.347 155.513 198.151 154.442 198.959 153.636C199.727 152.87 203.694 151.085 203.694 150.436C203.694 150.112 203.694 149.798 203.856 149.64C204.018 149.483 204.333 149.483 204.598 149.456C205.499 149.216 206.313 148.874 207.67 147.52C208.733 146.459 210.231 145.678 210.632 144.874C210.79 144.557 211.201 143.326 210.815 141.799C210.522 140.636 210.27 139.742 209.755 139.156C209.197 138.52 208.285 138.126 207.849 137.382C207.399 136.614 207.271 135.528 205.967 135C205.121 134.657 203.694 134.535 203.428 133.596C203.218 132.852 204.311 131.475 203.587 129.222C203.002 127.401 201.657 126.983 201.285 125.838C201.207 125.599 201.185 125.327 201.421 125.123C202.646 124.065 207.534 125.028 207.72 123.294C207.824 122.314 207.865 121.286 208.303 120.995C208.62 120.785 209.09 120.715 209.283 120.224C209.943 118.553 210.626 116.93 210.791 115.007C211.001 112.558 211.377 110.299 211.957 109.611C212.539 108.921 213.88 108.394 213.648 107.01C213.435 105.741 213.326 104.354 212.852 104.344C211.84 104.32 208.424 105.658 207.717 104.475C207.559 104.211 207.118 101.461 207.244 96.9041C207.3 94.8629 207.649 93.351 207.693 92.4475C207.77 90.8663 207.815 89.9424 206.285 87.1566C205.705 86.101 204.814 85.1161 205.338 80.879C205.445 80.0109 205.602 79.8013 206.518 79.5614C207.434 79.3216 208.151 79.2845 209.776 79.0224C213.175 79.9684 214.816 80.343 216.548 80.8813C217.433 81.1562 218.223 81.1036 218.79 81.1973C219.738 81.354 220.113 82.7383 221.31 83.2463C222.722 83.8456 224.276 83.69 225.813 83.5954C228.407 83.4357 230.956 83.6881 232.594 83.8773C233.726 84.0081 234.557 83.6294 235.187 83.0628C235.959 82.3686 236.074 81.2985 236.012 80.3534C235.972 79.7543 234.822 79.3403 233.591 78.6497C231.346 77.3902 235.753 73.9822 236.796 73.0343C237.179 72.6864 237.836 72.1526 238.529 71.3655C238.969 70.8666 238.915 70.1642 238.854 69.3681L238.85 69.3165C238.601 66.0612 234.186 63.1354 233.993 61.5035C233.36 56.1494 238.087 54.9979 238.878 53.9583C239.383 53.2945 239.228 52.2867 239.009 51.3748C238.567 49.541 237.024 49.2576 236.11 48.7222C234.261 47.6385 234.371 45.6704 233.274 42.4559C232.777 41.0011 231.221 40.2442 230.748 38.8593C230.378 37.7743 230.712 35.0866 230.964 31.5893C231.164 28.8053 231.594 27.1932 232.444 24.8879C232.949 23.5188 234.61 21.8351 236.571 20.2184C239.249 18.0105 240.8 17.7863 241.621 17.3454C242.165 17.0527 242.694 16.9027 243.072 16.652C244.319 15.8238 243.392 13.6277 241.85 7.65561C241.507 6.3242 241.561 5.8743 241.436 5.77403C240.065 4.67323 236.528 6.9376 234.756 7.09463C232.42 7.30172 231.034 5.87052 229.961 5.26792C229.344 4.92097 228.323 5.04561 227.253 5.07683C226.303 5.10452 224.047 6.04647 220.866 7.61966C218.473 8.80378 217.535 9.83802 216.751 9.93262C215.168 10.1239 213.877 9.83991 212.469 8.9327C211.293 8.17562 209.25 6.71434 207.314 5.63118C203.748 3.63533 201.392 3.27849 200.605 3.46769C198.387 4.00075 194.965 6.49109 193.761 6.93665C193.046 7.20125 190.123 8.1882 185.81 9.89005C180.696 11.9075 177.994 10.4718 176.767 10.2495C175.414 10.0044 172.649 8.90149 169.435 7.38979C167.535 6.49588 166.829 5.86673 166.233 5.77119C165.191 5.60411 163.121 7.11734 160.602 8.87973C158.694 10.2144 157.812 11.2248 157.152 11.414C156.811 11.5116 156.429 11.4784 156.111 11.3847C154.76 10.9865 154.529 8.58741 154.405 7.01139C154.358 6.42282 154.03 6.30946 153.464 6.24513C150.764 5.93804 149.115 5.9916 144.616 5.11183C143.316 4.98128 142.146 5.29535 141.081 5.29535C140.117 5.29535 140.294 5.16664 139.015 5.42395C131.644 7.12674 129.623 7.00187 126.917 6.24696C125.545 5.86429 123.889 5.61315 122.47 5.83167C119.856 6.23418 120.288 11.2248 119.624 11.3818C119.393 11.4366 119.528 12.0989 119.247 12.325C117.991 13.3353 115.884 11.2324 113.795 10.7225C113.419 10.6306 113.163 10.5967 113.035 10.7206C112.906 10.8445 112.906 11.1567 112.719 11.3175C111.712 12.1814 110.136 10.9145 109.473 10.6903C109.262 10.6191 109.496 11.5275 108.813 11.4755C104.049 11.1131 102.258 9.39713 100.771 8.86548C99.4869 8.40652 99.4122 6.56293 98.7528 5.83924C97.9613 4.97052 96.8277 4.79392 94.6368 4.69932C92.8219 4.62095 89.5738 4.66715 87.8077 4.69837C84.3986 4.75863 81.5669 6.68401 80.4932 6.62347C80.2645 6.61057 80.2388 6.24886 80.2378 6.02655C80.236 5.61235 77.6165 5.42395 72.2366 5.42395C67.1689 5.42395 64.4728 5.54882 64.1266 5.86289C63.9436 6.0289 63.8428 6.30183 63.8409 6.52414C63.8327 7.48283 64.785 8.25815 65.4141 8.89007C66.7949 10.2771 69.0079 11.8529 70.0485 12.4536C70.9378 12.967 72.6557 15.1828 73.7085 16.5839C73.8364 16.754 73.8665 16.9613 73.8363 17.1515C73.7721 17.5545 73.3652 17.9092 72.9253 18.2242C72.6727 18.3519 72.3605 18.4144 71.6065 18.4465C70.8526 18.4787 69.6663 18.4787 68.4441 18.4787L67.4243 18.2091C67.2603 18.4292 66.5594 20.4845 65.3058 20.5436C64.7296 20.5709 63.9782 20.8468 62.9655 21.0119C60.9376 21.3424 60.0216 23.8133 58.3277 24.3101C57.0236 24.6926 54.7968 24.7844 53.7641 24.4717C52.305 24.0298 50.4283 23.6398 49.2319 23.8691C47.7909 24.1452 44.0615 24.3022 42.0551 24.2252C39.8871 24.1419 38.8212 23.9098 38.3514 23.2887C37.7471 22.4899 37.5499 21.4347 37.0332 20.5956C36.8139 20.2395 36.4801 20.0233 36.0704 19.9106C35.2708 19.6905 34.0726 19.4507 33.1844 19.0854C32.2504 18.7012 30.5905 18.0215 30.1359 18.8422C29.7246 19.5849 30.5228 21.7203 28.9505 23.1321C28.127 23.8715 27.2507 24.2036 26.6992 24.5294C25.7644 25.0817 25.7844 26.8844 24.5007 27.5258C23.2353 28.1581 20.5076 28.118 20.271 30.1184C20.0534 31.9583 19.8962 33.5682 20.3032 33.8172C20.6601 34.0357 21.3079 34.2609 23.0004 34.5583C23.4695 34.6408 23.9047 34.6952 24.1504 35.8995C24.396 37.1039 24.4204 39.3906 24.5057 40.7277C24.6153 42.4473 25.3944 44.2984 24.6953 46.1882C24.3927 47.0059 19.6672 46.301 16.7519 47.0331C16.2037 47.1708 15.6666 47.459 15.4626 48.0265C15.2161 48.7123 15.4352 49.7196 14.827 50.225C14.0027 50.91 12.1251 51.0272 11.2576 52.8621C10.9856 53.4375 12.7592 55.3524 11.4447 56.7431C10.1514 58.1115 8.69927 58.7313 8.62137 59.3208C8.51255 60.1443 8.3797 61.4539 7.8234 62.3973C7.07819 63.661 3.53551 64.1923 3.48158 67.0218C3.40491 71.0438 3.16291 73.8243 3.81626 74.9273C4.1732 75.5299 4.98279 76.3924 6.10135 77.2907C7.47058 78.3904 7.71144 79.4286 8.18446 80.119C8.961 81.2525 9.8087 83.7054 12.509 84.0751C15.1106 84.4312 16.1038 84.4126 19.8984 84.5952C21.0459 84.6505 22.7241 85.3122 24.6507 84.8145C26.1601 84.4246 27.2257 83.6903 28.4106 83.3027C29.3454 82.9968 30.333 82.4511 32.4185 82.3967L33.6897 82.6984C34.5652 82.6159 35.4522 82.5615 36.6887 83.2622C38.1972 85.3231 39.2934 87.5479 42.2093 88.1415C44.2463 88.5562 47.3728 88.4053 48.7761 89.7407C49.9013 90.8116 50.6283 91.6842 50.7199 92.0992C50.8839 92.8427 50.7887 94.9871 51.4906 98.9528C51.8204 100.816 52.219 101.715 52.5351 101.88C53.7559 102.517 55.926 103.734 56.8497 103.61C57.261 103.554 58.4134 99.7852 60.7802 98.9924C61.2723 98.8275 61.9016 97.1711 62.3736 93.9952C62.8666 90.678 63.2508 88.842 63.6654 88.8818C64.2416 88.937 67.3524 87.4934 69.0508 89.5445C69.4597 90.0383 69.192 91.2043 70.1752 92.7603C70.7836 93.7231 72.4064 94.8709 73.1165 97.3503C73.4149 98.3922 72.3203 99.8126 73.1165 102.935C73.5286 104.552 74.7747 106.742 75.756 109.171C76.2193 110.317 76.3127 111.035 76.939 111.39C77.7625 111.855 79.1624 112.018 80.5389 112.239C81.2214 112.348 83.0739 112.574 85.6267 112.375C87.3826 112.238 88.7229 111.893 89.7691 112.129C90.0172 112.185 90.2495 112.284 90.5118 112.685C92.2825 115.39 93.805 117.901 94.6047 118.478C95.4018 119.054 96.4722 118.788 96.8287 119.384C96.9928 119.659 97.8149 120.48 98.3661 121.635C98.5718 122.067 97.9803 122.242 97.8979 122.435C97.8155 122.628 97.7611 122.791 97.6778 122.957C97.3209 123.617 97.058 124.289 96.8543 125.101C96.6053 126.094 96.4873 127.363 95.7785 128.346C94.6269 129.942 94.2242 131.248 94.2716 132.415C94.3565 134.502 94.4059 135.714 96.3704 137.831C97.7693 139.339 98.2968 140.976 98.6431 142.53C98.9729 144.01 100.227 145.156 100.014 146.264C99.7923 147.416 99.4893 148.423 98.9951 148.815C97.3571 150.115 94.7802 151.716 94.5725 153.955C94.4093 155.714 94.4093 158.706 94.4373 160.427C94.4653 162.147 94.57 162.587 94.5189 162.884L94.5178 162.891C94.3507 163.864 93.7914 167.119 94.3821 169.392C94.4093 169.497 94.4093 169.225 94.4093 169.397C94.4093 170.168 94.3951 170.981 94.631 171.264C94.9055 171.592 95.1613 172.155 95.5939 172.169C96.391 172.194 97.1561 171.442 98.315 171.701C98.808 171.812 99.3144 171.951 99.4666 172.308C99.6307 172.692 100.059 176.82 99.5194 179.784C99.4098 180.387 99.4363 181.746 98.4453 182.476C97.7034 183.023 96.7221 183.222 95.6664 183.269C93.7993 183.353 92.4848 183.083 92.017 183.821C91.8258 184.122 91.1439 184.85 91.4697 188.911C91.6065 190.617 91.4309 192.553 92.2957 192.806C93.6014 193.189 96.7905 193.031 98.6456 192.693C99.2482 192.584 101.823 192.369 105.305 192.557L105.509 192.568C106.878 192.642 107.353 192.667 107.601 192.916C108.206 193.522 109.173 193.821 109.331 194.565C109.412 194.949 109.379 195.407 109.634 195.636C109.909 195.883 109.725 196.131 110.813 196.131C111.8 196.416 112.352 196.692 112.841 196.972C115.153 197.804 117.644 198.644 119.039 199.62C119.317 199.903 119.474 200.315 119.524 200.95C119.735 203.665 118.757 208.515 120.999 208.467C124.618 208.39 125.937 208.044 126.706 208.749C127.54 209.514 127.334 211.41 128.452 211.674C129.915 212.018 131.37 212.233 132.07 212.93C133.398 214.251 137.072 213.284 137.574 215.861C138.13 218.716 139.155 220.261 140.154 221.988C141.333 224.026 140.886 227.488 141.964 228.535C142.177 228.742 142.624 228.634 143.011 228.813C144.686 229.586 144.698 232.585 146.636 233.065C147.75 233.34 148.876 232.99 149.701 233.134C150.121 233.207 150.668 233.467 150.742 234.687C151.091 240.456 150.384 243.909 152.278 244.422C153.043 244.629 155.315 242.897 156.457 244.779C156.802 245.348 156.802 246.451 157.726 247.145Z" fill="#F68F58" stroke="black" stroke-width="6" stroke-linecap="round"/>
<path d="M124.255 175.853L125.73 176.129L125.72 180.448C125.508 181.147 125.253 181.789 124.955 182.373C124.664 182.945 124.323 183.549 123.931 184.185C123.048 185.614 121.978 186.701 120.72 187.444C119.462 188.188 118.139 188.554 116.751 188.544C115.359 188.515 114.016 188.101 112.723 187.303C111.395 186.483 110.446 185.279 109.876 183.689C109.302 182.081 109.101 180.414 109.274 178.687C109.442 176.942 109.897 175.468 110.64 174.266C111.102 173.517 111.726 172.696 112.512 171.802C113.306 170.898 113.943 170.272 114.423 169.926L118.916 172.699L117.571 174.878C116.24 174.698 115.144 174.774 114.282 175.104C113.416 175.415 112.759 175.934 112.311 176.66C111.912 177.307 111.731 178.018 111.77 178.794C111.803 179.551 112.046 180.289 112.496 181.005C112.954 181.711 113.58 182.309 114.374 182.799C115.339 183.394 116.313 183.784 117.296 183.968C118.268 184.145 119.188 184.062 120.057 183.721C120.926 183.38 121.647 182.744 122.221 181.814L122.547 181.286C122.82 180.843 123.022 180.49 123.154 180.227L120.243 178.431L117.891 180.833L116.95 179.312L121.508 171.926L122.717 172.671L123.132 175.16L124.255 175.853ZM137.504 161.469L135.025 165.486L127.39 164.91L126.54 165.372L125.834 164.232L126.265 163.534C126.58 163.023 126.647 162.508 126.466 161.989C126.274 161.463 125.843 160.994 125.173 160.58C124.436 160.125 123.727 159.954 123.046 160.067C122.361 160.161 121.791 160.577 121.336 161.314C121.063 161.757 120.938 162.251 120.961 162.798L130.457 168.66L132.176 167.018L133.117 168.539L129.084 175.074L127.875 174.328L127.467 171.867L118.583 166.384L116.875 168.009L115.934 166.488L117.992 163.152C118.581 162.199 119.128 161.236 119.634 160.264C120.009 159.555 120.294 159.042 120.49 158.724C121.065 157.794 121.731 157.069 122.49 156.55C123.245 156.013 124.017 155.714 124.806 155.653C125.596 155.592 126.331 155.772 127.012 156.192C127.784 156.668 128.288 157.45 128.526 158.537C128.771 159.612 128.769 160.771 128.52 162.012L129.864 160.749L134.833 161.113L136.563 159.948L137.504 161.469ZM129.618 143.555C130.458 142.193 131.49 141.169 132.713 140.483C133.936 139.796 135.233 139.484 136.604 139.547C137.975 139.61 139.308 140.041 140.601 140.839C141.929 141.658 142.888 142.846 143.479 144.401C144.077 145.946 144.313 147.556 144.187 149.233C144.049 150.903 143.63 152.305 142.93 153.44C142.09 154.801 141.064 155.829 139.852 156.523C138.636 157.198 137.339 157.51 135.961 157.458C134.589 157.395 133.257 156.965 131.963 156.167C130.636 155.347 129.673 154.165 129.075 152.621C128.473 151.059 128.24 149.442 128.378 147.772C128.504 146.095 128.917 144.69 129.618 143.555ZM131.289 145.95C130.939 146.517 130.804 147.154 130.884 147.862C130.96 148.551 131.234 149.237 131.706 149.92C132.184 150.592 132.821 151.173 133.615 151.663C134.58 152.258 135.546 152.659 136.516 152.865C137.485 153.072 138.387 153.033 139.22 152.748C140.061 152.453 140.74 151.885 141.259 151.045C141.609 150.478 141.746 149.85 141.67 149.16C141.59 148.453 141.31 147.763 140.831 147.092C140.36 146.409 139.727 145.822 138.933 145.332C137.957 144.73 136.984 144.325 136.015 144.119C135.046 143.912 134.15 143.955 133.327 144.246C132.494 144.531 131.814 145.099 131.289 145.95ZM155.358 132.543L148.519 143.622L147.311 142.876L147.039 140.499L138.019 134.932L136.294 136.546L135.352 135.025L141.875 124.456L142.441 122.855L147.036 125.691L146.811 127.197L142.305 127.377L140.005 131.105L144.124 133.647L145.142 131.996L144.156 129.671L144.902 128.463L149.736 131.446L149.576 133.228L146.728 133.045L145.74 134.645L150.148 137.365L152.354 133.791L150.354 129.149L151.6 128.273L156.536 131.319L155.358 132.543ZM154.482 109.857L165.238 116.496L164.135 118.283L150.826 120.997L156.987 124.8L159.639 122.559L160.581 124.08L157.177 129.594L155.969 128.849L155.561 126.387L147.255 121.261L144.952 122.519L144.01 120.998L146.017 117.747L158.961 115.09L153.039 111.434L150.414 113.669L149.472 112.148L152.876 106.633L154.067 107.369L154.482 109.857ZM173.739 102.798L166.796 114.048L165.588 113.302L165.316 110.925L156.21 105.305L154.553 106.962L153.612 105.441L157.645 98.9055L158.854 99.6513L159.115 102.045L168.408 107.781L170.572 104.275L168.379 99.1843L169.625 98.3081L174.918 101.575L173.739 102.798ZM184.392 85.5012L180.043 92.5472L178.835 91.8014L179.029 89.1248L176.349 88.6693L173.282 93.6389L174.587 95.4082L177.368 93.8343L178.31 95.3554L174.801 101.04L173.593 100.294L173.341 97.3889L165.719 87.0437L167.099 82.8658L181.558 85.2564L183.45 83.9801L184.392 85.5012ZM168.617 87.375L172.054 92.0113L174.323 88.3351L168.617 87.375ZM182.435 64.5666L193.192 71.2053L192.089 72.9924L178.78 75.7067L184.941 79.5093L187.593 77.2683L188.534 78.7895L185.131 84.3037L183.922 83.5579L183.514 81.0967L175.209 75.9706L172.905 77.228L171.964 75.7069L173.97 72.4562L186.915 69.799L180.992 66.1435L178.367 68.378L177.426 66.8568L180.829 61.3426L182.021 62.0779L182.435 64.5666ZM185.912 52.7268C186.738 51.3879 187.75 50.383 188.948 49.712C190.141 49.0226 191.412 48.7024 192.761 48.7514C194.109 48.8003 195.413 49.2134 196.673 49.9908C197.966 50.7891 198.901 51.9534 199.476 53.4836C200.047 54.9955 200.267 56.5808 200.137 58.2394C200.002 59.8796 199.584 61.2671 198.884 62.4017C198.576 62.9009 198.236 63.3883 197.864 63.8639C197.303 64.6458 196.879 65.2694 196.592 65.7346L194.732 68.747L193.524 68.0012L193.252 65.624L184.283 60.0882L182.507 61.6713L181.565 60.1502L183.204 57.4951C183.841 56.4626 184.434 55.4261 184.982 54.3857C185.385 53.6315 185.695 53.0785 185.912 52.7268ZM197.408 60.8327C197.807 60.186 197.973 59.4734 197.905 58.695C197.844 57.9053 197.562 57.1437 197.059 56.4102C196.551 55.6583 195.866 55.0162 195.004 54.484C193.972 53.8467 192.941 53.4222 191.912 53.2103C190.879 52.9801 189.921 53.0229 189.036 53.3389C188.147 53.6364 187.423 54.2391 186.863 55.1468C186.632 55.5212 186.511 55.9324 186.501 56.3805L196.117 62.3155C196.599 61.9397 197.03 61.4454 197.408 60.8327ZM208.634 46.2227L204.601 52.7581L203.392 52.0123L202.984 49.5511L194.1 44.0678L192.392 45.6929L191.451 44.1718L195.484 37.6363L196.693 38.3822L197.107 40.8709L205.975 46.3436L207.693 44.7015L208.634 46.2227ZM218.859 29.6565L214.51 36.7025L213.302 35.9567L213.497 33.2801L210.817 32.8245L207.749 37.7942L209.055 39.5634L211.836 37.9895L212.777 39.5107L209.269 45.1951L208.06 44.4493L207.809 41.5442L200.186 31.1989L201.566 27.0211L216.025 29.4116L217.918 28.1353L218.859 29.6565ZM203.084 31.5303L206.521 36.1665L208.79 32.4904L203.084 31.5303Z" fill="black"/>
</svg>
