<svg width="139" height="170" viewBox="0 0 139 170" fill="none" xmlns="http://www.w3.org/2000/svg">
<path d="M37.9128 155.137C39.653 155.808 41.2287 157.538 45.5166 157.538C46.5 157.538 48.0557 159.144 48.4603 159.615C50.3307 161.415 52.1971 161.944 54.2678 162.346C56.2103 162.745 58.7669 162.642 60.3417 163.548C62.2181 164.627 64.3892 167.228 67.2867 166.682C68.35 166.482 69.406 166.27 69.8179 165.476C70.7572 163.666 72.314 161.41 72.6877 159.132C73.0161 157.13 72.7935 154.232 71.3459 152.726C69.8039 151.122 67.6815 150.073 66.0711 148.32C64.5972 146.716 59.1339 143.859 60.8724 137.496C61.6734 134.564 61.4967 132.082 63.1473 130.559C66.776 127.211 75.3591 127.172 77.0273 124.557C77.9665 123.085 79.0258 121.104 80.2975 118.479C81.1689 116.681 82.8023 115.723 88.3779 111.076C90.1181 110.133 92.1897 108.651 93.116 107.001C93.9792 105.463 94.7342 103.813 96.5244 102.124C98.9296 99.8554 101.781 98.1443 103.331 96.1166C105.066 93.8476 106.31 92.0724 107.268 89.9726C108.67 86.9026 109.082 84.9011 110.07 82.7673C110.937 80.8949 112.274 79.1326 112.271 75.8804C112.267 71.4186 112.11 69.513 111.534 65.8093C111.201 63.6726 109.923 61.7658 110.468 58.8683C110.669 57.805 111.024 56.9587 111.878 55.9966C114.55 52.9867 116.645 50.8144 119.086 49.1257C120.822 47.9242 123.288 47.5486 125.226 46.6585C126.83 45.9216 129.674 45.6275 131.968 41.7121C133.102 39.7776 131.837 37.4028 134.832 32.5763C135.5 31.5 135.457 31.4473 135.867 30.3108C136.378 28.8917 134.919 27.5325 134.368 26.1188C133.909 24.9409 132.733 23.708 131.639 22.9745C128.632 20.9585 130.455 13.4144 129.728 12.823C128.603 11.9076 127.543 11.4093 126.765 10.4108C125.521 8.8115 126.084 6.22423 123.859 4.03876C123.357 3.54609 122.811 3.66723 122.399 3.80246C120.823 4.31903 119.713 5.03315 118.526 5.30497C116.856 5.68747 115.5 7 113.657 7.94528C113.247 8.15521 112.236 9.86027 111.962 9.99823C111.417 10.3165 110.868 10.5897 110.416 10.8642C109.682 11.9611 108.683 13.4408 107.591 13.7764C106.404 14.1411 104.765 14.3077 103.219 14.5959C101.76 14.8677 100.283 14.9707 98.8941 15.4155C97.755 15.7802 96.5526 16.7503 95.0696 17.0546C93.7446 17.3264 91.0355 17.8079 89.2412 18.1008C87.8275 18.3317 85.8445 20.0159 83.3637 19.0993C81.2711 18.3262 78.9764 21.0715 73.9347 17.687C72.1686 16.5014 71.3337 15.0404 69.9367 14.5932C68.7975 14.2285 67.4837 14.1507 66.1121 13.5455C64.9729 13.0429 64.0601 11.7747 62.2862 11.7247C60.7823 11.6824 58.0649 12.0762 53.711 12.3189C48.7622 12.5948 47.3196 13.5272 45.9853 14.1424C44.211 14.9606 43.2094 16.339 41.8876 16.1886C39.8346 15.955 38.2772 14.7248 36.1507 14.4115C34.2781 14.1356 32.0038 13.6524 29.9139 12.6795C28.5467 12.043 27.7457 11.0811 26.7286 10.7686C25.5416 10.4039 24.3377 9.51818 23.0844 9.44913C22.2662 9.40405 21.4254 9.47338 20.9918 9.99959C19.8977 11.3273 18.8468 14.7096 16.9814 15.0972C15.8901 15.3239 14.8173 15.6873 13.9327 15.8703C12.1502 16.2391 8.88363 16.0557 7.73965 17.4725C5.87244 19.785 4.47734 19.9107 4.46691 21.3094C4.42456 26.9861 2.5 32.5 4.60486 33.171C7.46771 34.0837 9.59659 33.7641 10.1408 34.3165C10.4072 34.5869 10.4584 35.0698 10.8097 35.3178C12.4178 36.4533 17.7997 36.7319 21.4935 37.3164C23.6323 37.6549 25.4947 38.4519 27.0988 38.9866C28.7029 39.5213 30.6724 39.3101 31.905 40.3904C33.5091 41.7962 36.0584 42.8135 37.0437 44.6639C38.5877 47.5637 40.3008 52.2933 41.3813 55.2136C42.0482 57.0159 43.6362 62.5039 42.3125 69.0235C42.1142 70 41.916 69.5601 42.1142 70.7136C42.3125 73.8497 41.7758 76.9056 40.372 82.0543C39.5089 84.6517 37.4271 88.4556 34.0938 92.0613C32.4277 93.8636 33.5046 99.9258 31.156 103.082C27.8698 107.497 25.5577 111.61 23.8165 112.081C23.0836 112.279 21.2022 112.38 20.4141 114.356C20.0156 115.355 19.3963 118.209 18.2814 119.889C17.7447 120.698 17.6125 121.095 17.4783 121.497C17.3441 121.9 17.212 122.297 16.9416 122.767C15.6059 124.704 16.359 131.483 14.6747 135.115C13.8676 136.855 12.5196 140.503 13.5452 142.793C14.4123 144.73 14.9271 147.234 16.7514 147.727C17.4843 147.926 18.6423 148.42 20.4942 148.661C23.0956 148.999 24.764 149.635 26.2977 150.399C28.038 151.266 29.9259 151.962 31.7768 152.468C34.7106 153.269 36.2407 154.492 37.9128 155.137Z" fill="#587956" stroke="black" stroke-width="6" stroke-linecap="round"/>
<path d="M53.3764 79.1083L47.2331 79.0125L47.2508 77.8767L48.7751 76.5883L48.9053 68.2373L47.089 67.7289L47.7489 66.4591L53.8921 66.5548L53.8744 67.6907L52.3339 68.9948L52.204 77.3298L54.0363 77.8385L53.3764 79.1083ZM67.4426 69.1984L67.2849 79.3092L65.6051 79.283L58.2895 71.248L58.1992 77.0393L60.8254 77.9443L60.1656 79.2142L54.9822 79.1334L54.9999 77.9975L56.5242 76.7091L56.6459 68.902L54.8383 67.8337L55.4982 66.5639L58.5538 66.6115L65.681 74.4196L65.7678 68.8522L63.1573 67.9634L63.8172 66.6936L69.0006 66.7744L68.9831 67.8942L67.4426 69.1984ZM77.0031 66.7391C78.2616 66.7588 79.3666 67.0427 80.3182 67.5909C81.2806 68.1287 82.0211 68.871 82.5398 69.8178C83.0584 70.7647 83.3085 71.83 83.29 73.0139C83.2711 74.2298 82.8536 75.3487 82.0375 76.3708C81.2323 77.3824 80.2331 78.1829 79.0397 78.7723C77.8572 79.3513 76.7327 79.6325 75.6662 79.6159C75.1969 79.6085 74.7227 79.5745 74.2436 79.5137C73.4765 79.4484 72.8743 79.4123 72.4371 79.4055L69.6054 79.3613L69.6231 78.2255L71.1454 77.0651L71.2768 68.6341L69.4615 68.0617L70.1214 66.7919L72.6171 66.8308C73.5877 66.8459 74.5427 66.8288 75.4823 66.7794C76.1655 66.7474 76.6725 66.734 77.0031 66.7391ZM76.1401 77.959C76.748 77.9685 77.3055 77.7905 77.8126 77.4251C78.3304 77.0597 78.7383 76.554 79.0364 75.9079C79.3453 75.2513 79.5061 74.5178 79.5188 73.7072C79.5339 72.7366 79.4036 71.8545 79.128 71.0608C78.8631 70.2566 78.4411 69.6152 77.8618 69.1368C77.2934 68.6479 76.5825 68.3968 75.7293 68.3835C75.3773 68.378 75.0453 68.4635 74.7332 68.64L74.5922 77.6789C75.0482 77.8567 75.5641 77.9501 76.1401 77.959ZM90.7781 79.6914L84.6348 79.5957L84.6525 78.4598L86.1768 77.1714L86.307 68.8204L84.4907 68.312L85.1506 67.0422L91.2938 67.138L91.2761 68.2738L89.7356 69.578L89.6057 77.913L91.438 78.4216L90.7781 79.6914ZM106.35 79.9342L99.727 79.831L99.7447 78.6951L101.664 77.7329L100.879 75.7044L96.208 75.6316L95.5267 77.2532L97.7472 78.5199L97.0873 79.7898L91.744 79.7065L91.7617 78.5706L93.6552 77.208L97.6433 67.733L101.08 66.9705L105.358 77.8865L107.01 78.6644L106.35 79.9342ZM98.6023 69.8602L96.8237 74.121L100.279 74.1749L98.6023 69.8602Z" fill="black"/>
</svg>
