<svg width="207" height="249" viewBox="0 0 207 249" fill="none" xmlns="http://www.w3.org/2000/svg">
<path d="M169.057 238.887C170.039 239.655 171.063 240.64 174.127 244.342C175.5 246 177.569 245.074 179.462 244.468C181.197 243.912 182.458 242.337 183.879 241.773C186.449 240.754 189.059 240.606 190.99 238.886C193.165 236.947 193.735 235.126 195.461 233.346C196.173 232.786 198 233 198.696 232.154C200.234 230.283 198.965 224.691 199.34 223.773C199.759 222.746 200.525 221.974 201.003 221.159C201.587 220.161 202.562 219.327 203.31 218.511C203.618 218.176 203.584 217.561 203.45 216.85C203.287 215.989 202.501 215.522 201.992 215.251C199.847 214.108 194.973 214.304 192.122 213.183C189.896 212.308 188.79 211.249 188.108 210.365C187.509 209.588 186.888 208.602 186.005 207.953C184.989 207.207 184.034 207.443 183.561 207.173C181.667 206.094 182.338 202.492 181.729 200.661C180.663 197.456 177.047 198.007 175.89 197.296C174.64 196.529 174.191 194.757 173.85 193.664C173.645 192.512 175.5 191 174.235 190.214C173.695 189.878 173.019 189.809 172.511 189.505C171.457 188.875 171.394 186.971 170.934 185.092C170.562 183.571 170.782 182.293 170.478 181.735C169.818 180.521 168.684 180.069 167.924 179.766L167.891 179.753C165.552 178.82 166.719 174.064 166.213 173.506C165.057 172.232 163.574 171.525 162.656 169.396C162.296 168.56 161.742 167.968 161.134 167.41C160.044 166.411 158.392 166.545 156.971 166.997C155.791 167.373 154.732 167.255 154.124 167.002C152.891 166.489 152.297 164.923 150.52 164.462C149.577 164.217 149.243 161.888 148.281 160.248C147.459 158.846 147.622 156.798 147.314 155.221C147.014 153.685 145.384 152.732 145.028 151.208C144.476 148.85 142.745 143.814 142.437 138.924C142.385 138.095 142.136 137.798 141.78 137.643C140.982 137.293 140.203 137.185 139.798 136.577C139.185 135.156 138.783 133.933 138.073 133.478C137.765 133.223 137.5 133 136.805 132.431C136.4 132.1 134.71 131.079 132.48 130.636C131.986 130.537 131.613 130.819 131.178 130.637C130.124 130.196 129.748 127.254 129.256 125.131C129.094 124.431 127.405 124.632 126.105 123.896C124.146 122.788 125.295 120.052 124.493 119.744C124.052 119.575 123.568 119.313 123.132 119.003C118.473 115.692 121.458 103.469 120.281 102.167C118.894 100.633 119.475 98.1504 118.979 96.102C118.872 95.661 118.732 95.2979 118.485 94.986C117.231 93.4016 114.157 93.4409 112.669 92.5087C110.23 90.98 110.569 86.6293 109.324 85.2681L109.255 85.1917C108.09 83.917 106.938 82.6566 105.183 81.983C104.432 81.6946 103.155 81.9198 102.401 81.736C101.647 81.5521 101.402 81.1844 101.215 80.8112C100.854 80.0935 100.778 78.3432 100.595 76.2391C100.527 75.4642 100.043 75.3608 99.6697 75.5428C97.9646 76.3741 100.262 75.4128 96.0001 75.5428C95.0511 75.5717 94.5001 76.2194 93.0001 75.2194C90.9759 73.8699 91.5001 74.4525 90.7559 73.7194C90.5052 73.4724 89.0001 70 88.5001 69.2194C86.6472 66.3265 86.6718 66.6996 86.1091 63.3625C85.9804 62.599 85.5576 62.2427 85.123 61.992C84.2592 61.4936 83.3254 61.3699 82.5232 60.939C81.4467 60.361 81.0932 58.0421 81.2771 55.4441C81.4441 53.0839 83.0691 51.5981 83.2604 49.9844C83.472 48.1988 79.9939 46.8887 78.3114 44.2944C77.2974 42.7309 78.8648 40.5785 78.6809 39.156C78.4405 37.2956 77.134 35.8727 76.3912 33.7687C76.2197 33.2828 76.2649 32.9014 76.0811 32.5895C75.2319 31.1485 73.056 31.037 71.4478 30.8531C70.422 30.7359 70.3224 29.1874 69.522 27.8224C68.7585 26.5204 66.6157 27.568 65.1283 27.3247C63.3791 27.0387 64.857 26.088 62.9999 24.9106C62.5502 24.6255 59.9999 24.9106 58.2572 24.9106C56.7283 24.9106 57.1215 22.8532 56.0002 21.2194C55.6642 20.7298 55.5001 10.5 54.1743 9.82542C53.3726 9.41747 52.245 9.38301 51.0277 9.14503C50.4308 9.02835 49.4136 9.11045 48.7607 8.87552C47.6692 8.48276 47.4955 7.48525 47.226 7.01234C46.2945 5.37779 43.5678 6.19363 40.8605 6.1621C40.1115 6.15338 39 5.64454 37.5 5.00002C36.1464 4.41841 36.4814 5.31667 35.5 4.5C34.9823 4.0692 34.7109 3.93288 34 4C32.9388 4.1002 31.8651 3.10505 31.5 3.49996C31.0378 3.99997 30.5767 2.71892 30 3.49999C29.4463 4.25001 29.3336 3.61853 28.1752 3.44971C27.0325 3.28317 26.2093 3.75278 25.2258 3.8555C24.288 3.95345 23.2353 4.49317 21.9212 5.16695L21.9211 5.16699L21.9063 5.17458C19.5823 6.3661 18.4799 6.60045 14.8288 6.80385C14.0595 6.84671 13.9359 7.20659 13.8667 7.57984C13.7126 8.41162 13.9989 9.10841 14.2705 9.51421C14.3407 9.71863 14.2735 9.92 13.9369 10.1915C13.6003 10.4631 12.7643 10.4076 11.9669 11.1445C10.5001 12.5 10.4653 13.3292 10.1536 15.5831C9.88674 17.5136 8.32157 18.0948 7.06706 19.3439C5.67233 20.7327 5.7212 22.3875 4.69368 23.7777C4.19805 24.8993 3.1812 25.9271 3.43782 27.047C3.99996 29.5 10.4125 27.8112 11.7869 28.8445C12.4792 29.4232 13.3698 30.0804 13.5023 32.0858C13.8433 37.2491 11.6727 40.9425 11.5423 43.3183L11.5361 43.4316C11.3178 47.4044 11.1162 51.0731 13.9673 53.3005C16.6126 55.3672 21.3858 56.8084 21.7691 60.5477C22.1101 63.8751 21.528 66.5597 20.7254 68.1152C18.886 71.6803 15.7777 75.026 17.6391 87.0703C17.9904 89.3437 18.6725 89.3437 19.1306 89.3437H20.0434C21 90 20.2709 92.1061 20.5086 92.4471C21.4283 92.7881 22.8129 93.2566 24.1873 93.9386C26.9463 93.6975 29.1541 92.8124 30.2703 93.7147C30.8455 94.1797 31.2933 94.8657 31.7617 95.6712C33.8353 99.2362 36.6264 102.306 37.1524 105.316C37.7345 108.647 41.2829 111.388 41.861 114.843C42.3226 117.602 42.0098 121.452 44.3927 122.876C45.5397 123.561 47.0433 125.185 50.9407 126.896C53.8134 128.156 55.738 130.307 58.057 132.638C60.234 134.825 59.0909 140.676 62.3076 141.359C63.9127 141.7 68.0536 141.607 68.6144 144.814C68.9554 146.763 72.3505 163.289 74.3507 164.009C74.8675 164.183 75.1208 164.352 75.3779 164.479C76.4895 164.95 78.022 165.459 79.2155 165.844C80.2401 166.485 80.4288 167.89 81.3901 168.618C82.6296 169.555 84.0163 170.933 85.0997 170.617C86.1244 170.318 88.2079 168.311 91.2923 170.632C92.2747 171.372 92.4411 173.067 93.201 174.502C93.7126 175.012 93.0977 178.129 94.6081 179.363C96 180.5 99.056 180.894 100.661 181.41C102.5 182 105.157 182.502 105.436 184.097C105.563 184.821 105.3 185.467 105.049 186.189C104.366 188.15 103.452 190.525 104.629 191.3C104.888 191.47 105.249 191.496 105.525 191.641C106.505 192.156 107.029 193.952 108.425 194.67C109.836 195.395 111.465 195.361 113.843 196.075C115.546 196.587 116.875 196.408 118.274 197.055C119.296 197.529 120.467 197.366 121.984 198.421C122.535 198.805 121.869 201.799 123.436 202.002C124.416 202.129 125.787 201.932 126.502 202.729C126.874 203.143 127.24 204.234 127.776 205.833L127.821 205.966C128 206.5 128.591 207.248 128.848 207.462C129.699 208.274 129.167 209.657 130.254 212.541C130.638 213.559 131.106 214.182 131.706 214.368C132.943 214.752 134.364 214.851 135.5 215.862C137.046 217.238 138.598 219.514 139.422 220.253C139.848 220.636 140.644 220.648 141.557 220.848C142.92 221.148 144.351 221.459 145.477 220.846C146.502 220.288 148.042 218.571 149.616 218.931C150.002 219.019 150.479 219.23 150.766 219.66C151.36 220.554 151.455 221.376 151.701 221.832C152.299 222.944 152.08 225.088 153.238 225.582C153.834 225.837 156.743 225.099 158.269 227.547C158.693 228.227 158.281 230.486 159.038 233.18C159.299 234.108 159.82 234.062 160.45 234.282C163.137 235.219 164.633 234.956 165.689 234.962C165.946 234.963 166.244 235.003 166.456 235.263C167.394 236.416 167.863 237.955 169.057 238.887Z" fill="#587956" stroke="black" stroke-width="6" stroke-linecap="round"/>
<path d="M75.949 96.253L70.2904 100.222L69.5565 99.1761L70.0941 96.9961L64.6982 89.3039L62.7082 90.0403L62.4707 88.4479L68.1293 84.4786L68.8632 85.5248L68.3213 87.7299L73.7068 95.4073L75.7115 94.6607L75.949 96.253ZM94.1681 115.232L90.6904 117.671L84.5823 114.48L83.7153 114.561L83.5372 113.367L84.1414 112.943C84.5835 112.633 84.822 112.231 84.8569 111.737C84.8849 111.234 84.6956 110.693 84.289 110.113C83.8411 109.474 83.3157 109.081 82.7129 108.932C82.1131 108.766 81.4939 108.907 80.8553 109.355C80.4722 109.624 80.1929 109.989 80.0174 110.449L85.7853 118.672L87.7901 117.925L88.0276 119.517L82.369 123.487L81.6351 122.44L82.1726 120.26L76.7768 112.568L74.7868 113.305L74.5493 111.712L77.4375 109.686C78.2627 109.107 79.0574 108.506 79.8217 107.882C80.3835 107.429 80.802 107.106 81.0771 106.913C81.8826 106.348 82.6914 105.986 83.5032 105.827C84.318 105.651 85.0627 105.678 85.7374 105.909C86.412 106.139 86.956 106.549 87.3695 107.139C87.8381 107.807 87.9775 108.632 87.7878 109.615C87.6079 110.592 87.1944 111.549 86.5475 112.486L88.1071 111.92L92.0862 113.988L93.9306 113.64L94.1681 115.232ZM109.635 136.141L103.535 140.421L102.801 139.374L103.913 137.231L101.859 135.901L97.5564 138.919L98.0066 140.846L100.866 140.534L101.103 142.126L96.1813 145.579L95.4473 144.532L96.2721 142.041L93.648 130.778L96.2743 127.814L107.379 134.931L109.398 134.549L109.635 136.141ZM95.9261 132.082L97.1196 137.137L100.303 134.904L95.9261 132.082ZM95.8431 122.686L93.1761 127.723L91.8536 127.969L91.4043 123.974L94.7542 122.042L95.8431 122.686ZM116.706 149.022L123.239 158.335L121.692 159.421L109.723 156.933L113.465 162.267L116.455 161.358L116.692 162.95L111.918 166.299L111.184 165.253L111.721 163.073L106.677 155.882L104.325 156.102L104.088 154.51L106.902 152.536L118.55 154.941L114.952 149.813L111.988 150.727L111.75 149.135L116.525 145.786L117.248 146.817L116.706 149.022Z" fill="black"/>
</svg>
