<svg width="150" height="158" viewBox="0 0 150 158" fill="none" xmlns="http://www.w3.org/2000/svg">
<path d="M90.5981 138.931C91.1845 137.184 90.5981 133.5 93 132.5L95.2637 131.941C104.594 129.91 106.345 125.831 108.091 122.759C108.575 121.908 110.407 122.313 111.151 122.89C111.895 123.468 111.895 124.624 112.472 125.363C113.713 126.951 117.129 126.689 120.621 125.967C124.646 125.135 126.188 121.446 126.337 119.7C126.413 118.812 125.619 117.954 125.466 117.074C125.313 116.194 125.602 115.328 126.184 114.737C127.373 113.53 129.392 112.982 130.994 111.673C134.29 108.98 133.777 104.526 134.355 102.487C134.973 100.306 139.878 99.5635 144.106 97.8172C145.816 97.1108 146.312 96.071 145.887 94.9024C142.468 85.492 125.024 89.9351 125.457 88.0444C126.573 83.1763 130.565 82.0573 130.569 80.4555C130.574 78.7094 126.503 78.5473 123.295 78.114C122.109 77.6807 121.821 76.8142 121.527 75.9345C121.234 75.0548 120.945 74.1882 118.897 71.5448V70C119.79 67.3566 119.781 68.0348 120.214 67.1551C120.945 63.6495 123.869 60.157 125.755 56.0562C125.899 52.5593 126.004 49.1825 124.573 48.3447C123.834 47.9114 122.662 47.8269 121.654 48.0602C119.763 48.4979 118.371 50.4552 116.258 50.9794C114.512 51.4127 112.173 51.6902 111.304 50.2354C110.433 48.778 107.494 40.505 112.052 37.5434C115.413 35.3595 120.982 33.2576 120.354 29.5168C120.061 27.7706 119.762 18.6216 114.656 21.5077C113.347 22.2474 112.433 24.9583 109.82 25.5954C108.043 26.0287 105.155 26.0287 103.859 25.5823C102.564 25.1359 102.853 24.2693 103.295 23.3896C103.737 22.51 104.47 21.671 104.603 20.4661C104.892 17.8446 105.109 14.3529 103.566 14.3565C101.671 14.3608 99.3871 15.4625 96.6991 16.1114C90.5719 17.5907 86.5192 19.8286 82.9961 19.0219C79.1929 18.1509 74.9983 18.2865 74.6894 16.2296C73.6609 9.38032 71.4785 5.73982 68.7023 3.70394C68.1115 3.27066 67.0337 3.12049 66.6628 3.86587C65.7919 5.61649 63.8563 9.75834 61.8486 13.7875C59.9536 17.5907 59.7005 26.3537 54.5398 26.4707C48.5571 26.6064 36.1201 23.4848 37.3487 27.9369C37.7908 29.5387 42.471 32.0752 43.1827 36.5456C43.3227 37.4252 43.1499 38.4318 42.2942 39.0227C40.3992 40.3313 35.843 39.6397 31.9349 41.653C30.4907 42.397 30.4084 43.8532 30.6395 45.1586C31.0771 47.6313 31.8892 49.6386 32.0969 51.4258C32.5389 55.229 36.487 60.1146 33.5455 64.9975C32.2325 67.177 31.7419 66.2964 30 69.5L26.9893 74C26 75.4552 27.2869 79.3315 26.9893 80.5C25.5363 86.0801 24.6523 88.1844 23.1861 91.8257C21.7287 91.9658 19.018 91.7566 17.641 89.7687C15.3127 86.4076 16.1573 79.8091 12.5336 78.9806C10.6385 78.5473 8.50689 78.6839 6.69527 79.7246C5.66679 80.3154 4.51138 81.182 3.93367 83.5497C3.35597 85.9174 2.64524 89.9322 3.80238 91.9964C6.57711 96.9463 7.71367 105.932 12.411 106.999C15.6278 107.73 19.0478 109.024 22.6259 110.942C26.4291 112.982 27.0099 119.979 32.1186 120.86C35.4711 121.437 38.8851 121.735 39.6857 123.643C40.119 124.676 40.2771 126.152 39.9702 127.289C38.9461 131.083 33.0051 137.355 37.8082 141.434C38.9986 142.445 41.4419 141.939 42.9112 142.594C46.5437 144.213 48.4373 145.351 50.4914 146.095C54.1414 147.417 56.2741 155.465 60.2773 153.806C61.7566 153.194 63.7773 150.354 65.8181 149.579C70.7723 147.697 72.2055 143.395 76.0285 142.878C79.2365 142.445 82.7306 142.167 83.6 143.622C84.4709 145.08 83.7126 148.938 85.355 152.524C85.9502 153.824 87.1056 153.824 88.1297 153.675C89.1538 153.526 90.3814 153.511 90.7513 152.647C92.6375 148.239 89.3899 142.528 90.5981 138.931Z" fill="#E698E8" stroke="black" stroke-width="6" stroke-linecap="round"/>
</svg>
