<svg width="150" height="158" viewBox="0 0 150 158" fill="none" xmlns="http://www.w3.org/2000/svg">
<path d="M90.5981 138.931C91.1845 137.184 90.5981 133.5 93 132.5L95.2637 131.941C104.594 129.91 106.345 125.831 108.091 122.759C108.575 121.908 110.407 122.313 111.151 122.89C111.895 123.468 111.895 124.624 112.472 125.363C113.713 126.951 117.129 126.689 120.621 125.967C124.646 125.135 126.188 121.446 126.337 119.7C126.413 118.812 125.619 117.954 125.466 117.074C125.313 116.194 125.602 115.328 126.184 114.737C127.373 113.53 129.392 112.982 130.994 111.673C134.29 108.98 133.777 104.526 134.355 102.487C134.973 100.306 139.878 99.5635 144.106 97.8172C145.816 97.1108 146.312 96.071 145.887 94.9024C142.468 85.492 125.024 89.9351 125.457 88.0444C126.573 83.1763 130.565 82.0573 130.569 80.4555C130.574 78.7094 126.503 78.5473 123.295 78.114C122.109 77.6807 121.821 76.8142 121.527 75.9345C121.234 75.0548 120.945 74.1882 118.897 71.5448V70C119.79 67.3566 119.781 68.0348 120.214 67.1551C120.945 63.6495 123.869 60.157 125.755 56.0562C125.899 52.5593 126.004 49.1825 124.573 48.3447C123.834 47.9114 122.662 47.8269 121.654 48.0602C119.763 48.4979 118.371 50.4552 116.258 50.9794C114.512 51.4127 112.173 51.6902 111.304 50.2354C110.433 48.778 107.494 40.505 112.052 37.5434C115.413 35.3595 120.982 33.2576 120.354 29.5168C120.061 27.7706 119.762 18.6216 114.656 21.5077C113.347 22.2474 112.433 24.9583 109.82 25.5954C108.043 26.0287 105.155 26.0287 103.859 25.5823C102.564 25.1359 102.853 24.2693 103.295 23.3896C103.737 22.51 104.47 21.671 104.603 20.4661C104.892 17.8446 105.109 14.3529 103.566 14.3565C101.671 14.3608 99.3871 15.4625 96.6991 16.1114C90.5719 17.5907 86.5192 19.8286 82.9961 19.0219C79.1929 18.1509 74.9983 18.2865 74.6894 16.2296C73.6609 9.38032 71.4785 5.73982 68.7023 3.70394C68.1115 3.27066 67.0337 3.12049 66.6628 3.86587C65.7919 5.61649 63.8563 9.75834 61.8486 13.7875C59.9536 17.5907 59.7005 26.3537 54.5398 26.4707C48.5571 26.6064 36.1201 23.4848 37.3487 27.9369C37.7908 29.5387 42.471 32.0752 43.1827 36.5456C43.3227 37.4252 43.1499 38.4318 42.2942 39.0227C40.3992 40.3313 35.843 39.6397 31.9349 41.653C30.4907 42.397 30.4084 43.8532 30.6395 45.1586C31.0771 47.6313 31.8892 49.6386 32.0969 51.4258C32.5389 55.229 36.487 60.1146 33.5455 64.9975C32.2325 67.177 31.7419 66.2964 30 69.5L26.9893 74C26 75.4552 27.2869 79.3315 26.9893 80.5C25.5363 86.0801 24.6523 88.1844 23.1861 91.8257C21.7287 91.9658 19.018 91.7566 17.641 89.7687C15.3127 86.4076 16.1573 79.8091 12.5336 78.9806C10.6385 78.5473 8.50689 78.6839 6.69527 79.7246C5.66679 80.3154 4.51138 81.182 3.93367 83.5497C3.35597 85.9174 2.64524 89.9322 3.80238 91.9964C6.57711 96.9463 7.71367 105.932 12.411 106.999C15.6278 107.73 19.0478 109.024 22.6259 110.942C26.4291 112.982 27.0099 119.979 32.1186 120.86C35.4711 121.437 38.8851 121.735 39.6857 123.643C40.119 124.676 40.2771 126.152 39.9702 127.289C38.9461 131.083 33.0051 137.355 37.8082 141.434C38.9986 142.445 41.4419 141.939 42.9112 142.594C46.5437 144.213 48.4373 145.351 50.4914 146.095C54.1414 147.417 56.2741 155.465 60.2773 153.806C61.7566 153.194 63.7773 150.354 65.8181 149.579C70.7723 147.697 72.2055 143.395 76.0285 142.878C79.2365 142.445 82.7306 142.167 83.6 143.622C84.4709 145.08 83.7126 148.938 85.355 152.524C85.9502 153.824 87.1056 153.824 88.1297 153.675C89.1538 153.526 90.3814 153.511 90.7513 152.647C92.6375 148.239 89.3899 142.528 90.5981 138.931Z" fill="#E698E8" stroke="black" stroke-width="6" stroke-linecap="round"/>
<path d="M40.0347 110.144L35.1069 113.126L34.5555 112.215L35.1249 110.433L31.071 103.734L29.375 104.235L29.267 102.897L34.1949 99.915L34.7463 100.826L34.1718 102.629L38.218 109.315L39.9267 108.807L40.0347 110.144ZM45.2624 104.228C45.1123 103.98 44.8689 103.8 44.5323 103.688C44.1958 103.576 43.8225 103.51 43.4125 103.489C43.0026 103.468 42.4503 103.463 41.7558 103.475C40.9001 103.49 40.1995 103.481 39.654 103.449C39.1033 103.408 38.5824 103.291 38.0911 103.097C37.5999 102.904 37.2223 102.589 36.9582 102.153C36.6993 101.725 36.6277 101.143 36.7432 100.407C36.8621 99.6567 37.1201 98.9337 37.517 98.2376C37.9088 97.533 38.3571 97.028 38.8618 96.7225C39.4692 96.3549 40.2139 95.9919 41.0958 95.6335C41.9862 95.27 42.6636 95.0471 43.1281 94.9647L44.9454 97.9676L43.3027 98.9617C42.572 98.4688 41.8891 98.1516 41.254 98.0099C40.6223 97.8546 40.0925 97.9063 39.6648 98.1652C39.4081 98.3205 39.2562 98.5234 39.2092 98.774C39.1621 99.0246 39.2162 99.2782 39.3716 99.5349C39.5372 99.8086 39.7935 100.01 40.1405 100.139C40.4908 100.254 40.8778 100.324 41.3015 100.348C41.7285 100.359 42.2936 100.356 42.9967 100.339C43.825 100.317 44.5076 100.325 45.0445 100.362C45.5848 100.386 46.0937 100.493 46.5712 100.683C47.0487 100.873 47.4169 101.182 47.6758 101.61C47.9346 102.038 47.9918 102.635 47.8472 103.4C47.706 104.152 47.4224 104.89 46.9964 105.616C46.5652 106.332 46.0887 106.849 45.5668 107.165C44.9337 107.548 44.142 107.939 43.1917 108.339C42.2414 108.739 41.5298 108.982 41.0567 109.07L39.2395 106.067L40.8821 105.073C41.6437 105.559 42.3677 105.857 43.0541 105.968C43.7405 106.078 44.3147 105.994 44.7767 105.714C45.0847 105.528 45.2767 105.295 45.3529 105.015C45.4375 104.73 45.4074 104.467 45.2624 104.228ZM58.7988 98.8062L50.3162 103.94L49.7648 103.028L50.3964 101.349L46.2415 94.4832L44.5688 95.022L44.4608 93.6847L49.3887 90.7025L49.9401 91.6137L49.2957 93.3011L53.536 100.308L56.1796 98.7081L56.4571 94.5601L57.5884 94.4015L60.0037 98.3925L58.7988 98.8062ZM71.8257 90.9051L66.5128 94.1203L65.9614 93.2091L67.007 91.4893L65.374 90.2684L61.6267 92.5362L61.8928 94.1636L64.2874 94.0644L64.3953 95.4017L60.1091 97.9956L59.5577 97.0845L60.3835 95.0594L58.8348 85.547L61.185 83.2306L70.018 89.7723L71.7177 89.5678L71.8257 90.9051ZM60.6556 86.7595L61.3638 91.0297L64.1357 89.3522L60.6556 86.7595ZM77.6811 76.2631L82.5894 84.3736L81.2419 85.189L71.4303 82.448L74.2417 87.0935L76.7785 86.5051L76.8865 87.8424L72.7286 90.3586L72.1772 89.4475L72.7466 87.6652L68.9567 81.4027L66.989 81.4539L66.881 80.1166L69.3321 78.6332L78.881 81.2878L76.1783 76.8219L73.6621 77.4154L73.5541 76.0781L77.712 73.5619L78.2557 74.4602L77.6811 76.2631ZM84.0516 69.55C85.0612 68.939 86.0804 68.6144 87.1092 68.5762C88.1415 68.5243 89.0993 68.7453 89.9826 69.2393C90.866 69.7333 91.5951 70.4551 92.1698 71.4048C92.76 72.3801 92.9854 73.4768 92.846 74.695C92.7099 75.8994 92.3146 77.0328 91.6601 78.0952C91.009 79.1438 90.2556 79.927 89.4001 80.4447C89.0237 80.6726 88.63 80.8816 88.2191 81.0718C87.5773 81.4018 87.0809 81.6729 86.7302 81.8852L84.4587 83.2598L83.9073 82.3487L84.5389 80.669L80.4461 73.906L78.7191 74.3551L78.6111 73.0178L80.6131 71.8062C81.3916 71.3351 82.1418 70.846 82.8636 70.3391C83.3904 69.9735 83.7864 69.7105 84.0516 69.55ZM88.9517 78.8927C89.4394 78.5975 89.7937 78.1786 90.0145 77.6358C90.244 77.0879 90.3163 76.4831 90.2315 75.8214C90.15 75.146 89.9125 74.4832 89.519 73.833C89.0479 73.0544 88.5052 72.4185 87.8911 71.9252C87.2804 71.4182 86.6258 71.1188 85.9275 71.0272C85.2325 70.9218 84.5428 71.0762 83.8584 71.4904C83.576 71.6612 83.3548 71.8944 83.1947 72.19L87.5827 79.4407C88.0334 79.3549 88.4897 79.1722 88.9517 78.8927ZM101.443 72.9816L96.5147 75.9638L95.9633 75.0527L96.5328 73.2703L92.4788 66.5715L90.7829 67.0719L90.6749 65.7346L95.6028 62.7524L96.1542 63.6635L95.5796 65.4664L99.6258 72.1524L101.335 71.6443L101.443 72.9816ZM113.934 65.4221L108.621 68.6373L108.07 67.7262L109.115 66.0064L107.482 64.7855L103.735 67.0532L104.001 68.6806L106.396 68.5815L106.504 69.9188L102.217 72.5127L101.666 71.6015L102.492 69.5764L100.943 60.0641L103.293 57.7476L112.126 64.2894L113.826 64.0848L113.934 65.4221ZM102.764 61.2765L103.472 65.5467L106.244 63.8692L102.764 61.2765Z" fill="black"/>
</svg>
