<svg width="163" height="108" viewBox="0 0 163 108" fill="none" xmlns="http://www.w3.org/2000/svg">
<path d="M75.5601 99.6565C74.8171 101.144 74.7557 102.657 71.4931 104.552C69 106 67.4363 103.254 65.2194 102.453C60.6235 102.457 58.9511 104.315 57.0208 104.123C55.0082 103.923 52.4882 103.882 48.8022 101.646C45.9405 99.9098 43.8852 98.9798 43.2069 96.904C43.0087 96.2972 43.0087 95.5041 43.2129 94.9715C43.4172 94.4388 43.8664 94.2196 44.1482 93.838C45.2836 92.3 47.4601 90.367 46.8777 88.3629C46.7415 87.8943 46.4991 87.3781 45.7322 87.2995C43.7977 87.1013 41.9394 87.9306 39.7284 88.1706C37.2572 88.439 34.0011 88.9561 31.4537 88.3008C29.375 87.7661 26.2716 87.8253 24.5788 86.6967C22.9747 85.6274 21.2597 84.7472 19.3701 83.4245C17.3675 82.0227 15.8204 81.1443 13.8309 79.954C12.1607 78.9547 9.65739 78.3739 8.76233 76.5476C8.56407 76.1431 8.56228 75.6146 8.49598 75.1458C8.16355 72.7947 7.7375 69.9509 7.02608 68.2709C6.28913 66.5306 6.06807 64.583 5.29183 61.3239C4.68705 58.7846 1.52432 49.1756 5.0315 46.3104C5.76444 45.7117 6.65945 45.1056 7.23235 44.2398C7.49869 43.8372 7.88614 43.4749 8.74265 43.3769C9.18899 43.3769 9.6222 43.3769 9.97271 43.3323C10.5831 43.201 11.1109 42.9358 11.6347 42.6312C13.1325 42.3267 15.7227 42.285 16.8857 41.5377C17.848 40.9194 17.8399 39.2104 18.7249 38.7809C18.9927 38.6509 19.5281 38.7243 19.9064 38.6063C21.1772 38.2098 22.2915 37.3968 23.4063 36.0648C24.3226 34.9699 24.789 33.76 26.1657 33.3539C28.0928 32.7855 29.5942 33.1598 33.1693 32.2604C34.2129 31.9978 35 30 37.6275 28.7185C38.713 28.189 44.3869 29.4615 48.4972 29.2423C51.6465 29.1989 53.8179 28.9311 54.1671 28.4073C54.343 28.1435 54.5606 27.8942 54.6029 27.6197C54.7788 26.4789 54.0505 25.2892 54.2524 23.9873C54.3403 23.4201 54.5848 22.6598 55.2186 22.5025C55.7424 22.3726 56.2533 22.2143 56.8385 22.1087C58.2865 21.8475 59.2135 21.452 59.7699 21.0559C60.9961 20.1829 62.6789 20.4812 62.9613 19.4372C63.0912 18.9567 62.367 17.9999 63.0072 16.8983C63.1858 16.5911 63.5206 16.2811 63.9734 16.2012C65.722 15.8927 65.6542 12.6986 68.7519 12.217C70.981 11.8704 72.6352 11.7784 73.0276 11.2981C73.4201 10.8176 73.4431 9.96683 73.9911 9.8107C75.9774 9.2449 78.0597 9.33155 80.6826 8.1947C81.1318 8 81.1211 7.66696 81.3429 7.44773C81.9113 7.05521 82.5257 6.52486 83.0495 6.005C83.3134 5.83172 83.588 5.79653 83.8372 5.92098C84.8887 6.44609 86.1479 7.03601 87.2504 7.45167C88.3019 7.84812 89.4902 8.52548 90.7082 8.72111C92.3347 8.98236 94.5515 9.02249 95.3449 8.10411C96.1785 7.13923 96.4454 5.28722 97.6265 5.17402C98.9826 5.04406 101.28 3.10549 103.267 4.3903C103.877 4.78413 104.3 5.49965 104.488 6.62331C104.664 7.67484 103.842 10.4998 105.28 11.4346C105.546 11.6079 105.989 11.6553 106.33 11.5633C107.468 11.2561 108.46 10.3776 109.567 10.3831C109.831 10.3844 110.091 10.471 110.266 10.6483C110.44 10.8255 111.277 11.8278 111.5 12C112.465 12.7443 112.459 13.0437 113.506 13.6663C114.468 14.2387 120.363 16.1748 123.22 14.4947C124.272 13.8763 125.092 11.8909 127.601 11.7812C129.523 11.6972 131.135 12.1988 131.84 13.3184C132.584 14.5012 132.5 15.5 134.769 16.3338C138.318 17.6385 141.369 16.859 143.323 16.9483C145.276 17.0375 145.536 17.2108 145.755 17.476C146.41 18.7914 146.56 20.3518 147.638 20.7553C148.689 21.1491 151.229 21.7012 153.197 21.0585C154.817 20.5295 157 19.3002 157.57 20.4074C158.225 21.6795 158.572 24.4512 158.837 26.3595C159.013 27.6289 159.763 28.6704 159.579 29.7281C159.533 29.9919 159.376 30.2622 159.183 30.5604C158.304 31.9191 156.711 32.8875 155.858 33.753C155.684 33.9302 155.572 34.1848 155.509 34.5433C155.248 36.0306 155.829 38.4432 153.049 39.092C151.564 39.4386 150.421 39.4151 150.037 39.8364C149.204 40.7514 149.489 42.8562 147.892 43.2482C146.662 43.5502 143.69 42.8235 142.159 44.1685C141.065 45.1307 140.5 48 138.182 48.3655C137.563 48.463 137.215 48.1896 136.596 48.1462C133.976 48.1922 132.928 48.5414 131.657 49.2857C130.562 49.505 128.584 49.2173 128.378 50.5171C128.205 51.6106 128.136 52.7132 127.498 53.0954C126.624 53.6192 125.871 54.1259 125.313 54.3622C124.172 54.8453 122.297 54.7145 121.726 55.7642C121.465 56.2447 121.609 57.7717 120.409 57.95C119.535 58.0799 118.094 57.8037 117.525 58.6956C116.91 59.6605 116.543 61.3217 115.072 61.715C112.956 62.2808 109.756 60.5309 107.718 62.1968C106.323 63.3363 105.765 64.3276 104.395 65.1715C103.257 65.8725 101.617 65.8333 101.158 67.1853C100.374 69.4905 100.386 73.9334 96.6982 75.671C96 76 95.1203 76.3719 94.8118 76.5045C94.1567 76.8104 93.5424 77.1622 93.1525 77.5561C93.0225 78.0365 92.8701 78.5421 92.714 79.0881C92.2348 80.7645 92.2952 83.4149 90.6989 84.6896C89.6041 85.5639 89.056 86.4996 88.5578 87.4898C88.0287 88.5413 86.727 89.1965 85.4912 90.9056C84.353 92.4796 82.4528 94.951 80.6339 95.3191C79.0967 95.6302 76.4413 97.8926 75.5601 99.6565Z" fill="#587956" stroke="black" stroke-width="6" stroke-linecap="round"/>
<path d="M38.0442 65.8464L30.5555 67.5498L30.2406 66.1652L31.71 64.1491L29.3944 53.9691L27.0381 53.8898L27.4633 52.1522L34.952 50.4488L35.267 51.8334L33.7825 53.8735L36.0936 64.0339L38.4694 64.1088L38.0442 65.8464ZM47.145 60.5561C47.0593 60.1791 46.8269 59.849 46.4481 59.566C46.0692 59.283 45.6247 59.0423 45.1147 58.8438C44.6046 58.6453 43.9078 58.4073 43.0242 58.1297C41.9349 57.7894 41.0519 57.4844 40.3752 57.2144C39.6955 56.9314 39.0856 56.5643 38.5453 56.1128C38.0051 55.6614 37.6595 55.1042 37.5087 54.4411C37.3608 53.7911 37.5146 53.0245 37.9701 52.1415C38.4357 51.2425 39.0658 50.436 39.8606 49.7219C40.6524 48.9949 41.4318 48.5441 42.1989 48.3696C43.1219 48.1596 44.2167 48.0132 45.4832 47.9302C46.7627 47.8443 47.7136 47.8468 48.3359 47.9377L49.3739 52.5011L46.8777 53.0689C46.1601 52.1382 45.4292 51.4498 44.685 51.0038C43.951 50.5418 43.2589 50.3847 42.6088 50.5326C42.2188 50.6213 41.9413 50.8143 41.7765 51.1116C41.6117 51.4089 41.5736 51.7526 41.6623 52.1426C41.757 52.5586 41.9967 52.9212 42.3815 53.2302C42.7763 53.5232 43.2367 53.774 43.7628 53.9825C44.2988 54.1751 45.0152 54.4087 45.9117 54.6834C46.9691 55.0035 47.8296 55.3 48.4933 55.5729C49.1671 55.8299 49.7661 56.179 50.2904 56.6204C50.8147 57.0618 51.1508 57.6075 51.2987 58.2576C51.4465 58.9076 51.2682 59.6866 50.7637 60.5944C50.2692 61.4863 49.6 62.3017 48.7562 63.0406C47.9095 63.7665 47.0896 64.2196 46.2965 64.4C45.3344 64.6189 44.1681 64.7816 42.7976 64.8883C41.4271 64.9949 40.4242 65.0042 39.7889 64.9163L38.7509 60.3529L41.2471 59.785C42.0067 60.7199 42.7976 61.4014 43.6197 61.8297C44.4419 62.258 45.204 62.3924 45.906 62.2327C46.3741 62.1262 46.715 61.9119 46.9289 61.5898C47.1558 61.2647 47.2278 60.9201 47.145 60.5561ZM69.2583 58.7463L64.6559 59.7932L59.7153 53.9433L58.7898 53.6616L59.1087 52.3584L59.9082 52.1765C60.4933 52.0434 60.9075 51.7304 61.1509 51.2375C61.3914 50.7315 61.4243 50.095 61.2499 49.328C61.0576 48.4829 60.6828 47.8571 60.1254 47.4506C59.5781 47.0281 58.8819 46.913 58.0368 47.1053C57.5298 47.2206 57.0892 47.4781 56.7152 47.8776L59.1905 58.7597L61.5663 58.8346L61.1411 60.5722L53.6524 62.2756L53.3374 60.891L54.8069 58.8748L52.4913 48.6949L50.135 48.6155L50.5602 46.8779L54.3825 46.0085C55.4746 45.76 56.5449 45.4756 57.5932 45.1551C58.3615 44.9256 58.9276 44.7695 59.2916 44.6867C60.3577 44.4442 61.3417 44.4118 62.2436 44.5895C63.1555 44.7513 63.91 45.0924 64.507 45.613C65.104 46.1336 65.4912 46.7839 65.6687 47.5639C65.8698 48.448 65.666 49.3558 65.0575 50.2873C64.4619 51.2159 63.6344 52.0263 62.5749 52.7185L64.417 52.7918L67.6401 56.5915L69.6835 57.0087L69.2583 58.7463ZM87.6508 54.5626L79.5771 56.3991L79.2621 55.0145L81.3078 53.2775L79.7543 51.0465L74.0597 52.3418L73.7126 54.5129L76.7845 55.3935L76.3593 57.1311L69.8456 58.6127L69.5307 57.2281L71.4265 55.0124L73.4631 42.3246L77.4102 40.3807L85.8393 52.3698L88.076 52.825L87.6508 54.5626ZM75.2577 44.6238L74.3599 50.325L78.5723 49.3668L75.2577 44.6238ZM101.719 51.3627L89.023 54.2505L88.708 52.8659L90.2129 51.0057L87.8618 40.6698L85.5011 40.5709L85.9263 38.8333L98.0369 36.0786L99.5758 35.3593L100.773 40.6248L99.5414 41.5204L96.2547 38.4325L91.9838 39.404L93.0573 44.1234L94.9489 43.6931L95.9157 41.3606L97.3003 41.0457L98.5601 46.5842L97.1774 47.7192L95.3119 45.5591L93.4787 45.9761L94.6276 51.0271L98.723 50.0955L100.633 45.4154L102.131 45.69L103.417 51.3455L101.719 51.3627ZM117.992 47.6816L105.101 50.6138L104.786 49.2291L106.291 47.369L103.918 36.9355L101.575 36.9147L102 35.1771L109.489 33.4737L109.804 34.8583L108.279 36.7228L110.701 47.3709L114.719 46.457L116.813 41.3248L118.311 41.5993L119.69 47.6644L117.992 47.6816Z" fill="black"/>
</svg>
