<svg width="157" height="154" viewBox="0 0 157 154" fill="none" xmlns="http://www.w3.org/2000/svg">
<path d="M93.3065 78.4495C93.1259 77.2343 91.9168 73.9457 91.8178 73.7262C91.6438 73.3405 91.5517 72.9184 91.6438 72.7334C91.7358 72.5484 91.7965 72.3662 91.8269 72.1813C92.045 71.1313 93.0687 69.0317 92.7462 66.3801C92.5934 65.124 92.7624 64.1522 92.3468 63.531C91.8536 62.7939 91.3772 61.746 90.5349 61.57C89.645 61.3841 88.856 61.1001 88.1735 60.5872C87.4364 60.0332 87.0028 59.2786 86.703 58.5618C86.3947 57.8247 85.2028 56.8296 85.7846 56.5695C86.4021 56.2934 87.5006 55.919 88.5168 55.2802C89.3468 54.7584 90.0454 53.8024 91.7082 53.5014C93.2229 53.2272 95.1711 53.1025 95.909 52.6732C96.6461 52.2443 98.0161 52.0151 98.2989 50.8309C98.3578 50.5842 98.2363 50.3413 98.2382 50.126C98.24 49.9106 98.3498 49.7137 98.5787 49.5435C99.6535 48.7438 100.542 48.2088 101.246 47.8576C102.046 47.4591 102.948 46.9104 103.516 46.2306C103.822 45.8634 105.652 45.3899 108.125 45.7125C109.776 45.9278 110.658 46.1323 111.4 46.6346C112.353 47.2788 113.353 47.5104 113.946 48.2919C114.62 49.1818 115.277 51.0139 115.939 50.4959C116.214 50.2806 116.852 49.9501 116.95 49.2959C117.134 48.0702 117.346 47.3525 117.563 45.9214C117.749 44.6947 117.986 43.8389 117.992 43.4727C118 43 117.627 41.6697 117.279 40.9703C116.972 40.354 116.823 39.6836 116.555 38.9054C116.239 37.9891 115.268 37.4303 114.304 37.1865C113.914 37.0879 113.712 36.6771 113.444 36.4099C112.781 35.7489 113.015 34.5333 112.826 33.6747C112.67 32.9699 111.299 33.2973 110.654 33.0558C109.846 32.753 109.525 29.9914 109.018 28.5767C108.717 27.7363 106.48 27.7221 105.343 27.2618C104.597 26.9596 103.896 26.4313 103.251 26.1617C102.281 25.7562 100.838 25.4656 100.166 25.1961C99.3314 24.8606 98.4234 24.9281 97.9124 24.4195C97.3733 23.8829 97.0264 23.1609 96.7584 22.4881C96.4823 21.7949 95.5264 21.6029 94.8818 21.1732C94.1498 20.6852 93.6465 19.8873 93.3255 19.1896C92.8173 18.0854 91.9309 17.795 91.341 17.4441C90.3432 16.8506 88.6057 17.2542 85.9574 17.2823C83.6769 17.3066 80.4522 17.2542 79.3795 17.362C78.0684 17.4938 77.2333 17.737 75.0919 17.8714C73.5187 17.9701 72.7268 18.648 71.8142 19.1043C70.7283 19.6472 69.8845 20.4152 69.2375 21.1692C68.6147 21.895 67.7375 22.4012 66.9585 23.0201C65.9359 23.8325 65.1624 24.0139 64.4099 24.3358C63.5201 24.7165 62.6934 23.9624 61.9153 23.3202C61.194 22.725 60.5464 21.9795 60.3034 21.3084C60.0307 20.5552 59.7401 20.0466 59.5534 19.7786C58.9742 18.9473 57.276 19.6684 56.0689 19.6434C55.6445 19.6346 55.5024 19.0809 55.3149 18.7598C55.1394 18.4593 55.1258 17.5841 55.0461 16.4849C54.9795 15.5651 53.7352 15.4323 52.85 15.244C51.2974 14.9137 50.6225 14.9494 44.9291 14.9478C42.29 14.9471 40.8048 15.2713 40.0001 14.7627C39.2377 14.2809 38.4454 14.1447 37.6929 13.8228C36.7988 13.4403 33.9582 13.6072 32.2739 13.447C31.1971 13.3446 29.1684 12.8604 28.1432 11.9212C27.1713 11.0309 27.6588 9.80239 27.4978 7.60709C27.4039 6.32525 26.1588 5.77875 25.6478 5.10599C25.157 4.4599 24.2274 4.32702 23.5828 4.0856C22.8522 3.81194 22.0289 3.62851 21.1694 3.89568C20.3843 4.13976 19.7209 4.37852 18.8357 5.18083C18.4812 5.50216 18.3239 5.88014 18.163 6.36057C17.7021 7.73634 18.2692 8.87856 17.5216 10.2233C17.1493 10.893 15.2273 11.7756 13.3113 12.6391C13.0433 12.7598 13.0127 12.9601 13.0119 13.1485C13.0102 13.5526 13.1189 14.0868 13.0658 14.6493C13.0251 15.0809 12.3721 15.6415 11.6221 16.3118C10.6648 17.1675 9.09851 16.8776 7.2251 18.6431C6.63548 19.1988 6.14676 19.4527 5.82487 19.9339C5.22712 20.8276 6.24977 21.6512 6.65294 22.2958C7.01809 22.8796 7.00299 24.2199 6.8163 25.1928C6.67814 25.9128 6.04054 26.5858 5.23581 27.5789C4.51739 28.4654 4.48258 29.3766 4.37475 30.9024C4.10597 32.2205 3.92587 32.9586 3.94583 33.3737L3.95202 33.5023C4.00011 34.5022 4.00272 34.5565 4.06631 35.9268C4.10982 36.8644 4.06631 37.7764 4.09759 38.3571C4.12888 38.9378 4.18962 39.1807 4.25127 39.396C4.31293 39.6114 4.37366 39.7936 4.68562 39.8847C4.99758 39.9758 5.55259 40.0285 5.91138 39.9445C6.8307 39.7292 8.06203 39.2127 8.63896 39.8552C8.91411 40.1617 7.52681 44.1084 8.46572 46.5886C9 48 9.19555 49.0336 9.38166 49.8838C9.56777 50.7341 9.92903 51.2158 10.4819 51.0844C11.0347 50.953 11.7573 50.2305 12.1185 51.172C12.4798 52.1134 11.964 54.9662 12.914 55.9067C14.1912 57.1712 15.8764 57.2079 15.9483 58.9027C16.1289 63.1594 16.1418 66.3761 16.6198 66.9673C16.8661 67.272 17.2158 67.5779 17.7182 67.6333C18.8111 67.7537 16.6448 72.6728 19.8474 77.5043C21.1246 79.431 23.1791 79.9966 23.3068 82.1843C23.5513 86.3717 23.269 91.3899 23.8178 95.2262C24 96.5 24.2891 97.4433 25.2598 98.3519C26.9603 100.122 27.9986 102.875 29.8888 103.335C30.6314 103.515 31.956 103.515 32.8044 103.577C33.6529 103.64 34.1311 103.75 34.1948 105.185C34.3754 109.259 33.4351 112.898 33.7076 114.773C33.7696 115.2 33.8713 115.675 34.6327 115.742C36.6999 115.923 39.5263 115.614 40.5224 117.083C41.5569 118.608 41.4914 121.048 41.7959 122.861C41.9182 123.589 42.1625 124.531 42.9582 124.865C43.3888 125.045 44.1251 124.87 44.416 125.232C45.4469 126.512 45.4457 128.457 46.8482 129.368C48.2495 130.278 50.8551 130.538 50.9809 132.484C51.1615 135.281 51.0866 137.618 51.6523 138.126C52.2599 138.671 53.5 139.5 55.1202 139.766C55.9773 139.907 57.0141 140.372 58.284 140.496C60.4224 141.102 63.1175 141.023 64.2412 142.262C65.3998 143.539 67.817 143.011 68.8629 144.512C69.2862 145.119 69.8795 146.24 71.1162 146.762C72.6981 147.429 74.059 148.124 75.6156 148.707C77.0771 149.254 78.5612 150.83 85.9081 150.163C89.2434 149.86 91.1584 149.456 93.2575 149.19C95.6878 148.882 97.085 146.955 98.9702 146.572C102.541 145.846 108.156 146.809 111.443 146.149C113.569 145.722 114.345 143.703 116.369 143.472C119.042 143.167 120.055 141.538 121.96 141.158C125.903 140.372 132.474 140.591 133.637 139.516C135.223 138.051 140.648 138.575 142.333 136.292C143.368 134.891 149.047 135.255 151.883 133.13C152.611 132.585 153.096 131.972 153.339 131.244L153.346 131.222C153.593 130.483 154.149 128.814 153.578 126.921C152.972 124.914 154.131 123.051 149.131 122.551C148.578 122.491 147.856 122.491 147.309 122.367C144.922 121.761 141.833 121.01 139.884 120.727C136.908 120.294 135.445 118.325 133.068 118.293C128.88 118.236 125.232 119.693 123.958 117.682C123.534 117.014 123.257 116.193 122.618 115.614C121.341 114.456 120.186 113.144 118.602 112.27C116.838 111.296 114.473 111.477 113.68 110.018C113.317 109.351 113.281 107.988 112.036 106.794C110.51 105.333 108.886 103.545 106.794 103.576C102.482 103.64 98.5228 107.109 97.9865 104.362C97.6289 102.53 97.6468 100.1 99.0302 99.2551C100.431 98.3994 102.767 97.0396 102.553 94.9236C102.117 90.6121 101.026 88.7508 99.9352 85.9302C99.2054 84.0436 98.7446 81.9019 97.3169 81.3743C95.673 80.7667 93.5669 80.2015 93.3065 78.4495Z" fill="#EC96EE" stroke="black" stroke-width="6" stroke-linecap="round"/>
<path d="M32.7746 66.0176L28.0509 59.9621L29.1705 59.0887L31.6199 59.5623L39.8516 53.141L38.9223 50.9743L40.676 50.6209L45.3997 56.6764L44.28 57.5498L41.8025 57.0727L33.5866 63.4817L34.5282 65.6643L32.7746 66.0176ZM51.6115 73.4516L50.2773 72.7168L51.7579 67.8839L50.8353 66.7011L41.6259 73.8851L42.6148 76.0307L40.8611 76.3841L36.1374 70.3286L37.2571 69.4552L39.5803 70.0272L48.1905 63.3107L47.3048 62.1753L42.2568 62.4351L41.8688 60.9622L46.442 57.3948L47.1791 58.9251L54.8798 68.7968L56.1846 69.8843L51.6115 73.4516ZM53.6202 92.7404L48.5275 86.2118L49.6471 85.3384L52.0887 86.4523L53.4483 84.0981L49.8563 79.4934L47.7434 80.1016L48.2514 83.2565L46.4977 83.6098L42.3891 78.3428L43.5087 77.4694L46.3199 78.2442L58.6709 74.6973L62.1076 77.4446L54.8356 90.1689L55.3738 92.3871L53.6202 92.7404ZM57.352 77.2988L51.8095 78.9082L54.4666 82.3145L57.352 77.2988ZM62.4781 104.128L54.3469 93.7045L55.4666 92.8311L57.7898 93.4032L66.2265 86.822L65.25 84.6921L67.0036 84.3388L71.7273 90.3943L70.6076 91.2677L68.2721 90.6799L59.6619 97.3964L62.196 100.645L67.7316 100.36L68.1196 101.833L63.2153 105.658L62.4781 104.128ZM68.8501 112.264L64.1264 106.209L65.246 105.335L67.6955 105.809L75.9271 99.3876L74.9979 97.2208L76.7515 96.8675L81.4752 102.923L80.3556 103.796L77.8781 103.319L69.6621 109.728L70.6037 111.911L68.8501 112.264ZM80.7009 127.456L75.6081 120.928L76.7278 120.054L79.1693 121.168L80.5289 118.814L76.9369 114.209L74.8241 114.817L75.332 117.972L73.5784 118.326L69.4698 113.059L70.5894 112.185L73.4006 112.96L85.7516 109.413L89.1883 112.16L81.9163 124.885L82.4545 127.103L80.7009 127.456ZM84.4327 112.015L78.8902 113.624L81.5473 117.03L84.4327 112.015Z" fill="black"/>
</svg>
