<svg width="132" height="104" viewBox="0 0 132 104" fill="none" xmlns="http://www.w3.org/2000/svg">
<path d="M11.3215 28.3975C12.0624 30.1377 14.4673 31.6035 15 32C17.2319 32.7238 22.4974 32.7202 23.6055 32.3509C25.7104 31.6492 27.915 31.7352 29.31 31.7328C30.8754 31.73 31.8501 35.6605 32.8425 37.2698C33.6861 38.6378 34.9775 40.1817 35.7963 41.2923C36.7143 42.5375 37.9276 43.4667 38.9976 44.1673C39.9674 44.8023 41.2126 45.1117 43.0571 45.8492C44.8061 46.5486 46.9552 47.9781 48.2727 49.3362C49.1894 50.2812 50.0777 51.1843 51.3915 52.4956C51.8611 52.9644 51.969 53.6468 52.1746 54.2612C52.5882 55.4972 51.2351 57.1732 51.027 58.6926C50.8531 59.9623 51.0677 60.9507 50.9458 61.7707C50.77 62.953 49.3488 63.6595 49.057 64.6457C48.7656 65.6306 48.4426 66.9396 47.9501 68.0933C47.4504 69.2639 46.64 70.9633 45.49 73.2597C44.667 74.9031 44.0101 76.7109 44.0482 78.5147C44.9089 79.5059 44.0482 79.5001 45.0002 81.5001C45.1819 81.8818 48.5026 84.84 49 85.5C51 86.5 59.7343 87.1383 62.5 87C72.5 86.5 70.6743 81.3881 71.7397 80.9235C72.8051 80.5911 73.2824 78.4232 75.2182 78.254C77.4872 78.0558 79.7086 78.6909 82.5017 78.7907C88.161 78.993 90.5903 80.0113 93.1034 81.332C95.7708 82.7338 97.2969 83.8658 98.973 85.6056C100.713 87.4119 103.254 90.7796 105.986 92.883C108.587 94.8856 109.77 96.76 112.46 98.0196C114.595 99.0189 115.994 100.923 118.206 100.753C121.805 100.477 124.614 99.9633 124.802 97.9335C125.001 95.7988 123.842 93.2801 124.668 90.596C125.409 88.1889 128.881 86.8794 128.337 85.2591C128.069 84.4601 126.098 81.4839 120.645 76.3055C116.702 72.5607 111.991 69.8083 110.378 68.5054C108.972 67.3699 107.255 66.9359 103.094 65.3694C100.962 64.5663 99.1311 63.1767 97.2908 62.031C95.3543 60.8255 93.5615 59.57 91.8838 56.8183C90.4199 54.4172 88.6249 52.4792 89.4226 48.3373C90.0274 45.1972 91.903 43.2585 92.8931 40.5332C93.0874 39.9985 92.7804 39.6205 92.6228 39.1995C92.022 37.5954 91.2815 35.901 89.4146 34.7958C87.6083 33.7264 85.6939 32.7651 84.1418 31.926C82.5377 31.0589 80.7689 29.7176 77.5312 27.9189C75.7289 26.9176 74.2814 25.5684 72.4586 24.7828C69.9774 23.7134 67.3334 22.6295 65.0491 21.2442C63.1766 20.1087 61.5841 18.671 59.3076 17.3051C57.305 16.1036 55.6876 15.0666 54.1029 13.9688C52.3626 12.7632 50.3068 11.7322 48.8281 10.5624C46.8915 9.0304 44.7709 8.51526 41.056 8.43162C32.0724 8.22936 30.4301 7.81438 28.8702 7.16198C27.2661 6.49111 25.7708 4.1489 23.6635 3.55531C20.8338 2.75828 16.5311 2.97898 13.8488 3.6274C11.9102 4.09601 7.25433 2.96394 5.90447 5.30758C3.90788 8.77407 3.07071 13.4559 4.04606 16.3819C4.31241 17.181 5.00881 17.6989 5.65214 18.5187C7.12004 20.3891 8.52767 21.6749 9.65733 23.2568C10.8529 24.931 10.6882 26.9102 11.3215 28.3975Z" fill="#587956" stroke="black" stroke-width="6" stroke-linecap="round"/>
<path d="M38.8698 27.9761C38.6644 28.2215 38.4805 28.4536 38.3182 28.6725C38.1672 28.8903 38.0731 29.0463 38.0361 29.1405L33.8838 29.4834L33.6282 28.3305C34.3608 28.2031 34.9169 28.0373 35.2963 27.8332C35.6819 27.6343 36.0646 27.3079 36.4446 26.8539L41.3431 21.0014L40.3333 19.7024L41.3176 19.2743L45.0353 22.386L44.4884 23.0393L43.0443 22.9886L38.8698 27.9761ZM47.5702 36.8074L43.7605 33.6188L44.3073 32.9654L45.8799 33.3114L46.381 31.7591L43.694 29.5102L42.5311 30.133L43.2264 31.9198L42.2421 32.3479L39.1686 29.7755L39.7155 29.1221L41.4622 29.2227L48.2611 25.5867L50.6231 26.7656L47.9594 35.1458L48.5544 36.3793L47.5702 36.8074ZM47.8149 27.2789L44.7662 28.9209L46.7538 30.5846L47.8149 27.2789ZM55.0818 36.9446C55.3579 37.1756 55.6706 37.2444 56.0201 37.1509C56.3696 37.0575 56.7112 36.8113 57.045 36.4126C57.4044 35.9832 57.5928 35.5462 57.6101 35.1017C57.6387 34.6562 57.4537 34.2665 57.0549 33.9328C56.8157 33.7325 56.5327 33.6157 56.206 33.5822L51.9468 38.671L53.3796 40.4179L52.3954 40.846L48.2176 37.3493L48.7645 36.6959L50.1994 36.739L54.2584 31.8894L53.4712 30.6985L54.4554 30.2705L56.259 31.78C56.7744 32.2114 57.299 32.6191 57.8328 33.0034C58.2214 33.2869 58.5016 33.5006 58.6734 33.6443C59.1765 34.0654 59.5416 34.5327 59.769 35.0464C60.0024 35.5652 60.0878 36.0801 60.0253 36.5911C59.9627 37.1021 59.762 37.56 59.4231 37.9649C59.0534 38.4066 58.5238 38.6779 57.8342 38.7789C57.1559 38.8788 56.4519 38.8164 55.722 38.5915C55.0034 38.3656 54.406 38.0325 53.9296 37.592L53.728 37.0477L54.7122 36.6196L55.0895 36.9354L55.0818 36.9446ZM66.2394 39.8204C66.9755 40.4366 67.4949 41.1373 67.7974 41.9225C68.1 42.7078 68.1735 43.5049 68.0181 44.3137C67.8628 45.1226 67.4924 45.8767 66.907 46.5761C66.3063 47.2938 65.5186 47.7613 64.5441 47.9784C63.5756 48.2006 62.5989 48.2021 61.614 47.9828C60.6343 47.7574 59.8376 47.388 59.2242 46.8745C58.488 46.2584 57.9661 45.5607 57.6584 44.7816C57.362 44.0015 57.2885 43.2044 57.4377 42.3904C57.5931 41.5816 57.9635 40.8274 58.5488 40.1281C59.1496 39.4103 59.9342 38.9403 60.9026 38.7181C61.8823 38.4948 62.862 38.4959 63.8418 38.7213C64.8267 38.9406 65.6259 39.3069 66.2394 39.8204ZM64.6736 40.6068C64.3668 40.3501 63.9999 40.2151 63.5728 40.2019C63.157 40.1877 62.7261 40.2912 62.28 40.5125C61.8401 40.739 61.4404 41.0669 61.081 41.4964C60.6446 42.0178 60.3233 42.5574 60.1172 43.1152C59.9112 43.673 59.8568 44.2117 59.954 44.7312C60.0573 45.2559 60.336 45.7082 60.79 46.0882C61.0967 46.3449 61.458 46.4804 61.8738 46.4946C62.3009 46.5078 62.7344 46.4012 63.1743 46.1747C63.6204 45.9534 64.0231 45.628 64.3826 45.1986C64.8241 44.671 65.148 44.1283 65.354 43.5705C65.5601 43.0127 65.6119 42.4771 65.5096 41.9637C65.4124 41.4442 65.1337 40.9919 64.6736 40.6068ZM70.1125 39.2126L66.4084 38.3658L66.0215 37.5568L68.5157 36.5773L70.3386 38.4003L70.1125 39.2126ZM76.5248 51.1363L71.6571 56.952L70.6909 56.1433L70.2244 48.0068L67.4363 51.338L68.5387 53.1057L67.5544 53.5338L64.573 51.0384L65.1198 50.385L66.6164 50.3545L70.3749 45.8638L69.8265 44.3876L70.8108 43.9596L72.5684 45.4306L73.0323 53.3459L75.7126 50.1435L74.6116 48.3927L75.5959 47.9646L78.5774 50.46L78.0382 51.1042L76.5248 51.1363Z" fill="black"/>
</svg>
