<svg width="75" height="127" viewBox="0 0 75 127" fill="none" xmlns="http://www.w3.org/2000/svg">
<path d="M34.0359 107.35C33.9396 112.725 33.374 115.225 33.374 117.486C32.1196 118.318 31.2385 118.718 30.6144 119.032C29.3754 119.755 27.5123 121.83 24.814 123.168C22.954 123.27 21.1609 123.021 20.057 122.022C17.9921 120.153 16.75 117.675 15.0919 115.188C14.2659 113.949 9.4658 115.641 8.15196 112.384C7.03381 109.612 7.41395 106.98 7.64342 105.392L7.64894 105.354C8.26685 101.075 8.71558 94.3598 6.292 93.0421C5.15553 92.4242 3.53652 92.3101 3.09063 91.384C2.8888 90.9648 3.03695 90.318 3.40735 89.7259C4.96301 87.2387 6.09466 84.2676 8.37864 82.3792C10.7634 80.4074 13.9368 78.2746 14.2721 75.2312C14.4771 73.3712 14.674 71.3021 13.6418 70.6853C12.6078 70.0674 7.03263 68.7391 8.78541 65.6084C10.3535 62.8076 14.9026 60.9828 15.4117 57.2184C15.7191 54.9455 15.896 52.3874 14.6727 52.1602C13.0177 51.8528 9.5583 54.3544 8.37402 51.9858C7.37402 49.9858 10.7354 46.2073 14.4864 45.1209C16.9736 44.4005 20.1183 43.3606 23.1838 39.4168C26.0778 35.6938 29.0501 34.8318 31.046 32.3868C32.909 30.1046 38.0476 25.6712 36.5172 22.6554C36.2005 22.0313 35.4234 21.4593 35.2782 20.5812C34.9708 18.7212 35.182 17.0631 35.595 15.8242C36.0079 14.5852 36.4518 12.8668 38.3057 12.4147C39.5664 12.1073 41.743 11.6888 43.0628 12.3185C46.9938 14.194 50.6213 17.1079 52.9898 15.7248C54.2287 15.0013 57.3714 13.9376 57.2252 11.5764C57.1165 9.82197 54.2959 8.60101 53.912 5.78222C53.8127 5.05251 54.0176 4.23276 54.4368 3.71732C54.856 3.20187 55.4708 2.99693 56.0949 3.00003C56.719 3.00314 57.3307 3.234 58.0636 3.31055C61.0662 3.62416 64.3807 3.44325 65.8201 5.49034C67.2764 7.56145 69.173 9.78812 68.4005 11.8092C67.2516 14.815 63.3267 16.0319 62.6032 18.9479C62.2958 20.1868 63.1468 21.7588 64.37 24.9532C65.4009 27.6453 62.4053 30.4622 63.749 32.716C65.4134 35.5075 70.2443 35.4465 70.5803 38.8393C70.9901 42.9784 71.7577 43.9661 70.8738 46.4858C70.8738 47.7527 69.7478 50.0021 69.3255 51.0392C68.0835 52.8961 67.2637 62.4536 66.2173 69.3594C62.4818 72.7688 59.1403 74.8708 56.5945 76.5974C53.9987 78.358 49.6513 79.939 49.6639 85.5153C49.6763 90.9896 53.2536 94.456 51.4214 97.0943C50.4899 98.4357 46.2652 96.8661 42.606 99.5784C38.2744 102.789 34.0898 104.342 34.0359 107.35Z" fill="#71A4BD" stroke="black" stroke-width="6" stroke-linecap="round"/>
<path d="M46.2613 47.3623C46.1261 47.6524 46.0082 47.924 45.9078 48.1773C45.818 48.4267 45.7673 48.6017 45.7557 48.7022L41.832 50.1032L41.288 49.0551C41.963 48.7432 42.4576 48.4398 42.7717 48.1449C43.093 47.8533 43.3787 47.4393 43.6289 46.9028L46.8543 39.9858L45.5441 38.9909L46.3848 38.3237L50.7786 40.3725L50.4185 41.1447L49.01 41.4677L46.2613 47.3623ZM43.0578 63.73L38.5552 61.6304L38.9153 60.8582L40.5239 60.7874L40.6083 59.1585L37.4326 57.6776L36.4694 58.579L37.6015 60.1264L36.7607 60.7936L33.1283 59.0998L33.4883 58.3276L35.202 57.9748L40.8347 52.71L43.4208 53.2406L43.0058 62.0242L43.8985 63.0628L43.0578 63.73ZM40.8396 54.46L38.3168 56.8321L40.6659 57.9275L40.8396 54.46ZM38.9572 70.0535L33.3244 75.3182L30.7384 74.7876L31.1534 66.004L30.2607 64.9654L31.1014 64.2982L35.6039 66.3978L35.2439 67.17L33.6352 67.2408L33.3087 73.5631L37.6898 69.4492L36.5577 67.9018L37.3984 67.2346L41.0309 68.9284L40.6708 69.7006L38.9572 70.0535ZM30.3792 90.9192L25.8767 88.8197L26.2368 88.0475L27.8454 87.9767L27.9297 86.3477L24.754 84.8668L23.7908 85.7682L24.9229 87.3157L24.0822 87.9829L20.4497 86.289L20.8098 85.5168L22.5235 85.164L28.1562 79.8992L30.7422 80.4299L30.3273 89.2134L31.22 90.252L30.3792 90.9192ZM28.1611 81.6493L25.6382 84.0213L27.9874 85.1167L28.1611 81.6493Z" fill="black"/>
</svg>
