<svg width="124" height="103" viewBox="0 0 124 103" fill="none" xmlns="http://www.w3.org/2000/svg">
<path d="M17.9245 37.319C18.1471 36.2709 15 31.5 16.2011 30.1976C16.6517 29.7089 18.4121 28.4124 20.6398 26.1436C21.7579 25.0049 24.2244 24.134 25.4748 23.0618C26.4436 22.2311 27.6512 21.3946 28.7657 20.9226C29.8612 20.4587 30.5599 19.3426 31.119 18.4025C31.7752 17.2993 32.4426 15.926 32.7863 14.5563C33.1986 12.9132 35.1768 12.8429 36.417 12.2876C37.5289 11.7897 38.9371 11.5604 40.1362 11.2603C41.5633 10.9032 42.6153 10.5344 44.0684 9.25577C44.6673 8.65685 45.0982 8.14129 45.397 7.58725C45.5266 7.28715 45.4999 6.5 45.4395 5.79991C45.3503 4.76633 45.8147 3.88868 46.48 3.36193C46.6338 3.24022 46.8157 3.14187 47.9013 3.18073C53.0399 3.36468 53.7819 3.58379 54.6872 4.0364C55.6646 4.5251 56.6746 4.78326 57.6157 5.16479C58.5931 5.56106 59.7412 5.73583 60.3291 6.44693C60.9103 7.14977 61.4457 7.98297 62.1906 8.42917L62.2337 8.45502C63.138 8.99651 64.0082 9.51759 64.7504 10.6237C65.1238 11.1801 65.4862 11.5425 65.7296 11.817C66.0939 12.2728 66.4014 12.5784 66.7665 12.8219C67.8107 13.3728 69.4962 14.1543 70.6422 14.4994C71.9582 14.8956 73.4065 14.2589 75.1576 14.8956C76.1643 15.2617 77.2962 15.541 77.9626 16.2089C78.7853 17.0334 79.7029 17.7901 81.3203 18.3732C84.192 19.5971 85.276 21.7721 86.414 22.3404C88.0064 23.1357 89.5123 24.1677 91.3623 24.2604C94.4125 24.4133 96.2093 24.4048 97.6092 25.085C98.6149 25.5737 99.5045 26.0095 100.414 26.7021C101.177 27.2832 101.9 28.168 102.671 28.6843C103.312 29.1135 104.148 29.4304 105.907 30.6382C106.976 31.3721 107.975 32.2305 109.017 32.895C109.78 33.3818 110.573 33.4291 111.702 33.9007C112.65 34.297 113.499 35.0899 115.547 34.9358C116.739 34.8461 117.995 34.9415 118.533 35.7018C119.052 36.4348 119.362 39.6107 119.6 42.2634C119.722 43.6353 120.447 48.1624 119.628 50.7113C119.294 51.7509 119.192 52.8518 118.927 53.67C118.62 54.6172 118.649 56.1986 117.614 56.3825C117.279 56.442 116.657 56.4458 116.149 57.1476C115.509 58.0325 115.21 59.2756 114.072 59.4025C112.701 59.5554 112.005 59.941 110.748 60.1649C109.71 60.3497 108.583 60.4823 107.636 60.8064C106.295 61.2649 105.376 61.6171 104.649 62.0565C103.729 62.612 102.832 63.7412 102.423 64.4689C101.715 65.7272 101.332 67.7807 99.5237 71.5211C98.787 73.0448 97.8878 74.2945 97.3282 75.3592C96.7151 76.5261 96.4007 78.2729 94.947 79.601C93.8451 80.6077 92.6511 81.3705 91.6835 81.9466C90.858 82.438 90.6923 82.0739 89.0468 83.2928C88.2004 83.97 87.5104 84.5728 86.7448 84.9575C84.6782 85.996 83.0704 84.6625 81.2301 84.6177C79.7673 84.582 78.279 85.6834 77.0402 86.1977C74.9878 87.0497 74.1751 88.3305 73.5313 89.4026C72.8044 90.6131 71.015 91.2392 69.6004 91.5854C68.4092 91.877 66.9982 93.0347 65.2412 93.5092C63.9526 93.8572 62.7198 93.9786 56.3253 94.1927C54.2574 94.262 53.2294 95.6869 51.6468 96.0742C51.2682 96.1668 50.9209 96.1178 50.6619 96.2447C50.4028 96.3717 50.2335 96.6256 50.1886 96.9257C50.1437 97.2258 50.1886 97.7303 49.4999 98.5C48.299 99.8422 46.6579 98.6546 44.2445 98.207C43.3144 98.0345 42.4429 97.6064 41.6939 97.1589C40.9463 96.7121 40.9405 95.5102 40.2702 94.9097C38.1769 93.0341 35.9967 96.2524 34.8001 96.3312C33.2691 96.4319 32.8433 94.0122 32.6184 92.6672C32.0482 89.2573 33.7385 86.5179 34.1906 84.7163C34.3007 84.2778 34.0444 83.8189 33.7453 83.6637C32.1023 82.8113 29.8519 85.3033 27.38 86.356C24.0613 87.7692 22.2001 88.4567 21.3027 88.3847C18.7134 88.1771 18.4485 85.1639 18.0009 84.4149C17.0013 82.7422 14.1075 83.0631 11.7076 82.6875C9.86592 82.3993 9.30325 79.7703 8.1809 78.1172C7.80528 77.8135 7.35994 77.6651 6.83363 77.8113C6.30731 77.9575 5.20201 79.1781 4.20207 77.962C3 76.5 3.30244 74.3453 3.53185 73.1487C3.76127 71.9521 4.20661 71.3583 4.50576 70.832C5.25474 68.9562 5.41843 67.0687 6.52778 61.228C7.0541 58.4569 7.47412 56.3015 8.32939 54.188C9.15035 52.1592 9.81222 50.103 10.8777 48.2658C12.0113 46.3113 13.3955 44.1541 14.5529 42.4179C15.754 40.6163 17.5149 39.2467 17.9245 37.319Z" fill="#587956" stroke="black" stroke-width="6" stroke-linecap="round"/>
<path d="M19.0897 69.1345L18.8603 70.183L14.3936 71.3152L14.1842 70.4894L15.0359 69.2584L13.4967 63.1864L12.0822 63.1736L12.3116 62.1251L16.7784 60.9928L16.9877 61.8187L16.1274 63.0643L17.6635 69.1246L19.0897 69.1345ZM24.1413 68.8444L21.4543 69.5255L17.1519 65.7385L19.6603 62.0573L18.1047 61.6346L18.3341 60.5861L22.0448 59.6455L22.2541 60.4714L19.4821 64.5289L22.9961 67.5501L24.3707 67.7959L24.1413 68.8444ZM35.3656 66.0116L30.5499 67.2323L30.3405 66.4064L31.542 65.3344L30.5772 64.0191L27.1806 64.8801L27.0045 66.1874L28.86 66.6703L28.6306 67.7188L24.7455 68.7036L24.5361 67.8777L25.6406 66.5208L26.675 58.8804L29.0139 57.6562L34.2467 64.7231L35.595 64.9631L35.3656 66.0116ZM27.7853 60.233L27.3309 63.6659L29.8434 63.029L27.7853 60.233ZM48.7031 62.6432L44.2364 63.7754L44.027 62.9496L44.9023 61.8116L43.6226 56.7633L42.573 64.1971L41.3516 64.5067L36.7769 58.4243L38.145 63.8216L39.6036 63.9594L39.3742 65.0079L36.187 65.8158L35.9776 64.9899L36.8528 63.852L35.3226 57.8149L33.8697 57.6509L34.0991 56.6024L37.8214 55.6588L41.8379 61.0038L42.7767 54.4028L46.6153 53.4298L46.8246 54.2556L45.9378 55.3965L47.5123 61.6081L48.9325 61.5947L48.7031 62.6432ZM53.0678 51.5466C53.5486 51.4247 54.1217 51.3414 54.787 51.2965C55.4524 51.2516 55.9491 51.2578 56.2772 51.3149L56.9377 53.9205L55.4488 54.2979C55.0223 53.8201 54.5828 53.5023 54.1301 53.3447C53.6853 53.1851 53.238 53.1623 52.7882 53.2763C52.4082 53.3726 52.0917 53.589 51.8386 53.9255C51.5913 54.2523 51.4306 54.6603 51.3566 55.1495C51.2903 55.6367 51.3259 56.1518 51.4635 56.6946C51.6188 57.3072 51.8544 57.8459 52.1702 58.3105C52.4841 58.7674 52.8694 59.0989 53.326 59.305C53.7826 59.5111 54.2901 59.5434 54.8485 59.4019C55.5852 59.2151 56.5418 58.626 57.7182 57.6346L58.4715 58.3597L56.7528 60.5657C56.4081 60.7686 56.0691 60.9288 55.7357 61.0463C55.4101 61.1618 55.0496 61.2697 54.6541 61.37C53.7468 61.6 52.894 61.6057 52.0959 61.3871C51.2977 61.1685 50.6173 60.7633 50.0546 60.1714C49.4899 59.5717 49.0956 58.8299 48.8715 57.9458C48.6415 57.0385 48.7161 56.1283 49.0954 55.2151C49.4804 54.2922 50.0434 53.5016 50.7844 52.8434C51.5312 52.1754 52.2923 51.7432 53.0678 51.5466ZM70.225 57.1755L65.7582 58.3077L65.5489 57.4818L66.4005 56.2508L65.8374 54.0291L62.2896 54.9284L62.9795 57.6503L64.4057 57.6602L64.1763 58.7087L59.7095 59.8409L59.5002 59.0151L60.3518 57.7841L58.8127 51.7121L57.3982 51.6993L57.6276 50.6508L62.0943 49.5185L62.3037 50.3444L61.4433 51.59L62.0124 53.835L65.5602 52.9357L64.8614 50.1789L63.4469 50.166L63.6763 49.1175L68.143 47.9853L68.3524 48.8112L67.4921 50.0568L69.0282 56.1171L70.4544 56.127L70.225 57.1755ZM81.5419 54.3069L76.7262 55.5276L76.5169 54.7017L77.7183 53.6296L76.7536 52.3143L73.357 53.1753L73.1808 54.4827L75.0363 54.9655L74.8069 56.0141L70.9218 56.9989L70.7125 56.173L71.8169 54.816L72.8513 47.1756L75.1902 45.9514L80.423 53.0183L81.7713 53.2584L81.5419 54.3069ZM73.9617 48.5283L73.5073 51.9612L76.0198 51.3243L73.9617 48.5283ZM89.1233 46.0221L88.3975 46.5774L86.1005 44.5971L85.2281 44.8183L86.95 51.6114L88.3673 51.5864L88.1379 52.6349L83.6712 53.7672L83.4618 52.9413L84.337 51.8033L82.7272 45.4522L81.8897 45.6645L80.8133 48.4999L79.9106 48.3573L79.0556 44.984L80.0741 44.9486L87.3558 43.1029L88.2682 42.6488L89.1233 46.0221ZM96.1412 49.6035L95.9118 50.652L91.445 51.7843L91.2357 50.9584L92.0873 49.7274L90.5482 43.6554L89.1337 43.6426L89.3631 42.5941L93.8298 41.4618L94.0392 42.2877L93.1788 43.5333L94.715 49.5936L96.1412 49.6035ZM101.193 49.3134L98.5057 49.9945L94.2033 46.2076L96.7117 42.5264L95.1562 42.1036L95.3856 41.0551L99.0962 40.1145L99.3056 40.9404L96.5335 44.9979L100.048 48.0191L101.422 48.2649L101.193 49.3134ZM112.417 46.4807L107.601 47.7013L107.392 46.8755L108.593 45.8034L107.629 44.4881L104.232 45.3491L104.056 46.6565L105.911 47.1393L105.682 48.1878L101.797 49.1726L101.588 48.3468L102.692 46.9898L103.726 39.3494L106.065 38.1252L111.298 45.1921L112.646 45.4321L112.417 46.4807ZM104.837 40.702L104.382 44.1349L106.895 43.4981L104.837 40.702Z" fill="black"/>
</svg>
