<svg width="133" height="110" viewBox="0 0 133 110" fill="none" xmlns="http://www.w3.org/2000/svg">
<path d="M115.044 56.3588C115.237 58.1429 115.364 60.7105 115.556 61.98C115.631 62.48 115.635 63.6665 116.273 64.4047C116.841 65.0624 117.845 65.3417 118.616 66.2445C119.275 67.0157 119.721 68.0171 120.323 68.923C121.178 70.2081 123.268 69.8289 124.039 70.33C124.955 70.9254 125.413 72.1026 125.815 73.371C126.787 76.4423 126.216 77.6584 126.684 78.6978C127.087 79.591 128.088 80.0044 128.86 80.4071C129.651 80.8201 129.498 84.0658 129.165 86.1627C129.004 87.1762 128.562 87.9705 128.261 88.7749C127.92 89.6868 127.691 92.305 126.891 94.1308C126.434 95.1763 124.951 94.9363 123.212 94.9383C122.512 94.9391 122.069 94.5366 121.668 94.4693C120.636 94.2961 119.66 95.8723 118.856 96.4417C117.947 97.0852 117.25 97.7483 116.712 98.5487C115.881 99.7842 116.109 100.825 115.808 101.63C115.729 101.841 115.575 102.031 115.407 102.166C114.425 102.961 112.297 102.701 111.424 103.205C110.632 103.661 109.818 104.308 109.014 104.812C108.822 104.931 108.613 104.979 108.444 104.914C108.276 104.849 108.143 104.65 107.975 104.581C107.121 104.228 106.002 105.048 104.765 105.381C103.43 105.741 102.587 105.518 101.151 105.283C98.724 104.885 97.2365 104.911 95.259 105.581C92.8739 106.389 89.0012 106.116 87.5902 106.286C86.6931 106.394 85.3858 106.654 84.1756 106.022C82.7065 105.254 82.5657 104.116 81.698 103.142C81.3093 102.706 79.2997 102.772 76.6906 102.572C73.503 102.328 69.5219 102.3 68.0737 102.27C65.6247 102.219 63.2189 101.368 61.2485 101.264C58.9997 101.146 56.9963 101.299 55.5541 100.465C54.1382 99.6455 52.1154 99.0258 50.5658 97.9221C49.5077 97.1684 48.6888 96.4789 48.1876 96.2449C46.394 95.4074 43.133 96.4066 41.7662 97.1116C39.4946 98.2833 37.3724 97.4792 37.0721 98.0134C36.4607 99.1013 36.1672 100.022 35.5004 100.76C34.2588 102.134 30.2338 101.432 27.8024 101.099C25.7744 100.821 23.9188 99.6283 22.8794 98.9233C22.1847 98.4522 21.1068 99.2869 20.1678 99.6565C18.6963 100.236 16.491 99.6283 15.08 99.2236L15.0759 99.2224C14.8103 99.1463 14.6101 99.0888 14.4423 98.857C13.1835 97.1188 13.4741 94.2052 12.6345 93.5674C11.8712 92.9876 11.3972 92.1283 10.9925 91.0587C10.6617 90.1846 10.1238 89.3845 9.95407 86.7131C9.83033 84.7655 9.65379 82.7562 9.61864 80.4513C9.58944 78.537 9.65379 75.9952 8.81922 74.9889C8.46862 74.5662 8.04691 74.3181 7.81291 73.7848C6.70999 71.2712 7.70947 67.6917 7.97761 66.5207C8.37516 64.7846 8.04691 62.4694 7.94548 61.4651C7.91234 61.1959 7.84605 60.9308 7.81191 60.4628C7.77776 59.9948 6.53809 59.2473 5.86835 58.3559C5.5146 57.885 4.98621 57.5222 4.59546 57.1814C3.9109 56.6908 3.06189 55.9642 3.00673 55.0748C2.98249 54.6841 3.02189 54.3369 3.1551 53.9474C3.52308 52.8713 3.60266 51.9955 4.15916 51.0101C4.60133 50.2271 5.87993 49.6959 6.97745 48.8558C8.12988 47.9737 8.94296 47.3016 9.17801 46.5047C9.49605 45.4264 9.57276 44.5523 9.4204 43.7863C9.15231 42.4385 8.48137 41.3473 8.2452 38.5405C8.124 37.1001 8.21045 35.8961 9.11411 34.6682C10.6801 32.5403 11.5386 31.0325 11.527 29.9174C11.5027 27.5927 11.5062 25.7292 11.7003 24.9074C12.1403 23.0447 12.3783 20.1692 11.9669 18.7912C11.7466 18.053 11.1084 16.9836 11.7253 16.1697C12.4869 15.1649 13.699 13.9099 15.4573 13.6754C18.6068 13.2552 19.3028 12.7553 20.1985 12.5736C21.4009 12.3298 23.0882 12.2669 26.7649 12.6978C27.8116 12.8204 29.017 13.2835 30.2876 12.8674C31.3372 12.5237 31.8578 11.3912 33.1309 10.7337C35.4504 9.53572 37.5304 9.92712 38.8291 8.67929C39.4667 8.06672 41.0049 8.22025 41.6195 7.5533C41.9126 7.23526 42.1496 5.75952 42.794 4.71298C42.9893 4.39568 45.2516 4.25024 46.465 4.25024C47.8415 4.25024 48.9659 4.44117 49.353 4.46203L49.3776 4.46335C50.4209 4.51957 51.3786 4.57116 51.853 4.72742C52.2678 4.69477 52.8975 4.49284 53.853 4.46203C54.1715 4.45176 55.1254 4.74257 55.353 4.72742C56.2906 4.665 57.059 7.051 57.353 7.22742C59.0622 8.25295 59.8304 7.72742 60.853 7.72742C62.353 7.72742 63.1135 7.382 64.0911 6.47564C64.9208 5.70649 64.9507 4.46798 66.2037 3.5306C66.7145 3.14843 67.2585 2.88058 67.74 3.05433C69.8103 3.80139 73.2584 5.89379 74.1092 5.32432C74.5884 5.0036 75.1514 4.53277 75.7416 4.46203C75.998 4.4313 76.2469 4.48179 76.2832 4.78755C76.3783 5.58742 76.3857 6.96613 77.3414 7.76139C77.7245 8.08019 78.2726 8.345 78.847 8.14164C79.3896 7.94959 79.9525 7.60552 80.5428 7.53477C80.7992 7.50405 80.9893 7.56742 81.1823 7.7297C81.3753 7.89198 81.568 8.14406 81.6932 8.37018C82.2088 9.3016 83.0126 10.5413 83.4542 12.9236C83.9334 15.5085 82.3678 20.341 84.3184 21.2363C85.2201 21.6502 87.2343 21.6848 87.8713 22.6776C88.1584 23.1251 88.1477 23.68 88.3505 24.118C88.5425 24.5328 88.9967 24.6576 89.4086 24.9486C90.2748 25.5603 90.8345 26.8973 91.6489 27.9599C92.0646 28.5024 93.0899 29.3093 94.3404 29.1717C96.3742 28.948 99.5608 28.6465 99.9059 29.5913C100.257 30.5535 101.318 31.9964 100.736 36.675C100.446 39.0035 99.4833 39.6765 99.3269 40.5706C99.2318 41.1141 98.8239 43.0321 99.8752 43.4811C100.323 43.6722 104.692 45.1069 105.54 43.2189C105.827 42.5794 106.221 41.0827 107.621 40.3402C108.584 39.8293 109.959 40.7111 110.824 40.0194C112.103 38.9958 112.713 37.8446 113.542 37.5257C113.704 37.4633 114 37.4877 114.117 37.6563C114.34 37.9761 114.291 38.4531 114.469 38.9709C114.853 40.0905 115.238 40.9853 115.396 41.9783C115.556 42.975 116.449 44.8364 115.65 49.254C115.362 50.847 114.723 53.3929 115.044 56.3588Z" fill="#F68F58" stroke="black" stroke-width="6" stroke-linecap="round"/>
<path d="M25.7999 39.3399L16.8872 33.6463L17.4988 32.689L19.4037 32.5009L24.012 25.2872L22.7074 23.9412L23.9358 23.2071L29.1135 26.5147L28.5019 27.472L26.5836 27.6515L21.8806 35.0135L24.6582 36.7879L28.7573 35.0967L29.4428 36.1042L26.7639 40.2976L25.7999 39.3399ZM39.5038 48.0754L33.9217 44.5094L34.5332 43.552L36.6718 43.7411L37.0695 41.6028L33.1323 39.0877L31.7009 40.1098L32.9253 42.354L31.6969 43.0881L27.1934 40.2112L27.8049 39.2538L30.1319 39.0886L38.5017 33.1196L41.8264 34.2753L39.7348 45.8117L40.7323 47.3413L39.5038 48.0754ZM38.2006 35.4335L34.4495 38.1254L37.3619 39.986L38.2006 35.4335ZM52.2158 48.07C52.6785 48.7327 52.933 49.4142 52.9792 50.1146C53.0401 50.8117 52.8869 51.4479 52.5193 52.0232C52.1576 52.5895 51.5597 52.9607 50.7258 53.1368C49.8975 53.3039 49.0067 53.2917 48.0531 53.1002C47.1085 52.9145 46.2902 52.6005 45.598 52.1584C45.1485 51.8712 44.7224 51.5674 44.3197 51.2468C43.6293 50.7425 43.0863 50.364 42.6908 50.1113L40.439 48.6728L41.0506 47.7155L42.9555 47.5274L47.5551 40.3272L46.2506 38.9812L47.479 38.247L49.4476 39.5046C50.2656 40.0272 51.0874 40.5142 51.9128 40.9656C52.5471 41.3201 53.008 41.5892 53.2957 41.773C54.0058 42.2266 54.5559 42.7426 54.9459 43.3209C55.3359 43.8991 55.5456 44.4824 55.5748 45.0706C55.6188 45.6557 55.4829 46.1954 55.167 46.6898C54.8914 47.1212 54.4895 47.4531 53.9615 47.6853C53.4481 47.9143 52.8634 48.047 52.2072 48.0835L52.2158 48.07ZM51.6644 45.5154C52.0548 44.9041 52.2301 44.3326 52.1901 43.8008C52.1649 43.2657 51.8916 42.8316 51.3702 42.4986C51.0916 42.3205 50.805 42.1945 50.5107 42.1203L48.3659 45.4777L49.6198 46.2788C50.3569 46.7497 51.0384 46.4952 51.6644 45.5154ZM46.9575 50.8624C47.4069 51.1495 47.8322 51.2566 48.2332 51.1837C48.6431 51.1165 48.9831 50.8717 49.253 50.4492C49.6147 49.8829 49.7622 49.3252 49.6952 48.7762C49.634 48.2181 49.3273 47.7373 48.7749 47.3339L48.5187 47.1702L47.6423 46.6103L45.6698 49.6981C46.0036 50.1265 46.4402 50.513 46.9796 50.8575L46.9575 50.8624ZM62.0104 62.4531L58.8283 60.4203L59.3838 54.3199L59.0242 53.6345L59.9455 53.0839L60.4984 53.4371C60.9029 53.6955 61.3138 53.7555 61.7313 53.6172C62.1545 53.4699 62.5355 53.131 62.8743 52.6007C63.2476 52.0164 63.3934 51.4513 63.3117 50.9055C63.2448 50.3565 62.9192 49.8953 62.3349 49.522C61.9843 49.2981 61.5902 49.1919 61.1525 49.2034L56.3461 56.7272L57.6383 58.1222L56.4098 58.8564L51.2322 55.5488L51.8437 54.5914L53.8175 54.2955L58.3138 47.2571L57.0351 45.8706L58.2635 45.1365L60.9063 46.8247C61.6614 47.3071 62.4247 47.7567 63.1962 48.1737C63.7586 48.4823 64.1656 48.717 64.4172 48.8778C65.1543 49.3486 65.7257 49.8908 66.1312 50.5043C66.5514 51.1145 66.781 51.7358 66.82 52.3683C66.859 53.0007 66.7062 53.5866 66.3617 54.126C65.9712 54.7372 65.3398 55.1313 64.4673 55.3081C63.6039 55.4906 62.6775 55.4747 61.6879 55.2603L62.6813 56.3505L62.3283 60.3209L63.2388 61.719L62.0104 62.4531ZM74.7269 70.5768L69.1447 67.0108L69.7563 66.0534L71.8949 66.2425L72.2925 64.1042L68.3554 61.5891L66.9239 62.6112L68.1484 64.8554L66.92 65.5895L62.4165 62.7126L63.028 61.7552L65.355 61.5899L73.7247 55.621L77.0495 56.7767L74.9579 68.3131L75.9553 69.8427L74.7269 70.5768ZM73.4237 57.9349L69.6725 60.6268L72.585 62.4874L73.4237 57.9349ZM88.5996 64.3261C89.6603 65.0037 90.4516 65.8256 90.9735 66.7919C91.5102 67.7549 91.7505 68.7755 91.6946 69.8537C91.6388 70.9318 91.2921 71.9698 90.6547 72.9676C90.0001 73.9923 89.0572 74.7253 87.826 75.1666C86.6095 75.6046 85.3387 75.7611 84.0136 75.636C82.7033 75.5077 81.5986 75.1565 80.6997 74.5822C80.3042 74.3296 79.9186 74.0516 79.5428 73.7482C78.9243 73.2898 78.4307 72.9429 78.0622 72.7074L75.6756 71.1828L76.2872 70.2255L78.192 70.0374L82.7314 62.9316L81.4872 61.4912L82.7156 60.7571L84.819 62.1008C85.637 62.6233 86.4588 63.1103 87.2843 63.5617C87.8825 63.8933 88.321 64.1481 88.5996 64.3261ZM81.9731 73.4211C82.4855 73.7484 83.0534 73.8897 83.6769 73.845C84.3093 73.806 84.922 73.5899 85.515 73.1966C86.1227 72.8001 86.6448 72.2602 87.0812 71.5771C87.6038 70.7591 87.9562 69.94 88.1384 69.1197C88.3354 68.2962 88.313 67.5288 88.0713 66.8175C87.8443 66.1029 87.3712 65.5159 86.6521 65.0565C86.3555 64.867 86.028 64.7654 85.6697 64.7517L80.803 72.3699C81.0977 72.7606 81.4877 73.111 81.9731 73.4211ZM101.825 72.5848C102.904 73.2739 103.71 74.1118 104.244 75.0986C104.778 76.0853 105.012 77.1267 104.944 78.2229C104.877 79.319 104.516 80.3794 103.861 81.4042C103.189 82.4559 102.228 83.2085 100.976 83.662C99.7332 84.1212 98.442 84.29 97.1021 84.1682C95.7681 84.0374 94.6516 83.6849 93.7527 83.1106C92.674 82.4215 91.8647 81.5881 91.3248 80.6104C90.7997 79.6294 90.5663 78.5879 90.6247 77.4861C90.6921 76.3899 91.0531 75.3295 91.7077 74.3047C92.3796 73.253 93.3368 72.4976 94.5795 72.0383C95.8369 71.5758 97.1327 71.41 98.4667 71.5408C99.8066 71.6626 100.926 72.0106 101.825 72.5848ZM99.8886 73.892C99.4391 73.6049 98.9309 73.4891 98.3638 73.5445C97.8115 73.5967 97.2594 73.8072 96.7073 74.1761C96.1643 74.5506 95.6917 75.0525 95.2898 75.6817C94.8017 76.4458 94.469 77.2142 94.2918 77.987C94.1145 78.7598 94.1345 79.4814 94.3518 80.1518C94.578 80.828 95.0237 81.3785 95.6889 81.8034C96.1384 82.0906 96.6393 82.208 97.1916 82.1558C97.7586 82.1003 98.3137 81.8853 98.8567 81.5108C99.4088 81.142 99.8858 80.6429 100.288 80.0137C100.782 79.2407 101.117 78.4677 101.294 77.6949C101.472 76.9222 101.449 76.2051 101.226 75.5436C101.008 74.8732 100.563 74.3227 99.8886 73.892ZM112.323 94.5944L109.141 92.5616L109.697 86.4612L109.337 85.7758L110.259 85.2252L110.811 85.5784C111.216 85.8368 111.627 85.8968 112.044 85.7584C112.468 85.6111 112.849 85.2723 113.187 84.7419C113.561 84.1576 113.706 83.5926 113.625 83.0468C113.558 82.4977 113.232 82.0365 112.648 81.6633C112.297 81.4393 111.903 81.3331 111.466 81.3446L106.659 88.8684L107.951 90.2635L106.723 90.9976L101.545 87.69L102.157 86.7327L104.131 86.4367L108.627 79.3983L107.348 78.0118L108.577 77.2777L111.219 78.966C111.974 79.4483 112.738 79.898 113.509 80.3149C114.072 80.6235 114.479 80.8582 114.73 81.019C115.467 81.4899 116.039 82.0321 116.444 82.6455C116.864 83.2557 117.094 83.8771 117.133 84.5095C117.172 85.142 117.019 85.7279 116.675 86.2672C116.284 86.8785 115.653 87.2725 114.78 87.4493C113.917 87.6319 112.991 87.616 112.001 87.4015L112.994 88.4917L112.641 92.4622L113.552 93.8602L112.323 94.5944Z" fill="black"/>
</svg>
