<svg width="112" height="163" viewBox="0 0 112 163" fill="none" xmlns="http://www.w3.org/2000/svg">
<path d="M7.52916 74.5309C8.01895 76.3957 7.97349 77.9254 8.18058 78.3748C8.50049 79.069 9.42249 78.4806 9.97731 79.069C10.9488 80.0993 12.0904 79.0256 12.915 78.8006C13.1556 78.7349 13.4685 78.7545 13.6494 78.8216C14.178 79.0176 14.2296 79.8363 14.8078 81.1669C15.1785 82.0201 15.653 83.5347 15.679 85.4571C15.7157 88.1643 14.323 89.8604 14.1648 90.9755C14.0482 91.7973 14.1837 92.5172 14.2939 93.1027L14.2977 93.1229C14.3232 93.2586 14.3204 93.3934 14.2543 93.5296C14.1882 93.6659 14.056 93.8001 13.8777 93.8692C13.1695 94.1439 12.7194 93.8028 12.4309 93.8699C11.0512 94.1909 10.4507 97.4985 10.2924 98.68C10.1842 99.4883 10.7124 99.9469 11.0255 101.186C11.2988 102.267 11.7379 102.614 11.8714 103.018C11.9168 103.289 11.9168 103.691 11.5203 104.726C11.1237 105.761 10.1948 107.375 9.24408 109.216C9.10988 109.442 8.97768 109.621 8.88889 109.78C8.71196 110.345 8.31523 110.842 8.2219 111.888C7.99624 114.418 7.71671 115.549 7.12963 116.288C6.57281 116.988 5.99695 117.361 5.48253 117.71C5.14937 117.936 4.80644 118.529 4.63018 120.05C4.63018 120.601 4.54015 121.432 4.38055 122.742C3.98062 126.025 4.22095 126.786 4.10772 127.411C3.88949 128.615 3.90174 130.296 4.08385 131.08C4.25593 131.822 4.26733 133.564 3.94948 134.842C3.63286 136.115 3.35882 137.215 3.03961 138.282C2.84081 138.947 3.44612 139.805 3.81034 140.407C4.17396 141.008 4.53742 142.018 5.30884 142.923C5.87571 143.587 6.90009 142.581 7.71925 142.464C8.58106 142.34 10.2149 142.805 11.062 143.224C11.8887 143.633 12.3129 144.652 12.6772 145.438C12.7817 145.663 12.8586 145.943 12.995 146.153C13.6955 147.231 15.9033 147.007 17.0622 147.793C17.8749 148.344 19.1309 148.672 19.6786 149.086C20.7225 149.877 21.544 149.595 21.7486 149.779C22.3954 150.359 21.3653 151.577 21.2275 152.202C21.1825 152.364 21.0925 152.547 21.0461 152.732C20.9997 152.918 20.9997 153.101 20.9997 153.289C21.0229 153.497 21.2271 154.122 21.3192 154.214C21.5463 154.352 22.1408 154.227 22.3648 154.656C22.4999 154.915 22.5369 155.423 22.4767 155.787C22.3171 156.755 21.8 158.312 22.5244 159.038C22.639 159.153 22.7773 159.192 22.9343 159.269C23.6403 159.616 24.4644 160.165 28.8083 159.914C30.0053 159.845 30.6022 159.822 31.2351 159.752C33.2983 159.522 35.7443 159.501 36.5558 159.336C37.9172 159.059 38.7357 158.968 40.6428 157.167C40.7567 157.005 41.0987 156.612 41.1901 156.472C41.508 155.871 41.9666 155.404 42.4185 154.787C43.1504 153.788 44.4313 152.526 44.8276 151.624C45.1939 150.791 45.6523 149.452 46.4666 149.04C46.9208 148.81 48.0675 148.43 49.334 148.766C50.3775 149.043 51.005 149.373 51.6741 149.435C52.9257 149.55 53.8698 149.553 54.4229 149.851L54.4625 149.872C55.2043 150.272 56.5674 151.006 57.1061 150.309C57.6974 149.544 58.3865 148.46 58.6735 147.631C58.9224 146.913 58.9042 146.075 58.7164 145.017C58.5118 143.864 58.206 141.148 58.4 138.112C58.5132 136.34 58.5155 135.223 58.6728 134.427C58.7192 134.147 59.0138 133.206 59.0826 132.878C59.1515 132.551 59.2416 132.048 59.2866 131.726C59.4244 130.941 59.6758 130.338 60.0832 129.511C60.3793 128.911 60.878 128.398 61.2434 127.873C61.7434 127.155 62.3008 126.053 62.6294 125.287C63.0175 124.382 62.9151 122.369 63.9035 121.293C64.1988 120.972 64.5693 120.698 64.9041 120.371C65.4265 119.861 65.07 118.373 66.406 116.465C67.2926 115.2 67.839 114.61 68.5197 114.231C69.4316 113.723 71.339 113.595 72.5916 113.656C74.0233 113.726 75.9205 113.528 76.9309 113.957C77.4772 114.189 78.2043 114.371 80.612 114.371C81.3467 107.668 81.4875 105.232 80.9977 104.196C80.4803 103.1 80.6696 100.687 80.9132 98.2744C81.0714 96.7087 81.321 95.4511 81.5659 93.3128C82.1453 88.2541 81.4067 84.5111 80.9586 83.8497C80.1103 82.5978 78.9602 81.7761 77.737 81.1942C75.5914 80.1737 74.3048 81.2763 73.8566 81.0289C72.2864 80.1621 73.2419 76.8033 73.2811 76.224C73.3613 75.0388 75.4386 75.1474 76.9496 73.9042C78.3207 72.7761 79.3569 71.9947 81.0308 71.25C82.1057 70.7718 82.7071 69.021 83.1173 67.687C83.1946 67.4356 83.2802 67.191 83.5642 66.9821C84.9463 65.966 86.1356 66.0274 86.6658 65.6557C87.1985 64.538 87.488 61.3792 87.6092 60.8819C87.8541 60.1372 88.099 58.9662 88.2202 57.1822C88.3439 53.2575 89.7687 52.1879 88.9537 47.9055C88.5839 45.9624 87.748 44.8915 87.6068 43.5183C87.526 42.7326 87.7784 42.1101 87.9766 41.5728C88.3439 40.577 88.9684 39.063 90.2235 38.5904C91.5373 38.0956 93.1029 37.9367 93.3239 37.2614C93.5675 36.5167 93.7845 35.6628 93.6067 34.9416C93.3202 33.7792 93.1291 32.2804 93.5675 30.9224C94.1479 29.1247 94.9025 25.9556 96.0214 25.7868C96.8369 25.6637 97.8214 25.6616 98.223 25.0794C99.374 23.4111 100.902 20.9329 101.978 20.9806C102.959 21.0241 103.69 22.0322 104.713 22.2238C104.918 22.2624 105.182 22.1175 105.365 21.8894C105.731 21.4344 105.824 20.8413 105.935 20.231C106.138 19.1096 106.789 18.1546 107.366 16.8309C108.18 14.9624 109.326 11.4079 107.808 9.87152C107.36 9.41776 106.883 8.17463 105.649 7.51325C103.365 6.28981 98.3066 7.84145 97.2854 8.17463C95.8692 8.63666 94.9614 9.74602 93.2471 10.4124C91.9391 10.9208 90.4725 10.7455 89.2896 10.5814C86.2949 10.166 88.2635 3.20437 87.4113 3.08005C84.6162 2.67233 83.613 3.69916 82.4289 4.07211C81.8544 4.25307 81.4064 4.61166 81.0391 4.9411C80.0219 5.85333 79.8563 7.42374 78.8779 8.17463C78.291 8.62508 77.4073 8.58737 76.8771 9.24874C76.0037 10.3382 75.9379 11.7351 74.8788 12.6078C72.9992 12.8167 72.0196 13.1474 71.3278 13.396C70.9592 13.4805 70.7555 13.4832 69.6489 13.4805C69.0661 13.4805 68.5004 13.4805 68.0926 13.5227C67.6849 13.565 67.4424 13.6471 67.1963 13.7726C65.6326 14.2264 63.4682 14.1633 62.5433 14.5173C61.5625 14.8927 60.6025 15.4548 59.3964 15.4285C57.3993 15.385 52.2192 13.915 50.0537 15.7207C49.1561 16.4691 48.9524 17.6243 48.3002 18.4569C47.5202 19.4527 46.4682 20.4489 45.4007 20.8998C44.9121 21.1062 47.2173 27.5634 44.0941 29.9365C42.9505 30.8055 41.8128 31.3145 40.706 31.59C39.5219 31.8846 38.1156 32.1102 37.6473 33.3764C37.1563 34.7041 37.7676 37.8993 36.5036 39.0516C36.0959 39.4233 35.3265 39.6554 34.1759 40.1282C33.0714 40.5819 31.9327 40.9151 31.4453 41.3278H31.4413C29.7786 41.3278 28.8979 41.3278 27.8824 41.2856C26.462 41.1613 25.0734 40.7461 23.7669 40.4974C21.3804 40.0847 18.7289 41.5666 15.8066 42.0352C14.543 42.2379 12.8603 41.4852 12.4234 42.4505C12.1797 42.9888 11.9411 43.5587 11.8944 44.1089C11.7707 45.5646 12.1547 48.585 11.3214 50.0339C11.0361 50.5299 10.5929 51.1714 9.93158 51.7333C8.91037 52.6011 7.791 53.1022 7.52549 54.6759C7.201 56.5992 8.79055 60.9577 8.09732 64.5829C7.69079 66.7087 6.382 70.1633 7.52916 74.5309Z" fill="#BF7C52" stroke="black" stroke-width="6" stroke-linecap="round"/>
<path d="M32.3847 123.563L30.4726 127.756L29.6974 127.402L29.3576 126.007L24.6191 123.846L29.7605 129.317L29.2377 130.463L21.6306 130.225L26.6966 132.536L27.7169 131.484L28.3911 132.319L27.0267 135.311L26.2516 134.957L25.9117 133.563L20.2452 130.978L19.2081 132.009L18.5338 131.174L20.1273 127.68L26.8098 127.892L22.2486 123.029L23.8918 119.426L24.667 119.779L25.0019 121.185L30.8321 123.844L31.7105 122.728L32.3847 123.563ZM37.2179 112.937L35.1563 117.457L34.3811 117.104L34.2968 115.496L32.6672 115.425L31.2131 118.613L32.1226 119.569L33.6604 118.424L34.3347 119.259L32.6715 122.905L31.8963 122.552L31.5291 120.841L26.217 115.253L26.7258 112.663L35.5126 113.004L36.5436 112.102L37.2179 112.937ZM27.9669 115.233L30.3601 117.736L31.4357 115.378L27.9669 115.233ZM31.1183 103.292C31.51 102.433 32.0372 101.759 32.6999 101.27C33.3587 100.771 34.0913 100.485 34.8978 100.413C35.7043 100.341 36.5115 100.49 37.3195 100.858C38.1492 101.236 38.7927 101.86 39.2497 102.728C39.7028 103.585 39.9526 104.512 39.999 105.509C40.0414 106.496 39.8966 107.353 39.5647 108.081C39.4186 108.401 39.2527 108.717 39.0669 109.028C38.7915 109.535 38.5857 109.938 38.4496 110.237L37.5682 112.169L36.793 111.815L36.4532 110.421L30.6994 107.796L29.7605 108.872L29.0862 108.037L29.863 106.334C30.1651 105.671 30.4404 105.01 30.6889 104.349C30.8722 103.87 31.0153 103.518 31.1183 103.292ZM38.5686 107.257C38.7578 106.842 38.8031 106.406 38.7043 105.948C38.6089 105.482 38.3841 105.05 38.0297 104.651C37.6714 104.241 37.2156 103.91 36.6624 103.658C36.0001 103.356 35.3547 103.18 34.7265 103.131C34.0943 103.071 33.5267 103.168 33.0239 103.423C32.5171 103.666 32.1309 104.079 31.8653 104.662C31.7558 104.902 31.7147 105.156 31.7422 105.423L37.9109 108.237C38.1701 107.977 38.3893 107.65 38.5686 107.257ZM46.5935 92.3806L44.5319 96.9007L43.7567 96.5471L43.6724 94.9391L42.0427 94.8685L40.5887 98.0566L41.4982 99.0121L43.036 97.867L43.7103 98.7021L42.0471 102.349L41.2719 101.995L40.9047 100.285L35.5926 94.6964L36.1014 92.106L44.8882 92.4469L45.9192 91.5455L46.5935 92.3806ZM37.3425 94.6768L39.7357 97.1796L40.8113 94.8213L37.3425 94.6768ZM48.8967 81.9517L49.7954 82.0055L50.1129 84.5771C50.0389 85.0094 49.9351 85.4105 49.8015 85.7804C49.6713 86.1431 49.5132 86.5282 49.3273 86.9358C48.909 87.8529 48.3533 88.5799 47.6601 89.1166C46.9668 89.6533 46.2067 89.9705 45.3796 90.0681C44.5486 90.1551 43.7182 90.0093 42.8884 89.6309C42.0368 89.2425 41.3818 88.5964 40.9235 87.6928C40.4612 86.7785 40.2168 85.801 40.1903 84.7601C40.1599 83.7087 40.3206 82.7972 40.6725 82.0257C40.8916 81.5453 41.2018 81.0097 41.6031 80.419C42.0078 79.821 42.34 79.401 42.5999 79.159L45.4822 80.4736L44.8448 81.8711C44.0391 81.8641 43.3921 81.9911 42.9038 82.252C42.4115 82.5023 42.0592 82.8603 41.8467 83.3262C41.6575 83.7411 41.6033 84.178 41.6842 84.6369C41.7611 85.0852 41.9605 85.5059 42.2824 85.8989C42.6077 86.2847 43.025 86.5938 43.5345 86.8261C44.1532 87.1083 44.7622 87.2673 45.3613 87.3032C45.9532 87.3357 46.4949 87.2179 46.9865 86.9497C47.4781 86.6815 47.86 86.249 48.1322 85.6522L48.2866 85.3137C48.4161 85.0298 48.51 84.8045 48.5685 84.6377L46.7015 83.7862L45.4809 85.3926L44.8067 84.5575L46.9678 79.819L47.743 80.1726L48.1761 81.6231L48.8967 81.9517ZM56.0712 71.6L54.0096 76.1201L53.2344 75.7665L53.1501 74.1586L51.5205 74.088L50.0664 77.276L50.9759 78.2316L52.5137 77.0865L53.188 77.9216L51.5248 81.5682L50.7496 81.2147L50.3824 79.504L45.0703 73.9159L45.5791 71.3254L54.3659 71.6664L55.3969 70.7649L56.0712 71.6ZM46.8202 73.8963L49.2134 76.399L50.289 74.0407L46.8202 73.8963ZM56.7092 65.661C56.4981 65.5647 56.2561 65.5555 55.9832 65.6332C55.7104 65.711 55.4338 65.8355 55.1535 66.0066C54.8732 66.1777 54.5061 66.4235 54.0522 66.7441C53.4935 67.14 53.0267 67.4502 52.6517 67.6748C52.2694 67.8962 51.8722 68.0536 51.4603 68.147C51.0484 68.2405 50.6568 68.2026 50.2856 68.0333C49.9216 67.8673 49.6119 67.515 49.3564 66.9764C49.0969 66.4272 48.9414 65.8332 48.8899 65.1942C48.8311 64.5519 48.8997 64.016 49.0955 63.5866C49.3312 63.0698 49.6597 62.4942 50.0809 61.8598C50.5055 61.2181 50.8527 60.7653 51.1225 60.5015L53.6773 61.6667L53.0399 63.0642C52.3348 63.068 51.7404 63.1662 51.2569 63.3589C50.7693 63.541 50.4426 63.8141 50.2766 64.178C50.177 64.3963 50.1681 64.5989 50.25 64.7857C50.3319 64.9726 50.482 65.1158 50.7003 65.2154C50.9332 65.3216 51.1934 65.3391 51.4809 65.268C51.7643 65.1863 52.0515 65.0578 52.3424 64.8828C52.6293 64.6971 53.0014 64.4403 53.4587 64.1125C53.9961 63.7246 54.4507 63.4219 54.8224 63.2046C55.1901 62.9766 55.5747 62.8179 55.976 62.7283C56.3773 62.6388 56.76 62.677 57.1239 62.843C57.4879 63.009 57.7946 63.3775 58.0441 63.9486C58.2897 64.509 58.4352 65.1249 58.4807 65.7963C58.5189 66.4644 58.4368 67.0205 58.2343 67.4645C57.9886 68.0031 57.6419 68.6187 57.1941 69.3114C56.7463 70.004 56.3859 70.4859 56.1128 70.757L53.5579 69.5917L54.1953 68.1942C54.9177 68.172 55.5306 68.0427 56.0341 67.8063C56.5376 67.5699 56.8789 67.2552 57.0582 66.8621C57.1777 66.6001 57.1995 66.3595 57.1237 66.1402C57.0511 65.9137 56.913 65.7539 56.7092 65.661ZM53.4984 53.9329C53.7043 53.4816 53.9979 52.9824 54.3793 52.4354C54.7607 51.8883 55.0763 51.5047 55.3262 51.2845L57.7718 52.4L57.1344 53.7975C56.4948 53.8311 55.9719 53.9751 55.5657 54.2295C55.1629 54.4766 54.8652 54.8112 54.6726 55.2334C54.51 55.59 54.4807 55.9724 54.5848 56.3803C54.6849 56.7777 54.9026 57.1584 55.2378 57.5223C55.5763 57.8789 56.0003 58.1734 56.5098 58.4058C57.0849 58.668 57.6524 58.8214 58.2125 58.8658C58.7653 58.9069 59.2649 58.8138 59.7115 58.5866C60.158 58.3595 60.5008 57.9838 60.7398 57.4598C61.0552 56.7683 61.1943 55.6535 61.1572 54.1154L62.1942 53.9817L62.8392 56.7027C62.7818 57.0986 62.6946 57.4633 62.5776 57.7968C62.464 58.1231 62.3225 58.4718 62.1532 58.843C61.7648 59.6946 61.2356 60.3633 60.5656 60.8491C59.8957 61.3349 59.1538 61.612 58.34 61.6805C57.5189 61.7456 56.6935 61.589 55.8637 61.2105C55.0121 60.8221 54.3488 60.1943 53.8739 59.327C53.395 58.4492 53.1307 57.5153 53.081 56.5254C53.0273 55.5249 53.1665 54.6607 53.4984 53.9329ZM68.4714 44.4115L66.4099 48.9316L65.6347 48.578L65.5504 46.9701L63.9207 46.8994L62.4667 50.0875L63.3762 51.0431L64.914 49.898L65.5883 50.7331L63.9251 54.3797L63.1499 54.0261L62.7827 52.3155L57.4706 46.7274L57.9794 44.1369L66.7662 44.4779L67.7972 43.5764L68.4714 44.4115ZM59.2205 46.7077L61.6137 49.2105L62.6893 46.8522L59.2205 46.7077ZM72.8055 34.9089L71.6303 37.4855L67.0417 37.7141L66.5706 38.0531L66.0649 37.4268L66.269 36.9792C66.4184 36.6516 66.4198 36.3401 66.2732 36.0446C66.1193 35.7458 65.8277 35.4985 65.3982 35.3026C64.9251 35.0869 64.4902 35.038 64.0934 35.156C63.6927 35.2634 63.3845 35.5537 63.1687 36.0268C63.0392 36.3106 63.0018 36.6145 63.0563 36.9383L69.1486 39.7169L70.0488 38.6107L70.723 39.4458L68.8109 43.6383L68.0357 43.2848L67.6085 41.8502L61.9093 39.2508L61.0141 40.3461L60.3398 39.511L61.3158 37.3711C61.5947 36.7597 61.8484 36.1456 62.0769 35.5288C62.247 35.0788 62.3785 34.7519 62.4714 34.5481C62.7436 33.9512 63.0862 33.47 63.4992 33.1044C63.9082 32.7282 64.3454 32.4924 64.811 32.397C65.2766 32.3016 65.7277 32.3535 66.1644 32.5527C66.6594 32.7784 67.0184 33.2059 67.2413 33.8352C67.4676 34.4571 67.5532 35.1468 67.4979 35.9042L68.2031 35.052L71.1887 34.8969L72.1312 34.0738L72.8055 34.9089Z" fill="black"/>
</svg>
