<svg width="112" height="163" viewBox="0 0 112 163" fill="none" xmlns="http://www.w3.org/2000/svg">
<path d="M7.52867 74.5449C8.01846 76.4097 7.97301 77.9395 8.18009 78.3888C8.5 79.083 9.42201 78.4947 9.97682 79.083C10.9483 80.1133 12.0899 79.0396 12.9145 78.8146C13.1551 78.7489 13.468 78.7685 13.6489 78.8356C14.1775 79.0317 14.2291 79.8504 14.8073 81.181C15.178 82.0342 15.6525 83.5487 15.6786 85.4711C15.7152 88.1783 14.3226 89.8745 14.1643 90.9895C14.0477 91.8114 14.1832 92.5313 14.2934 93.1167L14.2972 93.137C14.3227 93.2727 14.3199 93.4074 14.2538 93.5437C14.1877 93.6799 14.0555 93.8141 13.8772 93.8833C13.169 94.158 12.7189 93.8168 12.4304 93.8839C11.0507 94.205 10.4502 97.5125 10.292 98.694C10.1837 99.5024 10.7119 99.9609 11.025 101.2C11.2983 102.281 11.7374 102.628 11.8709 103.032C11.9163 103.303 11.9163 103.705 11.5198 104.74C11.1232 105.776 10.1943 107.389 9.24359 109.23C9.10939 109.456 8.97719 109.635 8.8884 109.794C8.71147 110.359 8.31474 110.856 8.22141 111.902C7.99575 114.432 7.71622 115.564 7.12914 116.302C6.57232 117.002 5.99646 117.375 5.48204 117.724C5.14889 117.95 4.80596 118.543 4.6297 120.064C4.6297 120.615 4.53966 121.446 4.38006 122.756C3.98013 126.039 4.22046 126.8 4.10723 127.425C3.889 128.629 3.90125 130.31 4.08336 131.094C4.25544 131.836 4.26684 133.578 3.949 134.856C3.63237 136.129 3.35833 137.229 3.03912 138.296C2.84032 138.961 3.44563 139.819 3.80986 140.421C4.17347 141.022 4.53693 142.032 5.30835 142.937C5.87522 143.601 6.8996 142.595 7.71876 142.478C8.58057 142.354 10.2144 142.819 11.0616 143.238C11.8882 143.647 12.3125 144.667 12.6767 145.452C12.7813 145.677 12.8581 145.957 12.9945 146.167C13.6951 147.245 15.9028 147.021 17.0617 147.807C17.8745 148.358 19.1304 148.686 19.6781 149.101C20.722 149.891 21.5435 149.609 21.7481 149.793C22.395 150.373 21.3648 151.591 21.227 152.216C21.182 152.378 21.092 152.561 21.0456 152.746C20.9992 152.932 20.9992 153.115 20.9992 153.303C21.0224 153.511 21.2267 154.136 21.3187 154.228C21.5459 154.366 22.1403 154.241 22.3643 154.67C22.4994 154.929 22.5364 155.437 22.4762 155.801C22.3166 156.769 21.7995 158.326 22.5239 159.053C22.6385 159.167 22.7768 159.206 22.9339 159.283C23.6398 159.63 24.4639 160.179 28.8078 159.928C30.0048 159.859 30.6017 159.836 31.2346 159.766C33.2978 159.536 35.7439 159.515 36.5553 159.35C37.9167 159.073 38.7352 158.982 40.6423 157.181C40.7562 157.019 41.0983 156.626 41.1897 156.486C41.5075 155.885 41.9661 155.418 42.418 154.801C43.1499 153.802 44.4308 152.54 44.8271 151.638C45.1934 150.805 45.6518 149.466 46.4661 149.054C46.9203 148.824 48.067 148.444 49.3335 148.78C50.377 149.057 51.0045 149.387 51.6737 149.449C52.9252 149.564 53.8693 149.567 54.4224 149.865L54.462 149.886C55.2038 150.286 56.5669 151.02 57.1056 150.323C57.697 149.558 58.386 148.474 58.673 147.645C58.9219 146.927 58.9037 146.089 58.716 145.031C58.5113 143.878 58.2055 141.162 58.3995 138.126C58.5127 136.354 58.515 135.237 58.6723 134.441C58.7187 134.161 59.0133 133.22 59.0822 132.892C59.1511 132.565 59.2411 132.062 59.2861 131.74C59.4239 130.955 59.6753 130.352 60.0827 129.525C60.3788 128.925 60.8775 128.412 61.2429 127.887C61.7429 127.169 62.3003 126.067 62.6289 125.301C63.017 124.396 62.9146 122.383 63.903 121.308C64.1983 120.986 64.5688 120.712 64.9036 120.385C65.426 119.875 65.0695 118.387 66.4055 116.479C67.2922 115.214 67.8385 114.624 68.5192 114.245C69.4311 113.737 71.3385 113.609 72.5911 113.67C74.0228 113.74 75.9201 113.542 76.9304 113.971C77.4767 114.203 78.2038 114.385 80.6115 114.385C81.3462 107.682 81.487 105.247 80.9973 104.21C80.4798 103.114 80.6691 100.701 80.9128 98.2884C81.0709 96.7227 81.3205 95.4651 81.5654 93.3269C82.1448 88.2682 81.4062 84.5251 80.9581 83.8637C80.1098 82.6118 78.9597 81.7901 77.7365 81.2083C75.5909 80.1878 74.3043 81.2903 73.8561 81.0429C72.2859 80.1761 73.2414 76.8173 73.2806 76.238C73.3608 75.0529 75.4381 75.1614 76.9491 73.9182C78.3203 72.7901 79.3565 72.0087 81.0303 71.264C82.1053 70.7858 82.7066 69.035 83.1168 67.7011C83.1941 67.4496 83.2797 67.205 83.5638 66.9962C84.9458 65.9801 86.1351 66.0414 86.6653 65.6697C87.198 64.5521 87.4875 61.3932 87.6087 60.896C87.8536 60.1513 88.0985 58.9802 88.2198 57.1962C88.3434 53.2715 89.7682 52.2019 88.9532 47.9196C88.5834 45.9765 87.7475 44.9055 87.6063 43.5324C87.5255 42.7467 87.7779 42.1241 87.9761 41.5868C88.3434 40.591 88.9679 39.0771 90.223 38.6044C91.5369 38.1096 93.1024 37.9507 93.3234 37.2754C93.567 36.5308 93.784 35.6768 93.6062 34.9556C93.3197 33.7933 93.1286 32.2945 93.567 30.9364C94.1474 29.1388 94.902 25.9697 96.0209 25.8008C96.8364 25.6777 97.8209 25.6756 98.2225 25.0934C99.3735 23.4251 100.901 20.9469 101.978 20.9947C102.959 21.0382 103.69 22.0463 104.712 22.2379C104.918 22.2764 105.181 22.1315 105.365 21.9034C105.731 21.4484 105.824 20.8553 105.934 20.245C106.137 19.1237 106.789 18.1686 107.366 16.8449C108.18 14.9764 109.325 11.422 107.808 9.88556C107.36 9.43179 106.883 8.18867 105.648 7.52729C103.364 6.30385 98.3062 7.85549 97.285 8.18867C95.8688 8.6507 94.9609 9.76005 93.2466 10.4264C91.9386 10.9349 90.472 10.7596 89.2891 10.5955C86.2944 10.18 88.263 3.21841 87.4108 3.09409C84.6157 2.68637 83.6125 3.7132 82.4284 4.08615C81.8539 4.26711 81.406 4.6257 81.0386 4.95514C80.0215 5.86737 79.8558 7.43778 78.8774 8.18867C78.2905 8.63912 77.4068 8.6014 76.8766 9.26278C76.0032 10.3523 75.9375 11.7492 74.8783 12.6219C72.9987 12.8307 72.0191 13.1614 71.3273 13.41C70.9587 13.4946 70.755 13.4972 69.6484 13.4945C69.0656 13.4945 68.4999 13.4945 68.0921 13.5368C67.6844 13.579 67.4419 13.6611 67.1958 13.7867C65.6322 14.2404 63.4677 14.1773 62.5428 14.5313C61.562 14.9068 60.6021 15.4689 59.3959 15.4426C57.3988 15.3991 52.2187 13.929 50.0532 15.7347C49.1556 16.4831 48.9519 17.6384 48.2997 18.471C47.5197 19.4668 46.4677 20.4629 45.4002 20.9138C44.9116 21.1202 47.2169 27.5774 44.0936 29.9506C42.95 30.8195 41.8123 31.3286 40.7055 31.604C39.5215 31.8986 38.1151 32.1242 37.6468 33.3904C37.1558 34.7182 37.7671 37.9133 36.5031 39.0656C36.0954 39.4373 35.326 39.6695 34.1754 40.1422C33.0709 40.596 31.9322 40.9291 31.4448 41.3419H31.4408C29.7781 41.3419 28.8974 41.3419 27.8819 41.2996C26.4615 41.1753 25.0729 40.7601 23.7664 40.5115C21.3799 40.0987 18.7284 41.5807 15.8061 42.0493C14.5425 42.2519 12.8598 41.4992 12.4229 42.4645C12.1792 43.0028 11.9407 43.5728 11.8939 44.1229C11.7703 45.5787 12.1542 48.5991 11.3209 50.0479C11.0356 50.544 10.5924 51.1854 9.93109 51.7474C8.90988 52.6151 7.79051 53.1163 7.525 54.69C7.20051 56.6132 8.79007 60.9718 8.09683 64.5969C7.6903 66.7228 6.38151 70.1773 7.52867 74.5449Z" fill="#BF7C52" stroke="black" stroke-width="6" stroke-linecap="round"/>
<path d="M32.3843 123.577L30.4721 127.77L29.6969 127.416L29.3571 126.021L24.6186 123.86L29.76 129.331L29.2372 130.477L21.6301 130.239L26.6961 132.55L27.7164 131.498L28.3906 132.333L27.0262 135.325L26.2511 134.971L25.9112 133.577L20.2447 130.992L19.2076 132.023L18.5333 131.188L20.1268 127.694L26.8093 127.906L22.2481 123.043L23.8913 119.44L24.6665 119.793L25.0014 121.199L30.8316 123.858L31.71 122.742L32.3843 123.577ZM37.2174 112.951L35.1558 117.471L34.3806 117.118L34.2963 115.51L32.6667 115.439L31.2126 118.627L32.1221 119.583L33.6599 118.438L34.3342 119.273L32.671 122.919L31.8958 122.566L31.5286 120.855L26.2165 115.267L26.7253 112.677L35.5121 113.018L36.5431 112.116L37.2174 112.951ZM27.9664 115.247L30.3597 117.75L31.4352 115.392L27.9664 115.247ZM31.1178 103.306C31.5095 102.447 32.0367 101.773 32.6994 101.284C33.3582 100.785 34.0908 100.499 34.8973 100.427C35.7038 100.355 36.511 100.504 37.319 100.872C38.1488 101.25 38.7922 101.874 39.2492 102.742C39.7023 103.599 39.9521 104.526 39.9985 105.523C40.0409 106.51 39.8961 107.367 39.5642 108.095C39.4181 108.415 39.2522 108.731 39.0664 109.042C38.791 109.549 38.5852 109.952 38.4491 110.251L37.5677 112.183L36.7925 111.83L36.4527 110.435L30.6989 107.811L29.76 108.886L29.0857 108.051L29.8625 106.348C30.1646 105.685 30.4399 105.024 30.6884 104.363C30.8717 103.884 31.0149 103.532 31.1178 103.306ZM38.5681 107.271C38.7573 106.856 38.8026 106.42 38.7039 105.962C38.6085 105.496 38.3836 105.064 38.0292 104.665C37.6709 104.255 37.2151 103.924 36.6619 103.672C35.9996 103.37 35.3543 103.194 34.726 103.145C34.0938 103.085 33.5263 103.183 33.0234 103.437C32.5166 103.68 32.1304 104.093 31.8648 104.676C31.7553 104.916 31.7142 105.17 31.7417 105.437L37.9104 108.251C38.1696 107.991 38.3889 107.664 38.5681 107.271ZM46.593 92.3946L44.5314 96.9147L43.7562 96.5611L43.6719 94.9532L42.0423 94.8826L40.5882 98.0706L41.4977 99.0262L43.0355 97.8811L43.7098 98.7162L42.0466 102.363L41.2714 102.009L40.9042 100.299L35.5921 94.7105L36.1009 92.12L44.8877 92.461L45.9187 91.5595L46.593 92.3946ZM37.342 94.6908L39.7353 97.1936L40.8108 94.8353L37.342 94.6908ZM48.8962 81.9658L49.7949 82.0196L50.1124 84.5912C50.0384 85.0234 49.9346 85.4245 49.801 85.7945C49.6708 86.1571 49.5127 86.5422 49.3268 86.9499C48.9086 87.867 48.3528 88.5939 47.6596 89.1306C46.9663 89.6673 46.2062 89.9845 45.3791 90.0821C44.5481 90.1691 43.7177 90.0234 42.8879 89.6449C42.0363 89.2565 41.3813 88.6105 40.923 87.7068C40.4607 86.7926 40.2163 85.815 40.1899 84.7742C40.1594 83.7227 40.3201 82.8113 40.672 82.0397C40.8911 81.5593 41.2013 81.0238 41.6027 80.433C42.0073 79.835 42.3395 79.415 42.5994 79.173L45.4817 80.4876L44.8444 81.8851C44.0386 81.8782 43.3916 82.0051 42.9033 82.266C42.4111 82.5163 42.0587 82.8744 41.8462 83.3402C41.657 83.7551 41.6028 84.192 41.6837 84.6509C41.7606 85.0993 41.96 85.5199 42.2819 85.913C42.6072 86.2987 43.0246 86.6078 43.5341 86.8402C44.1527 87.1223 44.7617 87.2814 45.3608 87.3172C45.9527 87.3497 46.4944 87.2319 46.986 86.9637C47.4776 86.6956 47.8595 86.2631 48.1318 85.6662L48.2861 85.3277C48.4156 85.0439 48.5096 84.8185 48.568 84.6518L46.701 83.8003L45.4804 85.4066L44.8062 84.5715L46.9673 79.8331L47.7425 80.1866L48.1756 81.6371L48.8962 81.9658ZM56.0707 71.6141L54.0091 76.1341L53.2339 75.7806L53.1496 74.1726L51.52 74.102L50.0659 77.2901L50.9754 78.2456L52.5132 77.1005L53.1875 77.9356L51.5243 81.5822L50.7491 81.2287L50.3819 79.5181L45.0698 73.9299L45.5786 71.3395L54.3654 71.6804L55.3964 70.779L56.0707 71.6141ZM46.8197 73.9103L49.213 76.413L50.2885 74.0547L46.8197 73.9103ZM56.7087 65.675C56.4976 65.5788 56.2556 65.5695 55.9827 65.6473C55.7099 65.7251 55.4333 65.8495 55.153 66.0206C54.8727 66.1918 54.5056 66.4376 54.0517 66.7581C53.493 67.154 53.0262 67.4642 52.6512 67.6889C52.2689 67.9102 51.8717 68.0676 51.4598 68.1611C51.0479 68.2546 50.6563 68.2167 50.2851 68.0474C49.9211 67.8814 49.6114 67.5291 49.3559 66.9905C49.0964 66.4413 48.9409 65.8472 48.8894 65.2082C48.8306 64.5659 48.8992 64.03 49.095 63.6006C49.3307 63.0838 49.6592 62.5082 50.0804 61.8738C50.505 61.2321 50.8522 60.7794 51.122 60.5156L53.6768 61.6808L53.0394 63.0783C52.3343 63.082 51.7399 63.1802 51.2564 63.373C50.7688 63.5551 50.4421 63.8281 50.2761 64.192C50.1765 64.4104 50.1676 64.613 50.2495 64.7998C50.3314 64.9866 50.4815 65.1298 50.6998 65.2294C50.9328 65.3356 51.1929 65.3532 51.4804 65.282C51.7638 65.2003 52.051 65.0719 52.3419 64.8968C52.6288 64.7111 53.0009 64.4544 53.4582 64.1266C53.9956 63.7386 54.4502 63.436 54.8219 63.2186C55.1896 62.9906 55.5742 62.8319 55.9755 62.7424C56.3769 62.6528 56.7595 62.6911 57.1234 62.8571C57.4874 63.023 57.7941 63.3916 58.0436 63.9626C58.2892 64.523 58.4348 65.139 58.4802 65.8104C58.5185 66.4785 58.4363 67.0345 58.2338 67.4785C57.9882 68.0171 57.6414 68.6328 57.1936 69.3254C56.7458 70.018 56.3854 70.4999 56.1123 70.771L53.5574 69.6058L54.1948 68.2083C54.9172 68.186 55.5301 68.0567 56.0336 67.8203C56.5371 67.5839 56.8785 67.2692 57.0577 66.8762C57.1772 66.6141 57.1991 66.3735 57.1232 66.1542C57.0507 65.9277 56.9125 65.768 56.7087 65.675ZM53.4979 53.9469C53.7038 53.4956 53.9974 52.9965 54.3788 52.4494C54.7602 51.9023 55.0758 51.5187 55.3257 51.2986L57.7713 52.414L57.134 53.8115C56.4943 53.8451 55.9714 53.9891 55.5653 54.2435C55.1624 54.4906 54.8647 54.8253 54.6721 55.2474C54.5095 55.6041 54.4802 55.9864 54.5843 56.3944C54.6844 56.7917 54.9021 57.1724 55.2373 57.5363C55.5758 57.8929 55.9998 58.1874 56.5094 58.4198C57.0844 58.6821 57.6519 58.8354 58.212 58.8798C58.7648 58.9209 59.2644 58.8279 59.711 58.6007C60.1575 58.3735 60.5003 57.9979 60.7393 57.4738C61.0547 56.7823 61.1938 55.6676 61.1567 54.1295L62.1937 53.9957L62.8387 56.7167C62.7813 57.1126 62.6941 57.4773 62.5772 57.8108C62.4635 58.1371 62.3221 58.4858 62.1527 58.857C61.7643 59.7087 61.2351 60.3773 60.5652 60.8631C59.8952 61.3489 59.1533 61.626 58.3395 61.6945C57.5184 61.7597 56.693 61.603 55.8632 61.2246C55.0116 60.8362 54.3483 60.2083 53.8734 59.3411C53.3945 58.4632 53.1302 57.5293 53.0805 56.5394C53.0268 55.539 53.166 54.6748 53.4979 53.9469ZM68.471 44.4255L66.4094 48.9456L65.6342 48.5921L65.5499 46.9841L63.9203 46.9135L62.4662 50.1016L63.3757 51.0571L64.9135 49.912L65.5878 50.7471L63.9246 54.3937L63.1494 54.0402L62.7822 52.3295L57.4701 46.7414L57.9789 44.151L66.7657 44.4919L67.7967 43.5905L68.471 44.4255ZM59.22 46.7218L61.6132 49.2245L62.6888 46.8662L59.22 46.7218ZM72.805 34.9229L71.6298 37.4996L67.0413 37.7281L66.5701 38.0672L66.0644 37.4408L66.2685 36.9932C66.4179 36.6657 66.4193 36.3541 66.2727 36.0587C66.1188 35.7599 65.8272 35.5125 65.3977 35.3167C64.9246 35.1009 64.4897 35.052 64.0929 35.17C63.6922 35.2774 63.384 35.5677 63.1682 36.0408C63.0388 36.3247 63.0013 36.6285 63.0558 36.9524L69.1481 39.731L70.0483 38.6248L70.7226 39.4598L68.8104 43.6524L68.0352 43.2988L67.608 41.8642L61.9088 39.2649L61.0136 40.3601L60.3393 39.5251L61.3153 37.3851C61.5942 36.7737 61.8479 36.1596 62.0764 35.5428C62.2465 35.0928 62.378 34.7659 62.4709 34.5621C62.7432 33.9653 63.0857 33.4841 63.4987 33.1185C63.9077 32.7422 64.3449 32.5064 64.8105 32.411C65.2761 32.3156 65.7272 32.3675 66.164 32.5667C66.6589 32.7924 67.0179 33.2199 67.2409 33.8492C67.4672 34.4712 67.5527 35.1609 67.4974 35.9182L68.2026 35.066L71.1882 34.9109L72.1307 34.0878L72.805 34.9229Z" fill="black"/>
</svg>
