<svg width="132" height="144" viewBox="0 0 132 144" fill="none" xmlns="http://www.w3.org/2000/svg">
<path d="M13.21 78.1079C13.5838 79.3126 14.4214 82.185 14.835 84.1757C17.4143 83.3747 19.529 83.3747 20.7907 83.5109C23.2539 84.3119 26.462 84.5762 28.8591 85.0469C30.4632 85.914 32.5104 86.0582 35.0692 87.1155C37.0077 87.9166 40.4851 87.3869 42.0762 89.054C43.5441 90.592 44.6409 92.0819 45.2103 94.1286C45.6749 95.7988 46.1883 97.5668 47.4812 101.142C48.3504 103.545 49.542 105.852 49.9484 108.481C50.2168 110.217 50.9067 112.043 51.2842 113.82C51.6827 115.697 51.4247 118.254 52.2194 119.896C53.1566 121.832 53.7209 124.921 56.9134 125.165C60.3819 125.429 63.1129 125.4 64.0387 125.9C64.9038 126.366 65.6875 126.978 66.1054 127.906C67.0386 129.979 67.3923 131.96 68.5085 133.445C69.714 135.05 70.2017 136.824 71.1799 138.989C71.4523 139.591 71.9473 140.265 72.79 140.384C74.6564 140.649 76.3002 140.735 76.8533 140.11C78.3973 138.366 80.419 136.407 81.7957 134.901C84.0045 132.486 86.9871 129.805 88.8027 127.089C90.2766 124.884 92.4669 122.91 92.8039 120.411C93.2085 117.411 93.8483 115.327 95.6156 114.209C98.1509 112.605 99.415 110.781 101.687 109.605C103.63 108.599 107.113 107.731 109.363 108.209C111.24 108.607 113.377 109.632 115.509 109.34C116.975 109.14 118.258 108.667 118.908 107.8C119.507 107.001 118.569 100.561 118.97 92.1861C118.97 89.7349 118.97 87.3559 118.834 85.7578C118.433 83.3667 118.169 79.6218 117.766 76.626C117.5 75.7608 116.992 75.041 116.092 74.4912C114.019 73.2256 109.016 74.3102 109.69 72.4225C110.166 71.0868 112.155 66.2677 114.702 64.2119C116.447 62.8041 120.477 62.3443 122.58 60.9416C123.38 60.409 124.52 59.7345 124.779 58.6026C124.978 57.7375 124.266 56.992 124.309 55.6568C124.449 51.3172 124.93 48.8544 125.582 46.7152C126.58 43.443 126.804 41.304 127.451 39.0433C128.182 36.49 128.531 32.8182 127.645 31.3013C126.708 29.6972 125.818 28.0543 125.31 26.427C124.705 24.4904 123.744 22.8405 122.905 21.2883C122.038 19.6842 120.5 7.15958 117.955 5.33687C112.277 1.27085 110.088 7.12978 106.642 7.15954C105.267 7.17141 104.84 8.78832 104.455 9.49378C104.057 10.2238 98.9927 9.94393 96.2659 10.3259C95.8101 10.3898 95.4971 10.7751 95.1459 10.9661C94.3502 11.3987 94.4087 12.6275 94.1208 13.3963C94.0452 13.5981 93.8981 13.7793 93.7378 13.9089C93.4268 14.1603 92.5582 14.1671 91.5667 14.2621C91.1454 14.5471 90.5995 14.9032 90.1206 15.3188C89.2337 15.5722 88.5868 15.7661 88.2355 15.9571C87.3922 16.4156 87.4984 18.3172 86.8918 19.9844C86.7682 20.324 86.6039 20.4979 86.3802 20.5958C86.1566 20.6937 85.8399 20.6937 85.5817 20.6304C85.1089 20.5143 84.811 20.1197 84.4606 19.8318C84.0364 19.4831 83.3405 19.8606 82.9249 20.1476C82.2444 20.6175 81.8049 21.5844 81.038 22.4818C79.9978 23.6991 78.6068 23.8265 77.838 24.4024C76.9554 25.0635 76.9406 26.1915 76.334 27.2482C76.0001 27.8298 75.8521 28.4336 75.6611 28.8492C75.3186 29.5944 73.873 29.5201 73.2933 30.3522C72.6663 31.2523 72.846 32.0808 72.4314 32.4964C72.2068 32.6586 71.9534 32.722 71.3795 32.7546C70.8055 32.7872 71.4137 32.5 70.5 32.5C69 32.5 69.3253 33.941 69.2917 34.1665C69.1314 34.6455 68.8742 35.1599 68.4557 35.6379C67.7205 36.0525 64.4597 35.85 62.6672 36.5958C62.2842 36.7551 61.9919 37.1807 61.4828 37.5575C60.4894 38.2927 59.2278 39.3699 58.1551 40.0847C57.0993 40.7882 56.3068 41.7476 55.2748 41.7461C53.9627 41.7442 52.6963 41.8842 51.9817 41.1673C51.663 40.8477 51.82 39.7226 50.7656 38.6709C50.3826 38.2889 49.7306 38.2234 48.9727 38.1296C47.6856 37.9702 45.829 37.2514 44.4942 38.2601C44.1132 38.548 44.5171 39.5635 43.9519 40.3736C43.664 40.7863 42.9197 40.7812 42.2867 41.4927C41.4891 42.3892 40.9546 45.0812 39.0771 45.1697C37.0625 45.2647 35.1525 45.5336 33.4095 45.5853C29.0731 45.7139 25.4529 44.6532 23.9871 46.2591C23.3142 46.9962 22.8093 48.2045 21.7757 48.2728C20.8168 48.3361 19.9621 48.3287 19.5077 48.1106C18.6419 47.695 17.7493 47.4397 15.6396 47.3763C15 47.5 14.5754 48.6667 14.1568 49.0828C13.2449 49.8278 12.6669 50.4108 12.4165 50.8231C12.0017 51.071 9.59802 50.6775 7.38982 51.6541C6.26863 52.1499 4.27527 51.4471 3.3635 53.3259C3.03462 54.0036 2.97185 55.325 3.07698 56.1039C3.28377 57.6362 3.61249 58.5903 3.78333 59.6282C4.03123 61.1343 3.90717 63.7573 4.90701 63.9859C5.44643 64.1092 6.77302 63.8437 7.43841 64.6935C8.02267 65.4397 8.88707 66.0589 9.01555 67.1028C9.26346 69.1172 7.95233 72.8867 8.60071 74.2872C8.84986 74.8253 9.36948 75.5127 10.513 75.9453C11.5108 76.3228 12.8576 76.9718 13.21 78.1079Z" fill="#587956" stroke="black" stroke-width="6" stroke-linecap="round"/>
<path d="M46.6073 69.2889L41.1882 71.241L40.8273 70.2391L41.7777 68.7169L39.5714 62.5922L39.1702 71.968L37.6884 72.5018L31.2569 65.4916L33.6157 72.0397L35.4471 72.0337L35.2893 73.366L31.4225 74.7589L31.0616 73.7569L32.0119 72.2348L29.3736 64.9105L27.5462 64.8832L27.704 63.5508L32.2199 61.9241L37.867 68.0848L38.2317 59.7585L42.8888 58.0809L43.2497 59.0829L42.2852 60.6101L44.9999 68.1461L46.7651 67.9566L46.6073 69.2889ZM60.3304 64.3296L54.4879 66.4342L54.127 65.4322L55.4912 63.9523L54.1309 62.4334L50.0101 63.9178L49.9501 65.5657L52.3172 65.9407L52.1594 67.273L47.4459 68.9709L47.085 67.9689L48.2938 66.1464L48.651 56.5154L51.4117 54.7078L58.7816 62.8627L60.4882 62.9972L60.3304 64.3296ZM50.197 58.063L50.0493 62.3891L53.0976 61.291L50.197 58.063ZM70.6567 60.6257L61.3285 63.986L60.9675 62.984L61.9179 61.4619L59.1982 53.9118L57.4521 54.1103L57.6099 52.778L63.029 50.8259L63.39 51.8278L62.4255 53.3551L65.2011 61.0604L68.1083 60.0132L69.1981 56.0014L70.3385 56.0689L71.9195 60.4578L70.6567 60.6257ZM84.9856 55.4482L79.1431 57.5528L78.7822 56.5508L80.1464 55.0709L78.7861 53.552L74.6653 55.0364L74.6052 56.6843L76.9724 57.0592L76.8146 58.3916L72.1011 60.0895L71.7401 59.0875L72.949 57.265L73.3061 47.634L76.0669 45.8263L83.4368 53.9812L85.1434 54.1158L84.9856 55.4482ZM74.8521 49.1816L74.7045 53.5076L77.7528 52.4096L74.8521 49.1816ZM90.8536 50.8312C90.7553 50.5584 90.5522 50.3339 90.2443 50.1579C89.9364 49.9818 89.5835 49.8432 89.1857 49.742C88.7879 49.6409 88.2474 49.5273 87.5643 49.4014C86.7224 49.2476 86.0372 49.1011 85.5088 48.962C84.9769 48.8134 84.4893 48.5958 84.0459 48.3091C83.6025 48.0224 83.2944 47.6392 83.1216 47.1594C82.9521 46.6889 82.9966 46.1043 83.255 45.4053C83.5194 44.6936 83.9149 44.0356 84.4413 43.4315C84.9643 42.8179 85.5033 42.4112 86.0584 42.2112C86.7264 41.9706 87.528 41.7615 88.4632 41.5841C89.4078 41.4033 90.1159 41.3183 90.5875 41.3291L91.777 44.6313L89.9707 45.2821C89.3514 44.6548 88.7445 44.2091 88.1498 43.945C87.5611 43.6682 87.0315 43.6144 86.5611 43.7839C86.2789 43.8856 86.09 44.0546 85.9945 44.291C85.8989 44.5273 85.902 44.7866 86.0036 45.0689C86.1121 45.3699 86.3236 45.6179 86.6383 45.8128C86.959 45.9949 87.3247 46.1395 87.7353 46.2467C88.1519 46.3411 88.7065 46.4496 89.399 46.5721C90.2154 46.7138 90.8831 46.856 91.4021 46.9985C91.9271 47.1282 92.4049 47.3335 92.8356 47.6141C93.2662 47.8948 93.5662 48.2703 93.7356 48.7408C93.9051 49.2112 93.8435 49.8073 93.5508 50.5292C93.2642 51.2383 92.8406 51.9065 92.2799 52.5336C91.7159 53.1513 91.1469 53.5635 90.573 53.7702C89.8768 54.021 89.0235 54.2487 88.013 54.4533C87.0025 54.6578 86.2568 54.7564 85.7758 54.749L84.5862 51.4467L86.3926 50.796C87.0435 51.4225 87.6945 51.8576 88.3456 52.1014C88.9967 52.3451 89.5763 52.3755 90.0844 52.1925C90.4231 52.0705 90.6573 51.8798 90.7871 51.6205C90.9263 51.3577 90.9485 51.0947 90.8536 50.8312ZM101.279 49.5788L95.8599 51.5309L95.499 50.529L96.4087 48.8939L93.755 41.5273L91.9937 41.6835L92.1515 40.3511L97.5706 38.399L97.9316 39.401L97.0128 41.0553L99.6614 48.4078L101.437 48.2465L101.279 49.5788ZM115.016 44.6306L109.173 46.7352L108.812 45.7332L110.176 44.2533L108.816 42.7344L104.695 44.2188L104.635 45.8667L107.002 46.2417L106.845 47.574L102.131 49.2719L101.77 48.2699L102.979 46.4474L103.336 36.8164L106.097 35.0088L113.467 43.1637L115.173 43.2983L115.016 44.6306ZM104.882 38.364L104.734 42.6901L107.783 41.592L104.882 38.364Z" fill="black"/>
</svg>
