<svg width="183" height="143" viewBox="0 0 183 143" fill="none" xmlns="http://www.w3.org/2000/svg">
<path d="M178.901 72.731C178.829 70.2429 179.402 69.004 179.271 67.0322C179.076 64.1145 176.879 59.1235 174.241 56.7325C172.91 55.5256 171.882 54.4085 171.751 53.2826C171.588 51.87 171.522 50.7827 172.087 49.2517C172.501 48.1296 172.943 47.162 173.25 45.7195C173.498 44.5538 173.235 43.0643 173.875 42.0228C174.002 41.8158 174.289 41.7666 174.457 41.5228C174.83 40.9829 175.368 39.4919 174.91 37.8198C174.66 36.9109 174.213 36.3467 173.701 35.6616C172.326 33.8213 171.432 31.4918 171.212 30.4263C171.005 29.4276 170.893 27.583 170.463 22.6476C170.257 20.2712 171.483 17.853 170.92 16.5445C170.67 15.9647 170.465 15.209 169.92 15.0932C169.339 14.9698 167.824 15.0608 167.595 13.9275C167.264 12.2917 170.103 8.88715 167.843 5.9031C167.344 5.24479 164.15 3.89886 161.69 3.0816C160.943 2.83349 159.677 3.16205 158.11 3.91945C155.873 5.00042 156.616 5.93284 155.837 7.07758C155.046 8.24209 153.345 11.382 152.132 12.3205C150.305 13.7331 148.045 13.0413 146.643 13.1831C144.563 13.3938 142.376 14.1374 140.827 14.7217C139.496 15.2241 137.935 15.8813 137.256 17.0943C137.092 17.3886 137.161 17.8257 137.007 18.1329C136.423 19.2987 135.62 20.3643 134.594 20.7063C133.596 21.0392 132.213 21.2334 131.103 21.7461C129.935 22.286 128.588 22.5409 127.107 23.0353C124.11 24.0365 122.121 25.104 119.17 24.9018C117.387 24.7796 114.749 24.5377 112.899 25.403C111.737 25.9466 110.669 25.9007 110.117 26.9402C109.408 28.278 107.499 29.5867 106.402 30.004C105.197 30.4628 101.229 30.7369 100.088 30.6332C98.6752 30.5047 97.7541 28.4671 94.5196 28.3016C92.1071 28.1781 91.6527 28.3246 88.933 28.051C85.2151 27.6769 79.6388 29.2786 78.3462 29.2218C75.4798 29.0959 74.6792 28.6155 71.5475 28.6383C65.897 28.6794 63.5145 29.4212 62.1904 29.0124C60.0223 28.3429 59.1189 28.0764 55.0838 27.06C52.6238 26.4403 50.2967 25.8452 47.1479 24.1911C45.5967 23.3762 41.7136 23.4913 37.7268 23.6094L37.5364 23.6151C34.7548 23.6974 32.6188 23.9546 31.6477 24.1138C30.1117 24.3656 29.0347 25.362 27.5296 25.3606C24.8752 25.3581 23.1684 24.0085 17.261 24.7372C14.8958 25.0289 13.4049 25.1784 11.9496 25.4017C10.5769 25.6124 8.83378 27.088 6.79662 28.1896C5.42015 28.9339 3.7589 29.139 3.59983 30.0211C3.43526 30.9338 3.72576 31.677 3.64347 32.5608C3.34549 35.7614 2.56835 37.596 3.31432 38.4557C3.85418 39.0778 4.45367 40.0492 5.48249 40.0316C8.17807 39.9855 9.81771 39.1478 10.628 39.9917C11.5893 40.9929 12.9397 41.9368 14.1203 42.6088C15.0753 43.1524 17.2346 43.0056 18.1088 44.1897C18.8157 45.1472 19.9108 45.8751 20.1436 46.8915C20.3917 47.975 17.2318 51.3744 20.8106 55.2089C21.8928 56.3684 22.3107 57.6487 23.3877 58.3196C24.3864 58.9418 25.3832 59.4284 26.7965 59.6475C28.1318 59.8544 29.5639 60.8687 31.0418 60.9778C33.8621 61.186 35.0877 60.9925 35.7709 61.686C35.9367 61.8543 36.0659 62.0754 36.1873 62.3518C36.8494 63.8591 37.0136 65.8712 37.7708 65.965C38.767 66.0884 40.3306 65.5315 41.4663 66.465C41.9213 66.839 43.1675 67.253 43.2504 68.6331C43.3327 70.0034 43.1118 71.0731 43.1245 72.0868C43.1681 75.5691 42.7851 78.0311 43.8339 79.3082C44.5845 80.2221 45.6394 80.9858 47.0369 82.3018C47.7414 82.965 48.5458 84.7961 48.0282 86.961C47.6516 88.5357 47.3698 90.5274 47.5307 92.0679C47.6566 93.2736 47.7966 94.9625 48.9907 95.14C49.821 95.2634 50.6903 94.6285 50.6464 94.8508C50.3996 96.1013 50.1997 97.4694 50.8983 98.4677C51.5666 99.4228 52.3965 100.252 52.852 101.252C53.3071 102.25 53.289 103.56 54.1412 104.159C54.9728 104.744 54.7344 106.332 55.6373 106.945C56.5537 107.567 57.1263 108.805 58.1309 109.104C58.5461 109.228 59.3909 108.723 62.8339 109.562C64.5332 109.976 65.7498 109.882 66.5269 110.769C67.4408 111.811 67.2111 114.001 68.3135 115.09C68.523 115.297 68.7703 115.373 69.3172 115.42C71.7646 115.631 73.0696 115.93 73.5077 116.961C74.0039 118.13 74.4189 119.369 75.2544 120.244C76.1683 121.202 76.8294 122.365 77.2468 123.695C77.6645 125.027 77.8892 126.997 79.036 127.307C79.4923 127.431 80.0072 127.479 80.491 127.681C81.4897 128.099 82.8182 128.263 83.4409 129.221C84.063 130.179 84.3947 131.174 84.7276 132.172C85.0605 133.171 84.6997 134.98 85.5604 135.828C85.7288 135.994 86.0461 136.002 86.2262 136.244C86.9706 137.246 87.1545 138.384 87.4693 138.652C88.0944 139.184 90.1911 138.735 90.7621 139.186C90.9054 139.257 91.0466 139.257 91.1414 139.184C91.2362 139.112 91.2752 138.966 91.3553 138.827C91.7125 138.208 93.0475 136.472 94.0181 135.119C94.5642 134.358 94.7127 130.503 96.3707 129.322C96.703 129.085 97.5386 128.275 98.4625 128.444C99.1269 128.566 99.8177 129.116 100.413 128.703C101.029 128.275 100.847 126.472 101.743 126.21C101.984 126.139 102.371 126.177 102.622 126.091C103.31 125.854 104.058 126.004 104.402 126.004C105.152 126.004 105.307 125.806 105.591 125.687C106.162 125.281 106.407 124.371 107.186 124.095C107.451 124 107.877 124.02 108.184 123.976C109.014 123.858 109.715 123.784 110.345 123.524C111.153 123.191 111.983 122.913 112.412 122.072C112.91 121.097 113.162 120.7 113.433 120.553C114.005 120.245 114.713 120.13 115.096 119.674C115.576 119.101 116.606 118.098 116.712 117.248C116.853 116.101 116.356 114.836 116.592 114.183C116.808 113.589 118.589 110.219 120.993 110.622C121.989 110.789 127.402 109.504 128.688 107.65C128.717 107.609 128.832 107.459 128.975 107.34C130.71 107.033 133.541 107.077 134.871 107.2C136.159 107.318 137.414 107.808 138.269 107.579L138.272 107.578C139.438 107.266 140.619 106.95 141.023 106.08C141.332 105.413 141.538 104.161 142.236 103.752C143.049 103.274 144.116 102.307 145.993 102.637C146.942 102.804 150.369 103.004 153.029 103.136L153.13 103.141C154.047 103.187 154.979 103.234 155.256 102.872C155.348 102.752 155.145 102.593 155.209 102.492C155.591 101.894 156.085 100.878 156.66 100.329C157.208 99.8066 157.803 99.4746 158.396 99.1172C159.543 98.4264 160.86 98.3255 162.081 97.8347C162.902 97.504 164.621 96.9563 165.335 96.7902C166.048 96.6697 166.788 96.4342 167.402 95.5283C167.837 94.8859 168.201 94.2095 168.678 93.3236L168.679 93.3233L168.733 93.2227C169.182 92.3893 169.666 91.7247 169.682 90.7966C169.704 89.4919 168.961 88.8877 169.255 87.7524C169.852 85.4425 170.327 82.7619 171.299 82.3883C171.607 82.27 171.987 82.135 172.562 82.1039C173.89 82.0319 174.578 82.0224 175.316 81.7702C176.077 81.51 176.98 81.5796 177.263 80.9133C177.597 80.1269 177.952 79.404 178.261 78.6555C178.595 77.8456 179.157 76.9146 179.139 76.111C179.114 74.9482 178.938 74.0023 178.901 72.731Z" fill="#587956" stroke="black" stroke-width="6" stroke-linecap="round"/>
<path d="M75.1686 83.1749L69.7495 85.127L69.3886 84.125L70.3389 82.6029L68.1327 76.4781L67.7315 85.854L66.2497 86.3878L59.8182 79.3775L62.177 85.9257L64.0084 85.9196L63.8506 87.252L59.9838 88.6449L59.6229 87.6429L60.5732 86.1207L57.9348 78.7965L56.1074 78.7692L56.2652 77.4368L60.7812 75.8101L66.4283 81.9708L66.793 73.6445L71.4501 71.9669L71.811 72.9688L70.8465 74.4961L73.5612 82.0321L75.3264 81.8426L75.1686 83.1749ZM79.3188 68.8135C80.4478 68.4068 81.5314 68.2875 82.5698 68.4555C83.6082 68.6235 84.5151 69.0462 85.2906 69.7234C86.066 70.4007 86.6469 71.2756 87.0332 72.3482C87.4298 73.4489 87.4383 74.5938 87.0588 75.7828C86.6887 76.9684 86.075 78.0238 85.2179 78.9491C84.3574 79.8649 83.4567 80.4923 82.5159 80.8312C81.3869 81.2379 80.3049 81.3619 79.2699 81.2033C78.2409 81.0319 77.334 80.6092 76.5491 79.9353C75.7737 79.258 75.1928 78.3831 74.8065 77.3106C74.4099 76.2098 74.3967 75.0667 74.7668 73.8811C75.1429 72.6827 75.7613 71.6256 76.6218 70.7097C77.479 69.7845 78.3779 69.1524 79.3188 68.8135ZM79.1815 70.9994C78.711 71.1688 78.3342 71.48 78.0509 71.9328C77.7736 72.3728 77.6139 72.9033 77.5719 73.5243C77.5393 74.1419 77.6416 74.78 77.8788 75.4386C78.1669 76.2383 78.5472 76.925 79.0196 77.4989C79.492 78.0727 80.0393 78.4708 80.6615 78.6931C81.2931 78.912 81.957 78.8961 82.6532 78.6453C83.1236 78.4758 83.4974 78.1711 83.7747 77.7311C84.058 77.2783 84.216 76.7431 84.2486 76.1255C84.2906 75.5045 84.193 74.8647 83.9558 74.2061C83.6643 73.397 83.2824 72.7055 82.8099 72.1317C82.3375 71.5578 81.7919 71.1645 81.1731 70.9516C80.551 70.7293 79.8871 70.7452 79.1815 70.9994ZM98.0152 64.8368L101.228 73.7557L99.7463 74.2895L90.6677 69.6678L92.5079 74.7765L95.111 74.6997L94.9532 76.0321L90.3808 77.6792L90.0199 76.6772L90.9296 75.0421L88.4488 68.1553L86.5095 67.8175L86.6673 66.4852L89.3628 65.5142L98.2009 69.9994L96.4318 65.0883L93.8479 65.1741L94.0057 63.8417L98.5781 62.1947L98.934 63.1825L98.0152 64.8368ZM113.625 66.3406L114.361 67.1912L112.339 69.7213C111.888 70.0327 111.439 70.2902 110.991 70.4939C110.553 70.6942 110.071 70.8892 109.544 71.079C108.359 71.506 107.223 71.644 106.138 71.4929C105.052 71.3419 104.105 70.9392 103.295 70.2848C102.491 69.6177 101.896 68.7479 101.51 67.6754C101.113 66.5746 101.119 65.4246 101.527 64.2255C101.941 63.0136 102.601 61.9412 103.509 61.0084C104.422 60.0628 105.378 59.4104 106.375 59.0512C106.996 58.8275 107.746 58.6371 108.625 58.48C109.513 58.3195 110.179 58.2497 110.622 58.2707L111.964 61.9963L110.158 62.647C109.46 61.9204 108.781 61.4528 108.122 61.244C107.468 61.0225 106.84 61.0201 106.238 61.2371C105.702 61.4302 105.264 61.7634 104.924 62.2365C104.59 62.6969 104.388 63.2426 104.318 63.8738C104.257 64.5016 104.345 65.1447 104.582 65.8033C104.87 66.603 105.26 67.2864 105.751 67.8535C106.239 68.4111 106.818 68.7926 107.487 68.998C108.156 69.2033 108.877 69.1671 109.648 68.8892L110.085 68.7316C110.452 68.5994 110.736 68.4866 110.936 68.3933L110.067 65.9801L107.564 66.2916L107.722 64.9593L113.847 62.753L114.208 63.755L113.289 65.4092L113.625 66.3406ZM119.575 54.3123C120.704 53.9056 121.787 53.7863 122.826 53.9543C123.864 54.1223 124.771 54.545 125.546 55.2222C126.322 55.8995 126.903 56.7744 127.289 57.847C127.686 58.9477 127.694 60.0926 127.315 61.2816C126.945 62.4672 126.331 63.5226 125.474 64.4479C124.613 65.3637 123.713 65.9911 122.772 66.33C121.643 66.7367 120.561 66.8607 119.526 66.7021C118.497 66.5307 117.59 66.108 116.805 65.4341C116.03 64.7568 115.449 63.8819 115.062 62.8094C114.666 61.7086 114.653 60.5655 115.023 59.3799C115.399 58.1815 116.017 57.1244 116.878 56.2085C117.735 55.2833 118.634 54.6512 119.575 54.3123ZM119.437 56.4982C118.967 56.6676 118.59 56.9788 118.307 57.4316C118.029 57.8716 117.87 58.4021 117.828 59.0231C117.795 59.6407 117.897 60.2788 118.135 60.9374C118.423 61.7371 118.803 62.4238 119.275 62.9977C119.748 63.5715 120.295 63.9696 120.917 64.1919C121.549 64.4108 122.213 64.3949 122.909 64.1441C123.379 63.9746 123.753 63.6699 124.031 63.2299C124.314 62.7771 124.472 62.2419 124.504 61.6243C124.546 61.0033 124.449 60.3635 124.212 59.7049C123.92 58.8958 123.538 58.2043 123.066 57.6305C122.593 57.0566 122.048 56.6633 121.429 56.4504C120.807 56.2281 120.143 56.244 119.437 56.4982ZM139.97 59.8318L130.642 63.1921L130.281 62.1901L131.231 60.6679L128.511 53.1178L126.765 53.3163L126.923 51.984L132.342 50.0319L132.703 51.0339L131.739 52.5611L134.514 60.2665L137.422 59.2192L138.511 55.2074L139.652 55.275L141.233 59.6639L139.97 59.8318ZM147.398 57.1401L141.979 59.0922L141.618 58.0902L142.528 56.4552L139.874 49.0885L138.113 49.2447L138.27 47.9124L143.69 45.9603L144.051 46.9622L143.132 48.6165L145.78 55.969L147.556 55.8078L147.398 57.1401ZM161.135 52.1918L155.292 54.2965L154.931 53.2945L156.295 51.8146L154.935 50.2957L150.814 51.7801L150.754 53.428L153.121 53.8029L152.964 55.1352L148.25 56.8332L147.889 55.8312L149.098 54.0086L149.455 44.3777L152.216 42.57L159.586 50.7249L161.292 50.8595L161.135 52.1918ZM151.001 45.9253L150.853 50.2513L153.902 49.1533L151.001 45.9253Z" fill="black"/>
</svg>
