<svg width="228" height="149" viewBox="0 0 228 149" fill="none" xmlns="http://www.w3.org/2000/svg">
<path d="M224.105 132.108C224.207 133.863 223.891 136.891 223.276 140.883L219.5 145C219 145.5 212.05 144.5 211.158 144.191C209.559 143.637 207.069 143.823 206.793 143.364C206.642 143.114 206.699 142.722 206.607 142.473C206.255 141.512 204.737 141.302 203.508 141.301C202.676 141.301 202.09 140.627 201.783 140.106C201.629 139.844 201.598 139.525 201.506 139.246C201.414 138.968 201.292 138.724 200.743 138.599C200.193 138.474 199.219 138.474 198.718 138.322C198.216 138.169 198.216 137.865 198.247 137.617L198.255 137.554C198.309 137.112 198.396 136.408 198.309 135.53C198.208 134.504 196.077 133.993 194.93 133.282C194.194 132.825 194.65 131.655 194.529 130.58C194.469 130.047 194.161 129.564 193.794 129.164C193.181 128.499 190.368 128.398 187.897 128.025C187.344 127.941 184.353 128.147 180.021 128.087C178.499 128.065 178.308 127.907 178.124 127.754L178.12 127.75C177.398 127.15 177.258 126.49 176.891 126.183C175.699 125.185 173.758 126.178 172.926 126.304C171.739 126.485 172.032 124.161 171.788 123.111C171.453 121.67 169.637 121.388 169.36 120.99C168.956 120.409 169.144 119.485 168.808 118.84C168.148 117.577 165.043 117.821 162.787 118.341C162.21 118.474 161.831 118.743 161.25 118.622C159.686 118.295 158.579 117.091 157.775 116.195C156.757 115.061 153.117 116.036 151.63 116.254C150.073 116.482 148.378 115.793 144.694 115.396C143.246 115.239 142.47 114.749 142.07 114.474C141.358 113.981 140.936 113.09 140.165 112.447C139.453 111.854 139.641 110.755 139.274 110.234C138.321 108.881 135.599 109.52 133.29 109.617C130.506 109.733 128.456 108.972 127.144 108.635C124.269 107.895 120.967 108.294 118.97 108.294C117.578 107.438 117 106.368 116.5 106C116.287 105.843 115.861 105.651 115.422 105.282C114.68 104.659 114.689 101.786 114.103 100.92C113.61 100.191 110.285 100.119 107.96 99.7827C105.792 99.469 103.809 99.4444 102.642 99.2904C101.744 99.172 101.043 98.1573 100.611 97.1422C100.115 95.9771 99.9332 94.1706 99.4741 93.0541C98.7223 91.2261 99.0112 88.2736 99.2251 86.5394C99.3385 85.6199 99.6861 84.6963 100.085 83.6812C100.306 83.1212 100.302 82.5426 100.119 82.0825C99.6348 80.8611 98.1556 81.0047 95.5197 80.8508C92.7611 80.6896 91.9452 80.0828 91.546 79.8071C90.3902 79.009 91.0841 76.5184 90.6553 76.3026C90.1573 76.052 87.9051 76.5165 84.5297 76.5774C82 76.623 80.4536 76.8853 79.0467 77.0375C74.6175 77.8073 72.6463 77.6856 71.7852 77.3786C71.5989 77.256 71.4776 77.0734 70.9834 76.8853C68.1843 75.5466 66.5598 74.6744 65.4008 74.3978C60.1233 73.1383 57.895 73.1384 57.0034 72.3399C55.9702 71.4147 54.0208 71.7849 53.6834 71.4788C52.855 70.7274 53.4031 69.3288 53.3441 68.2841C53.2768 67.0927 50.4048 67.116 48.4631 66.8975C46.3503 66.6597 44.3751 66.8652 41.3381 67.754C39.9173 68.1698 39.3927 69.2587 38.656 70.0599C38.2079 70.5472 37.3053 70.6158 36.3243 70.4941C35.2856 70.3653 34.5984 69.6349 34.1992 69.1139C34.0056 68.8613 33.9825 68.5322 33.8599 68.3146C33.3542 67.4173 31.9541 67.6673 31.7697 67.2691C31.2664 66.1817 32.1975 64.8406 32.2602 64.5022C32.4188 63.6462 27.7425 64.8996 25.0125 64.5326C24.6812 64.4881 24.5193 64.2874 24.3948 64.103C24.134 63.7165 24.2077 63.2418 24.1173 62.8435C23.8024 61.4553 22.0594 61.8884 21.5994 61.5528C20.9047 61.046 20.647 59.6203 19.8808 58.5757C18.8376 57.1534 16.959 58.1986 15.4553 58.2309C15.112 58.2382 14.9307 58.1396 14.8062 58.017C14.1154 57.3364 14.1304 55.6244 13.3329 54.8214C12.0662 53.546 9.70858 54.4517 8.78384 54.0534C8.05012 53.7374 7.61569 52.8548 6.85044 52.486C5.09491 51.64 3.20757 51.221 3.49986 50C3.8344 48.6025 4.79898 49.0574 5.49986 49C6.20074 48.9426 6.62609 48.306 6.85044 48.107C7.07479 47.9079 6.8471 46.4507 6.99986 45.5C7.69821 41.1539 6.86642 42.4663 7.75074 41.4737C8.42548 40.7163 9.59368 40.137 10.7862 38.7199C11.2341 38.1877 11.2001 37.18 11.5158 36.1053C11.6305 35.7148 11.8519 35.6454 12.0792 35.6313C12.5279 35.6035 15.3188 36.2304 15.9581 34.8958C16.2946 34.1933 15.6489 31.3794 17.7073 30.9621C18.9429 30.7116 21.2754 30.7209 22.7906 31.5567C23.607 32.0071 24.9966 32.928 25.8834 32.1716C26.812 31.3796 31.1568 31.7856 32.4318 30.1752C32.5439 30.0335 32.5828 29.8539 32.7135 29.697C33.276 29.0214 36.4224 27.5951 38.6756 26.6059C39.5747 26.2111 41.657 26.0653 41.8494 25.0295C41.9329 24.58 41.8032 23.7873 42.3285 23.3157C42.6093 23.0635 43.123 22.9533 43.6552 22.2977C45.3639 20.1925 44.8688 18.8616 45.7586 18.1986C46.096 17.9473 48.3619 18.4759 48.7671 16.4772C49.0176 15.2416 49.1935 14.1711 49.7531 14.0954C50.3705 14.0119 51.8703 14.3154 52.6747 13.5885C52.9547 13.3355 52.2809 11.3518 53.3503 11.0869C53.7998 10.9756 56.5958 11.5982 56.9196 9.7307C57.1145 8.60727 57.1421 7.59506 57.5109 7.51672C57.9039 7.43323 60.2325 7.4846 60.855 6.41859C61.0516 6.08207 61.2202 5.68566 61.3324 5.23696C61.3889 5.01092 61.4401 4.71507 62.1893 4.7056C64.3257 4.67861 66.0778 4.51571 66.3381 4.82031C66.8442 5.41239 67.3597 7.07454 68.3058 7.54709C69.0978 7.94265 70.4686 8.69717 75.5407 8.13495C77.3059 7.93928 78.1558 7.71004 79.25 7.34551C80.683 6.86813 83.4153 6.42753 86.1956 6.61848C87.4236 6.70282 88.5 6.9724 90.7054 7.06887C93.9062 7.20888 95.9977 7.31596 96.2517 7.03766C96.8699 6.36039 97.1858 5.48183 97.7977 4.75958C98.1064 4.39522 100.824 3.24723 104.366 4.65331C108.293 6.21195 110.07 8.76784 111.294 8.89572C111.827 8.95138 113.449 8.77617 115.149 7.76722C116.383 7.03513 116.635 5.54958 117.733 5.35166C118.35 5.24033 119.168 4.85285 119.865 5.07165C120.757 5.35166 122.233 5.99438 122.294 6.2352C122.355 6.47602 122.473 6.77145 122.532 7.46706C122.47 10.4724 121.649 12.2908 122.474 13.3372C123.132 14.1715 124.189 14.2353 124.862 14.9773C125.159 15.3049 125.14 17.0098 125.307 19.4024C125.456 21.5197 125.335 23.278 126.205 23.4507C126.652 23.5394 127.05 23.3317 127.611 23.2404C127.974 23.1813 128.704 23.1314 128.771 23.8205C129.098 27.1848 129.046 28.0978 129.606 29.0639C130.355 30.354 131.091 32.0082 132.145 32.3146C133.581 32.7317 134.891 32.0789 136.562 32.7317C137.635 33.1507 138.034 34.0431 139.402 34.7353C142.054 36.0764 144.427 36.7315 146.983 36.7299C149.875 36.7281 151.42 36.6222 152.557 36.7594L152.639 36.7694C153.869 36.9174 155.172 37.0741 155.269 38.0486C155.357 38.9429 155.331 39.6739 155.147 40.0145C154.759 40.7316 154.325 41.419 154.073 42.2544C153.685 43.5391 152.941 45.8124 153.838 46.6393C154.226 46.9965 155.415 47.6721 156.858 48.1917C159.003 48.9643 160.319 48.9861 161.299 48.8148C162.165 48.6635 164.492 47.0731 165.327 48.1613C165.624 48.5489 165.373 51.4446 166.701 51.5909C167.237 51.65 168.425 52.0035 169.087 53.0851C169.563 53.8631 169.327 55.6489 170.372 55.829C171.058 55.9472 171.745 55.9478 172.161 56.188C172.37 56.3089 172.63 56.4746 172.636 56.8183C172.664 58.3393 172.481 59.2821 172.396 60.068C172.306 60.9068 172.185 62.4578 172.337 63.7689C172.428 64.5451 173.071 65.1413 176.127 70.8082C176.5 71.5 176.703 72.1864 176.78 73.1455C176.962 74.2039 176.36 77.2122 177.402 76.6045C178.525 75.9501 180.487 74.9701 181.462 74.7684C182.706 74.511 183.738 74.1228 184.355 74.2272C184.511 74.2535 184.713 74.2973 184.741 74.6466C184.818 75.6027 184.887 76.45 185.156 76.8402C185.44 77.2527 185.723 77.7349 186.14 77.7164C187.358 77.6621 189.256 76.9031 189.654 77.6923C190.245 78.8655 189.821 81.2364 190.609 81.1536C190.867 81.1265 193.536 79.9737 194.228 81.259C194.746 82.2213 194.938 84.4669 195.83 84.359C196.504 84.2776 198.274 83.4526 199.217 84.1527C199.81 84.5939 201.353 84.7367 202.499 88.553C202.754 89.3997 202.405 90.3883 202.21 92.8641C202.081 94.5125 201.978 96.9177 202.085 98.0676C202.192 99.2175 202.497 99.0859 202.996 99.064C204.157 99.0128 205.012 99.0183 205.264 99.2214C205.393 99.3261 205.547 99.4734 205.547 99.6882C205.545 100.567 204.678 101.359 205.212 102.092C205.756 102.84 206.467 103.186 206.969 103.978C207.462 104.754 208.639 105.949 209.32 107.338C209.422 107.545 209.351 107.695 209.319 107.907C209.165 108.944 209.16 109.989 208.957 110.986C208.594 112.768 207.436 115.599 208.754 116.772C209.478 117.417 211.497 117.699 214.595 117.699C214.803 117.675 215.015 117.71 215.216 117.804C216.044 118.192 217.685 118.818 218.134 119.795C218.419 120.416 218.537 121.231 219.223 121.709C220.333 122.482 221.759 121.968 222.893 123.65C223.433 124.45 223.716 125.226 223.69 126.425C223.638 128.75 224.024 130.731 224.105 132.108Z" fill="#F68F58" stroke="black" stroke-width="6" stroke-linecap="round"/>
<path d="M97.6702 56.6887L90.9247 52.2698L91.7418 51.0226L94.2446 50.8044L99.2388 43.1806L88.4128 50.6242L86.5683 49.416L88.9964 36.3203L83.6569 44.4711L85.2053 46.5147L83.582 47.4597L78.7688 44.3066L79.5858 43.0594L82.0886 42.8412L88.061 33.7243L86.5533 31.657L88.1765 30.712L93.7978 34.3944L91.6597 45.8977L101.281 39.2966L107.078 43.0941L106.261 44.3413L103.741 44.548L97.5956 53.9285L99.2935 55.7437L97.6702 56.6887ZM110.87 65.3107L99.4345 57.8194L100.252 56.5721L102.754 56.3539L108.853 47.0437L107.207 45.1873L108.831 44.2423L119.739 51.3885L121.405 52.0274L118.298 56.7703L116.723 56.4918L116.661 51.7569L112.814 49.2368L110.029 53.4879L111.733 54.6041L114.201 53.6348L115.448 54.4518L112.18 59.4407L110.314 59.2227L110.587 56.2384L108.936 55.1567L105.956 59.7064L109.645 62.1229L114.574 60.1553L115.458 61.4878L112.121 66.582L110.87 65.3107ZM122.73 46.6698L116.119 45.9542L115.282 44.6272L119.417 42.4154L122.957 45.2118L122.73 46.6698ZM128.177 76.6481L121.607 72.3443L122.424 71.0971L124.347 71.1515L123.698 66.5087L119.494 67.3697L120.701 69.7422L119.078 70.6872L113.21 66.8437L114.027 65.5965L117.358 65.494L123.371 64.2864L122.134 56.0197L121.335 54.4419L122.958 53.4969L129.528 57.8007L128.711 59.0479L126.769 58.8305L127.431 63.5314L131.331 62.5972L130.118 60.1956L131.741 59.2506L137.608 63.0941L136.791 64.3413L133.746 64.4299L127.787 65.8234L129.08 74.5032L129.8 75.7031L128.177 76.6481ZM136.338 81.9942L129.592 77.5754L130.409 76.3281L133.004 75.9694L139.011 66.7998L137.354 64.9609L138.977 64.0159L145.723 68.4348L144.906 69.682L142.282 70.0468L136.286 79.1989L137.961 81.0492L136.338 81.9942ZM155.808 74.5144C156.534 74.99 157.32 75.6302 158.165 76.435C159.01 77.2397 159.59 77.8874 159.905 78.378L157.327 82.3128L155.079 80.8399C155.19 79.7246 155.079 78.7819 154.747 78.0118C154.426 77.2495 153.926 76.6458 153.247 76.2008C152.673 75.8249 152.02 75.6729 151.286 75.7449C150.573 75.8127 149.856 76.0884 149.138 76.5718C148.431 77.0629 147.81 77.7183 147.273 78.5381C146.667 79.4632 146.251 80.4043 146.026 81.3614C145.808 82.3067 145.837 83.1957 146.111 84.0283C146.386 84.8609 146.945 85.5534 147.788 86.1058C148.9 86.8346 150.792 87.3708 153.462 87.7142L153.419 89.5435L148.541 89.9381C147.872 89.7338 147.264 89.4863 146.718 89.1956C146.184 88.9126 145.618 88.5754 145.021 88.1842C143.65 87.2866 142.634 86.1939 141.971 84.9062C141.308 83.6185 141.026 82.2618 141.123 80.8359C141.228 79.3983 141.718 78.012 142.592 76.677C143.49 75.3068 144.752 74.3259 146.378 73.7342C148.023 73.1385 149.709 72.9288 151.434 73.1052C153.179 73.2775 154.637 73.7472 155.808 74.5144ZM170.769 84.3151C172.174 85.2357 173.22 86.3475 173.906 87.6505C174.592 88.9536 174.883 90.3239 174.778 91.7615C174.673 93.199 174.183 94.5853 173.309 95.9204C172.411 97.2906 171.138 98.2638 169.488 98.8402C167.85 99.4242 166.153 99.6262 164.397 99.4462C162.648 99.2545 161.188 98.775 160.017 98.0079C158.611 97.0873 157.562 95.9813 156.868 94.69C156.193 93.3946 155.903 92.0243 155.996 90.579C156.101 89.1415 156.591 87.7552 157.465 86.4201C158.363 85.05 159.631 84.0729 161.268 83.4889C162.926 82.9008 164.629 82.7026 166.377 82.8943C168.134 83.0743 169.598 83.5479 170.769 84.3151ZM168.208 86.0015C167.623 85.618 166.957 85.4583 166.212 85.5225C165.487 85.5827 164.759 85.8507 164.029 86.3265C163.31 86.8099 162.683 87.4614 162.146 88.2812C161.494 89.2766 161.045 90.2801 160.801 91.2917C160.557 92.3032 160.572 93.2506 160.847 94.1337C161.134 95.0245 161.711 95.7537 162.577 96.3214C163.163 96.705 163.819 96.8667 164.544 96.8065C165.289 96.7422 166.021 96.4684 166.739 95.985C167.469 95.5093 168.103 94.8615 168.64 94.0417C169.3 93.0346 169.752 92.0253 169.996 91.0137C170.24 90.0021 170.221 89.0607 169.938 88.1893C169.663 87.3062 169.086 86.5769 168.208 86.0015Z" fill="black"/>
</svg>
