<svg width="273" height="189" viewBox="0 0 273 189" fill="none" xmlns="http://www.w3.org/2000/svg">
<path d="M241.2 182.585C242.665 183.866 243.854 184.342 246.06 184.997C248.382 185.354 249.991 185.713 252.763 184.465C254.864 183.519 257.866 183.45 259.185 182.97C260.516 182.485 261.393 181.835 262.379 181.418C263.462 180.96 264.14 180.285 264.886 179.451C266.306 177.866 266.052 176.048 266.142 175.331C266.241 174.547 266.056 173.366 265.756 172.437C265.462 171.527 265.279 170.559 265.306 167.344C265.32 165.701 266.288 165.066 267.481 163.964C268.401 163.113 269.271 161.85 269.456 160.531C269.631 159.281 268.799 157.431 268.62 156.531C268.459 155.716 267.846 154.802 267.219 154.173C266.532 153.483 265.995 152.593 265.785 151.817L265.753 151.699C265.47 150.647 264.847 148.333 264.262 147.748C263.262 146.748 261.318 145.778 261.1 145.043C260.75 143.859 261.039 142.269 261.664 141.521C262.289 140.771 263.481 140.597 264.409 139.731C265.114 139.074 264.444 137.732 264.352 132.409C264.306 129.732 264.62 128.303 264.621 126.634C264.622 126.266 264.444 126.094 264.295 125.973C263.729 125.515 262.775 125.614 261.493 125.553C260.314 125.497 259.137 124.543 257.94 124.27L257.908 124.263C257.687 124.213 257.514 124.174 257.342 124.003C256.921 123.586 256.802 122.162 256.921 120.373C257.048 118.447 259.062 117.442 260.914 114.702C261.589 113.704 261.637 110.481 261.548 106.274C261.517 104.809 261.29 104.614 261.084 104.437L261.073 104.428C260.247 103.719 259.492 103.176 257.734 102.904C257.336 102.843 257.164 102.638 257.073 102.665C256.981 102.692 256.981 102.928 256.656 103.05C256.331 103.172 255.682 103.172 255.317 103.083C254.953 102.995 254.98 102.759 254.834 102.638C253.762 101.748 251.692 103.809 249.96 104.477C248.39 105.082 247.167 105.408 246.438 105.805C245.655 106.23 245.569 108.055 245.371 109.981C245.293 110.744 244.779 110.985 243.787 111.121C241.235 111.469 239.325 110.467 237.802 109.73C237.261 109.467 236.415 109.662 235.943 109.859C235.162 110.185 234.94 111.253 234.278 111.851C233.575 112.486 232.416 112.185 231.752 112.582C230.373 113.406 230.817 115.766 230.62 117.293C230.485 118.336 229.227 118.696 228.431 119.16C226.665 120.192 224.048 118.839 222.188 118.102C219.46 117.02 217.669 117.372 214.087 117.303C212.031 117.263 210.493 118.297 207.903 118.499C206.888 118.578 205.84 118.832 204.712 118.634C202.94 118.324 201.722 116.711 199.665 116.109C197.574 115.497 195.738 116.172 195.008 116.174C193.269 116.179 192.153 113.657 190.491 112.853C188.367 111.827 185.774 111.926 183.847 111.589C181.407 111.163 178.2 111.783 176.471 112.385C175.965 112.561 175.281 112.453 174.942 111.992C174.603 111.532 174.603 110.611 174.143 110.136C172.238 108.174 170.226 107.94 169.026 106.478L169.005 106.453C168.406 105.723 167.821 105.011 167.034 104.812C166.641 104.712 166.239 105.268 165.838 105.406C165.438 105.543 165.043 105.412 164.708 105.147C163.259 103.999 162.252 102.358 160.458 101.756C157.991 100.928 156.798 103.275 155.473 104.146C153.901 105.179 152.548 102.095 150.425 101.557C148.577 101.088 146.839 100.492 145.107 100.095C144.29 99.9083 143.51 99.4317 142.846 98.8356C142.228 98.2807 142.179 97.3067 141.782 96.6429C140.661 94.7666 136.737 95.8436 133.816 95.8396C133.132 95.8386 132.75 96.2343 132.481 96.5672C131.959 97.2131 131.813 98.0961 131.416 98.8257C131.212 99.2009 130.756 99.4237 130.356 99.4935C128.75 99.7731 127.695 98.1081 126.17 97.5041C125.807 97.3603 125.701 96.912 125.436 96.6429C123.179 94.3516 117.201 96.3698 115.539 96.8363C115.085 96.9636 114.546 96.904 114.209 96.7067C113.558 96.3251 113.474 95.3133 113.077 94.6495C112.253 93.2704 110.288 92.9252 109.224 91.3285C108.175 89.7548 106.437 88.5397 104.906 87.6048C104.308 86.945 103.642 86.4068 102.386 86.2074C101.525 86.1396 100.262 85.2476 98.6451 85.1107C98.031 85.0587 96.4145 85.4162 95.1342 85.2146C93.8028 85.0049 94.4711 82.6723 94.2664 81.1948C93.8817 78.4191 87.0367 80.0199 86.4775 79.5631C85.3929 78.677 85.3041 77.1721 84.8962 75.9483C84.4972 74.7513 84.3874 73.5052 83.5226 72.4847C82.5854 71.3784 82.8596 69.8384 82.4516 68.6147C82.2484 68.0051 82.1445 67.0883 82.195 66.0204C82.2651 64.534 83.6693 63.9257 84.1277 63.42C85.5656 61.8335 83.7763 60.0603 83.622 58.5829C83.5515 57.9079 83.3668 57.3072 83.5181 56.748C83.8755 55.4267 85.298 54.5601 85.9611 53.4876C86.1176 53.2344 86.618 53.3317 86.8762 53.1805C87.9616 52.5447 88.152 50.6916 88.3063 49.1103C88.3722 48.4349 88.5614 47.7337 88.3598 46.9209C87.888 45.0196 86.3247 44.1708 85.5608 43.0983C84.4081 41.4799 82.4532 43.3489 81.894 43.3504C80.5936 43.3539 81.0262 40.8096 80.0102 39.6362C78.8872 38.6676 78.1752 37.9526 77.2127 37.7998C76.5527 37.7478 74.6242 37.1746 73.5886 36.8311C72.9806 36.6294 72.0639 36.1192 71.6055 35.4118C70.6687 33.9659 71.0463 32.2507 70.3344 31.6411C69.2372 30.7016 67.6912 29.4059 66.6645 27.5709C65.0633 24.7092 65.7478 23.0867 65.3399 21.8629C64.9358 20.6508 63.7127 19.7255 63.2513 18.4009C62.6787 16.7569 62.6921 15.4476 62.5378 12.1948C62.4887 11.1597 62.2827 9.95042 62.1314 8.47453C61.9678 6.87835 60.1498 6.37834 58.926 5.46317C58.3794 5.05438 57.6014 5.05218 56.839 4.90093C55.3533 4.60617 55.2577 3.11795 54.6481 3.01558C53.4335 2.81163 52.5106 4.74051 51.2364 5.81305C50.088 6.77967 47.7316 6.27445 46.0922 6.57849C44.5614 6.86239 42.5308 6.68391 41.1527 6.27598C40.3976 6.05245 39.0688 5.96888 37.5425 6.06972C35.8089 6.18425 34.7878 7.90007 33.0567 8.30953C31.2894 8.72757 30.5068 9.73652 29.998 10.0406C28.9022 10.6954 28.8751 12.0772 28.8231 12.6868C28.7089 14.0274 29.587 16.5415 29.0798 18.543C28.713 19.9902 28.4687 21.2411 28.1111 23.4733C27.1103 29.7222 28.6703 31.0192 28.924 32.6464C29.0337 33.3502 28.9759 34.466 28.8246 35.1383C28.6085 36.099 27.4542 36.4217 26.3312 36.9304C25.2446 37.4227 25.7186 39.2695 25.4634 40.8997C25.3687 41.5046 24.3955 41.4146 23.8363 41.5659C23.2137 41.7343 22.9685 42.6338 22.7133 43.2434C22.4772 43.8075 22.8646 44.6689 22.7637 45.5841C22.6788 46.3544 21.9509 46.8109 21.1901 47.1165C19.3419 47.8587 18.0824 46.6093 17.3185 47.1639C16.8229 47.5237 17.0588 48.8277 16.5546 49.3991C16.0504 49.9705 15.0421 49.9705 14.4218 50.1217C13.8015 50.273 13.5998 50.5755 13.0864 50.8872C12.5792 51.1897 11.5648 52.2073 10.9491 53.3272C9.42926 56.0916 10.2387 61.7776 9.98048 63.1053C9.68507 64.6243 9.32198 66.465 8.75974 67.6888C8.13416 69.0505 7.07912 70.3335 6.92481 71.6612C6.77401 72.9587 5.65518 74.1042 4.53528 74.7703C3.3846 75.4547 3.30843 76.8543 3.05481 78.431C2.94967 79.0847 3.00286 80.0994 3.15412 80.6693C3.52547 82.0684 4.93405 82.9656 5.69949 84.1894C6.39063 85.2944 7.58025 86.1252 8.55043 87.1442C9.38081 88.0165 9.92701 89.0769 10.2845 90.4016C10.5226 91.2836 10.4373 92.1357 10.6909 92.7453C11.2354 94.0539 12.7749 94.4794 13.8978 94.9881C15.0194 95.4963 15.0177 97.3272 16.1377 97.9934C17.3339 98.7049 18.5807 99.0629 19.8045 99.8252C21.182 100.683 21.3369 102.216 21.5905 104.146C22.2158 108.903 21.948 111.27 22.1497 113.868C22.2198 114.771 22.7547 114.751 23.1642 114.7C23.9847 114.599 24.695 114.445 25.2542 114.596C27.0833 115.091 26.2229 118.518 26.8829 118.772C27.2404 118.925 27.6438 119.126 29.2129 119.23C30.7819 119.334 29.9566 119.248 32.7617 119.248C33.2617 119.248 33.1503 120.245 33.8623 121.469C34.0479 121.788 34.2687 122.078 34.5238 122.284C35.9421 123.431 38.7483 123.099 43.8788 123.609C46.053 123.825 46.4852 127.065 47.816 127.736C48.9154 128.29 49.0398 130.023 49.8022 131.196C50.5966 132.419 52.1932 132.675 53.417 133.337C54.6408 133.998 55.86 134.814 57.0838 135.323C58.5483 135.932 59.2213 137.46 59.9378 138.479C60.6461 139.487 64.092 139.196 66.4021 139.752C68.9358 140.362 69.6105 141.641 71.1368 141.894C73.8584 142.346 75.4132 142.252 76.7883 142.453C78.2131 142.662 77.9647 144.996 78.5774 146.169C78.8933 146.774 79.6973 147.138 80.3069 147.646C80.8309 148.084 83.3458 148.057 86.6046 147.906C88.5139 147.818 89.4724 146.328 90.8474 145.97C91.2939 145.854 91.9108 145.918 92.3233 146.07C93.7122 146.579 94.3614 147.954 95.5852 148.615C96.7353 149.237 98.0282 149.481 99.3529 150.091C100.46 150.6 100.986 151.721 101.443 152.23C102.401 153.297 104.445 152.843 105.415 153.808C106.449 154.837 107.806 155.489 109.03 156.001C110.194 156.487 111.473 156.509 112.697 156.867C113.284 157.039 113.82 157.524 114.886 158.089C115.244 158.141 115.647 158.141 116.006 158.242C116.365 158.343 116.663 158.552 116.979 158.752C117.762 159.248 119.934 159.978 120.712 160.129C124.624 160.176 125.844 159.565 127.067 158.749C129.85 158.141 134.058 158.726 135.837 158.702C139.701 158.648 141.139 157.521 144.387 157.887C146.638 158.141 149.24 157.662 151.311 158.551C152.737 159.162 154.207 159.441 155.485 159.976C156.709 160.488 157.396 162.426 159.267 162.573C163.841 162.932 165.293 163.966 166.536 164.764C167.813 165.585 169.439 166.391 170.148 166.391C170.634 166.391 171.219 165.719 171.429 165.689C171.64 165.66 171.876 165.66 171.994 165.569C172.112 165.3 172.502 165.166 172.561 164.791C172.65 164.224 171.826 163.146 172.413 162.853C172.771 162.675 173.372 162.293 176.477 162.467C179.128 162.616 183.433 163.039 184.021 162.196C184.229 161.898 183.814 159.939 184.708 160.08C186.032 160.288 187.973 160.227 188.588 159.51C188.945 159.092 188.775 158.107 189.183 157.12C189.602 156.106 190.183 155.22 190.945 154.766C191.693 154.319 192.678 153.499 193.722 154.083C194.798 154.684 195.331 155.878 196.108 156.261C196.288 156.349 196.475 156.374 196.645 156.289C197.002 156.109 197.445 155.618 198.287 155.124C199.152 154.616 200.515 153.441 201.749 153.484C203.643 153.549 206.131 154.15 208.934 154.171L209.215 154.173C212.975 154.202 215.657 154.222 216.163 154.652C216.758 155.159 217.104 155.712 217.444 155.964C218.132 156.471 218.846 156.954 220.012 156.887C221.061 156.826 222.911 157.232 223.682 156.436C224.699 155.386 225.561 153.704 229.454 153.453C232.695 153.245 239.142 153.365 238 152.797L237.978 152.787C237.807 152.701 237.657 152.627 238.041 152.619C239.385 152.589 240.6 152.637 240.839 153.01C241.107 153.427 241.689 153.981 241.942 154.741C242.181 155.458 242.357 156.186 242.718 159.644C242.955 161.904 242.941 165.152 242.507 167.845C242.359 168.768 242.085 170.715 242.33 172.92C242.479 174.258 243.436 175.342 242.776 176.944C242.357 177.961 240.221 179.7 240.539 181.181C240.629 181.597 240.681 182.132 241.2 182.585Z" fill="#F68F58" stroke="black" stroke-width="6" stroke-linecap="round"/>
<path d="M56.2833 93.087L52.2991 103.742L50.5288 103.081L45.8095 91.8034L43.5273 97.9067L45.9688 99.8573L44.7901 100.954L39.3275 98.9114L39.7751 97.7143L41.8768 96.9244L44.9533 88.6968L43.441 86.8822L44.6197 85.7856L47.84 86.9897L52.4452 97.9551L54.6391 92.0878L52.2082 90.1604L53.3869 89.0637L58.8495 91.1063L58.4082 92.2865L56.2833 93.087ZM71.475 98.6136L69.3883 104.194C68.947 105.374 68.2653 106.273 67.3431 106.889C66.4322 107.509 65.4529 107.867 64.4053 107.962C63.3618 108.046 62.4186 107.93 61.5756 107.615C60.4403 107.19 59.5051 106.591 58.7698 105.816C58.0499 105.034 57.5821 104.161 57.3663 103.197C57.1659 102.225 57.2486 101.25 57.6142 100.272L60.0981 93.6294L58.3462 92.4555L59.525 91.3588L65.9992 93.7796L65.5516 94.9767L63.4834 95.6254L61.4156 101.156C61.0206 102.212 60.9927 103.143 61.3319 103.949C61.6754 104.744 62.4203 105.355 63.5668 105.784C64.0052 105.948 64.4841 105.986 65.0037 105.899C65.5387 105.804 66.0371 105.568 66.4988 105.189C66.9718 104.815 67.3301 104.302 67.5739 103.65L69.8497 97.5639L68.0238 96.0741L69.2026 94.9774L73.9908 96.7678L73.5432 97.9649L71.475 98.6136ZM80.8619 114.442L69.8861 110.338L70.3337 109.141L72.385 108.486L75.7262 99.5498L73.9996 98.3085L75.1784 97.2119L85.6484 101.127L87.1612 101.347L85.4591 105.899L84.0898 105.963L83.1443 102.016L79.452 100.635L77.9264 104.716L79.5618 105.327L81.4419 104.051L82.639 104.498L80.8486 109.287L79.2476 109.457L78.9123 106.91L77.3275 106.317L75.6947 110.684L79.2353 112.008L82.985 109.432L83.976 110.379L82.1478 115.268L80.8619 114.442ZM100.993 109.901L93.1896 118.436L89.2601 117.947L88.8473 104.763L87.3901 103.315L88.5689 102.219L95.5489 104.829L95.1013 106.026L92.7041 106.321L92.9596 115.814L99.027 109.146L97.152 106.965L98.3308 105.869L103.962 107.974L103.514 109.172L100.993 109.901ZM111.871 126.036L104.89 123.426L105.338 122.229L107.735 121.934L107.67 119.488L102.747 117.647L101.412 119.109L103.287 121.289L102.109 122.386L96.4774 120.281L96.925 119.083L99.4461 118.354L107.25 109.819L111.179 110.308L111.592 123.492L113.049 124.94L111.871 126.036ZM107.463 112.435L103.969 116.279L107.611 117.641L107.463 112.435ZM126.864 129.605L128.626 130.803L127.448 131.899L121.142 129.541L121.59 128.344L123.641 127.689L124.309 125.902L122.346 117.02L121.35 116.033L122.192 114.81L128.329 117.105L127.881 118.302L126.47 118.735L127.684 124.07L131.838 121.338L129.955 119.231L131.134 118.134L136.765 120.24L136.317 121.437L133.828 122.236L128.207 126.014L126.864 129.605ZM145.743 123.213C147.092 123.717 148.176 124.449 148.996 125.409C149.816 126.369 150.318 127.46 150.501 128.682C150.685 129.903 150.538 131.155 150.058 132.436C149.567 133.751 148.686 134.805 147.415 135.599C146.156 136.396 144.775 136.886 143.273 137.067C141.774 137.237 140.463 137.112 139.339 136.691C137.99 136.187 136.904 135.461 136.08 134.512C135.272 133.556 134.77 132.465 134.575 131.24C134.391 130.018 134.539 128.766 135.018 127.485C135.51 126.17 136.385 125.114 137.644 124.316C138.919 123.511 140.305 123.024 141.803 122.854C143.306 122.673 144.619 122.792 145.743 123.213ZM143.921 125.106C143.359 124.896 142.772 124.888 142.162 125.083C141.566 125.27 141.008 125.632 140.488 126.167C139.979 126.707 139.577 127.37 139.283 128.157C138.925 129.113 138.74 130.036 138.727 130.928C138.714 131.82 138.905 132.609 139.302 133.295C139.71 133.986 140.33 134.487 141.162 134.798C141.724 135.008 142.302 135.019 142.898 134.832C143.509 134.638 144.069 134.271 144.578 133.731C145.098 133.195 145.506 132.534 145.8 131.747C146.161 130.78 146.349 129.851 146.362 128.959C146.375 128.067 146.181 127.284 145.78 126.609C145.384 125.922 144.764 125.422 143.921 125.106ZM162.471 144.956L158.492 143.469L157.668 136.627L157.111 135.957L157.995 135.135L158.686 135.393C159.192 135.582 159.659 135.552 160.085 135.301C160.516 135.04 160.856 134.577 161.104 133.914C161.377 133.184 161.404 132.528 161.186 131.946C160.983 131.358 160.516 130.927 159.786 130.654C159.348 130.49 158.889 130.466 158.41 130.582L154.892 139.99L156.642 141.22L155.463 142.317L148.989 139.896L149.437 138.699L151.539 137.909L154.829 129.108L153.096 127.884L154.275 126.787L157.58 128.023C158.524 128.376 159.469 128.691 160.416 128.968C161.108 129.175 161.61 129.338 161.925 129.456C162.847 129.8 163.603 130.262 164.193 130.842C164.799 131.414 165.198 132.044 165.39 132.73C165.581 133.417 165.551 134.097 165.299 134.772C165.013 135.536 164.411 136.118 163.493 136.518C162.586 136.922 161.563 137.122 160.424 137.119L161.773 138.085L162.319 142.536L163.65 143.86L162.471 144.956ZM171.312 146.706L170.134 147.802L163.659 145.382L164.107 144.185L166.209 143.395L169.499 134.594L167.767 133.369L168.945 132.273L175.42 134.693L174.972 135.89L172.847 136.691L169.563 145.475L171.312 146.706ZM177.788 150.664L173.893 149.208L171.825 140.863L178.063 138.468L176.506 136.618L177.685 135.521L183.063 137.532L182.616 138.729L175.731 141.363L177.482 148.09L178.967 149.568L177.788 150.664Z" fill="black"/>
</svg>
