<svg width="290" height="208" viewBox="0 0 290 208" fill="none" xmlns="http://www.w3.org/2000/svg">
<path d="M34.5837 165.698C34.8603 164.746 34.7996 164.132 35.3509 155.53C35.4136 154.973 35.4745 154.79 35.599 154.636C35.906 154.36 36.4592 154.115 37.229 153.869C38.1833 153.623 39.6453 153.455 40.7639 153.162C42.0593 152.823 43.2616 152.278 44.0203 152.025C44.3882 151.902 46.0161 151.581 47.2224 152.891C48.8782 154.689 49.7674 157.076 50.9665 157.529C52.0167 157.927 53.4091 158.023 53.4845 158.765C53.6062 159.962 53.524 161.042 53.8542 161.371C54.1612 161.677 54.924 162.052 55.7599 162.754C55.9443 162.909 56.0872 163.09 56.1269 163.998C56.3131 168.257 56.8739 169.859 56.74 172.901C56.6819 174.22 57.0592 175.601 56.7086 176.895C56.184 178.833 55.4096 180.579 55.6659 181.686C55.7581 182.084 56.834 182.582 57.082 183.747C57.4785 185.608 57.5502 188.216 58.2566 188.261C59.7004 188.352 63.0708 187.874 63.4732 189.434C63.6871 190.262 63.8924 191.493 64.7686 191.673C65.6583 191.856 67.0859 192.275 70.0294 192.596C73.355 192.958 75.1281 191.857 78.6876 191.857C79.6722 192.04 80.5297 192.164 82.8079 192.256C83.8495 192.471 84.8247 192.46 86.5941 192.439H86.5946L86.6 192.439C89.2111 192.409 91.638 192.914 93.8588 193.056C97.2046 193.27 99.5229 193.447 100.201 193.485C100.752 193.515 103.218 191.059 107.45 192.04C107.727 192.104 107.697 192.719 107.727 192.934C107.695 193.333 107.45 193.736 107.575 194.103C107.923 195.129 108.349 196.574 109.173 197.175C109.976 197.76 112.122 197.559 112.277 198.841C112.429 200.1 112.333 201.441 112.831 201.846C113.168 202.121 114.793 201.383 116.524 202.213C118.281 203.056 121.402 204.682 123.345 204.178C124.173 203.963 124.809 203.606 125.155 203.1C125.956 201.927 126.9 200.486 128.076 200.09C129.53 199.6 131.642 199.766 132.162 198.983C132.775 198.059 133.031 196.94 134.129 196.156C134.558 195.85 135.348 196.088 135.85 195.634C136.155 195.357 136.452 195.026 136.74 194.619C137.263 193.88 137.877 193.145 138.982 191.487C138.982 189.788 139.37 186.655 139.325 185.697C139.194 184.478 139.107 182.456 139.371 180.796C139.812 179.743 139.606 177.756 140.777 177.204C142.273 176.498 144.945 176.569 145.64 175.45C146.296 174.394 146.838 173.37 147.481 172.557C148.316 171.502 149.019 170.282 149.628 169.137C150.419 167.647 150.275 165.838 151.428 165.196C151.739 165.023 152.31 165.114 152.609 164.889C153.133 164.494 152.474 161.873 155.073 161.426C157.087 161.078 158.659 160.862 158.741 160.241C158.828 159.585 159.009 158.852 159.621 158.49C161.032 157.655 163.233 158.314 164.266 157.483C164.702 157.132 164.621 156.007 165.493 155.334C166.459 154.589 167.736 154.104 168.56 152.922C169.351 151.786 170.615 151.485 171.409 150.513C171.802 150.032 171.153 147.747 172.065 145.027C172.68 143.193 172.844 141.701 173.907 140.96C174.345 140.655 174.987 140.622 175.353 140.215C175.746 139.777 176.39 139.288 176.359 138.411C176.267 135.83 175.463 134.7 176.011 133.33C176.798 131.36 176.429 128.876 177.281 127.417C177.587 126.893 178.169 126.708 178.509 126.279C179.343 125.223 179.535 123.514 180.173 122.421C180.479 121.897 181.035 121.4 181.71 120.844C183.203 119.612 184.165 118.191 184.598 116.898C185.039 115.583 186.197 114.411 185.559 112.822C185.297 112.168 184.342 112.095 184.289 111.554C184.247 111.116 184.582 110.179 185.081 108.791C185.475 107.695 186.279 106.77 186.659 105.548C187.053 104.276 187.139 103.048 187.842 101.955C188.547 100.858 190.025 100.406 190.867 99.2818C191.26 98.7572 191.007 97.7598 191.478 96.8258C192.233 95.331 193.347 93.1532 194.462 91.6983C195.031 90.9555 196.34 91.1476 196.695 90.4296C196.956 89.9037 196.791 88.301 198.146 88.1091C199.065 87.979 200.412 88.2986 201.651 88.0644C202.13 87.9737 202.304 87.7134 202.391 87.4044C202.478 87.0954 202.478 86.7484 202.522 86.396C202.567 86.0437 202.637 85.5857 203.412 85.523C205.559 85.3495 208.398 85.6595 208.924 84.4226C209.314 83.5036 209.379 82.5145 209.932 82.06C210.198 81.8418 210.541 81.7235 211.612 81.6222C216.687 81.1423 218.529 79.5175 220.187 80.3548C220.71 80.619 221.356 82.0492 222.685 81.8431C223.253 81.755 223.883 81.7075 224.306 81.2698C225.538 79.9958 227.125 79.239 228.559 78.994C230.361 78.6864 232.502 77.1272 233.814 77.9462C234.031 78.0816 233.99 78.5528 234.344 78.6022C236.23 78.8652 237.355 80.2724 238.951 80.4863C241.925 80.8846 243.068 82.2449 245.389 81.5788C246.306 81.3158 246.77 80.8264 247.226 80.3048C248.415 78.9441 248.542 76.6224 249.636 75.9688C250.074 75.7072 251.394 75.2113 252.928 75.7098C254.547 76.2357 256.606 77.2965 257.482 76.1844C258.138 75.3522 258.519 72.636 260.067 72.6399C260.592 72.6412 263.608 73.3899 265.283 71.7156C265.851 71.1477 266.204 69.7978 267.392 69.57C268.748 69.3096 269.911 69.3636 270.277 68.956C270.671 68.5182 270.348 66.9611 271.515 66.2818C272.185 65.8913 273.653 66.1568 274.138 65.6678C274.788 65.0104 274.705 64.1344 275.142 63.8732C275.58 63.6116 276.047 63.1319 276.767 63.041C278.475 62.8253 280.704 63.7289 280.924 62.6452C281.194 61.3213 282.903 59.5116 284.478 58.5695C285.574 57.9135 286.896 57.5 286.5 57.5L286.169 56.8608C286.029 56.7181 285.965 56.5057 285.78 56.1886C284.9 54.6717 284.019 53.5395 283.245 52.3146C282.642 51.3611 282.223 49.9355 281.164 48.8982C280.951 48.6889 280.672 48.6889 280.46 48.7968C280.249 48.9046 280.056 49.1399 280.04 49.0388C279.97 48.615 280.244 47.0264 279.262 46.3963C278.769 46.0802 277.675 45.3899 276.048 45.2346C273.835 45.0232 271.589 45.5888 270.701 44.5993C270.385 44.2473 270.258 43.7726 269.961 43.3647C269.112 42.1988 268.122 41.3806 267.247 41.0773C266.224 40.7232 264.477 39.8904 263.725 40.7285C263.408 41.0804 263.272 42.5928 262.35 42.8045C262.208 42.8372 261.947 42.7143 261.786 42.1248C260.939 39.0235 260.992 36.5226 259.175 36.0374C258.261 35.7932 257.404 36.0704 256.994 35.79C256.783 35.6452 256.612 35.3006 256.43 33.8282C255.937 29.8484 257.223 24.4913 255.191 23.8065C252.694 22.9651 251.721 22.5237 251.252 21.7675C250.724 20.9187 250.352 19.0103 249.455 17.996C248.678 17.1176 246.087 18.1553 245.896 16.6092C245.581 14.0712 245.457 11.8549 245.086 11.1602C244.805 10.6338 242.558 11.1662 242.233 9.96361C242.128 9.57674 242.306 8.34449 241.56 7.24916C241.274 6.83058 240.809 6.96425 240.539 6.79464C239.228 5.97227 238 3.50001 237.477 3.87089L224.5 7.00004C224.079 7.13957 220.992 7.18153 219.865 7.5684C218.03 8.19853 216.345 8.94466 213.881 9.29559C210.38 9.79419 207.398 8.31044 204.964 8.83684C203.809 9.08654 202.392 9.43512 200.277 9.78922C199.634 9.897 199.215 10.211 198.898 10.7025C198.551 11.2404 198.65 11.9022 198.195 12.2891C196.767 13.5012 194.71 12.6823 192.842 13.1696C192.131 13.355 191.606 14.2256 190.763 14.8598C189.46 15.8394 186.896 15.4221 184.703 15.605C184.266 15.6414 183.928 15.2911 183.435 15.3228C182.273 15.3974 181.457 16.2001 181.14 16.7973C180.982 17.094 181.032 17.4643 180.927 17.6789C180.512 18.5314 179.133 18.737 177.27 19.2993C175.721 19.7667 175.398 21.6967 174.695 22.1544C173.138 23.1679 170.191 22.1956 168.531 22.2971C165.146 22.5041 163.912 22.9693 162.472 22.722C159.028 22.1308 157.147 21.9842 156.056 22.0856C153.536 22.3201 151.723 22.3351 150.804 21.7368C149.685 21.008 146.797 22.0518 144.853 21.9461C143.091 21.8503 142.349 23.3879 141.327 24.2684C140.515 24.9675 137.643 25.4259 135.586 26.0326C133.547 26.6339 132.066 25.5738 128.722 25.6108C127.55 25.6238 126.844 25.0855 126.073 24.7314C124.001 23.7806 123.25 26.2757 122.406 26.8772C120.606 28.159 115.94 28.8126 114.231 28.8876C113.804 28.9064 112.617 29.5166 111.102 30.3611C109.95 31.0033 109.864 32.7574 108.56 33.6062C107.41 34.3543 105.568 34.3134 104.576 34.5935C104.182 34.7047 104.292 35.5776 103.559 36.6304C100.935 40.4023 98.5202 39.4548 96.8279 41.3521C95.678 42.6413 94.994 43.4715 93.902 43.8953C93.5839 44.0359 93.2351 44.2452 92.7414 44.353C92.2478 44.4609 91.6199 44.4609 90.973 44.2494L89.7417 47.4871C89.5303 48.1073 89.4933 48.8263 88.8305 49.7036C86.3094 53.0409 84.2102 51.5788 83.6141 51.7522C81.4063 52.3941 81.5359 54.4645 80.6174 54.9941C80.2213 55.2224 79.5614 55.4518 78.9621 55.9433C78.4667 56.3496 78.923 57.4918 78.8183 58.4421C78.7739 58.8456 78.5044 59.0436 78.1873 59.1514C76.6767 59.665 75.4728 59.5404 75.05 60.0298C73.6083 61.6985 74.3439 63.0603 73.6061 63.7315C72.6574 64.5946 71.7373 64.5443 71.4202 65.0676C69.8282 67.6944 70.8917 69.3327 70.3304 69.8961C69.7043 70.5246 68.2892 70.2523 67.2671 70.3569C66.8649 70.3981 67.0842 71.5842 66.8749 72.6412C66.5761 74.1507 64.1288 73.212 63.4946 73.3166C63.2581 73.3557 63.2789 73.6306 63.3836 73.7384C63.4882 73.8462 63.6975 73.8462 63.8053 74.0555C64.0971 74.6218 63.9131 75.3937 63.8085 75.8863C63.7103 76.3484 62.3022 76.3831 60.5782 76.7668C58.9298 77.1337 58.6301 78.9876 58.1735 79.4453C56.6375 80.9848 52.7847 80.5351 51.6558 81.2433C49.9519 82.3122 47.2142 81.738 46.8622 81.9483C45.8673 82.5429 46.2988 84.4841 45.7714 84.9767C45.3489 85.3712 44.1213 85.4735 42.6415 85.7875C41.5969 86.009 42.0686 87.5855 41.7536 88.0072C40.8657 89.196 39.815 88.9258 39.2188 89.0315C38.8363 89.0993 38.2738 89.0674 37.9863 90.2534C36.4953 96.4039 35.9399 97.5194 35.2698 98.994C34.3149 101.095 34.9527 103.227 34.496 103.931C34.1279 104.499 33.124 104.5 32.2784 104.744C31.5223 104.963 31.9211 106.189 31.7107 106.576C31.2425 107.437 29.8134 107.599 27.1729 107.846C25.9614 107.959 26.4943 109.711 26.0408 110.24C25.1473 111.281 23.5367 110.35 23.115 110.244C22.906 110.192 22.6932 110.208 22.5854 110.627C22.271 111.847 22.2683 112.884 21.8465 113.131C21.0655 113.587 19.1797 113.591 17.9704 114.187C16.9002 114.714 15.7211 115.7 14.7296 116.826C13.7776 117.907 13.459 119.085 13.2127 119.297C13.1319 119.367 13.0362 119.091 12.8259 119.228C11.3196 120.204 10.7826 121.129 10.2552 121.271C9.79363 121.395 9.30277 121.059 8.84508 121.27C7.96479 121.674 8.10622 123.45 6.9086 124.545C5.99004 125.357 5.00701 126.199 4.12333 126.977C3.94575 127.188 3.49997 127.5 3.66246 127.755L7.32262 134.693C7.38532 134.881 7.44617 135.063 7.63333 135.155C8.12474 135.246 8.92318 135.37 9.87651 135.308C10.0923 135.309 10.3321 135.359 10.3661 135.713C10.4574 136.666 10.2702 138.292 11.1074 138.506C12.305 138.812 13.7583 138.888 13.8696 139.861C13.9609 140.66 13.0275 141.752 13.8705 143.148C14.1471 143.606 16.5229 142.981 16.8209 144.35C17.0348 145.332 16.9901 146.817 16.9103 149.194C16.7877 152.847 16.4688 155.529 16.4189 156.895C16.2953 160.272 16.2643 161.717 17.0062 162.356C18.1504 163.341 20.028 163.379 20.5088 164.229C20.9089 164.937 20.3869 167.81 21.6797 167.977C22.3859 168.068 23.8808 167.881 24.0437 168.847C24.2871 170.29 24.3118 171.469 24.5037 171.913C24.5968 172.129 24.7146 172.37 25.6258 172.403C28.176 172.494 30.256 172.269 30.6201 171.63C30.8645 171.201 31.0697 170.065 31.9118 168.923C32.5886 168.006 34.1579 167.164 34.5837 165.698Z" fill="#F68F58" stroke="black" stroke-width="6" stroke-linecap="round"/>
</svg>
