<svg width="290" height="208" viewBox="0 0 290 208" fill="none" xmlns="http://www.w3.org/2000/svg">
<path d="M34.8987 165.678C35.1753 164.726 35.1145 164.112 35.6659 155.51C35.7286 154.953 35.7894 154.77 35.9139 154.616C36.2209 154.341 36.7741 154.095 37.544 153.849C38.4982 153.603 39.9602 153.435 41.0788 153.142C42.3742 152.803 43.5765 152.258 44.3353 152.005C44.7031 151.883 46.331 151.561 47.5373 152.871C49.1932 154.669 50.0823 157.056 51.2815 157.509C52.3316 157.907 53.724 158.003 53.7994 158.745C53.9211 159.942 53.839 161.022 54.1691 161.351C54.4761 161.657 55.239 162.032 56.0748 162.734C56.2592 162.889 56.4021 163.071 56.4418 163.978C56.628 168.237 57.1888 169.839 57.0549 172.881C56.9968 174.2 57.3741 175.581 57.0236 176.876C56.499 178.814 55.7246 180.559 55.9808 181.666C56.073 182.064 57.1489 182.562 57.397 183.727C57.7934 185.588 57.8651 188.196 58.5716 188.241C60.0154 188.332 63.3857 187.854 63.7881 189.414C64.002 190.242 64.2073 191.473 65.0835 191.653C65.9732 191.836 67.4009 192.255 70.3443 192.576C73.6699 192.938 75.4431 191.837 79.0025 191.837C79.9872 192.02 80.8446 192.144 83.1228 192.236C84.1644 192.451 85.1397 192.44 86.909 192.419H86.9095L86.9149 192.419C89.526 192.389 91.9529 192.894 94.1737 193.036C97.5196 193.25 99.8378 193.427 100.516 193.465C101.067 193.495 103.533 191.039 107.765 192.02C108.042 192.084 108.012 192.699 108.042 192.914C108.01 193.313 107.765 193.716 107.889 194.083C108.238 195.109 108.664 196.554 109.488 197.155C110.291 197.74 112.437 197.539 112.592 198.821C112.744 200.08 112.648 201.421 113.146 201.826C113.483 202.101 115.108 201.363 116.839 202.193C118.596 203.036 121.717 204.662 123.66 204.158C124.488 203.943 125.124 203.586 125.47 203.08C126.271 201.907 127.215 200.466 128.391 200.07C129.845 199.58 131.957 199.746 132.477 198.963C133.09 198.039 133.346 196.92 134.444 196.136C134.873 195.83 135.663 196.069 136.165 195.614C136.47 195.337 136.767 195.006 137.055 194.599C137.578 193.86 138.192 193.125 139.297 191.467C139.297 189.768 139.685 186.636 139.64 185.677C139.509 184.458 139.422 182.436 139.686 180.776C140.127 179.723 139.921 177.736 141.092 177.184C142.588 176.478 145.26 176.549 145.955 175.43C146.611 174.374 147.153 173.35 147.796 172.538C148.63 171.482 149.334 170.263 149.943 169.117C150.734 167.627 150.59 165.818 151.742 165.176C152.054 165.003 152.625 165.094 152.924 164.869C153.448 164.474 152.789 161.854 155.388 161.406C157.402 161.059 158.974 160.842 159.056 160.221C159.143 159.565 159.324 158.832 159.936 158.47C161.347 157.635 163.548 158.294 164.581 157.463C165.017 157.112 164.936 155.987 165.808 155.314C166.774 154.569 168.051 154.084 168.875 152.902C169.666 151.766 170.93 151.465 171.724 150.493C172.117 150.012 171.467 147.727 172.38 145.007C172.995 143.173 173.159 141.681 174.222 140.94C174.66 140.635 175.302 140.603 175.668 140.195C176.061 139.757 176.705 139.268 176.674 138.391C176.582 135.81 175.778 134.68 176.325 133.31C177.113 131.34 176.744 128.856 177.596 127.397C177.902 126.873 178.484 126.688 178.823 126.259C179.658 125.203 179.85 123.494 180.488 122.401C180.794 121.877 181.35 121.38 182.025 120.824C183.518 119.592 184.48 118.171 184.913 116.878C185.354 115.563 186.512 114.391 185.874 112.802C185.611 112.148 184.656 112.076 184.604 111.534C184.562 111.096 184.897 110.159 185.396 108.771C185.79 107.675 186.594 106.75 186.974 105.528C187.368 104.257 187.454 103.028 188.157 101.935C188.862 100.838 190.34 100.386 191.182 99.2619C191.575 98.7373 191.322 97.7399 191.793 96.8059C192.548 95.3111 193.662 93.1333 194.777 91.6785C195.346 90.9356 196.655 91.1277 197.01 90.4097C197.271 89.8838 197.106 88.2811 198.46 88.0892C199.379 87.9591 200.727 88.2787 201.966 88.0445C202.445 87.9538 202.619 87.6935 202.706 87.3845C202.793 87.0755 202.793 86.7285 202.837 86.3761C202.882 86.0238 202.952 85.5658 203.727 85.5031C205.874 85.3296 208.713 85.6396 209.239 84.4027C209.629 83.4837 209.694 82.4946 210.247 82.0401C210.513 81.8219 210.856 81.7036 211.927 81.6023C217.002 81.1224 218.844 79.4976 220.502 80.3349C221.025 80.5991 221.671 82.0293 223 81.8232C223.568 81.7351 224.198 81.6876 224.621 81.2499C225.853 79.976 227.44 79.2191 228.874 78.9741C230.676 78.6665 232.817 77.1073 234.129 77.9263C234.346 78.0617 234.305 78.5329 234.659 78.5823C236.545 78.8453 237.67 80.2525 239.266 80.4664C242.24 80.8647 243.383 82.225 245.704 81.5589C246.621 81.296 247.085 80.8065 247.541 80.2849C248.73 78.9242 248.857 76.6025 249.951 75.9489C250.389 75.6873 251.709 75.1914 253.243 75.6899C254.861 76.2158 256.921 77.2766 257.797 76.1645C258.453 75.3323 258.834 72.6161 260.382 72.62C260.907 72.6213 263.923 73.37 265.598 71.6957C266.166 71.1278 266.519 69.7779 267.707 69.5501C269.063 69.2897 270.226 69.3437 270.592 68.9361C270.985 68.4983 270.663 66.9412 271.83 66.2619C272.5 65.8714 273.968 66.1369 274.452 65.6479C275.103 64.9905 275.02 64.1145 275.457 63.8533C275.895 63.5917 276.362 63.112 277.082 63.0211C278.79 62.8054 281.019 63.709 281.239 62.6253C281.509 61.3014 283.218 59.4917 284.793 58.5496C285.889 57.8936 287.211 57.4801 286.815 57.4801L286.484 56.8409C286.344 56.6982 286.28 56.4858 286.095 56.1687C285.215 54.6518 284.334 53.5196 283.56 52.2947C282.957 51.3412 282.538 49.9156 281.479 48.8783C281.266 48.669 280.987 48.669 280.775 48.7769C280.564 48.8847 280.371 49.12 280.355 49.0189C280.285 48.5951 280.559 47.0065 279.577 46.3764C279.084 46.0603 277.99 45.37 276.363 45.2147C274.15 45.0033 271.904 45.5689 271.016 44.5794C270.7 44.2274 270.573 43.7527 270.276 43.3448C269.427 42.1789 268.437 41.3607 267.561 41.0574C266.539 40.7033 264.792 39.8705 264.039 40.7086C263.723 41.0606 263.587 42.5729 262.665 42.7846C262.523 42.8173 262.262 42.6944 262.101 42.1049C261.254 39.0036 261.307 36.5027 259.49 36.0175C258.576 35.7733 257.719 36.0505 257.309 35.7701C257.098 35.6253 256.927 35.2807 256.745 33.8083C256.252 29.8286 257.538 24.4714 255.506 23.7866C253.009 22.9452 252.036 22.5038 251.566 21.7476C251.039 20.8988 250.667 18.9904 249.77 17.9761C248.993 17.0977 246.402 18.1354 246.211 16.5893C245.896 14.0513 245.772 11.835 245.401 11.1403C245.12 10.6139 242.873 11.1463 242.548 9.94371C242.443 9.55684 242.621 8.32459 241.875 7.22926C241.589 6.81068 241.124 6.94435 240.854 6.77474C239.543 5.95237 238.315 3.48011 237.792 3.851L224.815 6.98015C224.394 7.11967 221.307 7.16163 220.18 7.54851C218.345 8.17863 216.66 8.92476 214.196 9.27569C210.695 9.77429 207.713 8.29054 205.279 8.81694C204.124 9.06665 202.707 9.41522 200.592 9.76933C199.948 9.8771 199.53 10.1911 199.213 10.6826C198.866 11.2205 198.965 11.8823 198.51 12.2692C197.082 13.4813 195.025 12.6624 193.157 13.1497C192.446 13.3351 191.921 14.2057 191.078 14.8399C189.775 15.8195 187.211 15.4022 185.018 15.5851C184.581 15.6215 184.243 15.2712 183.749 15.3029C182.588 15.3775 181.772 16.1802 181.455 16.7774C181.297 17.0741 181.347 17.4444 181.242 17.659C180.826 18.5115 179.448 18.7171 177.585 19.2794C176.036 19.7468 175.713 21.6768 175.01 22.1345C173.453 23.148 170.506 22.1757 168.846 22.2772C165.461 22.4842 164.227 22.9494 162.786 22.7021C159.343 22.1109 157.462 21.9643 156.371 22.0658C153.851 22.3002 152.038 22.3152 151.119 21.7169C150 20.9881 147.112 22.0319 145.168 21.9262C143.406 21.8304 142.664 23.368 141.642 24.2485C140.83 24.9476 137.958 25.406 135.901 26.0127C133.862 26.614 132.381 25.5539 129.037 25.5909C127.865 25.6039 127.159 25.0656 126.388 24.7115C124.316 23.7607 123.565 26.2558 122.721 26.8573C120.921 28.1391 116.255 28.7927 114.546 28.8677C114.119 28.8865 112.932 29.4967 111.417 30.3412C110.265 30.9834 110.179 32.7375 108.875 33.5863C107.725 34.3344 105.883 34.2935 104.891 34.5736C104.497 34.6848 104.607 35.5577 103.874 36.6105C101.25 40.3824 98.8352 39.4349 97.1428 41.3322C95.993 42.6214 95.3089 43.4516 94.217 43.8754C93.8988 44.016 93.55 44.2253 93.0564 44.3331C92.5627 44.441 91.9349 44.441 91.288 44.2295L90.0566 47.4672C89.8452 48.0874 89.8082 48.8064 89.1454 49.6838C86.6244 53.021 84.5252 51.5589 83.929 51.7323C81.7213 52.3742 81.8509 54.4446 80.9323 54.9742C80.5362 55.2025 79.8764 55.4319 79.277 55.9234C78.7816 56.3297 79.2379 57.4719 79.1333 58.4222C79.0888 58.8257 78.8193 59.0237 78.5022 59.1315C76.9917 59.6451 75.7878 59.5205 75.365 60.0099C73.9233 61.6786 74.6589 63.0404 73.9211 63.7116C72.9723 64.5747 72.0522 64.5244 71.7351 65.0477C70.1431 67.6745 71.2066 69.3128 70.6453 69.8762C70.0192 70.5047 68.6042 70.2324 67.582 70.3371C67.1799 70.3782 67.3992 71.5643 67.1899 72.6213C66.891 74.1308 64.4437 73.1921 63.8095 73.2967C63.573 73.3358 63.5939 73.6107 63.6985 73.7185C63.8032 73.8263 64.0125 73.8263 64.1203 74.0356C64.412 74.6019 64.2281 75.3738 64.1234 75.8664C64.0253 76.3285 62.6172 76.3632 60.8932 76.7469C59.2447 77.1138 58.9451 78.9677 58.4884 79.4254C56.9525 80.9649 53.0997 80.5152 51.9708 81.2234C50.2668 82.2923 47.5291 81.7181 47.1771 81.9284C46.1822 82.523 46.6138 84.4642 46.0863 84.9568C45.6638 85.3513 44.4363 85.4536 42.9564 85.7676C41.9119 85.9892 42.3835 87.5656 42.0685 87.9873C41.1807 89.1761 40.1299 88.9059 39.5338 89.0116C39.1512 89.0794 38.5888 89.0475 38.3013 90.2335C36.8102 96.384 36.2549 97.4995 35.5847 98.9741C34.6298 101.075 35.2676 103.208 34.811 103.911C34.4428 104.479 33.4389 104.48 32.5933 104.724C31.8373 104.943 32.236 106.169 32.0257 106.556C31.5575 107.417 30.1283 107.579 27.4879 107.826C26.2763 107.939 26.8092 109.691 26.3558 110.22C25.4622 111.261 23.8517 110.33 23.4299 110.224C23.2209 110.172 23.0082 110.188 22.9003 110.607C22.586 111.827 22.5832 112.865 22.1615 113.111C21.3804 113.567 19.4946 113.571 18.2854 114.167C17.2151 114.694 16.036 115.68 15.0445 116.806C14.0925 117.887 13.774 119.065 13.5277 119.278C13.4468 119.347 13.3511 119.071 13.1408 119.208C11.6345 120.184 11.0976 121.109 10.5701 121.251C10.1086 121.375 9.61772 121.04 9.16002 121.25C8.27973 121.654 8.42116 123.431 7.22354 124.525C6.30499 125.337 5.32195 126.179 4.43827 126.957C4.26069 127.168 3.81491 127.48 3.97741 127.735L7.63756 134.673C7.70026 134.861 7.76111 135.044 7.94827 135.135C8.43969 135.226 9.23812 135.35 10.1914 135.288C10.4072 135.289 10.6471 135.339 10.681 135.694C10.7723 136.646 10.5852 138.272 11.4223 138.486C12.6199 138.792 14.0732 138.868 14.1845 139.842C14.2758 140.64 13.3424 141.732 14.1855 143.128C14.4621 143.587 16.8379 142.961 17.1358 144.33C17.3497 145.313 17.305 146.797 17.2252 149.174C17.1026 152.827 16.7838 155.509 16.7338 156.875C16.6103 160.252 16.5792 161.697 17.3211 162.336C18.4653 163.321 20.343 163.359 20.8237 164.209C21.2239 164.918 20.7018 167.79 21.9946 167.957C22.7009 168.049 24.1958 167.861 24.3586 168.827C24.602 170.271 24.6268 171.449 24.8187 171.893C24.9118 172.109 25.0295 172.35 25.9407 172.383C28.4909 172.474 30.571 172.249 30.9351 171.61C31.1794 171.181 31.3846 170.045 32.2268 168.903C32.9035 167.986 34.4729 167.144 34.8987 165.678Z" fill="#F68F58" stroke="black" stroke-width="6" stroke-linecap="round"/>
<path d="M81.7196 121.126C83.1124 120.186 84.5423 119.652 86.0094 119.524C87.4765 119.396 88.8525 119.658 90.1374 120.311C91.4223 120.964 92.511 121.953 93.4034 123.276C94.3194 124.634 94.7239 126.185 94.6168 127.929C94.5213 129.665 94.0507 131.308 93.2048 132.858C92.3511 134.396 91.344 135.557 90.1833 136.34C88.7905 137.279 87.3645 137.819 85.9053 137.959C84.4498 138.079 83.0738 137.817 81.7773 137.172C80.4924 136.519 79.4037 135.53 78.5112 134.207C77.5953 132.849 77.185 131.302 77.2805 129.566C77.3797 127.81 77.8562 126.163 78.7099 124.625C79.5557 123.075 80.559 121.909 81.7196 121.126ZM82.2834 124.14C81.7031 124.531 81.2984 125.083 81.0693 125.795C80.8439 126.487 80.8093 127.262 80.9653 128.119C81.133 128.969 81.4909 129.8 82.0389 130.612C82.7043 131.599 83.4561 132.4 84.2943 133.017C85.1325 133.634 86.0119 133.986 86.9327 134.074C87.865 134.155 88.7606 133.905 89.6195 133.326C90.1998 132.934 90.6027 132.393 90.828 131.7C91.0571 130.988 91.0879 130.208 90.9202 129.358C90.7641 128.501 90.4121 127.666 89.8641 126.854C89.1908 125.855 88.4351 125.048 87.5969 124.431C86.7587 123.815 85.8832 123.468 84.9703 123.391C84.0495 123.303 83.1539 123.553 82.2834 124.14ZM113.704 119.968L109.596 122.74L102.539 118.887L101.526 118.962L101.344 117.565L102.057 117.084C102.58 116.732 102.866 116.268 102.918 115.693C102.961 115.107 102.752 114.471 102.29 113.786C101.781 113.032 101.177 112.561 100.477 112.375C99.7806 112.169 99.0553 112.32 98.3009 112.829C97.8482 113.135 97.5146 113.554 97.3001 114.087L103.853 123.802L106.207 122.973L106.45 124.836L99.7648 129.345L98.931 128.109L99.6046 125.578L93.4748 116.49L91.1378 117.306L90.8947 115.444L94.307 113.142C95.282 112.484 96.2218 111.8 97.1266 111.088C97.7917 110.572 98.2867 110.204 98.6117 109.985C99.5634 109.343 100.514 108.938 101.465 108.77C102.419 108.582 103.287 108.63 104.069 108.913C104.851 109.196 105.477 109.686 105.947 110.382C106.479 111.172 106.624 112.138 106.382 113.281C106.151 114.416 105.648 115.523 104.874 116.603L106.705 115.976L111.302 118.473L113.461 118.106L113.704 119.968ZM126.259 111.5L114.925 119.145L114.091 117.909L114.859 115.517L108.635 106.289L106.286 107.088L106.043 105.226L116.855 97.9334L118.088 96.6453L121.259 101.346L120.393 102.69L116.003 100.914L112.19 103.486L115.032 107.699L116.721 106.56L116.782 103.91L118.018 103.076L121.353 108.02L120.43 109.656L117.784 108.249L116.148 109.353L119.189 113.862L122.845 111.396L122.939 106.09L124.51 105.79L127.915 110.839L126.259 111.5ZM141.018 96.8333L142.31 97.7349L140.434 101.863C139.928 102.44 139.407 102.944 138.869 103.374C138.344 103.796 137.756 104.227 137.106 104.665C135.643 105.651 134.15 106.228 132.624 106.396C131.099 106.563 129.675 106.342 128.352 105.732C127.032 105.102 125.926 104.126 125.033 102.802C124.117 101.444 123.73 99.8817 123.872 98.1142C124.018 96.3273 124.547 94.645 125.458 93.0675C126.374 91.4705 127.447 90.2571 128.677 89.4273C129.443 88.9106 130.395 88.3948 131.534 87.88C132.685 87.3573 133.564 87.0342 134.173 86.9105L137.273 91.5067L135.045 93.0098C133.849 92.263 132.767 91.8611 131.8 91.8042C130.837 91.7279 129.984 91.9402 129.241 92.4413C128.579 92.8875 128.099 93.49 127.8 94.2488C127.505 94.9882 127.418 95.7983 127.54 96.679C127.672 97.552 128.013 98.3947 128.561 99.2071C129.226 100.194 129.99 100.988 130.851 101.589C131.705 102.178 132.621 102.497 133.6 102.546C134.578 102.595 135.544 102.299 136.495 101.657L137.035 101.293C137.488 100.988 137.834 100.737 138.074 100.542L136.066 97.5648L132.776 98.8465L132.533 96.984L140.089 91.8875L140.922 93.1236L140.243 95.6842L141.018 96.8333ZM144.966 78.4654C146.359 77.5259 147.789 76.9921 149.256 76.8638C150.723 76.7355 152.099 76.9979 153.384 77.651C154.669 78.3042 155.757 79.2923 156.65 80.6155C157.566 81.9734 157.97 83.5244 157.863 85.2685C157.768 87.0047 157.297 88.6478 156.451 90.1977C155.598 91.7361 154.59 92.8968 153.43 93.6796C152.037 94.6191 150.611 95.1588 149.152 95.2987C147.696 95.4192 146.32 95.1567 145.024 94.5114C143.739 93.8583 142.65 92.8701 141.758 91.547C140.842 90.189 140.432 88.6419 140.527 86.9057C140.626 85.1501 141.103 83.5031 141.956 81.9647C142.802 80.4147 143.805 79.2483 144.966 78.4654ZM145.53 81.4794C144.95 81.8708 144.545 82.4225 144.316 83.1343C144.09 83.8267 144.056 84.6015 144.212 85.4588C144.38 86.3083 144.737 87.1392 145.285 87.9517C145.951 88.9382 146.703 89.7399 147.541 90.3566C148.379 90.9734 149.258 91.3258 150.179 91.414C151.112 91.4944 152.007 91.2449 152.866 90.6656C153.446 90.2742 153.849 89.7323 154.075 89.0399C154.304 88.3281 154.334 87.5474 154.167 86.698C154.011 85.8407 153.659 85.0058 153.111 84.1934C152.437 83.1952 151.682 82.3877 150.843 81.771C150.005 81.1543 149.13 80.8076 148.217 80.731C147.296 80.6428 146.4 80.8922 145.53 81.4794ZM168.978 66.6515L176.399 77.6545L174.571 78.8875L160.663 75.7302L164.914 82.0325L168.421 81.035L168.664 82.8976L163.023 86.7023L162.189 85.4662L162.863 82.9348L157.132 74.4388L154.384 74.6458L154.141 72.7833L157.466 70.5404L171.002 73.5949L166.915 67.5363L163.437 68.5395L163.194 66.677L168.835 62.8722L169.657 64.0909L168.978 66.6515Z" fill="black"/>
</svg>
