<svg width="151" height="102" viewBox="0 0 151 102" fill="none" xmlns="http://www.w3.org/2000/svg">
<path d="M146.866 77.4509C147.299 86.7861 148 93 147.299 93.7273L145.121 93.4489C144.346 93.7731 143.584 94.199 142.475 94.4495C140.913 94.8027 137.901 96.0471 136.379 95.2207C135.962 94.9943 135.622 94.7644 135.021 94.4108C133.055 93.2544 130.769 94.2741 129.638 92.7687C128.929 91.8262 128.294 90.5374 127.54 89.3761C126.286 87.4447 125.965 86.4649 124.96 85.671C124.348 85.1882 123.196 84.5049 122.153 84.9985C121.057 85.5172 119.014 86.9631 116.572 88.0969C115.185 88.7413 112.727 89.3412 109.662 89.6432C107.697 89.8367 105.458 88.5091 102.527 87.1157C99.8245 85.8307 97.8935 84.9668 96.4697 85.0624C94.5373 85.192 93.211 85.5897 92.7365 85.3827C91.2531 84.7353 90.2801 83.8241 89.2221 84.2244C88.0251 84.6773 86.6087 85.6026 85.6428 86.2903C84.739 86.9338 83.8267 87.7797 77.9229 87.4157C76.3534 87.3189 75.3871 86.9934 73.8917 86.9319C70.7391 86.8022 69.3692 87.3474 65.51 87.2879C63.3735 87.2551 61.0074 88.1253 60.1618 87.7379C59.3868 87.3828 58.2061 87.3048 57.1602 86.8661C55.7717 86.2835 54.7138 84.9665 52.6338 85.0002C48.6368 85.0648 47.5463 85.0824 45.9346 85.5791C44.6786 85.9661 43.9799 86.5307 42.9669 86.6106C41.3228 86.7403 39.8034 86.7909 39.1002 87.8066C38.2225 89.0742 38.7844 91.2619 37.0362 93.9066C36.3569 94.9342 35.449 95.3303 34.8425 96.1603C34.2281 97.0011 33.5474 97.9762 32.6479 98.2552C31.7122 98.5455 29.7712 99.267 29.2621 98.0568C28.8131 96.9895 27.5 95 27.5338 93.6724C27.9011 79.2517 20.5489 76.1837 16.3167 72.6781C12.5742 69.5781 11.7783 55.2813 9.89196 46.4188C9.39927 44.104 6.53515 43.4909 5.22218 42.0423C1.10314 37.4976 6.22879 32.4183 6.23754 26.5887C7.41483 23.0121 9.5866 22.836 10.1774 23.2693C10.7683 23.7026 16.0167 20.2495 16.5988 19.8031C17.4697 18.4901 22.2015 13.6438 25.0988 11.8031C31.5192 7.72416 28.4905 8.87241 30.5988 8.3031C33.6966 7.46657 32.6562 13.1971 34.3972 12.6124C36.1435 12.0259 37.8343 4.98411 44.4721 3.41726C47.5313 2.69513 50.747 3.01757 53.3652 3.57481C57.4573 4.44574 61.1928 6.96126 65.0331 6.63402C66.7793 6.48522 70.449 1.36626 76.7097 3.86804C81.0906 5.61866 86.5777 10.6581 91.8963 7.49182C96.5574 4.71709 101.839 1.85408 105.297 3.72361C108.803 5.61866 112.997 5.51888 118.576 8.691C119.884 9.43501 120.753 10.8536 120.751 12.4942C120.742 18.7658 117.616 23.0821 119.736 32.0399C120.182 33.9262 121.049 34.5039 122.077 34.7927C123.106 35.0816 124.261 35.0816 124.987 35.528C125.714 35.9744 126.003 36.841 125.701 38.167C125.399 39.4931 123.9 41.6294 124.545 41.944C125.425 42.3729 129.545 40.6329 132.134 43.2613C132.716 43.8522 132.993 44.7286 133.596 45.4496C135.92 48.2287 139.075 50.1568 140.892 54.4959C142.923 59.3452 138.456 67.991 142.494 72.0021C143.807 73.3064 146.69 73.6669 146.866 77.4509Z" fill="#87AD6A" stroke="black" stroke-width="6" stroke-linecap="round"/>
<path d="M45.224 49.14C45.824 49.14 46.2973 48.8933 46.644 48.4C46.9907 47.9067 47.164 47.2267 47.164 46.36C47.164 45.4267 46.9373 44.6667 46.484 44.08C46.044 43.48 45.3907 43.18 44.524 43.18C44.004 43.18 43.5173 43.3333 43.064 43.64V54.7L46.764 55.4L45.964 57H36.884V55.58L38.764 54.1V43.56L36.484 42.88L37.284 41.28H41.204C42.324 41.28 43.4307 41.24 44.524 41.16C45.324 41.1067 45.9107 41.08 46.284 41.08C47.3773 41.08 48.344 41.2867 49.184 41.7C50.0373 42.1133 50.6973 42.68 51.164 43.4C51.6307 44.12 51.864 44.92 51.864 45.8C51.864 46.76 51.4773 47.6733 50.704 48.54C49.944 49.3933 48.9773 50.0667 47.804 50.56C46.644 51.04 45.524 51.2533 44.444 51.2L43.604 50.72L44.404 49.12H45.224V49.14ZM65.8805 57H52.8605V55.58L54.7405 54.1V43.5L52.4605 42.88L53.2605 41.28H65.6805L67.3405 40.92V46.32L65.9405 46.92L63.4205 43.18H59.0405V48.02H60.9805L62.4405 45.96H63.8605V51.64L62.2605 52.44L60.9205 49.92H59.0405V55.1H63.2405L66.1405 50.96L67.5405 51.56V57.36L65.8805 57ZM85.3449 57H80.6249L77.1049 50.2L76.2649 49.72L76.8649 48.52H77.6849C78.2849 48.52 78.7583 48.3067 79.1049 47.88C79.4516 47.44 79.6249 46.8267 79.6249 46.04C79.6249 45.1733 79.3983 44.48 78.9449 43.96C78.5049 43.4267 77.8516 43.16 76.9849 43.16C76.4649 43.16 75.9783 43.3133 75.5249 43.62V54.78L77.8249 55.38L77.0249 56.98H69.3449V55.56L71.2249 53.92V43.48L68.9449 42.88L69.7449 41.28H73.6649C74.7849 41.28 75.8916 41.24 76.9849 41.16C77.7849 41.1067 78.3716 41.08 78.7449 41.08C79.8383 41.08 80.8049 41.2667 81.6449 41.64C82.4983 42 83.1583 42.5 83.6249 43.14C84.0916 43.78 84.3249 44.5 84.3249 45.3C84.3249 46.2067 83.9249 47.0467 83.1249 47.82C82.3383 48.5933 81.3516 49.2 80.1649 49.64L81.9449 50.12L84.2449 54.54L86.1449 55.4L85.3449 57ZM101.807 44.18V50.8C101.807 52.2 101.447 53.4 100.727 54.4C100.021 55.4 99.1406 56.1533 98.0873 56.66C97.0339 57.1533 96.0073 57.4 95.0073 57.4C93.6606 57.4 92.4539 57.14 91.3873 56.62C90.3339 56.0867 89.5073 55.36 88.9073 54.44C88.3206 53.5067 88.0273 52.46 88.0273 51.3V43.42L85.7473 42.88L86.5473 41.28H94.2273V42.7L92.3273 44.18V50.74C92.3273 51.9933 92.6606 52.9733 93.3273 53.68C93.9939 54.3733 95.0073 54.72 96.3673 54.72C96.8873 54.72 97.4006 54.5733 97.9073 54.28C98.4273 53.9733 98.8539 53.5333 99.1873 52.96C99.5339 52.3867 99.7073 51.7133 99.7073 50.94V43.72L97.2273 42.88L98.0273 41.28H103.707V42.7L101.807 44.18ZM100.187 35.96L94.5473 38.84L93.1873 38.22L95.3273 34.3L99.6073 34.68L100.187 35.96Z" fill="black"/>
</svg>
