<svg width="190" height="176" viewBox="0 0 190 176" fill="none" xmlns="http://www.w3.org/2000/svg">
<path d="M136.261 152.036C135.216 154.85 132.631 156.907 126 163.968C125.5 164.5 123.856 164.966 122.319 165.741C119.125 167.352 114.732 166.129 112.148 167.327C109.853 168.392 109.499 169.979 108.101 170.704C106.93 171.31 105.74 172.003 104.344 172.44C103.815 172.489 103.052 172.489 102.611 172.346C102.17 172.203 101 171.5 100.531 170.465C99.8596 168.985 100.817 165.938 101.394 165.601C102.493 164.959 103.705 164.111 104.288 162.713C104.775 161.543 104.867 159.207 104.004 157.507C103.678 156.864 102.846 156.591 102.317 156.014C101.012 154.591 101.496 151.679 100.39 149.801C99.3084 147.964 98.027 145.608 97.3534 144.402C96.5953 143.046 95.9108 141.659 95.0406 139.875C94.2644 138.284 93.4996 136.935 92.7277 135.777C92.0073 134.696 90.4178 134.333 89.5953 132.647C88.8985 131.22 88.1049 129.805 86.9471 128.789C85.7906 127.774 84.0633 127.389 82.3228 126.909C80.2973 126.35 78.1771 124.792 77.3575 123.682C76.5069 122.53 75.9568 118.652 75.0938 116.453C74.6091 115.218 71.1576 114.298 68.9763 112.841C67.1778 111.639 65.9422 110.337 64.9274 107.501C63.7395 104.181 62.4672 103.11 61.6013 101.712C60.8696 100.53 60.1601 97.3448 59.5747 95.2546C59.0916 93.5297 59.9577 91.5454 60.3437 90.3875L61.5001 86.9183C61.8861 85.7604 62.2706 84.6069 63.0887 83.5459C64.2178 82.0817 63.9069 80.5594 64.0558 77.4819C64.1311 75.9258 64.2943 74.7773 64.9202 73.6195C65.5259 72.4991 66.2197 70.9265 67.3733 68.6165C69.8427 63.6714 70.0764 62.3459 70.2224 60.2282C70.3746 58.0197 69.3132 53.9734 68.4429 51.9858C67.8683 50.6734 66.7112 49.8161 65.6979 48.4226C63.8061 45.821 63.0512 44.6122 61.9395 43.648C60.66 42.5382 58.8129 42.2994 57.1708 41.5752C55.7244 40.9373 52.9441 40.8538 50.7151 40.0342C48.6681 39.2816 47.8211 37.8703 43.8821 35.6543C41.8799 34.5279 40.3044 34.0136 39.2449 33.3834C38.0718 32.6856 37.1243 31.7008 33.9051 30.6383C31.6306 29.8877 28.8385 29.8679 27.0114 29.4313C25.1493 28.9864 23.6318 29.2868 23.1027 28.9514C22.4626 28.5457 22.1863 27.6504 21.5618 27.0737C20.042 25.67 15.4646 25.8204 12.8916 24.9531C9.75766 23.3168 8.30925 21.9638 7.73249 21.627C7.44194 21.481 6.5 21 5.41531 20.7091C4.62947 20.4983 3.87728 19.171 3.29907 18.2589C2.99616 17.7811 3.10248 17.0606 3.24558 16.6211C3.71107 15.1917 5.40953 14.5453 6.56739 13.7734C7.7921 12.957 9.35869 11.8509 10.6149 10.8347C11.7636 9.90539 12.9262 9.53228 14.0841 9.14633C15.3113 8.73727 16.3955 7.60685 17.3134 6.64268C18.1476 5.76642 19.9573 5.58312 21.3594 4.61895C22.6804 3.71062 24.2013 3.46109 27.5188 3.31509C30.2718 3.19394 33.9326 3.45531 35.2841 3.93956C36.9412 4.53327 38.3674 4.42092 40.0052 4.66232C41.4891 4.88103 44.5138 5.67563 46.7529 6.4432C47.9401 6.85018 49.2551 7.50277 50.5112 7.98702C51.6813 8.43806 52.8226 9.23739 53.9805 10.2493C55.0924 11.221 56.2919 12.1284 57.4021 12.7081C58.5812 13.3238 59.2812 14.6321 60.6285 15.8868C61.7097 16.8938 66.8558 16.3725 69.8812 15.7972C71.3785 15.5125 73.6266 14.3488 75.8035 14.2996C79.403 14.2183 80.5767 16.1759 81.7345 16.9478C82.8924 17.7197 84.0459 18.8703 84.9161 20.1265C85.6971 21.2539 86.937 21.7672 88.0948 22.3931C89.2371 23.0106 90.6953 22.9236 92.1408 23.3572C93.737 23.8361 95.0319 24.5599 96.9096 24.8519C97.3525 24.9208 97.6338 25.1381 97.9244 25.3318C99.8956 26.646 99.1776 31.4001 100.093 32.798C101.229 34.5334 103.127 35.1585 105.239 35.6933C111.043 37.1633 112.951 36.2224 117.283 36.4161C119.423 36.5118 122.005 37.4771 124.373 37.2848C126.939 37.0765 131.713 37.7662 134.879 38.0062C138.311 38.2663 141.768 39.2117 143.072 39.4994C144.58 39.832 145.628 40.3653 146.062 40.9897C146.872 42.1562 145.894 44.1848 147.217 45.3248C148 46 148.5 46.5 148.954 47.4902C149.542 48.7717 151.407 48.943 153.76 49.2812C154.855 49.4385 156.582 49.3304 157.658 49.5212C158.733 49.712 159.115 50.0936 159.311 51.0534C160.187 55.3272 160.659 56.5522 161.001 57.95C161.306 59.1952 162.202 60.5014 162.927 61.7575C163.544 62.8291 163.555 64.2597 163.891 65.8035C164.237 67.3992 164.613 68.6946 164.759 70.3324C164.821 71.0197 165.096 71.5885 165.384 72.1176C166.035 73.3159 167.886 73.2277 169.283 73.8059C170.48 74.3018 171.647 73.9996 172.224 74.1919C172.515 74.2887 172.801 74.3842 172.948 74.8149C173.682 76.9597 172.518 78.4258 172.468 79.6343C172.41 81.0704 175.108 81.7043 176.848 81.7115C178.625 81.7189 180.985 81.1319 183.008 81.3227C184.181 81.4334 184.993 83.5965 185.968 86.1931L186.051 86.4123C187.346 89.8591 186.434 91.3421 186 92.5C185.483 93.8799 184.756 95.8546 184.5 96.5C183 100 184.716 101.666 185.5 103.5C186.018 104.711 186.296 107.145 186.299 109.503C186.204 110.039 186.013 110.326 185.867 110.664C185.721 111.002 185.626 111.384 185.527 111.777L185.527 111.777L183.181 112.927C179.954 114.332 177.845 116.466 175.114 118.315C172.343 120.19 169.173 121.837 168.548 124.756C167.97 127.454 165.717 131.605 163.123 134.475C160.581 137.288 158.862 143.589 152.389 145.008C148.127 145.942 141.528 147.403 136.949 150.277C136.378 150.635 136.51 151.366 136.261 152.036Z" fill="#EC96EE" stroke="black" stroke-width="6" stroke-linecap="round"/>
<path d="M80.8967 101.146C81.2828 100.915 81.4923 100.574 81.5254 100.123C81.5584 99.6717 81.408 99.1674 81.0741 98.6097C80.7146 98.0091 80.276 97.6073 79.7582 97.4044C79.2439 97.1878 78.708 97.2465 78.1503 97.5803C77.8156 97.7807 77.5615 98.0668 77.3879 98.4388L81.6486 105.556L84.2992 104.581L84.4008 105.919L78.5578 109.417L78.0107 108.503L78.6504 106.826L74.5901 100.044L72.8609 100.485L72.7593 99.1467L75.2819 97.6366C76.0026 97.2052 76.6993 96.7531 77.3721 96.2805C77.8663 95.938 78.2336 95.6948 78.4738 95.551C79.1774 95.1298 79.8791 94.8904 80.5788 94.8328C81.2872 94.77 81.9302 94.8804 82.5079 95.164C83.0855 95.4475 83.5439 95.8724 83.8829 96.4387C84.2527 97.0565 84.3557 97.7932 84.1919 98.6488C84.0316 99.4907 83.6689 100.296 83.1039 101.066C82.5424 101.822 81.9038 102.39 81.1883 102.772L80.4629 102.787L80.3613 101.449L80.889 101.133L80.8967 101.146ZM88.7421 89.2291C89.7717 88.6127 90.8122 88.2871 91.8635 88.2521C92.9148 88.2171 93.8861 88.4573 94.7774 88.9727C95.6687 89.4881 96.4071 90.2349 96.9927 91.213C97.5936 92.2168 97.8223 93.3387 97.6787 94.5785C97.5437 95.8131 97.1447 96.9669 96.4816 98.0398C95.8135 99.1042 95.0504 99.8932 94.1924 100.407C93.1627 101.023 92.1249 101.353 91.0787 101.397C90.0359 101.427 89.0646 101.186 88.1648 100.676C87.2735 100.161 86.5351 99.4139 85.9495 98.4358C85.3486 97.4319 85.1156 96.3127 85.2506 95.078C85.389 93.8296 85.7923 92.6733 86.4605 91.6089C87.1236 90.536 87.8841 89.7427 88.7421 89.2291ZM89.0281 91.4005C88.5991 91.6574 88.2891 92.0352 88.0983 92.5341C87.9109 93.0192 87.8563 93.5706 87.9346 94.188C88.0214 94.8004 88.2446 95.4068 88.6042 96.0074C89.0408 96.7367 89.5461 97.3375 90.1201 97.8097C90.6942 98.2819 91.3079 98.5672 91.9612 98.6656C92.6231 98.7589 93.2715 98.6154 93.9064 98.2353C94.3354 97.9785 94.6436 97.6075 94.831 97.1224C95.0219 96.6235 95.0739 96.0679 94.987 95.4556C94.9088 94.8381 94.6899 94.2291 94.3303 93.6285C93.8886 92.8906 93.3807 92.2855 92.8066 91.8133C92.2326 91.3411 91.6215 91.0601 90.9733 90.9703C90.32 90.8719 89.6716 91.0153 89.0281 91.4005ZM109.69 90.7972L101.183 95.8899L100.636 94.9762L101.275 93.2996L97.1533 86.4141L95.4781 86.9449L95.3765 85.6071L100.319 82.6485L100.866 83.5623L100.213 85.2466L104.42 92.2737L107.071 90.6865L107.368 86.54L108.501 86.3868L110.897 90.3894L109.69 90.7972ZM111.422 75.6518C112.452 75.0355 113.492 74.7098 114.544 74.6748C115.595 74.6399 116.566 74.8801 117.457 75.3954C118.349 75.9108 119.087 76.6576 119.673 77.6357C120.274 78.6396 120.502 79.7614 120.359 81.0012C120.224 82.2359 119.825 83.3896 119.162 84.4626C118.493 85.5269 117.73 86.3159 116.872 86.8295C115.843 87.4459 114.805 87.7759 113.759 87.8194C112.716 87.8492 111.745 87.609 110.845 87.0988C109.953 86.5834 109.215 85.8366 108.63 84.8585C108.029 83.8547 107.796 82.7354 107.931 81.5007C108.069 80.2524 108.472 79.096 109.141 78.0317C109.804 76.9587 110.564 76.1655 111.422 75.6518ZM111.708 77.8233C111.279 78.0801 110.969 78.4579 110.778 78.9568C110.591 79.442 110.536 79.9933 110.615 80.6108C110.701 81.2231 110.925 81.8296 111.284 82.4302C111.721 83.1595 112.226 83.7602 112.8 84.2324C113.374 84.7046 113.988 84.9899 114.641 85.0883C115.303 85.1816 115.951 85.0382 116.586 84.6581C117.015 84.4013 117.324 84.0303 117.511 83.5451C117.702 83.0462 117.754 82.4906 117.667 81.8783C117.589 81.2608 117.37 80.6518 117.01 80.0512C116.569 79.3133 116.061 78.7083 115.487 78.2361C114.913 77.7639 114.301 77.4829 113.653 77.393C113 77.2946 112.352 77.4381 111.708 77.8233ZM128.875 68.2282L133.744 76.3621L132.393 77.1711L122.595 74.383L125.384 79.042L127.923 78.4657L128.025 79.8035L123.855 82.2998L123.308 81.386L123.886 79.6065L120.126 73.3259L118.158 73.3676L118.056 72.0298L120.515 70.5583L130.051 73.2586L127.37 68.7798L124.851 69.3612L124.749 68.0234L128.919 65.5271L129.458 66.428L128.875 68.2282ZM140.432 72.3758L135.49 75.3344L134.943 74.4206L135.521 72.641L131.499 65.9228L129.801 66.415L129.7 65.0773L134.642 62.1187L135.189 63.0325L134.606 64.8326L138.62 71.5379L140.331 71.038L140.432 72.3758ZM152.831 64.9534L147.503 68.1431L146.956 67.2293L148.01 65.5145L146.383 64.2858L142.624 66.5356L142.883 68.1642L145.278 68.0765L145.379 69.4143L141.081 71.9877L140.534 71.0739L141.369 69.0528L139.866 59.5331L142.227 57.2279L151.029 63.812L152.73 63.6156L152.831 64.9534ZM141.681 60.7542L142.369 65.0278L145.149 63.3636L141.681 60.7542Z" fill="black"/>
</svg>
