<svg width="270" height="332" viewBox="0 0 270 332" fill="none" xmlns="http://www.w3.org/2000/svg">
<path d="M129.9 55.8004C129.32 55.4874 129.5 51.9397 127.214 51.9397C122.098 51.9397 119.626 53.1739 117.835 53.9401C115.031 55.1393 113.14 54.1514 111.208 53.323C110.561 53.0457 109.562 53.1822 108.932 52.9772C107.893 52.6389 107.748 50.4363 107.133 48.1583C106.611 46.2264 103.61 47.5205 102.852 47.5226C102.026 47.5248 101.949 45.4621 102.086 43.6004C102.177 42.3561 103.598 41.7263 105.188 40.6929C106.845 39.6161 106.602 40.3825 108.5 38.5C108.812 38.191 109.357 37.3438 109.5 37C109.842 36.1777 109.798 36.5935 110 35.5C110.064 35.1521 110.291 35.3854 111 34C111.23 33.5508 113.5 31 114 30C115.118 27.7639 115.296 28.3742 116 27.5C117.163 26.0559 115.583 25.0067 116 24C117.183 21.1463 116.859 22.2893 116.586 17.3897C116.487 15.6152 115.766 15.3603 115.006 15.2195C114.246 15.0786 113.289 15.0786 112.796 14.3269C111.53 12.3965 112.03 10.1128 111.411 9.35483C109.456 6.96188 104.438 8.17859 103.749 7.55941C102.365 6.31701 101.129 4.59189 99.0581 3.96649C97.0707 3.3663 93.9639 4.31025 91.5327 4.8611C89.4659 5.32939 85.9621 3.89608 83.3176 4.65194C80.6304 5.42002 76.693 4.86524 75.1026 5.34153C74.0625 5.65303 73.9264 7.20529 73.3072 8.03156C71.5332 10.3988 67.0263 10.1003 65.44 11.4837C64.3777 12.4101 63.4355 13.1445 62.7459 13.5566C62.0575 13.9679 62.1888 15.2112 61.9838 16.1762C61.1745 19.9858 51.8429 17.4228 50.1158 17.9758C48.0509 18.6368 46.8687 19.9079 46.4525 20.4587C45.4525 21.7821 48.7946 22.5295 49.0721 23.4241C49.6587 25.3153 46.732 26.2529 45.0774 27.4996C42.9009 29.1395 41.0745 30.5354 39.8279 32.0534L39.8055 32.0806C39.1831 32.8386 38.574 33.5803 37.6224 33.9896C35.4632 34.9183 34.6905 33.4429 30 33.3704C29.0182 33.3552 27.1931 33.3704 26.6449 33.4408C25.996 33.5242 22.8872 33.4408 21.8585 33.5329C20.5589 33.6492 18.7559 33.6696 17.9264 34.3582C17.0602 35.0774 16.751 36.0142 15.9246 37.0156C15.5641 37.4524 15.0961 37.6753 14.4074 38.017C12.2209 39.102 12.9565 41.7431 12.127 42.9868C11.4969 43.9317 11.0221 44.8499 10.6751 45.784C10.306 46.7778 9.77933 47.6129 9.32988 48.4766C8.65044 49.7822 7.77649 50.5146 7.39746 50.9278C7.21407 51.1277 7.08678 51.341 7.01636 53.9414C6.94594 56.5418 6.94594 61.5313 6.91176 64.2042C6.86872 67.5709 6.46542 68.5319 5.7405 71.7682C5.17992 74.2708 6.04704 77.7819 6.9418 78.8537C7.79035 79.8702 9.01299 80.1306 9.49869 81.0968C10.3911 82.8721 10.467 84.7536 11.9106 86.7543C13.8008 89.3741 12.4015 93.3863 12.125 94.2842C11.7696 95.4382 11.7097 96.6961 11.3659 98.4918C10.9615 100.604 10.8149 101.464 10.2619 102.293C9.70891 103.123 9.15797 104.223 8.81105 105.777C8.51101 107.122 8.12238 108.092 7.53519 108.887C6.84644 109.82 5 110 4.52324 111.151C3.74288 113.036 4.23173 115.314 3.74782 117.364C3.29807 119.268 3.3572 121.436 4.22736 123.051C4.98254 124.453 6.94862 124.366 7.57974 124.656C8.66658 125.155 8.50529 126.887 8.5563 128.297C8.60201 129.559 7.82898 130.677 7.24596 132.085C6.746 133.292 7.24304 134.469 7.5331 135.003C8.1738 136.181 9.6655 137.283 10.9307 138.405C11.8749 139.243 13.3619 138.746 13.993 139.182C15.1589 139.987 15.8864 141.37 17.0058 141.855C18.3697 142.446 19.093 144.378 19.9223 145.594C20.3538 146.226 20.1687 147.101 19.8786 147.78C19.3642 148.984 18.6149 149.917 18.5639 151.084C18.504 152.454 19.8742 153.899 20.7473 154.971C21.6416 156.07 21.909 157.688 22.7894 159.099C23.7993 160.718 23.4205 165.284 22.7894 166.5C22.4468 168.103 24.2026 169.506 25 171.5C26.4 175 25.5 177 25.5 181C25.5 182.501 25.7317 184.186 25.7057 186.501C25.6943 187.523 24.0646 187.712 22.9685 188.351C22.1595 188.824 21.6165 189.637 21.1183 190.384L21.0942 190.42C20.549 191.237 20.8677 192.237 21.0917 193.048C21.2873 193.756 21.4279 194.306 21.2896 194.753C20.9541 195.834 19.2006 197.034 18.4659 198.693C18.1301 199.452 18.0735 200.509 18.2403 201.322C18.4311 202.252 18.5766 203.36 18.3267 204.562C17.6627 207.755 17.9594 210.686 18.1011 211.497C18.2263 212.213 17.5021 216.507 18.3267 217C20 218 27.4115 217.466 31 218C39.956 219.333 40.7427 221.52 42.6846 222.233C44.4913 222.896 45.9282 223.529 47.4032 224.06C49.2164 224.712 51.2269 226.819 53.0044 228.479C54.162 229.561 55.8324 230.129 57.1907 230.839C57.891 231.204 58.312 231.902 59.4262 232.078C61.3345 232.381 62.9103 231.905 63.616 231.435C64.3217 230.964 64.7992 230.373 65.1511 229.785C66.6741 227.236 72.811 229.542 74.2276 230.366C75.6993 231.223 77.0556 232.252 78.5306 233.431C78.9038 233.73 79.4114 233.787 79.7103 234.022C80.2745 234.466 80.3629 235.318 80.7148 235.966C81.7895 237.942 86.1321 237.204 87.3754 238.383C88.4492 239.402 91.7775 239.213 93.7424 240.152C94.085 240.316 94.3879 240.508 94.5683 240.801C95.4632 242.258 93.9245 243.808 93.9228 244.455C93.9185 246.011 95.8028 247.108 97.3362 247.994C99.4089 249.192 102.049 248.643 104.637 249.057C108.494 249.117 112.654 249.351 115.83 249.704C117.373 249.825 120.557 250 122 250C123.765 250.117 124.454 250.058 125.871 250.53C127.393 251.038 130.687 251.24 133.471 251.533C137.533 251.962 138.957 252.534 140.373 253.006L140.374 253.006C140.729 253.125 141.079 253.242 141.318 253.477C142.333 254.477 142.147 257.819 143.145 259.784C143.523 260.529 144.616 261.49 145.911 262.61C148.192 264.582 152.398 263.499 153.815 263.972C155.231 264.444 156.293 264.798 156.823 265.208C158.089 266.187 155.942 269.378 156.588 271.396C157.141 273.125 157.471 275.285 158.944 276.996C159.998 278.219 160.3 279.884 160.834 281.534C161.636 284.011 160.421 285.777 161.186 287.666C161.377 288.135 161.482 288.607 161.717 288.964C162.174 289.658 164.531 289.795 167.361 290.029C168.347 290.11 168.323 290.729 168.206 291.145C167.978 291.955 167.615 292.738 167.674 293.679C167.733 294.634 168.319 295.568 169.025 296.392C169.353 296.775 169.73 296.983 170.144 297.045C171.862 297.301 173.268 296.282 174.684 295.81C175.39 295.575 176.334 295.455 177.452 295.688C179.703 296.158 180.342 298.164 181.055 299.34C182.287 301.373 181.177 305.231 180.94 307.414C180.671 309.886 179.882 312.426 178.996 313.843C178.785 314.18 178.701 314.548 178.757 314.904C179.004 316.455 180.583 317.378 180.996 319.087C181.173 321.98 181.41 324.209 181.527 326.683C181.644 327.64 181.497 328.277 182.118 328.704C184 330 194.195 325.293 199.589 324.149C204.117 323.19 208.207 320.705 210.508 318.528C213.699 315.509 217.852 312.907 221.641 309.576C224.312 307.228 224.286 303.262 225.667 300.617C226.808 299.583 230.92 296.387 236.428 292.481C238.526 291.303 261.5 288.5 262.492 287.715C263.753 286.717 265.169 285.242 266.105 283.334C267.632 280.222 265.492 278.219 264.921 276.564C264.356 274.924 263.527 273.775 263.319 271.505C263.152 269.679 262.392 267.682 261.977 265.666C261.664 264.146 259.194 264.063 257.539 263.75C255.803 263.421 254.645 262.308 253.611 261.273C252.456 260.117 252.68 258.28 252.215 256.987C251.612 255.313 250.616 253.941 249.839 252.7C249.484 252.131 249.168 251.152 248.55 250.171C247.796 248.975 246.072 249.081 244.523 248.668C242.896 248.233 241.219 247.947 239.564 246.811C237.99 245.731 236.471 242.697 235.737 239.584C235.364 238.006 234.19 236.282 233.055 233.13C232.238 230.864 231.296 228.943 230.523 227.546C229.626 225.925 228.816 224.4 228.094 222.948C227.43 221.612 226.443 220.47 225.872 219.178C225.209 217.674 224.379 216.646 223.037 215.663C221.708 214.691 220.548 216.119 217.878 216.692C216.064 217.082 214.768 216.541 214.252 216.077C213.281 215.205 212.496 213.962 211.771 211.334C210.901 208.182 210.947 206.834 210.119 205.078C209.348 203.443 208.567 199.625 209.132 197.225C209.477 195.764 211.449 194.028 212.644 192.319C213.567 190.998 214.66 190.409 215.588 189.425C217.478 187.421 215.596 182.146 214.974 180.851C214.358 179.565 211.889 178.427 209.4 175.744C207.78 173.996 205.79 172.124 204.233 171.346C203.419 170.94 203.298 167.497 203.349 163.057C203.402 158.518 205.672 154.459 206.035 153.115C206.143 152.713 206.118 152.24 204.501 151C202.261 149.283 197.067 149.963 196.5 149.5C195.4 148.601 196.538 145.665 198.285 144.23C201.001 142 205.959 133.957 204.501 132.5C204 132 201.558 129.189 200.908 127.517C199.704 124.424 200.073 121.809 199.074 121.212C198.627 120.945 198.035 120.879 197.551 120.587C196.201 119.771 194.527 118.483 192.624 117.406C191.28 116.644 190.265 114.933 187.019 114.9C183.21 114.861 180.423 115.647 179.187 114.489C176.328 111.809 175.975 108.21 173.768 107.915C170.058 107.42 168.713 106.295 166.523 105.182C164.583 104.196 161.548 103.693 159.987 103.394C158.593 103.127 155.64 103.634 155.333 101.774C155.111 100.432 155.201 99.0864 155.336 97.7864L155.356 97.5839L155.356 97.5836C155.661 94.6347 155.817 93.1201 156.68 89.8657C157.083 88.3466 157.988 87.2984 158.202 85.8846C158.426 84.4031 159.502 81.8059 158.826 79.3461C158.421 77.8699 158.844 76.0645 155.419 70.4731C154.026 68.1991 152.065 67.5143 151.258 65.8271C150.722 64.7069 150.285 62.3273 148.75 60.7231C147.853 59.7856 146.256 59.3522 144.625 59.3839C142.211 59.431 140.844 60.8248 139.167 59.7856C138.005 59.0656 138.015 56.5709 135.884 56.382C132.885 56.116 130.521 56.1353 129.9 55.8004Z" fill="#EC96EE" stroke="black" stroke-width="6" stroke-linecap="round"/>
<path d="M85.1802 184.798L79.3308 186.651L72.2987 179.606L71.0692 179.341L71.3417 177.618L72.3579 177.296C73.1015 177.06 73.6044 176.61 73.8665 175.945C74.1233 175.264 74.0974 174.436 73.7885 173.461C73.4482 172.387 72.8951 171.616 72.1292 171.15C71.3745 170.662 70.4601 170.588 69.3861 170.928C68.7416 171.132 68.1987 171.513 67.7573 172.071L72.1387 185.902L75.2247 185.743L74.8614 188.039L65.3436 191.055L64.7861 189.295L66.4721 186.524L62.3733 173.586L59.3122 173.738L59.6754 171.441L64.5335 169.902C65.9215 169.462 67.2773 168.978 68.6008 168.449C69.5713 168.069 70.2879 167.806 70.7506 167.659C72.1056 167.23 73.3768 167.082 74.5644 167.215C75.7633 167.326 76.7775 167.686 77.6071 168.296C78.4368 168.906 79.0086 169.707 79.3227 170.698C79.6786 171.822 79.5127 173.02 78.8249 174.293C78.1536 175.56 77.169 176.699 75.8711 177.71L78.2655 177.606L82.8512 182.181L85.5435 182.501L85.1802 184.798ZM100.549 162.447L103.148 170.651C103.698 172.386 103.722 174.014 103.223 175.536C102.74 177.053 101.945 178.332 100.838 179.374C99.7266 180.399 98.5511 181.107 97.3118 181.5C95.6429 182.029 94.0454 182.18 92.5193 181.955C91.0045 181.707 89.6948 181.131 88.59 180.227C87.4965 179.3 86.722 178.118 86.2666 176.681L83.1729 166.915L80.1353 167.141L80.4986 164.844L90.0164 161.829L90.5739 163.589L88.8003 166.169L91.3757 174.298C91.8678 175.852 92.6657 176.935 93.7693 177.549C94.8677 178.147 96.2596 178.179 97.9451 177.645C98.5895 177.441 99.1681 177.057 99.6809 176.495C100.205 175.911 100.561 175.198 100.749 174.356C100.953 173.51 100.904 172.607 100.6 171.649L97.7657 162.701L94.3624 162.634L94.7257 160.337L101.765 158.107L102.322 159.867L100.549 162.447ZM117.918 170.145C117.766 169.665 117.43 169.263 116.908 168.937C116.387 168.611 115.785 168.348 115.103 168.146C114.421 167.943 113.492 167.71 112.317 167.446C110.87 167.123 109.693 166.823 108.787 166.546C107.876 166.253 107.046 165.843 106.297 165.317C105.549 164.79 105.041 164.106 104.774 163.263C104.512 162.437 104.629 161.427 105.123 160.234C105.63 159.019 106.359 157.906 107.311 156.895C108.259 155.868 109.22 155.2 110.195 154.891C111.368 154.519 112.77 154.211 114.402 153.967C116.05 153.718 117.283 153.618 118.099 153.669L119.936 159.469L116.763 160.474C115.733 159.346 114.712 158.533 113.7 158.035C112.699 157.516 111.785 157.387 110.959 157.649C110.464 157.806 110.125 158.086 109.944 158.489C109.762 158.892 109.75 159.341 109.907 159.837C110.074 160.365 110.424 160.809 110.956 161.168C111.499 161.505 112.123 161.78 112.827 161.994C113.542 162.185 114.495 162.411 115.686 162.67C117.091 162.97 118.237 163.261 119.127 163.543C120.027 163.804 120.841 164.191 121.568 164.706C122.295 165.222 122.789 165.892 123.051 166.719C123.313 167.545 123.166 168.573 122.61 169.804C122.066 171.013 121.287 172.141 120.274 173.189C119.255 174.221 118.242 174.897 117.234 175.216C116.011 175.604 114.518 175.94 112.754 176.226C110.99 176.512 109.691 176.633 108.859 176.587L107.021 170.788L110.194 169.782C111.279 170.911 112.377 171.709 113.488 172.175C114.6 172.641 115.602 172.733 116.494 172.45C117.089 172.262 117.507 171.948 117.75 171.507C118.008 171.061 118.065 170.607 117.918 170.145ZM136.06 168.679L126.542 171.695L125.984 169.935L127.67 167.164L123.572 154.226L120.51 154.378L120.874 152.081L130.391 149.065L130.949 150.825L129.246 153.628L133.337 166.542L136.423 166.382L136.06 168.679ZM160.186 161.036L149.924 164.287L149.367 162.527L151.83 160.056L149.576 157.334L142.339 159.626L142.123 162.477L146.198 163.286L145.835 165.583L137.556 168.205L136.999 166.446L139.215 163.37L140.484 146.714L145.388 143.769L157.602 158.391L160.549 158.739L160.186 161.036ZM143.057 149.498L142.51 156.981L147.863 155.285L143.057 149.498Z" fill="black"/>
</svg>
