<svg width="218" height="168" viewBox="0 0 218 168" fill="none" xmlns="http://www.w3.org/2000/svg">
<path d="M163.87 101.33C164.173 100.95 165.773 100.387 168.585 99.6843C169.585 99.1843 170.259 98.3989 170.228 98.2445C170.161 97.9136 170.114 97.4871 169.828 97.2278C169.319 96.7649 168.834 96.5643 168.835 96.1647C168.836 95.083 169.336 92.6122 170.739 91.4135C171.359 90.8836 172.76 88.9033 175.318 87.4343C176.402 86.8116 177.399 86.1969 178.102 85.5993C179.278 84.5991 180.385 83.5195 181.197 83.3245C182.506 83.0101 184.078 81.6963 185.418 80.9801C186.082 80.6252 187.628 80.5099 189.268 78.6535C190.772 76.9511 192.94 74.8298 192.333 74.039C192.266 73.9508 192.077 73.8901 192.137 73.7949C192.536 73.1523 192.974 72.5336 193.331 71.9818C193.775 71.2953 194.148 70.261 196.297 69.2839C197.311 68.8229 197.992 68.741 198.615 68.2685C199.168 67.8493 199.743 66.9736 200.607 67.0316C201.643 67.1012 202.252 67.3469 203.017 67.3201C204.344 67.2737 205.136 66.9205 205.889 66.4785C206.419 66.1675 207.413 63.8982 208.719 63.9816C209.071 64.0041 209.616 64.4313 210.177 64.2906C210.442 64.2243 210.638 63.9852 210.839 63.6699C211.194 63.1167 210.683 61.8279 212.455 60.7949C213.096 60.4215 214.074 60.4622 214.509 59.9122C214.597 59.8007 214.668 59.6701 214.663 59.3332C214.64 57.8111 214.826 57.39 214.826 56.6008C214.687 56.2326 213.692 53.9337 213.461 53.4481C212.813 52.0879 209.156 52.8666 208.114 52.8194C207.02 52.7697 206.468 52.5415 205.865 52.0114C205.408 51.6092 205.218 50.877 204.523 50.0899C203.891 49.3738 202.856 49.4403 201.862 49.1152C200.737 48.7472 199.48 49.3458 198.572 49.1847C197.204 48.9416 196.095 49.1124 195.147 49.3222C194.763 49.4072 194.158 49.3458 193.805 49.2771C192.932 49.1069 192.574 47.8675 192.018 47.402C191.505 46.9729 190.907 46.8449 190.143 46.5684C189.074 46.1811 187.856 46.1502 186.579 46.3343C184.863 46.5817 184.238 46.7976 183.727 46.7761C183.207 46.7542 183.357 45.5527 183.032 44.9018C182.756 44.3488 182.615 43.652 182.314 43.0955C181.942 42.4071 181.873 41.4289 181.758 40.8725C181.635 40.2788 181.595 38.7974 181.895 37.4941C182.271 35.8538 182.612 35.0404 183.053 34.1123C183.078 32.9521 182.939 32.4436 182.8 32.0275C182.708 31.8406 184.054 29.5116 183.286 29.5116C182.592 29.8468 181.678 29.1171 180.779 28.512C179.982 27.9757 179.09 27.533 178.352 27.3746C177.832 27.263 177.398 27.6867 176.872 27.9536C175.07 28.8682 174.917 25.4768 174.257 24.6831C173.714 24.0316 173.279 23.5219 170.307 21.9671C167.728 20.6175 166.361 21.1964 166.071 20.855C165.27 19.9113 165.621 18.9279 165.252 17.7944C164.834 16.5093 163.986 16.0225 163.483 15.4942C163.04 15.0279 160.885 14.8629 158.314 14.6736C157.597 14.6208 156.546 14.8059 154.573 14.9366C151.795 15.1207 149.992 15.598 148.238 15.5457C146.692 15.4996 143.817 15.3889 141.029 15.1259C138.241 14.8629 135.627 14.4447 134.176 14.2293C132.52 13.9834 132.143 13.9615 131.2 14.0392C128.965 14.223 126.241 14.9104 124.182 15.0166C123.269 15.0637 121.021 14.8059 117.774 14.832C116.133 14.8452 115.302 15.3318 113.245 15.3873C112.817 15.335 112.66 15.2304 112.501 15.1243L112.023 14.9642C111.488 14.8058 111.122 14.8058 110.858 14.7789C110.011 14.3781 109.488 13.5369 109.038 13.0347C108.319 12.3726 107.219 11.9908 106.289 11.5829C105.208 11.1084 104.479 10.9043 103.942 10.3417C103.361 9.73336 102.714 9.45371 102.226 8.91593C101.723 8.36148 101.735 7.37715 101.115 7.28029C100.614 7.20188 99.0191 7.25681 97.1503 6.77811C95.7 6.40663 94.5564 5.8282 94.0144 4.95475C93.5392 4.18881 93.264 2.92968 92.161 3.00307C90.1016 3.1401 88.5825 4.45649 87.3071 5.09178C86.4612 5.51317 84.88 5.50329 82.9879 5.48544C80.2164 5.45931 78.8257 5.77772 77.7262 5.77772C77.7153 5.77772 77.1428 5.80507 76.7127 5.80507C76.2823 5.62062 76.0876 5.43214 74.4145 5.67158C72.2006 5.98841 71.0914 5.54015 66.5476 6.27831C65.0751 6.51752 64.2157 6.83815 63.7579 7.52108C63.3325 8.15554 62.6072 8.60169 61.8291 8.9191L61.7959 8.93264C61.0883 9.2212 60.2525 9.56207 59.9028 10.2141C59.5337 10.9025 59.2071 12.716 58.1301 12.8264C57.365 12.9048 56.7656 12.6941 56.4169 12.6403C55.7286 12.5341 54.7673 11.617 53.5099 12.4058C52.8787 12.8019 52.3354 13.0912 52.1935 13.4355C51.822 14.3369 51.6267 15.3248 51.3492 15.9171C50.9761 16.7131 50.2094 17.8877 49.4197 18.2926C48.3844 18.8232 44.8982 19.3941 42.5983 19.3737C39.4656 19.346 36.3508 18.5681 34.7401 19.5599C34.3979 19.7706 33.9539 20.0315 33.8173 20.485C33.5535 21.3611 34.7143 26.2172 33.2359 28.0351C33.129 28.1666 32.962 28.2535 32.813 28.1912C32.4969 28.0589 31.5786 27.7473 30.8257 28.6008L30.3257 29.1008C30.1641 29.5792 29.5118 30.3878 29.3257 30.6008C28.9304 31.0753 29.2131 30.7742 28.3236 32.4502C27.7969 33.6605 26.7757 36.3588 27.9331 37.4086C28.223 37.6716 29.7817 37.5521 29.8864 38.6245C30.0685 40.4914 29.827 43.2069 29.4602 44.3045C28.8519 46.1246 28.5376 47.0282 28.0345 47.7595C27.7446 48.1809 26.521 47.7311 25.4689 48.5246C24.3117 49.3975 24.0215 50.9722 22.7268 51.4545C21.8784 51.7706 20.1878 51.4505 19.4 52.2458C18.6594 52.9935 17.6954 55.3886 16.7608 56.0739C16.6539 56.1524 16.4949 56.1403 16.3109 56.1793C15.4373 56.3646 14.5229 56.7909 13.1395 56.8922C11.6892 56.9983 10.411 56.9004 9.84282 57.4735C9.20837 58.1135 8.29679 59.5418 8.63174 60.4327L8.63215 60.4339C8.79055 60.8552 9.01451 61.4509 9.50461 61.7516C9.84679 61.9615 12.3134 61.6458 13.8349 62.1729C14.6008 62.4383 15.3526 62.7995 15.7351 63.7088C16.2895 65.0268 17.2658 65.8387 16.7616 67.51C16.6032 68.0351 15.905 68.9779 14.3212 70.0755C11.3153 72.1587 10.1625 72.8967 9.39372 73.2359C8.73312 73.5274 8.47413 74.3319 7.78342 74.8208C7.14897 75.2699 6.48826 75.5513 5.8555 76.1151C5.14343 76.7495 3.98887 77.2176 3.48006 78.8359C3.13788 79.9242 2.7644 82.6191 3.19254 84.0097C3.29788 84.3519 3.49215 84.847 4.17551 85.1725C5.88798 85.9883 6.93706 85.8637 7.89431 86.4113L7.90236 86.4159C8.26874 86.6255 8.6846 86.8633 8.68401 87.3119C8.68243 88.5262 8.08619 89.306 7.83728 91.0624C7.62738 92.5436 7.43169 94.0978 8.13352 94.5182C8.79332 94.9135 9.41787 94.9921 9.74302 95.1765C10.5866 95.6549 10.8861 97.0888 11.8048 97.1036C13.3335 97.1281 13.3857 97.3404 15.3896 97.4988C16.1976 97.4988 16.9817 97.4988 17.4815 97.6065C18.1904 97.9233 18.7227 98.9404 19.2201 100.197C19.5623 101.253 19.4389 102.629 20.4883 103.045C20.8835 103.202 21.5499 103.098 21.7294 103.547C22.3599 105.125 22.3969 107.799 23.1092 107.85C24.5873 107.954 26.1005 108.003 26.4542 108.829C26.691 109.383 26.9637 110.016 27.3001 110.625C27.9583 111.816 27.6558 113.517 28.3029 113.896C28.4368 113.974 28.6593 113.922 28.8581 114.001C29.5964 114.294 30.1458 115.305 30.8375 115.904C31.6589 116.616 33.0607 117.981 35.9116 117.088C37.0958 116.718 38.2347 115.602 39.2344 116.246C39.8934 116.67 40.2642 117.428 40.87 118.889C41.2653 119.842 43.038 121.995 43.6961 124.883C43.9552 126.02 43.1007 129.069 44.0645 131.113C44.2752 131.56 44.5118 131.937 44.9112 131.981C45.3856 132.033 45.8575 132.176 46.4724 132.166C48.1848 132.138 49.3082 131.668 50.0589 132.246C50.4011 132.51 51.9334 134.01 51.9314 135.47C51.9298 136.631 51.1017 139.371 52.4621 140.22C52.8835 140.483 54.0931 140.067 54.7052 141.092C54.9413 141.488 54.6748 144.021 56.7472 144.871C58.2759 145.499 59.3425 145.466 59.563 145.712C59.7999 145.976 59.93 147.587 61.2882 147.612C64.0803 147.663 64.8973 146.994 65.7444 147.109C67.144 147.298 68.222 148.124 68.8312 149.014C69.4632 149.938 70.0247 150.631 70.1761 152.158C70.3599 154.012 70.397 155.634 70.9959 156.433C71.3119 156.854 71.8999 156.791 72.184 157.144C72.6315 157.7 72.4604 158.504 73.1868 159.363C73.7436 160.022 74.5475 160.576 76.5587 160.628C79.567 160.707 81.961 160.731 82.6149 161.211C83.5115 161.869 84.4859 163.294 88.9895 164.169C91.0157 164.562 92.0632 164.788 93.163 164.799C95.7761 164.825 97.6239 165.078 97.9266 164.958C98.8257 164.601 99.5464 160.747 99.6761 159.661C99.9538 157.337 99.5523 154.58 99.8275 153.576C100.057 152.739 100.864 150.946 102.061 150.23C102.696 149.85 104.234 149.59 106.122 149.013C107.365 148.633 108.414 148.58 108.782 147.717C109.237 146.652 108.463 145.931 108.782 144.441C109.036 143.251 109.587 139.625 112.754 138.532C115.082 137.728 116.472 137.939 117.053 138.008C118.528 138.185 120.472 138.007 122.074 136.786C123.039 136.051 124.413 135.225 125.476 134.477C127.348 133.16 128.048 132.531 128.847 132.171C130.139 131.589 133.385 131.813 132.621 130.372C132.568 130.272 132.101 129.506 132.038 128.288C132.014 127.834 132.105 127.634 132.372 127.608C133.639 127.481 135.175 127.263 135.361 126.313C135.511 125.548 135.125 124.662 135.029 124.054C134.954 123.573 136.241 122.407 137.42 120.474C138.253 119.108 138.595 118.195 139.242 117.843C139.521 117.691 142.463 118.243 144.341 117.488C145.104 117.181 146.039 115.061 150.104 112.868C151.036 112.365 151.561 112.246 152.103 112.009C152.914 111.654 153.618 111.053 154.207 110.486C154.84 109.877 155.392 109.564 156.441 109.22C157.683 108.812 158.863 108.693 159.05 107.848C159.15 107.392 159.137 106.943 159.355 106.682C159.608 106.379 159.939 106.023 160.37 105.821C161.131 105.464 161.69 104.723 162.501 103.535C163.158 102.573 163.361 101.966 163.87 101.33Z" fill="#BF7C52" stroke="black" stroke-width="6" stroke-linecap="round"/>
<path d="M54.1227 79.4608C54.1227 79.0742 53.9694 78.7008 53.6627 78.3408C53.356 77.9808 52.976 77.6475 52.5227 77.3408C52.0694 77.0342 51.4427 76.6475 50.6427 76.1808C49.656 75.6075 48.8627 75.1142 48.2627 74.7008C47.6627 74.2742 47.1494 73.7808 46.7227 73.2208C46.296 72.6608 46.0827 72.0408 46.0827 71.3608C46.0827 70.6942 46.4027 69.9808 47.0427 69.2208C47.696 68.4475 48.4894 67.8008 49.4227 67.2808C50.356 66.7475 51.216 66.4808 52.0027 66.4808C52.9494 66.4808 54.0494 66.5808 55.3027 66.7808C56.5694 66.9808 57.496 67.1942 58.0827 67.4208V72.1008H55.5227C55.0294 71.0342 54.4694 70.2008 53.8427 69.6008C53.2294 68.9875 52.5894 68.6808 51.9227 68.6808C51.5227 68.6808 51.2094 68.8075 50.9827 69.0608C50.756 69.3142 50.6427 69.6408 50.6427 70.0408C50.6427 70.4675 50.796 70.8742 51.1027 71.2608C51.4227 71.6342 51.816 71.9808 52.2827 72.3008C52.7627 72.6075 53.4094 72.9942 54.2227 73.4608C55.1827 74.0075 55.956 74.4875 56.5427 74.9008C57.1427 75.3008 57.6494 75.7742 58.0627 76.3208C58.476 76.8675 58.6827 77.4742 58.6827 78.1408C58.6827 78.8075 58.336 79.5275 57.6427 80.3008C56.9627 81.0608 56.1294 81.7075 55.1427 82.2408C54.156 82.7608 53.256 83.0208 52.4427 83.0208C51.456 83.0208 50.2827 82.9208 48.9227 82.7208C47.5627 82.5208 46.5827 82.3075 45.9827 82.0808V77.4008H48.5427C49.076 78.4808 49.696 79.3208 50.4027 79.9208C51.1094 80.5208 51.8227 80.8208 52.5427 80.8208C53.0227 80.8208 53.4027 80.6875 53.6827 80.4208C53.976 80.1542 54.1227 79.8342 54.1227 79.4608ZM77.5466 82.6008H69.2666V81.1808L71.6466 79.9408L70.6266 77.4208H64.7866L63.9666 79.4608L66.7666 81.0008L65.9666 82.6008H59.2866V81.1808L61.6266 79.4408L66.4266 67.5208L70.7066 66.5008L76.2666 80.0608L78.3466 81.0008L77.5466 82.6008ZM67.6666 70.1608L65.5266 75.5208H69.8466L67.6666 70.1608ZM97.0338 82.6008H89.3538V81.1808L91.2338 79.5408V75.7208H85.1338V80.4008L87.4338 81.0008L86.6338 82.6008H78.9538V81.1808L80.8338 79.5408V69.1008L78.5538 68.5008L79.3538 66.9008H87.0338V68.3208L85.1338 69.9808V73.8408H91.2338V69.1008L88.9538 68.5008L89.7538 66.9008H97.4338V68.3208L95.5338 69.9808V80.4008L97.8338 81.0008L97.0338 82.6008ZM116.492 82.6008H108.212V81.1808L110.592 79.9408L109.572 77.4208H103.732L102.912 79.4608L105.712 81.0008L104.912 82.6008H98.2319V81.1808L100.572 79.4408L105.372 67.5208L109.652 66.5008L115.212 80.0608L117.292 81.0008L116.492 82.6008ZM106.612 70.1608L104.472 75.5208H108.792L106.612 70.1608ZM133.899 82.6008H129.179L125.659 75.8008L124.819 75.3208L125.419 74.1208H126.239C126.839 74.1208 127.312 73.9075 127.659 73.4808C128.006 73.0408 128.179 72.4275 128.179 71.6408C128.179 70.7742 127.952 70.0808 127.499 69.5608C127.059 69.0275 126.406 68.7608 125.539 68.7608C125.019 68.7608 124.532 68.9142 124.079 69.2208V80.3808L126.379 80.9808L125.579 82.5808H117.899V81.1608L119.779 79.5208V69.0808L117.499 68.4808L118.299 66.8808H122.219C123.339 66.8808 124.446 66.8408 125.539 66.7608C126.339 66.7075 126.926 66.6808 127.299 66.6808C128.392 66.6808 129.359 66.8675 130.199 67.2408C131.052 67.6008 131.712 68.1008 132.179 68.7408C132.646 69.3808 132.879 70.1008 132.879 70.9008C132.879 71.8075 132.479 72.6475 131.679 73.4208C130.892 74.1942 129.906 74.8008 128.719 75.2408L130.499 75.7208L132.799 80.1408L134.699 81.0008L133.899 82.6008ZM152.761 82.6008H144.481V81.1808L146.861 79.9408L145.841 77.4208H140.001L139.181 79.4608L141.981 81.0008L141.181 82.6008H134.501V81.1808L136.841 79.4408L141.641 67.5208L145.921 66.5008L151.481 80.0608L153.561 81.0008L152.761 82.6008ZM142.881 70.1608L140.741 75.5208H145.061L142.881 70.1608Z" fill="black"/>
</svg>
