<svg width="215" height="132" viewBox="0 0 215 132" fill="none" xmlns="http://www.w3.org/2000/svg">
<path d="M7.11548 84.5945C8.3949 83.7553 8.61209 83.5469 11.1109 83.2904C13.5 83.0451 18.7038 83.9192 19.1475 83.6541C19.5904 83.3894 19.7697 82.7654 20.3013 82.411C21.8405 81.3849 24.5634 81.5237 25.6306 80.8562C26.5971 80.2517 27.761 79.9249 29.2705 79.7877C29.9039 79.7301 30.4283 79.9223 30.9599 79.7011C31.5111 79.4717 31.9151 78.9768 32.3028 78.5019L32.3375 78.4594C32.7358 77.9719 35.8215 77.8785 40.0836 77.9224C41.8883 77.9411 44.1779 78.1449 47.2862 78.013C48.379 77.9667 48.46 77.6173 48.5053 77.0857C48.7095 74.6886 51.9678 72.3549 52.5 72C54 71 55.9553 69.8719 57.3039 69.9285C58.4151 69.9751 59.1161 71.3006 60.5508 71.3954C61.8818 71.4833 62.9178 71.2498 63.4766 70.993C64.5438 70.5027 66.7519 70.8391 68.273 70.3282C69.3402 69.9698 70.1053 68.606 71.3879 68.4177C74.1365 68.014 75.0172 66.3612 77.041 66.2859C83.0205 66.0634 84.1855 65.5883 85.4173 65.4426C86.9268 65.264 90.089 65.5367 92.3907 65.5332C94.0977 65.5305 95.0001 64.9826 96.0316 64.3562L96.0746 64.3301C97.319 63.5747 101.397 64.2756 103.493 62.5967C105.046 61.3523 107.957 61.7811 108.997 60.4663C109.843 59.3965 109.748 57.0765 111.576 56.5586C112.507 56.2948 113.613 56.2298 113.703 55.5327C113.834 54.5122 114.182 53.3278 115.26 52.5603C116.504 51.6743 118.404 52.1348 119.122 51.0948C119.521 50.5179 118.516 48.6974 119.657 48.4767C121.034 48.2103 122.007 47.4166 122.942 46.4769C123.784 45.6309 124.459 44.8549 125.608 44.3012C126.897 43.6804 128.554 43.5039 130.939 42.9263C132.226 42.6145 134.779 43.1818 135.864 42.0803C136.042 41.9004 136.13 41.6366 136.219 41.3688C136.575 40.3016 135.882 37.8752 137.199 37.0187C137.47 36.8429 137.932 36.9061 138.265 36.7523C139.42 36.2194 140.29 35.4412 141.773 35.0189C143.79 34.4447 146.869 34.0264 147.235 32.8872C147.942 30.6822 148.723 27.2875 149.233 26.1363C149.807 24.8413 149.723 23.2133 149.228 22.0927C148.56 20.5832 147.584 19.6946 146.963 18.4528C146.428 17.3856 145.17 16.2814 145.589 14.3652C145.901 12.941 144.5 8.5 146.077 6.19941C147.277 4.44772 149.286 4.40848 149.5 4.5C149.895 4.65192 151.626 4.88163 152.085 5.09394C153.336 5.24403 154.792 4.9385 156.356 4.75625C157.919 4.57413 159.627 4.58629 162.033 4.35999C163.648 4.20807 164.905 2.81531 170.03 4.11839C172.067 4.63636 172.947 5.61238 173.834 5.58172C174.813 5.54786 176.78 3.75871 177.77 4.75625C179.5 6.5 177.728 11.5427 177.695 15.0897C177.679 16.9251 176.13 17.612 175.05 18.8971C173.964 20.1893 171.893 22.8195 170.62 24.7886C169.494 26.5314 169.504 27.9937 169.364 29.1471C169.244 30.1397 168.459 30.9927 168.284 33.012C168.079 35.3857 166.02 37.5472 165.67 39.3907C165.315 41.2557 164.556 42.9095 164.067 44.3777C163.513 46.0397 163.648 47.2345 163.404 48.802C163.302 49.4549 163.368 50.4971 164.024 51.0304C165.605 52.3164 167.549 51.7707 167.897 52.188C168.479 52.885 168.664 53.86 169.291 54.9057C169.978 56.0503 171.24 56.0937 172.357 56.3383C173.408 56.5685 174.377 57.0013 175.286 57.2439C176.266 57.5054 177.305 57.9759 178.388 58.6368C179.232 59.1527 179.401 60.1342 179.68 60.9718C179.75 61.182 179.819 61.3891 180.096 61.5648C182.3 62.9619 185.88 61.7446 186.789 61.3598C188.49 60.6394 190.97 59.4441 191.808 59.0938C192.214 58.9241 192.715 58.7455 193.236 58.6054C193.474 58.5417 193.689 58.7414 193.83 58.916C194.573 59.8345 193.836 62.0123 193.451 63.6875C193.087 65.2713 193.622 66.5464 193.936 67.6287C194.079 68.1221 194.39 68.5019 194.598 68.8501C195.078 69.6526 197.374 69.5497 198.71 69.3416C199.606 69.2019 200.313 68.7131 200.905 68.8167C202.021 69.012 205.029 71.0053 207.249 71.4665C207.704 71.5609 208.053 72.0552 209.2 73.4136C209.877 74.215 210.073 75.6064 210.736 78.1453C211.48 80.9923 211.813 81.5127 211.5 82C210.858 83.001 210.811 83.5127 209 84C208.274 84.1953 206.271 84.5445 206 85C205.067 86.5694 205.668 84.4618 204 89.5C203.637 90.5953 201.174 92.8578 201 93C200.112 93.7276 198 93 196 93C194.407 93 194.323 93.3205 193.906 93.5641C192.778 94.2228 191.448 95.7671 190.771 96.5528L190.733 96.5967C190.163 97.2587 188.749 96.947 185.376 98.3001C183.662 98.9875 182.827 100.703 181.326 101.337C180.804 101.544 180.045 101.958 179.55 102.206C179.056 102.454 178.668 101.937 178 101.937C177.051 101.937 176.116 101.637 170.697 101.591C169.593 101.582 169.336 101.72 169.074 101.937C167.893 102.912 167.855 104.41 167.248 105.453C166.618 106.537 165.687 107.364 164.903 108.32L164.883 108.344C164.493 108.818 164.113 109.282 163.601 109.581C161.937 110.553 158.74 110.231 156.7 110.451C155.218 110.611 154.222 111.362 153.178 111.969C151.534 112.925 149.443 114.312 148.449 116.781C147.319 119.587 143.369 119.528 141.033 120.001C135.285 121.165 134.163 122.655 132.853 122.915C129.574 123.176 124.253 123.09 123.733 122.96C123.471 122.916 123 123 122.424 123.437C121.334 124.265 121.205 125.006 120.944 125.397C120.512 126.045 119.641 126.827 117.71 127.956C114.237 128.128 111.745 127.933 111.215 127.648C109.995 126.991 107.608 125.992 105.65 125.868C102.876 125.694 99.7385 125.511 96.5332 126.219C95.014 126.554 93.2166 126.735 91.8883 126.869C89.7425 127.085 86.7996 126.962 85.6344 126.736C83.4 126.303 80.466 126.445 78.5102 126.608C75.9266 126.825 72.405 126.796 70.6056 125.823C68.9118 124.907 68.0834 123.195 66.9171 123.002C66.3972 122.916 65.7905 122.781 64.9145 122.698C62.5693 122.478 60.8633 121.884 59.359 121.394L59.2331 121.353C57.506 120.791 55.3103 120.076 52.7351 120.093C45.8089 120.138 44.6155 120.365 43.4207 120.79C42.0722 121.269 40.8753 121.996 39.8169 122.44C38.6847 122.916 37.2901 122.767 36.1688 122.393C35.1252 122.046 34.155 121.244 32.2002 121.178C27.0472 121.003 23.5361 122.431 22 123.5C21.5503 123.813 19 125 17 124.5C15.4661 124.117 13.9536 122.478 14 121.394C13.7671 118.894 12.6499 119.417 12.1669 118.693C11.1425 117.158 10.7875 117.042 10.49 115.84C9.7612 112.895 9.60691 110.616 9.06922 109.964C7.69409 108.296 6.97143 107.103 6.52067 105.695C6.12756 104.468 6.05165 103.062 5.63729 101.819C5.24419 100.64 4.41416 98.2853 4.1164 95.0434C3.97212 93.4724 3.72449 92.002 4.51098 89.1027C5.05573 87.0944 5.68495 85.5328 7.11548 84.5945Z" fill="#587956" stroke="black" stroke-width="6" stroke-linecap="round"/>
<path d="M79.9747 94.718C79.9534 94.3706 79.795 94.0437 79.4997 93.7373C79.2043 93.4308 78.8446 93.1523 78.4204 92.9019C77.9963 92.6514 77.412 92.3387 76.6676 91.9636C75.7496 91.503 75.0097 91.1036 74.4479 90.7655C73.8854 90.4153 73.397 90.0005 72.9829 89.521C72.5687 89.0414 72.3428 88.4963 72.3053 87.8854C72.2685 87.2866 72.5166 86.6281 73.0496 85.9101C73.5938 85.1793 74.2707 84.5546 75.0805 84.036C75.8894 83.5054 76.6473 83.2184 77.3539 83.175C78.2043 83.1227 79.198 83.1518 80.3349 83.2623C81.4838 83.3721 82.328 83.5126 82.8675 83.6838L83.1258 87.8879L80.8261 88.0292C80.3241 87.0982 79.7751 86.3805 79.179 85.8761C78.5942 85.359 78.0024 85.1189 77.4035 85.1557C77.0442 85.1777 76.7697 85.3088 76.5801 85.5489C76.3904 85.789 76.3066 86.0887 76.3287 86.448C76.3523 86.8313 76.5124 87.1881 76.8093 87.5185C77.1173 87.8362 77.4898 88.126 77.9267 88.3877C78.3748 88.6366 78.977 88.9483 79.7334 89.3226C80.6259 89.7607 81.3471 90.1492 81.8969 90.4881C82.458 90.8144 82.9393 91.2116 83.3407 91.6799C83.7422 92.1481 83.9613 92.6817 83.9981 93.2806C84.0349 93.8794 83.7632 94.5453 83.1831 95.2783C82.6142 95.9985 81.9013 96.6254 81.0444 97.159C80.1868 97.6806 79.3926 97.9638 78.662 98.0087C77.7757 98.0631 76.7162 98.038 75.4834 97.9334C74.2507 97.8288 73.3586 97.6913 72.8071 97.5208L72.5488 93.3167L74.8485 93.1754C75.3872 94.1162 75.9905 94.8365 76.6584 95.3365C77.3263 95.8365 77.9837 96.0666 78.6304 96.0269C79.0616 96.0004 79.3956 95.8596 79.6324 95.6046C79.8812 95.3489 79.9953 95.0533 79.9747 94.718ZM92.4044 96.7857L85.5054 97.2095L85.427 95.9339L87.0253 94.3569L86.4492 84.9786L84.3679 84.5655L84.9983 83.084L91.8973 82.6602L91.9756 83.9358L90.3605 85.5318L90.9355 94.8922L93.0347 95.3042L92.4044 96.7857ZM104.497 88.3242C105.357 88.62 106.04 89.071 106.546 89.6771C107.063 90.2705 107.345 90.9505 107.393 91.717C107.439 92.4716 107.141 93.2052 106.5 93.9179C105.858 94.6186 105.04 95.1979 104.046 95.6557C103.064 96.1127 102.112 96.3696 101.19 96.4263C100.591 96.4631 100.002 96.4692 99.4235 96.4446C98.4616 96.4436 97.7171 96.4593 97.1901 96.4916L94.1898 96.676L94.1114 95.4004L95.7186 93.9671L95.1291 84.3732L93.0512 84.014L93.6815 82.5325L96.3046 82.3714C97.3945 82.3044 98.4643 82.2026 99.5139 82.066C100.325 81.968 100.923 81.9073 101.306 81.8838C102.252 81.8256 103.094 81.9302 103.832 82.1974C104.57 82.4647 105.147 82.8561 105.563 83.3715C105.991 83.8742 106.225 84.455 106.265 85.1137C106.301 85.6886 106.155 86.2566 105.829 86.8177C105.514 87.366 105.071 87.8742 104.498 88.3422L104.497 88.3242ZM102.303 86.3671C102.253 85.5526 102.033 84.9169 101.645 84.4598C101.267 83.9901 100.731 83.7766 100.036 83.8193C99.6651 83.8421 99.3211 83.9173 99.0043 84.045L99.2791 88.5185L100.95 88.4159C101.932 88.3555 102.383 87.6726 102.303 86.3671ZM101.567 94.3472C102.166 94.3104 102.623 94.126 102.94 93.794C103.268 93.4612 103.415 93.0134 103.38 92.4505C103.334 91.6959 103.098 91.0912 102.673 90.6364C102.248 90.1696 101.651 89.9358 100.881 89.935L100.54 89.9559L99.3719 90.0277L99.6246 94.1419C100.212 94.3102 100.865 94.3723 101.584 94.3281L101.567 94.3472ZM120.256 95.0746L108.56 95.7931L108.481 94.5175L110.088 93.0843L109.503 83.5622L107.421 83.1311L108.051 81.6497L119.208 80.9642L120.68 80.5492L120.978 85.4001L119.753 86.0163L117.283 82.7957L113.348 83.0375L113.616 87.3853L115.358 87.2782L116.556 85.3471L117.832 85.2687L118.145 90.3711L116.752 91.1781L115.409 88.9883L113.72 89.0921L114.006 93.7453L117.779 93.5135L120.156 89.6344L121.447 90.0962L121.767 95.3063L120.256 95.0746ZM137.741 94.0003L133.501 94.2608L129.963 88.3466L129.182 87.9618L129.655 86.8507L130.391 86.8055C130.93 86.7723 131.344 86.5546 131.632 86.1522C131.919 85.7378 132.041 85.1773 131.997 84.4706C131.949 83.6921 131.708 83.0817 131.272 82.6396C130.847 82.1848 130.245 81.9813 129.467 82.0292C129 82.0579 128.571 82.2225 128.181 82.523L128.797 92.5481L130.896 92.9601L130.266 94.4415L123.367 94.8654L123.288 93.5898L124.886 92.0128L124.31 82.6345L122.229 82.2214L122.859 80.7399L126.381 80.5236C127.387 80.4618 128.379 80.3648 129.356 80.2325C130.072 80.1405 130.598 80.0842 130.933 80.0636C131.915 80.0032 132.794 80.1175 133.569 80.4066C134.355 80.6828 134.976 81.0956 135.431 81.6447C135.885 82.1939 136.134 82.8278 136.179 83.5464C136.229 84.3609 135.916 85.1376 135.24 85.8764C134.576 86.6145 133.723 87.2139 132.681 87.6747L134.307 88.0076L136.617 91.8512L138.371 92.5189L137.741 94.0003ZM145.899 93.4991L139 93.9229L138.922 92.6473L140.52 91.0704L139.944 81.6921L137.863 81.2789L138.493 79.7975L145.392 79.3736L145.47 80.6492L143.855 82.2452L144.43 91.6056L146.53 92.0176L145.899 93.4991ZM163.387 92.4247L155.949 92.8817L155.871 91.6061L157.94 90.3608L156.885 88.1534L151.639 88.4757L151.015 90.3535L153.615 91.5823L152.985 93.0638L146.984 93.4324L146.906 92.1569L148.912 90.4647L152.566 79.4919L156.354 78.3395L162.097 90.2136L164.017 90.9432L163.387 92.4247ZM153.825 81.795L152.199 86.7281L156.079 86.4896L153.825 81.795Z" fill="black"/>
</svg>
