<svg width="148" height="140" viewBox="0 0 148 140" fill="none" xmlns="http://www.w3.org/2000/svg">
<path d="M132.616 18.4526C133.803 18.2323 134.095 17.6838 134.464 17.2299C135.129 16.4122 135.979 16.8521 136.153 16.7722C136.543 16.5374 136.949 16.1935 137.326 15.9117C137.766 15.6609 138.429 15.4422 138.939 15.364C139.648 15.255 140.619 15.3744 140.879 15.1132C141.02 14.9722 141.275 14.6741 141.317 14.1864C141.396 13.2803 141.35 11.7603 142.054 11.5277C142.527 11.3713 143.224 11.5299 143.714 11.5287L143.716 11.5287C143.903 11.5282 144.166 11.5276 144.246 11.3549C144.339 11.1515 144.873 10.7884 144.62 10.2111C144.4 9.71037 145.464 8.22986 144.488 8.03488C143.965 7.9305 143.312 7.25741 142.138 6.69378C141.003 6.14904 139.665 5.81089 138.574 5.68859C136.71 5.47975 134.081 5.93461 130.638 6.90891C127.667 7.7493 126.17 8.79546 124.776 9.08788C122.786 9.50556 119.101 11.6372 112.766 9.50053C108.796 8.16195 107.48 7.2099 105.255 7.32533C98.7318 7.66375 96.0219 7.59066 94.121 8.54314C93.536 8.83627 90.0085 9.4806 85.1321 8.95956C82.377 8.66517 80.5629 8.84833 79.4444 8.20346C78.3511 7.57317 77.5445 6.20927 76.3408 6.02197C72.8559 5.47975 67.2004 5.30836 65.8522 4.93249C63.5915 4.3022 61.8548 4.51778 61.2049 3.63165C61.0804 3.46181 61.0804 3.21271 60.9093 3.08816C60.7382 2.96361 60.4061 2.96361 59.9406 3.13471C59.4751 3.30581 58.7196 3.60079 58.6033 4.57394C58.3126 7.00453 58.2184 8.82411 57.7641 9.25772C56.7979 10.1799 54.5206 10.4814 54.1598 11.8154C54.0352 12.2758 53.7988 13.0491 53.3194 13.9138C52.6916 15.0461 53.8125 19.0006 52.1871 20.2859C51.1769 21.0848 49.7831 21.5093 48.579 22.8461C47.0605 24.5319 45.6371 26.4349 43.714 28.4244C42.622 29.5541 41.4959 30.2753 40.3588 31.1909C38.8478 32.4074 37.3813 33.2341 34.6937 34.7147C32.643 35.8445 31.652 36.3661 29.7444 37.5252C26.8459 39.2865 24.5829 39.461 21.1468 40.288C19.0559 40.7912 18.0565 40.6544 17.0015 40.7899C15.6994 40.9573 14.0635 41.2596 12.6335 42.3072C9.66066 44.4849 8.68773 45.4539 8.49191 46.5393C8.24156 47.9269 8.2388 49.5207 7.23259 50.4808C6.13304 51.5301 4.30676 52.3139 3.4999 55.0564C2.95767 56.8995 2.80763 59.1348 3.29484 61.0498C3.71252 62.6916 5.00727 65.0429 5.13916 66.8395C5.2222 67.9705 4.05771 69.0883 4.21448 70.2337C4.38684 71.4931 6.10294 72.5046 5.85249 74.3866C5.63484 76.0221 4.59668 77.3208 5.14168 77.8652C6.23368 78.9559 7.9215 79.2221 8.11701 80.3398C8.24156 81.0519 7.72827 82.124 8.32837 83.0233C8.7473 83.651 10.8374 82.9512 11.5176 84.3254C12.0158 85.3318 11.8642 86.5379 12.3542 86.8792C12.7731 87.1711 13.6141 87.5061 14.1985 88.3474C14.9596 89.4432 15.4639 90.7299 16.2864 91.2092C16.9003 91.5669 17.3953 91.9466 18.2943 92.0528C18.9811 92.3696 19.9926 92.3875 20.5113 93.1363C20.9327 93.7446 20.8943 94.4229 21.3304 96.0789C22.2032 99.3937 22.5139 100.198 23.0721 101.005C23.309 101.347 24.278 101.254 25.3977 101.638C25.7898 101.773 25.8086 102.038 25.7359 102.354C25.4191 103.728 24.5673 106.253 25.7921 106.759C26.1082 106.89 26.9188 105.957 27.9062 106.839C28.8567 107.688 29.1037 109.415 30.4662 109.743C31.3406 109.954 34.6213 110.057 36.646 109.926C37.8864 109.846 38.6932 109.477 39.7612 109.318C40.8424 109.158 41.5481 108.449 42.7188 108.872C43.3771 109.109 43.8912 109.456 43.9553 109.876C44.0075 110.218 44.0831 110.532 44.1398 110.88C44.2714 111.686 44.8712 112.415 45.3803 112.961C45.3803 112.961 45.4516 113.229 45.4639 113.23C46.0191 113.283 49.0221 113.108 51.8539 113.887C52.7236 114.126 53.5185 114.729 54.6261 114.362C56.0028 113.905 57.0332 113.074 57.2899 113.281C57.4222 113.388 57.5306 113.544 57.579 113.731C57.8467 114.766 58.2031 116.509 59.7477 116.872C60.6444 117.082 61.4265 117.817 62.6523 117.477C63.7081 117.184 64.451 116.622 65.476 116.739C65.7137 116.766 65.9221 116.81 65.9489 117.167C66.0812 118.933 65.5568 120.989 66.7172 121.89C67.1917 122.258 67.5407 122.746 67.9845 122.838C68.9897 123.048 70.473 122.65 71.7073 122.388C72.5794 122.202 73.8875 121.705 74.7426 121.993C75.377 122.206 75.4008 123.434 76.6443 123.974C77.0657 124.157 77.5185 124.146 77.8847 124.343C78.2269 124.528 78.4471 124.846 78.5429 125.242C78.7544 126.118 78.5591 128.906 79.7604 128.964C80.817 129.014 81.6618 128.752 82.1881 129.228C82.7148 129.705 82.5522 130.838 83.5877 131.791C84.2483 132.398 85.1434 132.424 85.9924 133.19C87.0459 134.141 87.1064 134.947 87.6804 135.512C87.8411 135.671 88.0927 135.81 88.314 135.855C89.2162 136.038 90.3981 136.435 91.7477 136.17C92.9675 135.931 94.2269 135.615 94.7005 135.563C95.1408 135.41 97.8033 133.038 98.0198 132.227C98.4528 130.606 100.36 130.974 101.424 130.286C101.803 130.042 101.926 129.536 102.238 129.131C104.12 126.689 102.614 121.099 102.925 120.694C103.776 119.587 105.111 119.162 105.862 118.848C106.585 118.546 106.802 117.726 107.206 117.006C107.978 115.631 110.863 116.412 111.112 115.976C111.416 115.445 111.551 114.912 111.985 114.631C113.784 113.466 115.235 113.973 116.327 113.818C117.281 113.682 118.049 113.724 118.454 113.568C119.674 113.099 120.301 111.603 120.954 110.478C121.174 110.04 121.362 109.663 121.549 109.289C121.613 109.101 121.526 108.293 121.8 107.786C122.052 107.344 122.113 107.096 122.208 106.877C122.427 106.472 122.801 105.91 122.893 101.84C122.738 100.156 121.84 98.69 122.397 97.1199C123.428 94.2206 124.225 93.5616 125.021 92.1283C125.49 91.2847 126.025 90.4242 126.301 89.5983C126.551 88.8475 126.644 87.8414 126.863 86.9099C127.113 85.8478 127.696 85.1394 127.769 84.1924C127.8 83.7875 127.738 83.3049 127.423 82.8801C126.795 82.0346 125.154 81.5993 124.486 80.756C124.361 80.5985 124.248 80.4138 124.268 80.1289C124.365 78.7837 124.725 77.7435 124.328 76.9099C123.675 75.5366 123.5 74.7011 122.045 73.5044C120.795 72.477 118.816 72.3077 118.519 71.2846C118.426 70.9659 118.36 70.3388 118.458 69.8467C118.741 68.4125 120.177 66.3558 119.518 65.2263C119.299 64.8523 119.003 64.5043 118.61 64.3217C117.732 63.913 116.269 63.129 116.207 62.1948C116.176 61.7271 116.464 60.7299 116.176 59.9797C115.628 58.5514 116.176 56.9651 116.144 55.9677C116.05 54.4754 115.925 53.6618 115.832 53.0065C115.929 51.727 116.279 50.8396 116.992 50.2281C117.867 49.4773 118.934 48.8475 119.333 47.9784C119.678 47.2275 119.957 44.2151 119.737 42.3541C119.551 40.7746 119.191 38.2863 119.395 34.9431C119.551 32.3944 119.873 29.4763 120.678 28.8876C121.493 28.2924 122.659 26.5795 123.96 27.0156L124.038 27.0418C125.078 27.3908 126.705 27.9367 127.615 27.5453C128.493 27.1675 129.742 26.7268 130.176 25.8561C130.362 25.4821 130.328 25.075 130.52 24.6356C131.05 23.418 131.139 22.6384 131.394 21.7625C131.677 20.7895 131.619 18.6376 132.616 18.4526Z" fill="#BF7C52" stroke="black" stroke-width="6" stroke-linecap="round"/>
<path d="M18.2398 63.5851C18.339 63.3126 18.3267 63.0102 18.2029 62.6778C18.0792 62.3454 17.8969 62.013 17.656 61.6806C17.4152 61.3482 17.0727 60.9149 16.6286 60.3808C16.0803 59.7237 15.6477 59.1725 15.3309 58.7272C15.0175 58.2726 14.7823 57.7933 14.6252 57.2892C14.4682 56.785 14.4768 56.2934 14.6513 55.8141C14.8223 55.3443 15.2308 54.9236 15.8768 54.5522C16.5356 54.1747 17.2606 53.9225 18.0518 53.7954C18.8464 53.659 19.5209 53.6916 20.0753 53.8934C20.7425 54.1362 21.4921 54.4889 22.3241 54.9513C23.1655 55.4172 23.7639 55.8053 24.1192 56.1155L22.9187 59.4138L21.1145 58.7571C21.0404 57.8788 20.8595 57.1479 20.5717 56.5643C20.2968 55.9747 19.9244 55.5944 19.4546 55.4234C19.1727 55.3208 18.9194 55.3297 18.6946 55.4501C18.4699 55.5705 18.3062 55.7716 18.2036 56.0535C18.0942 56.3542 18.0979 56.6802 18.2149 57.0313C18.3446 57.3765 18.5329 57.7218 18.7797 58.067C19.0393 58.4062 19.3959 58.8446 19.8494 59.3822C20.3858 60.0137 20.8077 60.5504 21.1151 60.9921C21.4354 61.428 21.671 61.8915 21.8221 62.3828C21.9732 62.8741 21.9632 63.3547 21.7922 63.8245C21.6212 64.2944 21.1922 64.7129 20.5052 65.0801C19.831 65.4413 19.0778 65.6833 18.2456 65.806C17.4168 65.9194 16.7159 65.8718 16.1426 65.6632C15.4473 65.4101 14.646 65.0386 13.7388 64.5488C12.8316 64.059 12.1957 63.6573 11.831 63.3436L13.0314 60.0453L14.8357 60.702C14.9345 61.5999 15.156 62.351 15.5001 62.9551C15.8442 63.5592 16.27 63.9536 16.7774 64.1383C17.1157 64.2615 17.4178 64.265 17.6835 64.1488C17.9586 64.0361 18.1441 63.8482 18.2398 63.5851ZM35.5399 62.1559L33.8418 66.8215C33.4827 67.8082 32.9211 68.5615 32.1572 69.0816C31.4026 69.6051 30.5892 69.9103 29.7169 69.9972C28.848 70.0747 28.0611 69.9852 27.3564 69.7287C26.4073 69.3832 25.6235 68.8905 25.0052 68.2504C24.3996 67.6043 24.0034 66.8801 23.8165 66.0778C23.6425 65.2695 23.7042 64.4566 24.0018 63.6391L26.0231 58.0855L24.5548 57.1201L25.529 56.1977L30.9417 58.1677L30.5774 59.1685L28.8587 59.7241L27.176 64.3474C26.8545 65.2307 26.838 66.0069 27.1266 66.676C27.4186 67.3356 28.0438 67.8399 29.0023 68.1887C29.3688 68.3221 29.7682 68.3504 30.2005 68.2737C30.6457 68.1909 31.0592 67.9903 31.4412 67.6717C31.8326 67.3566 32.1275 66.9265 32.3259 66.3815L34.1779 61.293L32.6455 60.0649L33.6198 59.1425L37.6229 60.5995L37.2586 61.6002L35.5399 62.1559ZM44.728 63.0259C45.8369 63.4295 46.7287 64.0201 47.4034 64.7978C48.0909 65.5695 48.5191 66.4543 48.688 67.4522C48.8568 68.4502 48.7514 69.4707 48.3718 70.5137C47.9819 71.585 47.2687 72.4481 46.2322 73.1031C45.2084 73.7521 44.0776 74.1546 42.8396 74.3106C41.6144 74.4606 40.5319 74.3646 39.5922 74.0225C39.1788 73.872 38.7692 73.6964 38.3634 73.4955C37.7039 73.2022 37.1815 72.9855 36.7963 72.8453L34.3014 71.9372L34.6656 70.9364L36.3703 70.3756L39.0739 62.9473L37.6415 61.8832L38.6157 60.9608L40.8146 61.7612C41.6697 62.0724 42.521 62.3503 43.3685 62.5949C43.9835 62.7762 44.4367 62.9199 44.728 63.0259ZM40.5205 72.7003C41.0561 72.8952 41.6046 72.9086 42.1659 72.7405C42.7367 72.5758 43.2533 72.253 43.7156 71.7721C44.1908 71.2852 44.5583 70.6847 44.8183 69.9706C45.1295 69.1155 45.2848 68.294 45.2842 67.5063C45.2964 66.7126 45.1193 66.015 44.753 65.4134C44.3994 64.8059 43.8468 64.3653 43.095 64.0917C42.7849 63.9788 42.4646 63.9526 42.1339 64.0132L39.2353 71.9771C39.5846 72.2745 40.013 72.5156 40.5205 72.7003ZM59.8486 81.2356L54.0131 79.1117L54.3774 78.1109L56.3728 77.8475L56.3004 75.8098L52.1845 74.3118L51.0833 75.5392L52.6616 77.3428L51.6874 78.2652L46.9795 76.5517L47.3438 75.5509L49.4393 74.9248L55.8798 67.7553L59.1579 68.1343L59.5981 79.1172L60.8229 80.3132L59.8486 81.2356ZM56.0766 69.9339L53.1934 73.1625L56.238 74.2707L56.0766 69.9339ZM62.4548 65.3915L57.7412 65.9745L56.9417 65.1886L59.4555 62.9749L62.3744 64.3406L62.4548 65.3915ZM73.785 77.784L72.6444 77.8477L71.7573 74.5398L68.7409 73.4419L67.4993 76.853L68.8666 77.3507L70.424 76.2734L71.4248 76.6376L69.8651 80.9226L68.5323 81.076L68.3087 78.6641L67.012 78.1921L65.7858 81.5609L68.2139 83.0033L67.2397 83.9257L60.8404 81.5966L61.2046 80.5958L62.9092 80.035L65.6283 72.5645L64.1805 71.5426L65.1547 70.6202L73.9079 73.8061L75.1702 73.9782L73.785 77.784ZM83.17 89.7239L79.8435 88.5132L79.107 82.8178L78.6381 82.264L79.3688 81.5722L79.9467 81.7826C80.3696 81.9365 80.7579 81.9075 81.1117 81.6958C81.4688 81.4746 81.7483 81.0868 81.9501 80.5324C82.1724 79.9216 82.1905 79.3748 82.0044 78.892C81.8311 78.4033 81.4391 78.0477 80.8283 77.8254C80.4618 77.692 80.0795 77.6753 79.6813 77.7751L76.8186 85.6403L78.2857 86.6532L77.3114 87.5756L71.8988 85.6056L72.2631 84.6048L74.0087 83.9312L76.6867 76.5734L75.2338 75.5657L76.208 74.6433L78.9707 75.6488C79.76 75.9361 80.5503 76.1918 81.3413 76.4159C81.9188 76.5835 82.3391 76.7152 82.6022 76.811C83.3728 77.0914 84.0062 77.471 84.5024 77.9495C85.0115 78.4222 85.3484 78.9438 85.5131 79.5146C85.6778 80.0854 85.6576 80.6526 85.4524 81.2165C85.2198 81.8555 84.7224 82.3449 83.9602 82.6847C83.2074 83.0279 82.3564 83.2024 81.4072 83.2081L82.5386 84.0029L83.0258 87.708L84.1442 88.8015L83.17 89.7239ZM89.571 92.0537L84.1583 90.0836L84.5226 89.0829L86.2682 88.4093L88.9462 81.0515L87.4933 80.0438L88.4675 79.1214L93.8802 81.0914L93.5159 82.0922L91.751 82.7747L89.0781 90.1184L90.5452 91.1313L89.571 92.0537ZM101.887 83.6703C102.469 83.8823 103.12 84.1991 103.839 84.6205C104.559 85.0419 105.068 85.3975 105.367 85.6872L104.217 88.8445L102.413 88.1879C102.308 87.3941 102.077 86.7567 101.721 86.2756C101.373 85.7979 100.927 85.4599 100.382 85.2615C99.9211 85.0939 99.4419 85.0951 98.9437 85.2649C98.4584 85.4288 98.0055 85.7375 97.585 86.1911C97.1739 86.648 96.8487 87.2054 96.6093 87.8632C96.3391 88.6056 96.2039 89.3279 96.2037 90.0302C96.2069 90.723 96.372 91.3365 96.6991 91.8706C97.0261 92.4047 97.528 92.7948 98.2045 93.0411C99.0972 93.366 100.5 93.4296 102.413 93.232L102.682 94.511L99.3546 95.5827C98.8557 95.5501 98.3926 95.4773 97.9655 95.3644C97.5477 95.255 97.0992 95.113 96.62 94.9386C95.5206 94.5384 94.6352 93.9448 93.9639 93.1577C93.2926 92.3707 92.8742 91.4735 92.7088 90.4661C92.5468 89.4494 92.6607 88.4054 93.0506 87.3342C93.4508 86.2347 94.1678 85.3464 95.2018 84.6692C96.2486 83.986 97.3863 83.5647 98.6149 83.4053C99.8563 83.2399 100.947 83.3283 101.887 83.6703ZM115.225 101.391L109.39 99.2672L109.754 98.2664L111.75 98.003L111.677 95.9653L107.561 94.4673L106.46 95.6947L108.038 97.4982L107.064 98.4207L102.356 96.7071L102.72 95.7064L104.816 95.0803L111.257 87.9107L114.535 88.2897L114.975 99.2726L116.2 100.469L115.225 101.391ZM111.453 90.0894L108.57 93.318L111.615 94.4262L111.453 90.0894Z" fill="black"/>
</svg>
