<svg width="150" height="142" viewBox="0 0 150 142" fill="none" xmlns="http://www.w3.org/2000/svg">
<path d="M133.616 19.4526C134.803 19.2323 135.095 18.6838 135.464 18.2299C136.129 17.4122 136.979 17.8521 137.153 17.7722C137.543 17.5374 137.949 17.1935 138.326 16.9117C138.766 16.6609 139.429 16.4422 139.939 16.364C140.648 16.255 141.619 16.3744 141.879 16.1132C142.02 15.9722 142.275 15.6741 142.317 15.1864C142.396 14.2803 142.35 12.7603 143.054 12.5277C143.527 12.3713 144.224 12.5299 144.714 12.5287L144.716 12.5287C144.903 12.5282 145.166 12.5276 145.246 12.3549C145.339 12.1515 145.873 11.7884 145.62 11.2111C145.4 10.7104 146.464 9.22986 145.488 9.03488C144.965 8.9305 144.312 8.25741 143.138 7.69378C142.003 7.14904 140.665 6.81089 139.574 6.68859C137.71 6.47975 135.081 6.93461 131.638 7.90891C128.667 8.7493 127.17 9.79546 125.776 10.0879C123.786 10.5056 120.101 12.6372 113.766 10.5005C109.796 9.16195 108.48 8.2099 106.255 8.32533C99.7318 8.66375 97.0219 8.59066 95.121 9.54314C94.536 9.83627 91.0085 10.4806 86.1321 9.95956C83.377 9.66517 81.5629 9.84833 80.4444 9.20346C79.3511 8.57317 78.5445 7.20927 77.3408 7.02197C73.8559 6.47975 68.2004 6.30836 66.8522 5.93249C64.5915 5.3022 62.8548 5.51778 62.2049 4.63165C62.0804 4.46181 62.0804 4.21271 61.9093 4.08816C61.7382 3.96361 61.4061 3.96361 60.9406 4.13471C60.4751 4.30581 59.7196 4.60079 59.6033 5.57394C59.3126 8.00453 59.2184 9.82411 58.7641 10.2577C57.7979 11.1799 55.5206 11.4814 55.1598 12.8154C55.0352 13.2758 54.7988 14.0491 54.3194 14.9138C53.6916 16.0461 54.8125 20.0006 53.1871 21.2859C52.1769 22.0848 50.7831 22.5093 49.579 23.8461C48.0605 25.5319 46.6371 27.4349 44.714 29.4244C43.622 30.5541 42.4959 31.2753 41.3588 32.1909C39.8478 33.4074 38.3813 34.2341 35.6937 35.7147C33.643 36.8445 32.652 37.3661 30.7444 38.5252C27.8459 40.2865 25.5829 40.461 22.1468 41.288C20.0559 41.7912 19.0565 41.6544 18.0015 41.7899C16.6994 41.9573 15.0635 42.2596 13.6335 43.3072C10.6607 45.4849 9.68773 46.4539 9.49191 47.5393C9.24156 48.9269 9.2388 50.5207 8.23259 51.4808C7.13304 52.5301 5.30676 53.3139 4.4999 56.0564C3.95767 57.8995 3.80763 60.1348 4.29484 62.0498C4.71252 63.6916 6.00727 66.0429 6.13916 67.8395C6.2222 68.9705 5.05771 70.0883 5.21448 71.2337C5.38684 72.4931 7.10294 73.5046 6.85249 75.3866C6.63484 77.0221 5.59668 78.3208 6.14168 78.8652C7.23368 79.9559 8.9215 80.2221 9.11701 81.3398C9.24156 82.0519 8.72827 83.124 9.32837 84.0233C9.7473 84.651 11.8374 83.9512 12.5176 85.3254C13.0158 86.3318 12.8642 87.5379 13.3542 87.8792C13.7731 88.1711 14.6141 88.5061 15.1985 89.3474C15.9596 90.4432 16.4639 91.7299 17.2864 92.2092C17.9003 92.5669 18.3953 92.9466 19.2943 93.0528C19.9811 93.3696 20.9926 93.3875 21.5113 94.1363C21.9327 94.7446 21.8943 95.4229 22.3304 97.0789C23.2032 100.394 23.5139 101.198 24.0721 102.005C24.309 102.347 25.278 102.254 26.3977 102.638C26.7898 102.773 26.8086 103.038 26.7359 103.354C26.4191 104.728 25.5673 107.253 26.7921 107.759C27.1082 107.89 27.9188 106.957 28.9062 107.839C29.8567 108.688 30.1037 110.415 31.4662 110.743C32.3406 110.954 35.6213 111.057 37.646 110.926C38.8864 110.846 39.6932 110.477 40.7612 110.318C41.8424 110.158 42.5481 109.449 43.7188 109.872C44.3771 110.109 44.8912 110.456 44.9553 110.876C45.0075 111.218 45.0831 111.532 45.1398 111.88C45.2714 112.686 45.8712 113.415 46.3803 113.961C46.3803 113.961 46.4516 114.229 46.4639 114.23C47.0191 114.283 50.0221 114.108 52.8539 114.887C53.7236 115.126 54.5185 115.729 55.6261 115.362C57.0028 114.905 58.0332 114.074 58.2899 114.281C58.4222 114.388 58.5306 114.544 58.579 114.731C58.8467 115.766 59.2031 117.509 60.7477 117.872C61.6444 118.082 62.4265 118.817 63.6523 118.477C64.7081 118.184 65.451 117.622 66.476 117.739C66.7137 117.766 66.9221 117.81 66.9489 118.167C67.0812 119.933 66.5568 121.989 67.7172 122.89C68.1917 123.258 68.5407 123.746 68.9845 123.838C69.9897 124.048 71.473 123.65 72.7073 123.388C73.5794 123.202 74.8875 122.705 75.7426 122.993C76.377 123.206 76.4008 124.434 77.6443 124.974C78.0657 125.157 78.5185 125.146 78.8847 125.343C79.2269 125.528 79.4471 125.846 79.5429 126.242C79.7544 127.118 79.5591 129.906 80.7604 129.964C81.817 130.014 82.6618 129.752 83.1881 130.228C83.7148 130.705 83.5522 131.838 84.5877 132.791C85.2483 133.398 86.1434 133.424 86.9924 134.19C88.0459 135.141 88.1064 135.947 88.6804 136.512C88.8411 136.671 89.0927 136.81 89.314 136.855C90.2162 137.038 91.3981 137.435 92.7477 137.17C93.9675 136.931 95.2269 136.615 95.7005 136.563C96.1408 136.41 98.8033 134.038 99.0198 133.227C99.4528 131.606 101.36 131.974 102.424 131.286C102.803 131.042 102.926 130.536 103.238 130.131C105.12 127.689 103.614 122.099 103.925 121.694C104.776 120.587 106.111 120.162 106.862 119.848C107.585 119.546 107.802 118.726 108.206 118.006C108.978 116.631 111.863 117.412 112.112 116.976C112.416 116.445 112.551 115.912 112.985 115.631C114.784 114.466 116.235 114.973 117.327 114.818C118.281 114.682 119.049 114.724 119.454 114.568C120.674 114.099 121.301 112.603 121.954 111.478C122.174 111.04 122.362 110.663 122.549 110.289C122.613 110.101 122.526 109.293 122.8 108.786C123.052 108.344 123.113 108.096 123.208 107.877C123.427 107.472 123.801 106.91 123.893 102.84C123.738 101.156 122.84 99.69 123.397 98.1199C124.428 95.2206 125.225 94.5616 126.021 93.1283C126.49 92.2847 127.025 91.4242 127.301 90.5983C127.551 89.8475 127.644 88.8414 127.863 87.9099C128.113 86.8478 128.696 86.1394 128.769 85.1924C128.8 84.7875 128.738 84.3049 128.423 83.8801C127.795 83.0346 126.154 82.5993 125.486 81.756C125.361 81.5985 125.248 81.4138 125.268 81.1289C125.365 79.7837 125.725 78.7435 125.328 77.9099C124.675 76.5366 124.5 75.7011 123.045 74.5044C121.795 73.477 119.816 73.3077 119.519 72.2846C119.426 71.9659 119.36 71.3388 119.458 70.8467C119.741 69.4125 121.177 67.3558 120.518 66.2263C120.299 65.8523 120.003 65.5043 119.61 65.3217C118.732 64.913 117.269 64.129 117.207 63.1948C117.176 62.7271 117.464 61.7299 117.176 60.9797C116.628 59.5514 117.176 57.9651 117.144 56.9677C117.05 55.4754 116.925 54.6618 116.832 54.0065C116.929 52.727 117.279 51.8396 117.992 51.2281C118.867 50.4773 119.934 49.8475 120.333 48.9784C120.678 48.2275 120.957 45.2151 120.737 43.3541C120.551 41.7746 120.191 39.2863 120.395 35.9431C120.551 33.3944 120.873 30.4763 121.678 29.8876C122.493 29.2924 123.659 27.5795 124.96 28.0156L125.038 28.0418C126.078 28.3908 127.705 28.9367 128.615 28.5453C129.493 28.1675 130.742 27.7268 131.176 26.8561C131.362 26.4821 131.328 26.075 131.52 25.6356C132.05 24.418 132.139 23.6384 132.394 22.7625C132.677 21.7895 132.619 19.6376 133.616 19.4526Z" fill="#BF7C52" stroke="black" stroke-width="8" stroke-linecap="round"/>
<path d="M19.2398 64.5851C19.339 64.3126 19.3267 64.0102 19.2029 63.6778C19.0792 63.3454 18.8969 63.013 18.656 62.6806C18.4152 62.3482 18.0727 61.9149 17.6286 61.3808C17.0803 60.7237 16.6477 60.1725 16.3309 59.7272C16.0175 59.2726 15.7823 58.7933 15.6252 58.2892C15.4682 57.785 15.4768 57.2934 15.6513 56.8141C15.8223 56.3443 16.2308 55.9236 16.8768 55.5522C17.5356 55.1747 18.2606 54.9225 19.0518 54.7954C19.8464 54.659 20.5209 54.6916 21.0753 54.8934C21.7425 55.1362 22.4921 55.4889 23.3241 55.9513C24.1655 56.4172 24.7639 56.8053 25.1192 57.1155L23.9187 60.4138L22.1145 59.7571C22.0404 58.8788 21.8595 58.1479 21.5717 57.5643C21.2968 56.9747 20.9244 56.5944 20.4546 56.4234C20.1727 56.3208 19.9194 56.3297 19.6946 56.4501C19.4699 56.5705 19.3062 56.7716 19.2036 57.0535C19.0942 57.3542 19.0979 57.6802 19.2149 58.0313C19.3446 58.3765 19.5329 58.7218 19.7797 59.067C20.0393 59.4062 20.3959 59.8446 20.8494 60.3822C21.3858 61.0137 21.8077 61.5504 22.1151 61.9921C22.4354 62.428 22.671 62.8915 22.8221 63.3828C22.9732 63.8741 22.9632 64.3547 22.7922 64.8245C22.6212 65.2944 22.1922 65.7129 21.5052 66.0801C20.831 66.4413 20.0778 66.6833 19.2456 66.806C18.4168 66.9194 17.7159 66.8718 17.1426 66.6632C16.4473 66.4101 15.646 66.0386 14.7388 65.5488C13.8316 65.059 13.1957 64.6573 12.831 64.3436L14.0314 61.0453L15.8357 61.702C15.9345 62.5999 16.156 63.351 16.5001 63.9551C16.8442 64.5592 17.27 64.9536 17.7774 65.1383C18.1157 65.2615 18.4178 65.265 18.6835 65.1488C18.9586 65.0361 19.1441 64.8482 19.2398 64.5851ZM36.5399 63.1559L34.8418 67.8215C34.4827 68.8082 33.9211 69.5615 33.1572 70.0816C32.4026 70.6051 31.5892 70.9103 30.7169 70.9972C29.848 71.0747 29.0611 70.9852 28.3564 70.7287C27.4073 70.3832 26.6235 69.8905 26.0052 69.2504C25.3996 68.6043 25.0034 67.8801 24.8165 67.0778C24.6425 66.2695 24.7042 65.4566 25.0018 64.6391L27.0231 59.0855L25.5548 58.1201L26.529 57.1977L31.9417 59.1677L31.5774 60.1685L29.8587 60.7241L28.176 65.3474C27.8545 66.2307 27.838 67.0069 28.1266 67.676C28.4186 68.3356 29.0438 68.8399 30.0023 69.1887C30.3688 69.3221 30.7682 69.3504 31.2005 69.2737C31.6457 69.1909 32.0592 68.9903 32.4412 68.6717C32.8326 68.3566 33.1275 67.9265 33.3259 67.3815L35.1779 62.293L33.6455 61.0649L34.6198 60.1425L38.6229 61.5995L38.2586 62.6002L36.5399 63.1559ZM45.728 64.0259C46.8369 64.4295 47.7287 65.0201 48.4034 65.7978C49.0909 66.5695 49.5191 67.4543 49.688 68.4522C49.8568 69.4502 49.7514 70.4707 49.3718 71.5137C48.9819 72.585 48.2687 73.4481 47.2322 74.1031C46.2084 74.7521 45.0776 75.1546 43.8396 75.3106C42.6144 75.4606 41.5319 75.3646 40.5922 75.0225C40.1788 74.872 39.7692 74.6964 39.3634 74.4955C38.7039 74.2022 38.1815 73.9855 37.7963 73.8453L35.3014 72.9372L35.6656 71.9364L37.3703 71.3756L40.0739 63.9473L38.6415 62.8832L39.6157 61.9608L41.8146 62.7612C42.6697 63.0724 43.521 63.3503 44.3685 63.5949C44.9835 63.7762 45.4367 63.9199 45.728 64.0259ZM41.5205 73.7003C42.0561 73.8952 42.6046 73.9086 43.1659 73.7405C43.7367 73.5758 44.2533 73.253 44.7156 72.7721C45.1908 72.2852 45.5583 71.6847 45.8183 70.9706C46.1295 70.1155 46.2848 69.294 46.2842 68.5063C46.2964 67.7126 46.1193 67.015 45.753 66.4134C45.3994 65.8059 44.8468 65.3653 44.095 65.0917C43.7849 64.9788 43.4646 64.9526 43.1339 65.0132L40.2353 72.9771C40.5846 73.2745 41.013 73.5156 41.5205 73.7003ZM60.8486 82.2356L55.0131 80.1117L55.3774 79.1109L57.3728 78.8475L57.3004 76.8098L53.1845 75.3118L52.0833 76.5392L53.6616 78.3428L52.6874 79.2652L47.9795 77.5517L48.3438 76.5509L50.4393 75.9248L56.8798 68.7553L60.1579 69.1343L60.5981 80.1172L61.8229 81.3132L60.8486 82.2356ZM57.0766 70.9339L54.1934 74.1625L57.238 75.2707L57.0766 70.9339ZM63.4548 66.3915L58.7412 66.9745L57.9417 66.1886L60.4555 63.9749L63.3744 65.3406L63.4548 66.3915ZM74.785 78.784L73.6444 78.8477L72.7573 75.5398L69.7409 74.4419L68.4993 77.853L69.8666 78.3507L71.424 77.2734L72.4248 77.6376L70.8651 81.9226L69.5323 82.076L69.3087 79.6641L68.012 79.1921L66.7858 82.5609L69.2139 84.0033L68.2397 84.9257L61.8404 82.5966L62.2046 81.5958L63.9092 81.035L66.6283 73.5645L65.1805 72.5426L66.1547 71.6202L74.9079 74.8061L76.1702 74.9782L74.785 78.784ZM84.17 90.7239L80.8435 89.5132L80.107 83.8178L79.6381 83.264L80.3688 82.5722L80.9467 82.7826C81.3696 82.9365 81.7579 82.9075 82.1117 82.6958C82.4688 82.4746 82.7483 82.0868 82.9501 81.5324C83.1724 80.9216 83.1905 80.3748 83.0044 79.892C82.8311 79.4033 82.4391 79.0477 81.8283 78.8254C81.4618 78.692 81.0795 78.6753 80.6813 78.7751L77.8186 86.6403L79.2857 87.6532L78.3114 88.5756L72.8988 86.6056L73.2631 85.6048L75.0087 84.9312L77.6867 77.5734L76.2338 76.5657L77.208 75.6433L79.9707 76.6488C80.76 76.9361 81.5503 77.1918 82.3413 77.4159C82.9188 77.5835 83.3391 77.7152 83.6022 77.811C84.3728 78.0914 85.0062 78.471 85.5024 78.9495C86.0115 79.4222 86.3484 79.9438 86.5131 80.5146C86.6778 81.0854 86.6576 81.6526 86.4524 82.2165C86.2198 82.8555 85.7224 83.3449 84.9602 83.6847C84.2074 84.0279 83.3564 84.2024 82.4072 84.2081L83.5386 85.0029L84.0258 88.708L85.1442 89.8015L84.17 90.7239ZM90.571 93.0537L85.1583 91.0836L85.5226 90.0829L87.2682 89.4093L89.9462 82.0515L88.4933 81.0438L89.4675 80.1214L94.8802 82.0914L94.5159 83.0922L92.751 83.7747L90.0781 91.1184L91.5452 92.1313L90.571 93.0537ZM102.887 84.6703C103.469 84.8823 104.12 85.1991 104.839 85.6205C105.559 86.0419 106.068 86.3975 106.367 86.6872L105.217 89.8445L103.413 89.1879C103.308 88.3941 103.077 87.7567 102.721 87.2756C102.373 86.7979 101.927 86.4599 101.382 86.2615C100.921 86.0939 100.442 86.0951 99.9437 86.2649C99.4584 86.4288 99.0055 86.7375 98.585 87.1911C98.1739 87.648 97.8487 88.2054 97.6093 88.8632C97.3391 89.6056 97.2039 90.3279 97.2037 91.0302C97.2069 91.723 97.372 92.3365 97.6991 92.8706C98.0261 93.4047 98.528 93.7948 99.2045 94.0411C100.097 94.366 101.5 94.4296 103.413 94.232L103.682 95.511L100.355 96.5827C99.8557 96.5501 99.3926 96.4773 98.9655 96.3644C98.5477 96.255 98.0992 96.113 97.62 95.9386C96.5206 95.5384 95.6352 94.9448 94.9639 94.1577C94.2926 93.3707 93.8742 92.4735 93.7088 91.4661C93.5468 90.4494 93.6607 89.4054 94.0506 88.3342C94.4508 87.2347 95.1678 86.3464 96.2018 85.6692C97.2486 84.986 98.3863 84.5647 99.6149 84.4053C100.856 84.2399 101.947 84.3283 102.887 84.6703ZM116.225 102.391L110.39 100.267L110.754 99.2664L112.75 99.003L112.677 96.9653L108.561 95.4673L107.46 96.6947L109.038 98.4982L108.064 99.4207L103.356 97.7071L103.72 96.7064L105.816 96.0803L112.257 88.9107L115.535 89.2897L115.975 100.273L117.2 101.469L116.225 102.391ZM112.453 91.0894L109.57 94.318L112.615 95.4262L112.453 91.0894Z" fill="black"/>
</svg>
