<svg width="154" height="139" viewBox="0 0 154 139" fill="none" xmlns="http://www.w3.org/2000/svg">
<path d="M143.104 16.0637C143.445 15.8602 144.412 15.445 145.897 14.77L149 13C148.475 12.4713 148.096 10.1271 146.5 9.00008C145.823 8.52233 145.762 8.1337 145.5 6.08231C145.297 4.49313 140.359 4.46316 139.5 4.00001C136.736 2.5095 134.752 3.17416 132.5 3.16621C130.239 3.15823 127.272 3.49622 124.001 3.16625C120.88 3.49225 120.272 5.24629 120.271 6.08232C120.271 7.00008 115.728 7.49992 112 9L111 9.49997C106.828 12.0165 107.226 15.6004 106.5 16C104.562 18.0017 101.246 16.2487 99.5 17C97.5082 17.8567 97.7237 22.4704 96 23C94.2726 23.5307 89.249 24.59 88 22.5C87.6044 21.838 87.8914 20.2673 87.3972 19.5296C86.4649 18.1381 86.772 14.7394 84.8111 14.1646C83.0141 13.6378 80.7375 14.5482 78.9133 14.8325C76.3749 15.228 72.8695 16.2094 70.3639 15.558C68.5749 15.0929 67.0144 13.8968 65.3965 14.1685C64.6033 14.3017 63.4564 14.4444 62.6792 15.2996C61.2917 16.8262 61.562 19.044 59.624 20.6745C55.8532 23.847 54.234 24.8832 53.3386 26.2979C52.2831 27.9657 51.9159 29.852 51.0845 29.9395C47.3296 30.3351 41.2602 30.3938 37.8956 30.8002C35.1644 31.1302 31.6329 29.5733 30.4792 30.6035C29.8849 31.1342 30.8462 34.7322 29.0202 36.1692C28.6843 36.4336 28.1517 36.54 27.6943 36.698C25.7662 37.3639 23.5613 39.0361 20.0712 38.2186C18.0854 37.7535 12.9692 35.9155 12 39.5C11.4601 41.3625 10.9375 43.1961 11.0051 43.7268C11.2038 44.6511 11.335 47.4777 11.2675 51.2227C10.532 53.6637 10.8312 56.9547 7.67952 57.7704C6.15887 58.164 4.73242 58.2505 4.30825 59.0307C3.91269 59.7582 2.58343 61.0233 3.12155 62.875C3.25672 63.3402 3.51911 63.7338 4.32614 63.9305C5.13318 64.1273 6.44511 64.1273 7.23625 64.3301C8.02738 64.5328 7.79167 68.8924 7.75732 69.2955C7.75732 71.1879 7.75732 73.0246 7.82491 74.1457C8.02369 75.6604 8.29005 76.4595 8.62201 77.2526C9.75305 78.5745 9.97707 80.3708 11.0073 82.3552C11.868 84.013 11.0465 89.0599 13.3291 90.3023C14.9213 91.169 15.676 93.229 17.0382 94.2799C18.4993 95.4069 21.0088 96.3452 20.7435 97.9254C20.6103 98.7186 19.2347 99.6903 19.0201 101.639C18.8889 102.829 20.4668 105.789 21.3434 108.262C22.069 110.26 22.9991 113.123 21.4687 115.153C20.8723 115.945 20.3922 116.846 19.6121 117.27C18.8846 117.666 13.5624 116.088 12.7245 118.67C12.5277 119.276 12.5277 120.326 12.798 121.121C13.0683 121.916 13.5298 122.556 14.0582 122.771C15.8512 123.498 17.4472 124.737 18.6281 126.152C19.2901 126.945 22.0749 128.023 25.5297 127.203C28.3106 126.543 30.2093 125.687 32.0814 125.347C36.4366 124.556 42.4561 125.475 44.4056 125.949C46.3278 126.416 47.7832 128.066 50.2497 128.002C55.6067 127.863 57.8676 125.136 59.5127 126.017L64.1123 129.979C64.6525 130.058 65.1095 130.21 65.338 130.992C65.5665 133.146 65.4862 135.462 66.0305 135.438C66.1851 135.431 66.283 134.828 66.7276 134.746C68.8073 134.36 71.0543 133.295 73.0384 132.05C75.7413 130.353 79.6447 123.782 85.7361 122.662C88.1967 122.209 95.3968 124.593 98.2745 121.272C98.8147 120.649 99.173 119.661 100.128 118.493C103.893 113.891 102.914 107.609 105.585 104.964C106.053 104.501 106.801 104.013 107.431 103.736C109.904 102.654 116.25 103.271 118.123 100.733C119.432 98.9607 119.389 96.2455 120.505 94.3465C121.593 92.4976 123.468 89.6513 126.288 89.4276C128.208 89.2752 130 91 130.666 90.3601L133.011 88.6071C133.424 88.3985 133.627 88.196 133.832 88.0252C134.652 87.3758 135.468 86.8338 136.458 86.3204C136.899 85.9461 136.474 82.8362 137.342 80.8307C137.785 79.808 137.328 76.4961 138.23 74.4205C138.943 72.7802 139.615 71.3752 139.113 68.8275C138.804 67.2618 137.494 66.5655 137.408 65.7268C137.306 64.7379 139.605 61.5396 136.615 60.3414C135.183 59.7677 133.934 59.6915 133.622 59.1132C133.416 58.7327 133.121 58.1317 133.112 57.3347C133.081 54.4457 133.575 53.6273 133.728 52.6724C133.968 51.169 134.37 47.8632 133.862 45.89C133.625 44.9675 133.071 43.8689 133.251 42.822C133.42 41.83 134.07 40.8099 134.171 39.1342C134.308 36.8557 134.709 36.0399 134.648 34.9801C134.578 33.7877 133.704 30.6506 134.683 29.0844C135.196 28.2652 137.836 28.3704 138.129 25.8333C138.603 21.7201 138.658 20.6399 139.765 19.9488C140.309 19.6093 141.152 19.7017 141.775 19.3352C142.011 19.1962 141.963 18.9142 142.046 18.6869C142.354 17.834 142.343 16.5182 143.104 16.0637Z" fill="#EC96EE" stroke="black" stroke-width="6" stroke-linecap="round"/>
<path d="M35.4715 74.86C35.4715 74.4733 35.3182 74.1 35.0115 73.74C34.7049 73.38 34.3249 73.0467 33.8715 72.74C33.4182 72.4333 32.7915 72.0467 31.9915 71.58C31.0049 71.0067 30.2115 70.5133 29.6115 70.1C29.0115 69.6733 28.4982 69.18 28.0715 68.62C27.6449 68.06 27.4315 67.44 27.4315 66.76C27.4315 66.0933 27.7515 65.38 28.3915 64.62C29.0449 63.8467 29.8382 63.2 30.7715 62.68C31.7049 62.1467 32.5649 61.88 33.3515 61.88C34.2982 61.88 35.3982 61.98 36.6515 62.18C37.9182 62.38 38.8449 62.5933 39.4315 62.82V67.5H36.8715C36.3782 66.4333 35.8182 65.6 35.1915 65C34.5782 64.3867 33.9382 64.08 33.2715 64.08C32.8715 64.08 32.5582 64.2067 32.3315 64.46C32.1049 64.7133 31.9915 65.04 31.9915 65.44C31.9915 65.8667 32.1449 66.2733 32.4515 66.66C32.7715 67.0333 33.1649 67.38 33.6315 67.7C34.1115 68.0067 34.7582 68.3933 35.5715 68.86C36.5315 69.4067 37.3049 69.8867 37.8915 70.3C38.4915 70.7 38.9982 71.1733 39.4115 71.72C39.8249 72.2667 40.0315 72.8733 40.0315 73.54C40.0315 74.2067 39.6849 74.9267 38.9915 75.7C38.3115 76.46 37.4782 77.1067 36.4915 77.64C35.5049 78.16 34.6049 78.42 33.7915 78.42C32.8049 78.42 31.6315 78.32 30.2715 78.12C28.9115 77.92 27.9315 77.7067 27.3315 77.48V72.8H29.8915C30.4249 73.88 31.0449 74.72 31.7515 75.32C32.4582 75.92 33.1715 76.22 33.8915 76.22C34.3715 76.22 34.7515 76.0867 35.0315 75.82C35.3249 75.5533 35.4715 75.2333 35.4715 74.86ZM56.4954 65.18V71.8C56.4954 73.2 56.1354 74.4 55.4154 75.4C54.7088 76.4 53.8288 77.1533 52.7754 77.66C51.7221 78.1533 50.6954 78.4 49.6954 78.4C48.3488 78.4 47.1421 78.14 46.0754 77.62C45.0221 77.0867 44.1954 76.36 43.5954 75.44C43.0088 74.5067 42.7154 73.46 42.7154 72.3V64.42L40.4354 63.88L41.2354 62.28H48.9154V63.7L47.0154 65.18V71.74C47.0154 72.9933 47.3488 73.9733 48.0154 74.68C48.6821 75.3733 49.6954 75.72 51.0554 75.72C51.5754 75.72 52.0888 75.5733 52.5954 75.28C53.1154 74.9733 53.5421 74.5333 53.8754 73.96C54.2221 73.3867 54.3954 72.7133 54.3954 71.94V64.72L51.9154 63.88L52.7154 62.28H58.3954V63.7L56.4954 65.18ZM72.4242 78H59.4042V76.58L61.2842 75.1V64.5L59.0042 63.88L59.8042 62.28H72.2242L73.8842 61.92V67.32L72.4842 67.92L69.9642 64.18H65.5842V69.02H67.5242L68.9842 66.96H70.4042V72.64L68.8042 73.44L67.4642 70.92H65.5842V76.1H69.7842L72.6842 71.96L74.0842 72.56V78.36L72.4242 78ZM85.4886 61.88C86.3152 61.88 87.2752 61.98 88.3686 62.18C89.4619 62.38 90.2619 62.5933 90.7686 62.82V67.3H88.2086C87.7152 66.3533 87.1352 65.66 86.4686 65.22C85.8152 64.78 85.1019 64.56 84.3286 64.56C83.6752 64.56 83.0752 64.78 82.5286 65.22C81.9952 65.6467 81.5686 66.24 81.2486 67C80.9419 67.76 80.7886 68.6067 80.7886 69.54C80.7886 70.5933 80.9486 71.56 81.2686 72.44C81.5886 73.3067 82.0752 74 82.7286 74.52C83.3819 75.04 84.1886 75.3 85.1486 75.3C86.4152 75.3 88.2019 74.74 90.5086 73.62L91.4286 75.1L87.7486 77.96C87.1086 78.1467 86.4952 78.2667 85.9086 78.32C85.3352 78.3733 84.7086 78.4 84.0286 78.4C82.4686 78.4 81.0886 78.06 79.8886 77.38C78.6886 76.7 77.7552 75.7667 77.0886 74.58C76.4219 73.38 76.0886 72.02 76.0886 70.5C76.0886 68.94 76.5819 67.5 77.5686 66.18C78.5686 64.8467 79.8019 63.8 81.2686 63.04C82.7486 62.2667 84.1552 61.88 85.4886 61.88ZM100.502 78H92.8222V76.58L94.7022 74.94V64.5L92.4222 63.9L93.2222 62.3H100.902V63.72L99.0022 65.38V75.8L101.302 76.4L100.502 78ZM119.97 78H111.69V76.58L114.07 75.34L113.05 72.82H107.21L106.39 74.86L109.19 76.4L108.39 78H101.71V76.58L104.05 74.84L108.85 62.92L113.13 61.9L118.69 75.46L120.77 76.4L119.97 78ZM110.09 65.56L107.95 70.92H112.27L110.09 65.56Z" fill="black"/>
</svg>
