<svg width="110" height="101" viewBox="0 0 110 101" fill="none" xmlns="http://www.w3.org/2000/svg">
<path d="M105.21 85.0029C105.931 86.5523 105.515 88.8377 106.757 92.9613C106.757 93.5947 106.757 94.2096 106.44 94.6225C105.508 95.2405 104.682 96.0788 103.636 97.0011C101.36 97.3085 98.4382 97.5844 93.5971 95.9608L93.4895 95.9247C89.4609 94.5737 84.9322 93.0549 82.5274 91.6075C79.6179 89.8562 76.4454 88.8327 73.8331 87.2603C70.9236 85.509 66.0873 82.5111 62.7572 83.9627C62.0306 84.2794 61.4157 84.8942 60.7916 85.2016C60.1675 85.509 59.3708 85.5938 59.2453 85.0867C58.9379 83.8447 59.181 80.8176 56.8574 78.6685C54.1684 76.1813 49.2874 74.0469 50.7652 71.3187C51.4918 69.9772 53.565 68.1544 53.1406 65.627C52.9326 64.388 51.8207 60.9731 48.8897 59.8391C48.3681 59.6372 47.7566 59.8655 47.1291 59.9446C44.6419 60.2582 41.5239 63.8912 38.1212 61.699C35.5377 60.0347 31.1401 60.4501 29.9516 57.8642C29.3337 56.5197 29.2106 54.9262 28.5047 53.8275C27.0421 51.5515 25.0627 48.0325 22.7043 48.0396C21.6703 48.0427 18.6923 49.5407 17.5312 47.4124C16.286 45.1301 11.7941 45.448 10.6968 40.8761C9.87708 37.4605 9.99361 34.3082 8.93623 33.3338C7.59171 32.0949 2.01855 32.8903 3.1514 30.6448C3.67306 29.6108 5.06802 28.756 6.26583 27.6421C9.05733 25.0463 7.99882 21.0772 10.0913 19.7769C12.5847 18.2274 14.7148 15.8908 16.9226 14.1877C19.2048 12.4271 20.7867 9.52058 23.5489 8.496C26.8807 7.26016 31.9833 8.2683 33.2741 6.32242C33.892 5.39088 34.2635 3.41649 35.9787 3.22041C38.6677 2.913 42.3406 2.5668 43.8315 4.88786C45.4989 7.48373 47.5647 10.7768 49.5294 11.9209C50.0572 12.2283 51.1107 12.3637 51.911 12.1228C55.0254 11.185 58.6866 7.92811 61.6362 9.43995C62.2541 9.75667 62.5085 10.3571 62.6671 10.9956C63.285 13.4828 59.9891 16.753 62.3597 19.898C63.2912 21.1338 63.8204 22.8189 65.2692 23.0993C70.1287 24.0402 67.5776 23.3324 70.0776 23.8324C70.6525 23.9474 72.1609 24.2805 73.5776 25.3324C74.1066 25.7252 74.9869 27.0509 76.5776 29.3324C78.2803 31.7744 84.9935 27.7082 86.1697 28.7972C87.5111 30.0393 89.1963 31.084 89.6816 32.7407C89.989 33.7903 90.47 35.7892 89.6723 36.3551C87.4925 37.9014 85.2176 38.849 85.3313 40.1837C85.4369 41.4226 84.843 45.1488 86.0641 49.2972C86.4864 50.7318 87.4153 50.5731 88.2439 51.2596C91.8645 54.2592 95.0575 56.6182 94.8547 59.9633C94.5349 65.2388 91.8332 68.2005 92.6842 72.7936C92.8954 73.9332 93.3053 74.7529 94.4604 75.1628C95.6155 75.5727 97.9934 75.2287 98.3821 76.4173C99.9378 81.1743 103.715 81.7873 105.21 85.0029Z" fill="#71A4BD" stroke="black" stroke-width="6" stroke-linecap="round"/>
<path d="M29.8699 25.8244C30.0339 25.6603 30.1273 25.4369 30.1499 25.154C30.1725 24.8712 30.1527 24.5686 30.0905 24.2461C30.0283 23.9237 29.9264 23.4937 29.785 22.9563C29.6097 22.2945 29.4824 21.7486 29.4032 21.3187C29.3296 20.8831 29.3212 20.456 29.3777 20.0374C29.4343 19.6188 29.6068 19.2652 29.8953 18.9767C30.1782 18.6939 30.6166 18.527 31.2105 18.4761C31.8158 18.4252 32.4268 18.4874 33.0434 18.6628C33.6656 18.8325 34.1436 19.0842 34.4774 19.418C34.879 19.8196 35.3033 20.3287 35.7502 20.9453C36.2027 21.5676 36.5054 22.0513 36.6581 22.3963L34.6725 24.3819L33.5864 23.2958C33.8297 22.6339 33.9456 22.0428 33.9343 21.5223C33.9343 21.0019 33.7929 20.6003 33.5101 20.3174C33.3404 20.1477 33.1537 20.0685 32.95 20.0798C32.7464 20.0912 32.5597 20.1817 32.39 20.3514C32.209 20.5324 32.1015 20.77 32.0676 21.0641C32.0449 21.3583 32.0647 21.6722 32.127 22.006C32.2005 22.3397 32.3108 22.7782 32.4579 23.3212C32.6332 23.9604 32.7577 24.4922 32.8312 24.9164C32.9161 25.3407 32.9302 25.7565 32.8737 26.1638C32.8171 26.5711 32.6474 26.9161 32.3645 27.199C32.0817 27.4818 31.6292 27.6402 31.0069 27.6742C30.396 27.7081 29.768 27.6289 29.1232 27.4366C28.4839 27.2386 27.9918 26.9671 27.6467 26.622C27.2281 26.2034 26.7727 25.6632 26.2806 25.0013C25.7885 24.3394 25.4632 23.8332 25.3048 23.4824L27.2903 21.4969L28.3765 22.583C28.1445 23.2675 28.0512 23.8869 28.0964 24.4413C28.1417 24.9956 28.3171 25.4256 28.6225 25.731C28.8262 25.9347 29.044 26.0393 29.2759 26.045C29.5135 26.0563 29.7115 25.9828 29.8699 25.8244ZM42.8964 30.6372L40.0878 33.4458C39.4938 34.0398 38.832 34.3962 38.1023 34.515C37.3782 34.6394 36.6852 34.5857 36.0234 34.3537C35.3672 34.1161 34.8269 33.7852 34.4027 33.361C33.8313 32.7896 33.4297 32.1674 33.1978 31.4942C32.9771 30.821 32.9347 30.162 33.0705 29.5171C33.2176 28.8722 33.5372 28.3037 34.0293 27.8116L37.3725 24.4684L36.6343 23.272L37.6525 22.9325L40.9109 26.1909L40.3084 26.7934L38.8744 26.6152L36.0912 29.3983C35.5595 29.9301 35.2851 30.4873 35.2682 31.0699C35.2569 31.6469 35.5397 32.2239 36.1167 32.8009C36.3373 33.0215 36.6173 33.1771 36.9567 33.2676C37.3075 33.3581 37.6752 33.3525 38.0598 33.2507C38.4501 33.1545 38.8094 32.9424 39.1375 32.6143L42.2006 29.5511L41.5049 28.1425L42.5231 27.8031L44.9329 30.2129L44.3304 30.8154L42.8964 30.6372ZM47.8131 46.449L44.5548 43.1906L45.1572 42.5882L46.5828 42.7579L50.2654 39.0753L43.3414 41.9772L42.4504 41.0863L45.3354 34.0435L41.3983 37.9807L42.0262 39.3044L41.0079 39.6438L38.683 37.3188L39.2854 36.7164L40.7109 36.8861L45.1148 32.4822L44.5124 31.15L45.5306 30.8106L48.2459 33.5259L45.7088 39.7117L51.8606 37.1406L54.6607 39.9408L54.0583 40.5432L52.6243 40.365L48.0931 44.8962L48.8314 46.1096L47.8131 46.449ZM56.0759 54.6948L52.563 51.1819L53.1655 50.5795L54.7013 51.0631L55.3377 49.5612L52.86 47.0835L51.6466 47.6011L52.1812 49.4424L51.163 49.7818L48.3289 46.9478L48.9313 46.3453L50.6623 46.5999L57.756 43.5791L60.0046 44.9622L56.6105 53.0741L57.0942 54.3554L56.0759 54.6948ZM57.1621 45.2252L53.9801 46.5914L55.8129 48.4242L57.1621 45.2252ZM67.0733 56.9693L66.2247 56.6299L66.7508 53.643L66.1144 53.0066L61.159 57.962L61.9057 59.167L60.8875 59.5064L57.6291 56.248L58.2316 55.6456L59.6571 55.8153L64.2901 51.1823L63.6791 50.5714L60.6923 51.0975L60.3529 50.2489L62.8136 47.7882L63.3652 48.6452L68.677 53.957L69.534 54.5085L67.0733 56.9693ZM70.0903 68.7092L68.0878 66.7067L69.4794 62.3283L69.3266 61.7682L70.0903 61.5137L70.4382 61.8616C70.6928 62.1161 70.9841 62.2264 71.3122 62.1925C71.6459 62.1529 71.9797 61.9662 72.3134 61.6325C72.6811 61.2648 72.8791 60.8744 72.9074 60.4615C72.947 60.0485 72.783 59.6582 72.4153 59.2905C72.1947 59.0699 71.9231 58.9285 71.6007 58.8663L66.8659 63.601L67.5871 64.8314L66.5689 65.1708L63.3106 61.9125L63.913 61.31L65.4064 61.4118L69.8357 56.9825L69.123 55.7606L70.1412 55.4212L71.8043 57.0843C72.2795 57.5595 72.766 58.0121 73.2638 58.442C73.6258 58.7588 73.8861 58.9964 74.0444 59.1548C74.5083 59.6186 74.8392 60.1079 75.0372 60.6227C75.2465 61.1375 75.3144 61.6296 75.2409 62.0991C75.1673 62.5687 74.9609 62.9731 74.6214 63.3125C74.2368 63.6972 73.7107 63.8839 73.0432 63.8726C72.3813 63.8669 71.7053 63.7057 71.0152 63.3889L71.5667 64.3477L70.6673 67.1988L71.1085 68.3698L70.0903 68.7092ZM78.0929 76.7118L74.58 73.1989L75.1825 72.5964L76.7183 73.0801L77.3547 71.5782L74.877 69.1005L73.6636 69.6181L74.1982 71.4594L73.1799 71.7988L70.3459 68.9647L70.9483 68.3623L72.6793 68.6168L79.773 65.5961L82.0216 66.9792L78.6275 75.0911L79.1112 76.3724L78.0929 76.7118ZM79.179 67.2422L75.9971 68.6084L77.8299 70.4412L79.179 67.2422Z" fill="black"/>
</svg>
