<svg width="111" height="118" viewBox="0 0 111 118" fill="none" xmlns="http://www.w3.org/2000/svg">
<path d="M28.2555 23.9129C28.159 22.1946 27.6395 21.1557 28.0327 17.2261C28.2555 15 34.1485 14.0218 36.2187 13.2008C37.4532 12.7113 40.1186 12.8055 41.4214 11.6104C41.9494 11.1261 42.2909 10.4757 42.7883 10.1562C43.8944 9.44566 45.0678 8.50863 46.0089 7.68451C47.4247 6.44469 48.4029 4.64842 49.6701 4.11458C49.9811 3.98358 50.3588 3.91577 50.64 4.07356C51.7435 4.69281 52.801 5.49897 53.2837 6.89987C53.7706 8.31302 54.1823 14.8666 53.899 18.9924C53.6754 22.2487 53.7262 24.6585 53.858 26.7475C54 29 53.6215 29.2991 55.9941 30.9317C59 33 61.4192 32.2715 62.7004 32.7602C63.8561 33.201 65.9254 33.3111 67.1563 33.4932L67.2128 33.5016C68.0686 33.6286 69.1888 33.7947 72.9054 33.6488C78.0444 33.447 79.4735 31.7883 80.6998 31.1779C81.5568 30.7513 82.4056 30.141 83.2329 29.774C83.9637 29.4498 84.6642 28.739 85.5199 28.1276C86.7218 27.2689 87.7758 26.4804 88.8428 26.0832C90.9796 25.2879 91.8647 25.2577 92.444 25.3483C93.2547 25.4751 93.8781 26.4145 94.3082 27.2372C94.7258 28.036 93.3363 28.7939 92.7854 29.4949C92.0749 30.3989 92.2344 31.9018 91.7787 33.2754C91.3972 34.4253 91.0777 35.804 90.589 37.454C90.1719 38.8622 89.9776 39.8984 90.0371 40.324C90.2461 41.819 92.4724 41.7306 93.512 41.9127C94.6202 42.1068 96.3124 42.7629 97.934 43.4062C98.8724 43.7785 99.7351 44.2308 101.166 44.5968C102.543 44.5987 102.007 44.9662 103.5 45.5C104.898 46 103.211 47.6594 102.74 49.3081L102.736 49.3215C102.388 50.5407 103.285 51.5312 103.404 55.3449C103.476 57.6199 104.307 58.7092 104.98 59.5763C105.601 60.3758 105.651 61.4678 106.163 62.6117C106.618 63.6272 107.307 64.5434 107.623 65.5299C108.214 67.378 107.08 70.6094 106.286 72.1532C105.379 73.9163 103.843 74.4043 102.66 75.1909C101.419 76.0164 99.9821 76.6092 98.9517 76.7335C98.7551 76.7572 98.714 76.3821 98.5176 76.3005C97.2168 75.7598 95.9554 78.2653 95.3237 79.2129C94.6063 80.2889 93.7457 81.4971 93.0371 82.1323C92.696 82.4381 92.4066 83.0775 91.6211 83.5507C89.7173 84.6976 87.8358 84.2604 86.4151 84.5384C84.462 84.9206 82.6309 87.0237 81.6029 87.4555C80.546 87.8995 79.7871 88.9117 79.1968 89.9385C78.9672 90.3379 78.2895 90.0213 77.8566 90.0591C76.6044 90.1686 76.8677 92.2239 76.3578 93.5642C75.817 94.9859 73.3236 94.6702 72.7298 95.5763C71.9013 96.8405 70.3332 97.1969 69.181 97.7848C67.9786 98.3984 68.1944 100.031 66.4259 101.922C65.4403 102.975 64.3333 103.268 62.5649 104.526C59.1749 106.939 55.5986 105.004 53.2931 105.397C51.8609 105.641 49.5136 106.499 47.5381 107.485C45.6992 108.402 43.282 106.821 41.6223 106.621C39.2711 106.338 36.4162 106.268 35.4687 106.619C34.3592 107.03 33.0283 107.999 31.4882 109.14C30.3324 109.995 28.6941 110.834 24.9974 111.745C17.6244 113.561 16.1503 111.714 14.7296 111.353C13.715 111.095 12.7577 111.312 11.5357 111.902C10.2309 112.887 9.67969 113.677 9.2077 113.992C8.96996 114.151 9 114.5 8.25781 114.704C7.10729 115.021 6.16064 113.627 6 113.5C5.65003 113.31 5.71856 112.846 3.86924 111.343C3.55369 110.549 3.52239 109.862 3.81091 109.401C4.12933 108.893 5.06683 108.446 5.43648 107.224C6.6327 103.27 9.33538 101.695 9.6113 100.892L9.63069 100.836C9.99879 99.7674 11.7833 94.5888 9.79872 93.4028C9.4803 93.2125 9.1301 92.9046 8.90657 92.4131C8.39595 91.2906 7.13959 89.7206 7.47608 88.8092C8.01729 87.3433 6.79269 85.8554 8.43229 83.2612C9.68876 81.2733 11.8416 79.3775 12.5469 78.6733C13.8846 77.3375 14.2861 76.6716 14.9336 74.5329C15.0282 74.2202 15.4601 73.5514 15.5 73.5C15.9475 72.9234 16.4474 73.1449 16.4951 71.846C16.5582 70.1257 16.4054 68.8019 15.9166 68.4763C15.3438 68.0947 14.5374 67.8575 14.5492 67.326C14.5846 65.7329 13.6517 60.0086 15.8917 58.9792C16.3057 58.7889 17.7363 58.8202 17.8022 57.8881C17.8969 56.5494 17.8576 55.388 18.1541 55.1218C18.4725 54.8359 19.2281 54.8598 20.1641 54.1971C20.7043 53.8147 21.3878 53.4145 21.4358 52.563C21.5955 49.7335 22.6845 47.184 21.2723 46.3878C20.3142 45.8475 17.5765 46.4017 17.4178 45.1743C17.3232 44.4419 17.1862 43.3719 17.7391 42.4663C18.2832 41.5751 19.1217 40.3252 20.035 38.8958C20.7694 37.7465 21.196 36.6335 22.108 35.965C23.0643 35.2641 24.027 35.2481 24.5607 34.5948C24.8466 34.2448 25.1246 33.8776 25.1651 33.4464C25.3553 31.4163 25.5457 28.3214 26.2819 27.5504C26.8891 26.9145 28.2153 26.9387 28.3206 26.0175C28.4152 25.1895 28.2883 24.4963 28.2555 23.9129Z" fill="#587956" stroke="black" stroke-width="6" stroke-linecap="round"/>
<path d="M32.8328 65.9401L31.7724 66.5404L29.1021 63.5037L27.9094 63.6357L28.9372 72.923L30.8136 73.15L30.3183 74.4926L24.2115 75.1684L24.0866 74.0393L25.4512 72.6971L24.4903 64.0141L23.3453 64.1408L21.4037 67.6879L20.2377 67.334L19.7273 62.7221L21.0789 62.8623L31.0341 61.7606L32.3224 61.3283L32.8328 65.9401ZM46.972 72.6496L40.3882 73.3782L40.2632 72.2491L42.0465 71.0537L41.0137 69.1397L36.3701 69.6536L35.8976 71.3478L38.2595 72.3259L37.7642 73.6686L32.4526 74.2564L32.3276 73.1273L34.0352 71.5378L36.8029 61.6373L40.1164 60.4496L45.7307 70.7425L47.4673 71.3069L46.972 72.6496ZM38.0212 63.6274L36.7913 68.0777L40.2263 67.6975L38.0212 63.6274ZM54.1976 71.8499L48.0909 72.5257L47.9659 71.3966L49.3165 69.9272L48.3978 61.6258L46.5321 61.3494L47.0274 60.0068L53.1341 59.3309L53.2591 60.4601L51.8944 61.9472L52.8113 70.2326L54.6929 70.5073L54.1976 71.8499ZM72.9071 69.7955L66.8004 70.4713L66.6755 69.3422L68.0401 67.9999L67.2763 61.0981L64.5263 70.723L62.8565 70.9078L57.9307 62.0357L58.7473 69.4147L60.6483 69.8643L60.153 71.207L55.7956 71.6892L55.6707 70.5601L57.0353 69.2178L56.1219 60.9642L54.2333 60.481L54.7286 59.1384L59.8175 58.5752L64.1413 66.3709L66.5922 57.8255L71.8401 57.2447L71.9651 58.3738L70.5845 59.7178L71.5243 68.21L73.4025 68.4529L72.9071 69.7955ZM80.5989 68.9282L74.4922 69.604L74.3672 68.4749L75.7178 67.0054L74.7991 58.7041L72.9334 58.4276L73.4287 57.085L79.5354 56.4092L79.6604 57.5383L78.2957 59.0254L79.2126 67.3108L81.0942 67.5855L80.5989 68.9282ZM94.9175 67.3435L91.1644 67.7589L87.7671 62.6617L87.057 62.3539L87.4284 61.3469L88.0805 61.2748C88.5576 61.222 88.9151 61.0107 89.1533 60.6409C89.3902 60.2606 89.474 59.7576 89.4048 59.1321C89.3286 58.443 89.0873 57.9116 88.6811 57.538C88.2843 57.1527 87.7413 56.9981 87.0522 57.0744C86.6387 57.1201 86.2652 57.2849 85.9318 57.5686L86.9138 66.4425L88.7954 66.7172L88.3001 68.0598L82.1934 68.7356L82.0684 67.6065L83.419 66.137L82.5003 57.8357L80.6346 57.5592L81.1299 56.2166L84.2469 55.8717C85.1374 55.7731 86.0139 55.6439 86.8762 55.4841C87.5076 55.3713 87.9718 55.2985 88.2686 55.2656C89.138 55.1694 89.923 55.2328 90.6238 55.4557C91.334 55.6669 91.9028 56.0064 92.3302 56.4742C92.7576 56.942 93.0065 57.494 93.0769 58.1301C93.1567 58.851 92.9125 59.5542 92.3445 60.2395C91.787 60.9236 91.0558 61.4928 90.151 61.9471L91.6086 62.1721L93.8264 65.4843L95.4128 66.0009L94.9175 67.3435Z" fill="black"/>
</svg>
