<svg width="116" height="146" viewBox="0 0 116 146" fill="none" xmlns="http://www.w3.org/2000/svg">
<path d="M71.1625 8.31711C71.6905 7.78916 73.7266 7.04004 75.857 6.02811C76.3117 5.81212 77.3494 5.44913 78.6808 4.32736C79.1672 3.91751 79.3484 3.3678 79.8874 3.11824C80.9771 2.61376 82.2186 3.90773 83.0546 4.77901L83.0918 4.81774C83.3248 5.06048 83.4237 5.43915 83.6321 5.65003C84.0128 6.03533 85.7421 6.02811 87.9046 6.15165C88.6757 6.1957 88.7493 6.52224 88.7917 6.93776C88.8342 7.35328 88.8342 7.92977 89.0401 8.35028C89.7587 9.81795 92.4778 9.52196 94.2783 9.85263C95.6988 10.1135 96.0664 12.2621 96.6517 13.2205C98.1772 15.7186 97.8134 21.0816 98.3986 21.9963C99.0967 23.0873 100.309 23.5772 101.308 24.2024C101.546 24.3512 101.806 24.4108 101.975 24.5767C102.691 25.2825 102.56 26.4047 102.684 27.0698C102.916 28.3215 105.55 27.655 106.922 27.8634C108.263 28.067 108.045 30.4002 109.045 31.1476C109.491 31.4815 110.044 31.5657 110.46 31.814C111.498 32.4343 111.29 34.3083 111.668 37.8321C111.82 39.2505 112.293 40.2129 112.211 41.0852C112.091 42.3475 110.8 43.2077 110.049 44.6614C108.953 46.7821 108.39 48.6082 108.257 48.8278C107.94 49.3549 108.135 50.1979 107.762 50.6134C106.632 51.8723 104.397 53.6044 103.809 54.6887C103.293 55.6403 102.894 56.6839 102.313 57.6834C101.731 58.684 101.397 59.6787 101.105 60.7605C101.018 61.0848 101.063 61.5055 101.186 61.7999C101.666 62.9447 103.304 63.0927 104.221 63.5082C105.17 63.9384 105.22 65.4186 105.223 68.4894C105.224 70.0273 104.142 70.9089 103.312 71.6189C102.208 72.5637 100.489 74.4826 99.569 76.1073C99.0027 77.1077 97.7385 77.4 97.2394 78.1861C95.7537 80.526 99.0402 80.2235 98.7266 82.04C98.7266 84.04 100.227 85.9307 100.227 87.04C100.227 88.3306 99.1505 90.2685 98.7266 91.54C98.2266 93.04 97.6807 94.0014 96.7266 95.04C95.4604 96.4184 94.9594 96.4249 94.2266 97.54C93.4211 98.7659 92.4977 99.3588 91.5831 100.524C91.1822 101.035 92.1013 101.463 91.2266 104.54C90.9199 105.619 91.4758 107.414 91.7266 107.54C92.6777 108.018 92.5229 109.163 93.2266 110.04C93.5955 110.5 94.7266 112.45 94.7266 113.04C94.7266 114.04 94.6248 114.999 93.7266 116.04C93.0382 116.838 93.3518 118.041 92.7266 119.04C92.1436 119.972 90.2517 121.071 89.6265 122.111C88.9752 123.196 87.6879 124.096 87.7266 127.54C87.745 129.175 90.6609 130.469 90.8718 132.382C90.9462 133.057 91.0802 133.716 90.9567 134.422C90.7628 135.531 89.0887 135.465 83.118 135.591C81.0799 135.634 80.1045 136.214 75.2518 136.422C73.6133 136.493 72.7026 138.29 71.6182 138.836C71.1054 139.093 70.6187 138.213 69.9973 138.088C68.4 137.767 67.3769 138.874 66.2951 139.251C64.9525 139.719 63.7184 139.708 62.3857 139.834C61.1078 139.955 62.2261 141.581 61.2266 142.04C60.1936 142.515 59.6349 141.579 57.2266 141.54C56.7052 141.532 54.0654 141.545 53.9393 141.294C53.3283 140.078 51.3938 138.682 51.2266 133.54C51.1644 131.627 50.8526 129.989 50.7266 127.54C50.6573 126.193 50.4749 124.797 50.2266 123.04C50.0455 121.759 49.6412 119.998 48.7266 119.04C47.8806 118.154 47.3958 118.037 46.2266 117.54C45.1369 117.077 44.3106 116.663 43.7266 115.54C43.324 114.766 43.2245 113.456 42.7266 113.04C41.4895 112.008 40.7245 111.913 40.2266 111.54C39.6866 111.135 38.5876 110.439 38.4242 109.1C38.2896 107.998 38.4242 106.846 38.4242 105.54C38.4242 103.687 38.7266 102.419 38.7266 100.54C38.7266 99.2069 38.4179 97.6219 39.4174 96.6636C40.3375 95.7814 41.5774 95.2061 42.8276 94.1692C43.3529 93.7336 43.7435 93.2096 44.2427 92.4248C45.1545 90.9909 43.4337 90.5379 43.2266 90.04C42.7855 88.9798 42.0564 88.2912 41.2266 87.54C40.0005 86.4301 37.7641 85.9724 36.4314 86.2195C35.1086 86.4647 34.7266 85.54 33.2266 85.04C31.5062 84.4666 30.821 83.821 29.7266 83.54L28.2266 82.54C26.7266 82.04 26.6985 81.7299 25.6579 81.3967C24.1744 80.9218 21.7073 80.2287 20.4184 79.7309C18.4015 78.9519 17.3001 79.5637 13.1087 79.7309C11.262 79.8045 9.97797 80.3124 8.60539 80.2737C7.42664 80.2405 7.14796 78.241 6.8959 75.1252C6.83559 74.3797 4.98676 74.248 3.98727 73.6191C3.49982 73.3124 3.72661 71.3257 3.72661 70.54C3.72661 68.54 3.22661 66.617 3.22661 64.54C3.22661 63.54 3.35163 62.1438 3.22684 60.04C2.91211 54.7336 2.93707 52.0379 3.22656 51.54C4.12529 49.9944 5.88518 50.5348 7.51356 49.9533C8.99329 49.4249 10.1327 48.2139 11.0099 46.9598C11.7712 45.8715 12.7132 44.7999 14.1269 43.3424C15.0112 42.4308 15.3785 41.4707 15.7116 40.1817C15.7952 39.8062 15.8776 39.3944 16.0024 39.0587C16.1272 38.7231 16.7266 38.54 17.1729 37.6956C17.4262 37.2164 17.3502 36.8991 17.5288 36.5431C18.5014 35.044 18.2879 32.4881 19.6472 31.9596C20.7266 31.54 22.178 31.245 24.5046 31.654C26.2658 31.9636 30.2622 31.4873 35.4129 31.2544C41.2653 30.9898 44.4626 30.9366 46.2868 30.5491C47.5266 30.2858 48.9458 30.1319 49.9917 29.4893C51.1415 28.7827 52.7486 27.5723 54.1822 26.3123C55.2857 25.3424 56.1905 24.0506 57.4465 23.4027C58.8159 22.6961 60.4019 22.1735 62.1715 21.8162C64.8126 21.2829 66.8205 19.6573 67.6759 17.8877C68.2528 16.6941 69.235 15.3981 69.5734 14.1391C70.1 12.1795 70.1861 9.29356 71.1625 8.31711Z" fill="#587956" stroke="black" stroke-width="6" stroke-linecap="round"/>
<path d="M20.5421 58.7811L19.606 59.4358L16.8434 56.8398L15.742 57.0693L17.529 65.6451L19.3003 65.6897L18.9577 66.9868L13.3188 68.1618L13.1016 67.1192L14.2555 65.7449L12.5848 57.7271L11.5275 57.9474L10.0317 61.4308L8.91194 61.2045L8.0246 56.9459L9.2985 56.9563L18.4911 55.0409L19.6548 54.5226L20.5421 58.7811ZM34.3356 63.7826L28.2562 65.0493L28.0389 64.0067L29.5967 62.7322L28.4622 61.038L24.1743 61.9314L23.8843 63.5547L26.1758 64.257L25.8332 65.5542L20.9285 66.5762L20.7113 65.5336L22.1632 63.898L23.8638 54.4116L26.8503 53.0079L33.0072 62.1135L34.6782 62.4854L34.3356 63.7826ZM25.1782 56.1603L24.427 60.4232L27.5988 59.7623L25.1782 56.1603ZM47.1165 61.1194L43.6509 61.8416L40.0261 57.3873L39.3359 57.1634L39.5928 56.1905L40.1949 56.0651C40.6354 55.9733 40.9503 55.7442 41.1396 55.3779C41.3268 55.0018 41.3602 54.525 41.2399 53.9474C41.1073 53.3111 40.8348 52.8367 40.4224 52.5242C40.0177 52.1999 39.4972 52.1041 38.8609 52.2367C38.4791 52.3163 38.1452 52.5033 37.8593 52.7978L39.5667 60.9918L41.3472 61.0805L41.0046 62.3776L35.3657 63.5526L35.1485 62.51L36.2779 61.0182L34.6807 53.3529L32.9149 53.2612L33.2575 51.964L36.1356 51.3643C36.958 51.1929 37.7644 50.9942 38.5549 50.7682C39.1342 50.6067 39.5608 50.4974 39.8349 50.4402C40.6377 50.273 41.376 50.2621 42.0499 50.4077C42.7315 50.5415 43.2926 50.8076 43.7331 51.2062C44.1737 51.6047 44.4552 52.0976 44.5776 52.685C44.7163 53.3507 44.5511 54.0287 44.082 54.7188C43.6227 55.407 42.9911 56.0034 42.1871 56.508L43.5675 56.5881L45.9325 59.4815L47.4591 59.8223L47.1165 61.1194ZM58.0567 50.9642L57.1206 51.619L54.3579 49.0229L53.2566 49.2524L55.0435 57.8282L56.8149 57.8728L56.4723 59.17L50.8334 60.345L50.6161 59.3023L51.7701 57.9281L50.0994 49.9103L49.0421 50.1306L47.5462 53.614L46.4265 53.3876L45.5392 49.1291L46.8131 49.1394L56.0056 47.224L57.1694 46.7057L58.0567 50.9642ZM71.8502 55.9657L65.7707 57.2325L65.5535 56.1899L67.1112 54.9153L65.9768 53.2211L61.6889 54.1146L61.3989 55.7378L63.6904 56.4402L63.3478 57.7373L58.4431 58.7593L58.2259 57.7167L59.6778 56.0812L61.3784 46.5948L64.3649 45.1911L70.5217 54.2966L72.1927 54.6686L71.8502 55.9657ZM62.6928 48.3434L61.9415 52.6063L65.1134 51.9454L62.6928 48.3434ZM84.631 53.3026L81.1655 54.0247L77.5406 49.5705L76.8505 49.3465L77.1074 48.3737L77.7095 48.2482C78.15 48.1564 78.4649 47.9274 78.6542 47.5611C78.8414 47.185 78.8748 46.7081 78.7545 46.1305C78.6219 45.4942 78.3494 45.0198 77.937 44.7074C77.5323 44.3831 77.0118 44.2872 76.3755 44.4198C75.9937 44.4994 75.6598 44.6864 75.3739 44.9809L77.0813 53.175L78.8618 53.2636L78.5192 54.5608L72.8803 55.7357L72.663 54.6931L73.7925 53.2014L72.1953 45.536L70.4294 45.4443L70.772 44.1471L73.6502 43.5474C74.4725 43.3761 75.279 43.1774 76.0695 42.9514C76.6487 42.7898 77.0754 42.6805 77.3495 42.6234C78.1523 42.4561 78.8906 42.4453 79.5644 42.5909C80.2461 42.7246 80.8072 42.9908 81.2477 43.3893C81.6883 43.7878 81.9697 44.2808 82.0921 44.8681C82.2308 45.5338 82.0657 46.2118 81.5966 46.902C81.1373 47.5901 80.5057 48.1865 79.7017 48.6911L81.0821 48.7712L83.447 51.6647L84.9736 52.0054L84.631 53.3026ZM91.2996 51.9131L85.6607 53.088L85.4434 52.0454L86.5729 50.5537L84.9757 42.8883L83.2098 42.7966L83.5524 41.4994L89.1913 40.3245L89.4085 41.3671L88.2675 42.8766L89.8616 50.5272L91.6422 50.6159L91.2996 51.9131ZM105.593 48.9347L99.5138 50.2015L99.2965 49.1589L100.854 47.8843L99.7198 46.1901L95.4319 47.0836L95.142 48.7069L97.4334 49.4092L97.0908 50.7064L92.1861 51.7283L91.9689 50.6857L93.4208 49.0502L95.1215 39.5638L98.1079 38.1601L104.265 47.2656L105.936 47.6376L105.593 48.9347ZM96.4358 41.3124L95.6846 45.5753L98.8564 44.9144L96.4358 41.3124Z" fill="black"/>
</svg>
