<svg width="211" height="133" viewBox="0 0 211 133" fill="none" xmlns="http://www.w3.org/2000/svg">
<path d="M194.672 102.849C194.929 104.064 194.691 106.061 195.056 106.941C195.358 107.671 194.672 112.799 194.494 112.94C193.611 113.579 192.328 114.222 190.79 114.702C188.748 115.338 187.029 115.656 186.815 116.64C186.639 117.452 186.688 123.031 184.735 122.239C184.383 122.097 180.815 120.081 178.215 119.739C177.967 119.706 177.662 119.819 177.44 120.059C176.984 120.551 177.147 122.04 176.17 122.419C175.36 122.733 173.897 121.412 172.825 122.63C172.546 122.947 172.822 124.477 172.227 127.955C172.119 128.585 171.917 128.762 171.626 128.794C170.992 128.864 169.326 129.685 167.82 129.851C167.187 129.921 165.676 128.443 162.73 127.943C159.847 127.454 157.43 126.963 155.976 127.492C153.938 128.234 149.226 129.592 146.107 127.976C144.135 126.955 142.742 125.856 141.992 125.761C139.761 125.481 137.276 126.642 135.687 126.044C135.125 125.832 134.806 125.285 134.099 124.771C132.159 123.363 131.057 122.07 129.194 121.884C125.749 121.541 124.775 121.63 123.001 121.747C120.87 121.887 117.034 123.434 115.465 122.625C115.255 122.517 115.277 122.299 115.183 122.096C114.761 121.177 114.929 119.383 113.736 119.067C113.209 118.928 112.65 118.949 112.256 118.608C111.729 118.15 111.469 117.589 111.166 117.269C110.461 116.526 110.103 115.258 109.121 114.768C108.7 114.558 103.952 115.737 103.698 113.815C103.628 113.287 103.571 112.689 103.131 112.407C102.639 112.091 100.901 111.226 99.0743 112.023C97.7762 112.59 97.0822 113.88 95.4835 113.537C94.3219 113.287 93.4992 112.002 92.526 111.314C91.4298 110.539 86.7101 111.278 84.594 109.656C83.538 108.846 82.3567 106.563 79.8215 106.239C76.549 105.821 74.4064 105.828 74.0639 106.105C73.8874 106.248 73.7621 106.468 73.5703 106.705C72.6866 107.799 71.7884 108.824 70.749 108.922C70.0102 108.992 69.3061 108.918 68.9901 108.531C68.6741 108.144 68.3019 106.787 67.0145 106.274C65.3466 105.609 64.7465 106.032 63.884 106.032C63.0214 106.032 62.1843 106.032 61.586 106.104C60.6389 106.315 59.8652 106.738 57.5703 106.806C56.2691 106.455 54.8572 106.655 54.227 105.43C53.7365 104.476 53.7347 102.669 52.4607 102.543C51.4047 102.438 50.3093 102.551 50.2113 102.154C49.9312 101.017 50.039 98.7595 49.0771 98.5261C48.6458 98.4214 47.8087 98.4214 47.3901 98.3136C46.9715 98.2058 46.9551 97.993 47.0075 97.784C47.1132 97.3623 47.2845 96.8705 47.3594 96.3391C47.3943 96.0917 47.4007 95.8137 46.6396 95.7778C44.4198 95.6731 42.6276 95.6983 42.4252 95.3529C42.3206 95.1742 42.3206 94.8952 42.2846 94.6478C42.2487 94.4005 42.1789 94.1912 41.7128 94.0865C41.2466 93.9819 40.3991 94.0559 39.8831 93.946C38.7225 93.6986 34.4122 94.6487 34.1804 92.7779C34.0758 91.9334 33.9637 91.1393 33.6508 90.6311C33.3697 90.1745 33.0493 89.7427 32.4849 89.5403C31.1118 89.0477 27.5278 90.2654 27.0962 88.6957C26.4651 86.4009 25.379 81.7101 24.3838 80.1306C23.7845 79.1793 22.8944 78.1723 23.1186 77.2777C23.2243 76.8559 23.4754 76.4505 23.7549 75.8655C24.4948 74.3169 25.8015 73.7898 25.7612 72.8022C25.6872 70.9894 24.448 65.0601 26.0455 63.9253C26.8922 63.3238 28.057 63.0704 28.6183 62.1611C29.4248 60.8546 30.963 59.2638 28.9291 55.2143C28.224 53.8105 27.743 52.7536 27.0264 52.2282C26.8837 52.1235 26.6706 52.1116 26.3182 52.2313C24.7697 52.7577 23.8534 53.3045 22.5499 52.8613C22.2328 52.7535 21.9633 52.5555 21.9189 52.1521C21.8142 51.2018 21.897 49.8923 21.106 49.1607C20.1906 48.314 19.6177 47.4482 18.2869 46.5181C17.2267 45.7771 16.4576 44.6458 15.397 44.0869C14.1994 43.4559 12.9237 43.5209 12.1212 42.7138C11.3834 41.9718 11.5376 40.7496 10.7482 40.2816C9.68374 39.6506 8.104 39.7088 7.82125 38.5756C7.15321 35.8981 8.1327 30.5475 6.48411 30.242C5.53173 30.0654 3.98255 30.1741 3.87748 28.9915C3.6333 26.2432 3.47146 24.2174 3.45678 22.7497C3.4219 19.2626 2.99108 16.4047 3.00014 15.4055C3.00331 15.0556 3.21071 14.9675 3.46101 14.951C3.98846 14.9161 4.70175 14.7884 5.82347 14.0313C7.23143 13.0811 7.97209 12.1709 9.10132 12.0262C11.3285 11.7408 13.7805 11.479 13.8875 10.4343C13.9922 9.41319 13.931 8.22936 14.4531 8.04328C15.3367 7.72828 16.4029 7.49647 16.9899 6.45562C17.5861 5.39859 18.0952 5.11886 18.8584 4.67135C19.6353 4.21577 20.6738 2.63653 21.3914 3.07735C22.3584 3.67139 21.2146 6.66166 21.2465 6.75618C21.2785 6.85071 21.3406 6.94382 21.3716 7.31015C21.2748 9.10985 20.7237 10.6717 21.3575 11.4917C21.9388 12.2437 22.4017 12.749 22.9719 12.8372C23.3797 12.9002 23.8018 13.1733 24.4961 13.2609C25.857 13.4325 26.731 13.4615 28.0992 12.9773C28.6786 12.7723 30.3925 10.3135 30.95 11.1136C31.0591 11.2702 31.0694 12.9536 32.4412 13.0262C33.5787 13.0864 35.0595 12.7908 36.5489 12.3655C36.9853 12.2409 38.3912 11.4769 39.1687 12.5136C39.8389 13.4071 39.9515 14.151 40.0731 14.3749C40.4671 15.101 41.1021 17.378 42.0514 17.3042C42.6623 17.2567 43.2684 16.898 43.7905 16.928C44.6355 16.9764 45.5159 16.9419 46.0618 18.0909C46.2326 18.4502 46.2349 18.9393 46.5161 19.3921C46.9248 20.05 47.5053 20.3776 47.9255 20.7686C48.3584 21.1714 48.3194 21.0951 48.4088 21.2519C48.5862 21.5847 48.9424 22.1184 49.6108 22.5173C50.3685 22.652 51.6994 23.1295 53.1247 23.251C54.4241 23.3617 56.4034 23.8287 58.4397 23.9407C59.2161 23.9834 61.3955 24.9309 63.0196 24.0501C63.8854 23.5805 64.6763 22.4921 65.0627 21.2892C65.4409 20.1119 65.976 19.4681 66.3741 18.8239C66.7323 18.2442 67.1776 17.2952 68.3785 17.1576L68.3853 17.1568C68.9591 17.0911 69.5038 17.0287 69.8007 17.4071C70.2889 18.0294 70.7788 18.5055 70.9326 18.8505C71.2201 19.4956 71.6537 20.1343 71.4643 21.0524C71.3082 21.8089 70.4018 23.8892 71.6904 24.8772C72.5569 25.5416 73.3106 25.2447 73.8463 25.8091C74.7421 26.7529 75.5951 28.7384 76.1815 29.2337C76.3403 29.3677 76.6352 29.5463 76.8706 29.5885C77.8558 29.7653 79.2499 29.7607 80.2058 30.5237C80.8735 31.0567 81.2929 32.0127 83.6477 32.258C86.6247 32.5682 88.6272 32.6956 89.0114 32.5208C89.4996 32.2987 89.9791 32.0363 90.3001 32.1893C91.1032 32.5722 91.0112 34.4728 93.9935 36.7518C94.5678 37.1908 96.8397 36.574 98.4379 36.7245C99.6493 36.8386 102.069 38.3404 102.729 37.7671C102.886 37.631 103.085 37.3758 103.286 36.8265C103.774 35.4938 104.858 32.1714 106.421 32.4049C108.344 32.6922 108.374 37.3094 108.577 38.3445C108.783 39.3966 109.078 40.9683 108.605 42.8052C108.341 43.8274 108.277 44.9371 108.101 46.6379C107.907 48.5199 108.175 49.8552 108.375 50.1553C108.75 50.7178 109.427 50.7594 110.204 50.9587C111.129 51.1961 111.383 52.1104 111.686 52.9627C111.963 53.7422 111.987 55.3134 112.062 56.8419C112.091 57.4312 112.285 57.6258 112.685 57.7281C114.534 58.2017 115.94 57.6799 117.369 57.7792C118.278 57.8424 118.854 58.9798 120.03 59.3092C122.528 60.0093 124.706 59.7862 126.426 59.911C128.394 60.054 129.987 60.9867 131.015 61.0905C132.265 61.2167 132.848 58.6368 133.573 57.9831C135.366 56.3653 139.164 57.3309 140.168 56.5297C140.808 56.0185 141.322 55.3269 142.173 54.9975C143.304 54.5598 143.879 55.4232 145.481 55.7474C146.493 55.9524 147.138 56.8254 149.315 57.8762C150.395 58.3976 150.95 58.5826 151.577 58.8323C152.306 59.1224 153.553 59.6297 154.536 60.4857C155.214 61.0762 156.565 60.9386 161.987 61.1139C164.597 61.1982 166.044 61.742 166.72 61.6675C167.38 61.5947 169.639 61.2906 172.796 61.3155C175.966 61.3404 179.382 61.739 180.088 62.3415C180.586 62.7666 181.039 63.9896 181.617 64.8991C181.819 65.2161 182.094 65.452 182.568 65.6024C183.352 65.8515 184.149 65.6039 185.369 65.5287C189.909 65.2488 190.518 65.1541 191.145 64.7772C191.484 64.5738 193.958 64.6005 197.666 64.6998C199.785 64.9976 201.393 65.103 203.567 64.9525C204.798 64.9014 206.451 64.2114 207.822 64.9014C208.358 65.1714 206.525 68.002 206.642 69.6589C206.77 71.4814 207.025 72.8112 206.16 73.496C204.9 74.4927 204.779 77.5976 202.668 78.8425C201.259 79.6741 199.172 79.4585 199.023 80.5085C198.897 81.4044 198.938 82.5622 198.06 83.13C196.972 83.8338 196.037 84.0362 195.309 84.891C195.117 85.1167 194.99 85.3702 194.862 87.717C194.733 90.0638 194.667 94.3767 194.51 96.6913C194.287 99.9696 194.337 101.261 194.672 102.849Z" fill="#F68F58" stroke="black" stroke-width="6" stroke-linecap="round"/>
<path d="M60.4878 54.1391L59.349 54.0488L58.8689 50.2883L57.8731 49.7647L53.7964 57.5183L55.1347 58.6796L54.0452 59.4625L48.947 56.7819L49.4426 55.8392L51.2072 55.513L55.0186 48.2639L54.0627 47.7613L50.6926 49.4974L49.9726 48.6104L51.997 44.7602L52.9733 45.5785L61.2845 49.9484L62.5122 50.2889L60.4878 54.1391ZM66.4664 65.9933L57.8232 61.4489L58.3189 60.5063L60.0835 60.18L63.7832 53.1433L62.4861 51.936L63.5756 51.153L71.8204 55.488L73.048 55.8285L71.1632 59.4132L70.0245 59.3228L69.657 55.9605L66.7494 54.4317L65.0601 57.6447L66.3479 58.3218L68.0361 57.4639L68.9788 57.9595L66.9962 61.7301L65.6549 61.7027L65.6449 59.5622L64.3969 58.906L62.5889 62.3446L65.377 63.8106L68.7471 62.0745L69.4671 62.9615L67.4427 66.8117L66.4664 65.9933ZM79.3875 72.787L76.2542 71.1396L76.2909 65.3969L75.9008 64.7851L76.718 64.1979L77.2623 64.4841C77.6606 64.6936 78.0493 64.7171 78.4283 64.5549C78.812 64.3838 79.1412 64.0372 79.4158 63.515C79.7183 62.9396 79.8098 62.4003 79.6903 61.8968C79.5844 61.3892 79.2438 60.9842 78.6685 60.6817C78.3233 60.5002 77.9467 60.4321 77.5387 60.4774L73.6435 67.8858L74.9609 69.0869L73.8714 69.8698L68.7731 67.1892L69.2687 66.2466L71.0892 65.8141L74.7331 58.8837L73.429 57.6896L74.5185 56.9067L77.1207 58.2749C77.8642 58.6658 78.6128 59.0255 79.3665 59.354C79.9162 59.5978 80.315 59.7849 80.5628 59.9152C81.2886 60.2968 81.8651 60.7581 82.2925 61.2991C82.7333 61.836 82.9969 62.3982 83.0833 62.986C83.1697 63.5737 83.0733 64.1331 82.7941 64.6642C82.4776 65.266 81.9189 65.6841 81.1179 65.9182C80.3258 66.157 79.459 66.2153 78.5177 66.0932L79.5318 67.0332L79.5159 70.7701L80.477 72.0041L79.3875 72.787ZM90.9397 78.861L87.8065 77.2136L87.8432 71.4709L87.4531 70.8591L88.2702 70.2719L88.8146 70.5581C89.2129 70.7676 89.6016 70.7912 89.9806 70.6289C90.3643 70.4578 90.6935 70.1112 90.968 69.589C91.2705 69.0136 91.362 68.4743 91.2426 67.9708C91.1367 67.4632 90.796 67.0582 90.2207 66.7557C89.8755 66.5742 89.4989 66.5061 89.091 66.5514L85.1958 73.9598L86.5132 75.1609L85.4236 75.9438L80.3254 73.2632L80.821 72.3206L82.6414 71.8881L86.2853 64.9577L84.9812 63.7636L86.0707 62.9807L88.673 64.3489C89.4165 64.7398 90.1651 65.0995 90.9188 65.428C91.4685 65.6718 91.8672 65.8589 92.1151 65.9892C92.8409 66.3708 93.4174 66.8321 93.8447 67.3731C94.2855 67.91 94.5492 68.4722 94.6356 69.06C94.722 69.6477 94.6256 70.2071 94.3463 70.7382C94.0299 71.3401 93.4712 71.7581 92.6702 71.9922C91.878 72.231 91.0113 72.2893 90.07 72.1672L91.0841 73.1072L91.0682 76.8441L92.0293 78.0781L90.9397 78.861ZM103.461 85.4446L97.9647 82.5546L98.4603 81.612L100.473 81.6195L100.675 79.5907L96.7987 77.5523L95.5423 78.6203L96.8635 80.6199L95.774 81.4028L91.3396 79.0713L91.8352 78.1286L93.9959 77.7903L101.343 71.5528L104.54 72.3695L103.498 83.3117L104.551 84.6617L103.461 85.4446ZM101.245 73.7381L97.9531 76.5493L100.821 78.0571L101.245 73.7381ZM119.024 82.8998L114.612 91.2907L113.218 90.5577L110.5 80.7397L107.973 85.5459L109.787 87.4146L108.697 88.1975L104.395 85.9358L104.891 84.9932L106.711 84.5606L110.118 78.0816L109.058 76.4228L110.148 75.6399L112.684 76.9732L115.34 86.5216L117.769 81.9013L115.962 80.0528L117.052 79.2699L121.353 81.5316L120.865 82.461L119.024 82.8998ZM128.597 85.0012C129.659 85.5596 130.478 86.2786 131.055 87.1582C131.632 88.0378 131.933 88.9922 131.956 90.0215C131.98 91.0508 131.727 92.0699 131.196 93.0789C130.652 94.1145 129.813 94.8936 128.679 95.4162C127.555 95.9434 126.362 96.2031 125.101 96.1952C123.844 96.1785 122.773 95.9375 121.888 95.4721C120.826 94.9136 120.004 94.1991 119.422 93.3284C118.854 92.4535 118.554 91.499 118.521 90.4651C118.498 89.4358 118.751 88.4166 119.282 87.4076C119.826 86.372 120.661 85.5906 121.785 85.0634C122.923 84.532 124.121 84.2746 125.377 84.2913C126.638 84.2992 127.712 84.5358 128.597 85.0012ZM126.891 86.3754C126.449 86.1427 125.965 86.0747 125.439 86.1713C124.928 86.2637 124.428 86.504 123.942 86.8922C123.464 87.285 123.062 87.7912 122.737 88.4108C122.341 89.1631 122.091 89.9073 121.987 90.6432C121.882 91.3791 121.958 92.0516 122.214 92.6607C122.479 93.2745 122.938 93.7535 123.593 94.0979C124.036 94.3306 124.513 94.4007 125.025 94.3083C125.55 94.2117 126.052 93.9669 126.53 93.5741C127.016 93.1859 127.422 92.6821 127.748 92.0625C128.148 91.3013 128.401 90.5527 128.505 89.8168C128.61 89.0809 128.531 88.4128 128.271 87.8126C128.015 87.2035 127.555 86.7244 126.891 86.3754ZM144.342 96.2963L136.995 102.534L133.798 101.717L134.84 90.7749L133.787 89.4249L134.877 88.642L140.373 91.532L139.877 92.4746L137.865 92.4671L137.08 100.342L142.795 95.4663L141.474 93.4667L142.564 92.6838L146.998 95.0153L146.503 95.958L144.342 96.2963ZM151.641 110.777L146.144 107.887L146.64 106.944L148.653 106.952L148.855 104.923L144.979 102.885L143.722 103.953L145.043 105.952L143.954 106.735L139.519 104.403L140.015 103.461L142.176 103.123L149.523 96.885L152.72 97.7017L151.678 108.644L152.731 109.994L151.641 110.777ZM149.424 99.0703L146.133 101.882L149.001 103.389L149.424 99.0703Z" fill="black"/>
</svg>
