<svg width="252" height="127" viewBox="0 0 252 127" fill="none" xmlns="http://www.w3.org/2000/svg">
<path d="M231.124 118.093C232.985 118.291 235.278 120.061 236.442 119.184C237.222 118.598 235.86 115.848 235.758 115.24C235.532 113.896 238.185 112.803 239.563 111.735C241.138 110.514 240.831 107.829 241.395 103.829C242.582 95.4014 243.269 93.4984 244.237 91.9258C245.38 90.068 248.722 85.5977 248.492 84.4936C248.296 83.5534 247.747 82.6599 247.172 81.768C246.726 81.075 246.196 80.3608 245.593 79.6706C245.014 79.0078 244.359 78.2927 243.697 77.7455C243.036 77.1991 242.577 76.3969 241.974 75.8497C241.341 75.2762 240.567 74.6735 239.849 74.3547C239.082 74.0146 238.327 74.153 237.381 74.01C236.281 73.8437 235.395 73.8669 235.051 73.6377C234.371 73.1842 233.96 72.433 233.699 71.7428C233.462 71.1125 233.389 70.4107 233.305 69.6102L233.297 69.5316C233.226 68.8527 232.181 67.5591 231.861 66.114C231.758 65.6484 231.259 65.3652 230.915 65.0783C230.018 64.3296 228.159 64.619 227.182 63.9589C226.695 63.6294 226.377 63.0679 226.003 62.6379C225.725 62.3172 225.742 61.0084 225.657 59.3711C225.608 58.428 224.367 58.1837 223.591 57.8958C222.525 57.5 221.727 59.2108 220.605 59.6753C219.536 60.1176 217.539 60.1932 215.638 59.8218C214.231 59.5468 213.509 59.0454 212.848 58.4439C212.074 57.7409 211.5 56.7498 209.321 54.5145C208.43 53.6015 207.65 53.2443 206.387 52.9556C205.569 52.7685 204.892 52.4963 204.23 51.9233C203.4 51.2047 203.968 49.3976 203.999 48.5057C204.024 47.7419 203.283 46.871 202.622 46.2066C201.903 45.4828 201.5 44.7443 201.156 43.7955C200.602 42.2703 199.262 40.6063 198.746 40.2039C198.153 39.7423 197.195 40.3737 196.446 40.1453C196.019 40.015 195.927 39.1156 195.842 38.2254C195.764 37.413 194.324 37.2163 192.944 36.4701C192.083 36.0038 190.595 35.4377 189.324 35.0034C188.143 34.5993 186.403 34.4588 185.016 33.8841C183.828 33.3918 182.832 33.311 182.114 32.9353C181.3 32.5102 180.878 31.7599 180.704 30.9266C180.661 30.7208 180.533 30.5535 180.332 30.4656C179.881 30.2679 179.384 30.3209 179.04 30.1494C177.487 29.375 178.861 25.3867 179.209 24.5206C179.344 24.1842 179.382 23.3754 179.297 22.3422C179.262 21.9272 179.041 21.764 178.867 21.6477C178.082 21.1199 175.208 20.8471 173.24 19.9535C172.285 19.5202 171.344 19.0065 170.395 18.7738C169.842 18.6381 169.388 18.3723 169.072 18.1146C168.484 17.6336 168.583 16.766 168.153 16.0758C167.113 14.4066 165.655 11.2562 164.996 9.90676C164.254 8.38593 162.727 8.60729 161.978 8.23244C161.335 7.91088 160.6 8.88993 159.91 9.17861C159.575 9.31845 159.049 9.35181 158.304 9.23807C156.575 8.97381 156.06 7.51808 154.685 5.93941C153.661 4.76376 151.638 5.10182 149.775 4.38573C148.573 3.92355 148.019 3.20604 146.899 3.11901C146.638 3.09057 146.468 3.0337 146.266 3.0044C146.064 2.9751 145.722 3.09766 144.858 4.01906C144.351 4.56088 143.566 5.71463 142.434 6.80896C141.502 7.71037 138.324 8.38183 130.998 8.99762C128.012 9.24855 126.164 10.4126 124.502 10.7794C121.361 11.4728 118.565 11.5494 116.684 11.7911C115.667 11.9218 114.581 12.9195 113.324 14.1365C112.299 15.1294 110.855 15.4361 109.681 16.1211C108.525 16.7953 107.615 17.8604 106.926 18.9535C105.988 20.4421 105.992 21.8247 105.549 22.9628C105.16 23.9599 104.617 24.9049 103.688 26.0794C102.978 26.9762 101.872 28.5438 98.6353 32.7486C97.1081 34.7327 93.0544 35.5105 91.3807 36.3243C90.0749 36.9592 88.7499 37.2158 87.5754 38.185C86.3997 39.1553 85.1062 40.2911 83.005 41.7862C79.9493 43.9606 74.3402 43.6871 72.7589 44.6235C71.3695 45.4462 70.0455 45.7178 68.7908 46.2037C67.4668 46.7163 65.9208 46.0433 64.62 45.8417C63.9023 45.7305 63.3216 45.3194 62.3123 44.9502C61.2724 44.5698 60.1686 45.8781 58.388 46.8899C56.8138 47.7844 55.7135 48.3073 54.6605 48.8344C52.5556 49.8881 49.3297 52.9081 47.6961 54.1385C46.5985 54.9652 44.4714 57.5235 42.6763 60.0437C41.6645 61.4642 41.2164 62.5567 40.6905 63.5696C40.0878 64.7305 40.0018 66.1178 39.1941 67.7381C38.6505 68.8285 37.252 69.5964 35.6755 71.5008C33.5128 74.1134 31.8302 75.0279 31.0553 76.2C30.067 77.6947 29.2334 78.4287 28.7488 78.9546C27.4675 80.3451 23.814 79.6433 21.2245 80.655C19.3498 81.3875 16.2156 83.5251 14.2152 84.3814C13.1649 84.8309 11.9111 86.0368 10.7731 87.0522C9.91637 87.8166 8.99131 88.3056 8.14111 89.4801C7.42188 90.4737 6.64476 91.4635 5.47026 92.6781C4.89112 93.277 4.45609 93.8149 4.01156 94.1781C2.4889 95.422 3.16136 99.4749 3.07634 100.897C3.00924 102.02 4.68686 103.361 5.70589 104.582C6.49809 105.531 8.08767 105.878 9.30832 106.325C10.3852 106.719 11.8917 107.258 13.3966 107.5C14.4746 107.673 15.38 108.55 16.3528 108.957C17.2989 109.353 18.2949 109.604 19.6711 109.727C20.7595 109.824 21.6958 110.173 22.6285 110.696C23.6394 111.264 24.4455 112.918 25.5836 113.814C27.0902 115.001 30.3581 114.944 31.4136 115.757C31.8982 116.081 32.3063 116.486 32.5893 117.011C32.7119 117.295 32.7921 117.616 32.8747 117.946C33.3581 118.106 34.1668 118.913 35.2587 120.047C36.1258 120.948 37.2421 121.264 37.9332 122.072C38.2748 122.471 38.4591 123.125 38.9838 123.651C39.5887 123.936 41.2818 124.019 43.4668 123.979C44.2891 123.939 45.2217 123.098 45.9917 123.047C46.9516 122.984 48.2508 123.047 49.5055 122.927C50.7637 122.806 52.3755 120.948 54.1646 120.618C54.4859 120.559 54.7318 120.618 54.9358 120.498C55.3776 120.238 55.786 119.408 56.4723 118.479C57.9489 116.48 60.8872 116.736 61.6561 115.683C62.7227 114.222 65.2451 114.302 66.8787 113.859C68.0147 113.551 69.2241 112.364 70.3196 111.593C71.6514 110.655 73.271 109.531 74.6896 108.798C76.8161 107.698 78.3722 109.201 79.5504 109.403C80.8041 109.617 82.5795 109.93 84.2836 110.131C85.9594 110.33 87.2848 110.012 87.7694 109.689C88.6776 109.084 88.7447 107.671 89.4698 106.573C90.1195 105.589 91.3293 104.673 92.3848 104.061C93.3768 103.486 94.3269 103.128 96.3479 101.355C97.9025 99.991 98.7819 98.7606 99.3904 97.7878C99.9769 96.8501 100.725 95.8456 101.616 95.1145C102.519 94.3724 104.039 93.6594 105.5 93.21C107.678 92.5401 108.902 92.5226 109.673 91.6748C110.65 90.601 110.93 89.6902 111.533 89.2044C113.662 87.4873 115.378 88.393 116.433 87.827C116.947 87.5518 117.406 87.2586 117.971 87.1772C119.356 86.9776 120.319 87.742 122.3 87.8647C123.81 87.9582 125.42 88.3882 129.215 88.5133C130.791 88.5652 131.736 87.9072 135.732 84.8003C136.676 84.0664 137.396 84.1809 137.846 84.261C138.297 84.3412 138.537 84.5015 138.701 84.7044C139.322 85.4721 139.188 86.7655 139.391 90.442C139.435 91.231 139.752 91.4635 140.036 91.6675C141.084 92.4195 142.502 92.3574 144.89 92.6003C146.561 92.7703 147.443 93.8149 150.111 94.9456C151.868 95.6904 154.084 95.5153 155.057 95.5177C156.29 95.5208 157.485 94.8691 158.458 94.6274C159.443 94.3825 161.279 93.0133 163.233 92.7631C164.504 92.6004 165.098 94.6214 166.028 95.3525C167.084 96.1822 168.173 96.3266 170.759 97.2133C172.245 97.7228 173.517 97.9444 174.692 98.2687C175.222 98.4151 176.828 98.5129 179.053 98.6732C181.025 98.8152 181.373 100.694 182.303 101.425C183.359 102.255 184.609 102.56 191.471 102.763C192.872 102.804 193.032 103.121 193.154 103.365L193.156 103.368C193.441 104.982 193.722 107.598 194.097 108.021C194.768 108.777 195.255 108.921 195.511 109.245C195.767 109.568 195.894 109.949 196.154 110.205C197.962 110.715 200.643 108.002 206.046 110.076C208.733 111.108 209.186 114.128 211.891 114.311C217.587 114.696 220.493 115.165 222.847 116.621C224.516 117.652 228.37 117.8 231.124 118.093Z" fill="#587956" stroke="black" stroke-width="6" stroke-linecap="round"/>
<path d="M81.3947 64.4175L80.1048 65.2276L76.5971 61.5882L75.1153 61.8212L76.9291 73.3595L79.285 73.5357L78.7432 75.2406L71.1564 76.4332L70.9359 75.0304L72.5632 73.2764L70.8674 62.4889L69.4449 62.7125L67.223 67.2526L65.7468 66.8773L64.8461 61.1477L66.5419 61.2455L78.91 59.3013L80.494 58.6879L81.3947 64.4175ZM97.2519 59.3536L98.2799 65.8933C98.4973 67.2763 98.328 68.5176 97.7721 69.6173C97.2293 70.7149 96.4769 71.5958 95.5151 72.2599C94.5511 72.9108 93.5752 73.3139 92.5873 73.4692C91.257 73.6783 90.0246 73.6089 88.8901 73.2608C87.7667 72.8975 86.8373 72.308 86.1017 71.4924C85.3772 70.6615 84.9249 69.6731 84.7447 68.5271L83.521 60.7427L81.1848 60.5633L81.7267 58.8585L89.3135 57.6659L89.534 59.0687L87.8869 60.8258L88.9056 67.3062C89.1002 68.5443 89.5817 69.4606 90.35 70.0552C91.1163 70.6366 92.1712 70.8217 93.5147 70.6105C94.0283 70.5298 94.5127 70.3052 94.9676 69.9367C95.4337 69.553 95.7869 69.0521 96.0271 68.4339C96.2806 67.8137 96.3472 67.1216 96.2271 66.3577L95.1059 59.2253L92.5256 58.7806L93.0674 57.0758L98.6785 56.1937L98.899 57.5965L97.2519 59.3536ZM117.922 69.0817L113.259 69.8147L108.726 63.6438L107.822 63.3001L108.228 62.0214L109.038 61.8941C109.631 61.8009 110.065 61.5167 110.342 61.0413C110.616 60.5529 110.692 59.92 110.569 59.1429C110.435 58.2868 110.103 57.637 109.575 57.1937C109.057 56.7352 108.37 56.5732 107.514 56.7078C107.001 56.7886 106.544 57.0156 106.143 57.389L107.876 68.4136L110.242 68.6491L109.7 70.354L102.113 71.5466L101.893 70.1438L103.495 68.2318L101.874 57.9184L99.5283 57.6798L100.07 55.9749L103.943 55.3662C105.049 55.1923 106.136 54.9809 107.204 54.7321C107.986 54.5552 108.561 54.4377 108.93 54.3797C110.01 54.21 110.994 54.2442 111.882 54.4826C112.781 54.7057 113.51 55.0972 114.071 55.6569C114.631 56.2167 114.973 56.8917 115.098 57.682C115.238 58.5777 114.974 59.4696 114.303 60.3578C113.646 61.2439 112.766 61.9964 111.662 62.6154L113.495 62.8131L116.453 66.8224L118.464 67.3769L117.922 69.0817ZM140.406 69.394C137.819 70.7993 136.019 71.5817 135.005 71.7412C134.57 71.8095 133.817 71.442 132.746 70.6385C131.69 69.8462 130.45 68.8264 129.026 67.5791C128.489 67.7715 127.997 67.9029 127.549 67.9733C125.968 68.2217 124.521 68.1119 123.205 67.6438C121.901 67.1605 120.82 66.3789 119.962 65.2991C119.117 64.2171 118.576 62.9254 118.34 61.4238C118.098 59.8828 118.368 58.3826 119.151 56.9233C119.945 55.4488 121.021 54.2202 122.378 53.2375C123.733 52.2417 125.069 51.6402 126.386 51.4331C127.967 51.1847 129.416 51.3011 130.733 51.7823C132.051 52.2636 133.132 53.0452 133.977 54.1271C134.822 55.209 135.362 56.5007 135.598 58.0023C135.839 59.5302 135.573 61.0162 134.801 62.4602C134.029 63.9043 132.967 65.1308 131.614 66.1398C132.783 66.7118 133.868 67.2161 134.868 67.6528C135.881 68.0874 136.487 68.2892 136.684 68.2581L139.351 67.8388L140.406 69.394ZM122.834 59.7456C123.01 60.8652 123.335 61.8601 123.81 62.7304C124.284 63.6006 124.9 64.2595 125.659 64.7071C126.431 65.1527 127.304 65.2988 128.279 65.1456C128.937 65.0421 129.504 64.7371 129.977 64.2308C130.462 63.7091 130.804 63.0481 131.002 62.2476C131.213 61.4451 131.246 60.5828 131.101 59.6608C130.923 58.528 130.597 57.5265 130.123 56.6563C129.649 55.786 129.033 55.1337 128.277 54.6992C127.518 54.2516 126.645 54.1055 125.657 54.2608C124.998 54.3643 124.426 54.6769 123.942 55.1985C123.468 55.7049 123.125 56.3593 122.914 57.1619C122.716 57.9624 122.689 58.8236 122.834 59.7456ZM151.527 50.8216L152.555 57.3613C152.772 58.7443 152.603 59.9857 152.047 61.0854C151.504 62.183 150.752 63.0638 149.79 63.7279C148.826 64.3789 147.85 64.782 146.862 64.9372C145.532 65.1464 144.299 65.0769 143.165 64.7289C142.042 64.3656 141.112 63.7761 140.377 62.9604C139.652 62.1295 139.2 61.1411 139.02 59.9952L137.796 52.2108L135.46 52.0314L136.002 50.3266L143.588 49.1339L143.809 50.5367L142.162 52.2938L143.18 58.7742C143.375 60.0124 143.857 60.9287 144.625 61.5233C145.391 62.1047 146.446 62.2898 147.79 62.0786C148.303 61.9978 148.788 61.7732 149.243 61.4048C149.709 61.0211 150.062 60.5201 150.302 59.902C150.555 59.2818 150.622 58.5897 150.502 57.8257L149.381 50.6933L146.8 50.2486L147.342 48.5438L152.953 47.6618L153.174 49.0645L151.527 50.8216ZM163.978 61.8418L156.391 63.0344L156.171 61.6316L157.773 59.7196L156.152 49.4062L153.806 49.1676L154.348 47.4628L161.935 46.2701L162.155 47.6729L160.536 49.6078L162.154 59.9014L164.52 60.137L163.978 61.8418ZM162.054 40.8458L156.93 44.5667L155.49 44.1654L156.995 39.9607L161.282 39.6714L162.054 40.8458ZM183.209 58.8186L175.03 60.1044L174.809 58.7017L176.968 57.1071L175.569 54.7761L169.8 55.683L169.306 57.8256L172.312 58.9121L171.77 60.6169L165.171 61.6543L164.95 60.2515L166.992 58.1692L169.882 45.6484L173.952 43.9761L181.55 56.5082L183.751 57.1138L183.209 58.8186ZM171.517 48.0638L170.236 53.6911L174.503 53.0203L171.517 48.0638Z" fill="black"/>
</svg>
