<svg width="123" height="99" viewBox="0 0 123 99" fill="none" xmlns="http://www.w3.org/2000/svg">
<path d="M111.358 13.7529C115.008 15.9456 117.914 18.8603 119.367 22.3528C120.177 24.2988 118.927 24.349 115.688 24.4792L115.523 24.4858C110.901 24.6724 113.037 34.5388 112.595 38.0444C112.37 39.8294 113.598 42.4166 114.201 47.3752C114.723 51.6591 109.834 54.6709 106.626 56.8723C105.182 57.8633 103.12 55.8613 101.374 55.1304C100.55 54.7857 99.6276 55.2661 99.0368 55.8482C96.3271 58.5177 93.5004 61.3933 81.8588 67.7918C75.8587 71.0896 67.8714 73.0699 55.4464 78.0066C49.5449 80.3514 47.6867 84.4314 44.3343 87.355C42.0891 89.3129 39.2312 92.3092 34.5833 94.9351C31.9292 96.4346 27.6246 95.8279 25.2525 95.3947C20.028 94.4404 17.6461 87.39 15.2959 83.7312L14.7062 83.1545C14.5703 82.7468 13.9553 81.9969 13.2401 81.1458C12.5249 80.497 11.9137 79.7308 11.026 79.1024C10.2077 78.5231 7.85503 79.0528 7.21304 77.9785C7.00972 77.6383 6.81739 76.9352 6.97703 76.1027C7.28558 74.4935 8.36039 72.4927 7.72083 70.6437C6.46413 67.0106 6.38435 65.7737 6.12391 64.5932C5.92059 63.6716 5.85113 62.5423 5.16963 61.5281C4.69046 60.8149 3.77773 60.275 3.94563 59.1097C4.01409 58.6346 4.26381 58.1321 4.73235 57.6109C5.65086 56.5892 6.31074 55.7629 6.77371 54.9207C7.35506 53.8633 8.13824 52.8147 8.54432 51.5491C8.85083 50.5938 9.25254 48.9747 9.36066 47.5256C9.53333 45.2115 9.31118 43.0652 10.0779 42.1167C10.2158 41.9461 10.4118 41.8012 10.6235 41.6743C11.6503 41.0593 12.7767 40.1848 13.6886 39.87C14.5765 39.5635 16.4713 38.6821 18.0155 38.3722C19.2068 38.1331 20.1699 38.0138 21.1818 37.3147C22.0676 36.7027 22.847 36.3329 23.9414 35.9875C25.1327 35.6116 26.8366 35.2648 27.31 34.078C27.5133 33.5681 27.9611 32.7124 28.1273 31.5891C28.3286 30.2292 28.7703 29.8283 28.1273 29C27.546 28.2511 27.126 28.0905 26.5 27.5C25.8512 26.888 26.5 26.5 25 25.5C24.3184 25.0456 22 25 23.5 21C24.5572 18.1808 27.187 17.5952 28.5 17C30.6795 15.2494 32.1337 14.4663 35.4993 12.72C39.4338 10.9563 39.7689 4.79386 45.1321 3.67371C47.898 3.09601 53.4347 2.15746 56.2135 5.87074C58.5 8.92627 62.0887 7.96543 65 8.92616C66.313 9.35944 69.1113 8.8667 73.7197 9.37198C80.3458 10.0985 89.9124 7.22264 97.5062 9.37198C102.176 10.6937 107.318 11.3258 111.358 13.7529Z" fill="#87AD6A" stroke="black" stroke-width="6" stroke-linecap="round"/>
<path d="M26.7226 61.1102L29.2051 65.4101C29.7301 66.3194 29.9463 67.2338 29.8537 68.1533C29.7697 69.0678 29.4806 69.8872 28.9864 70.6112C28.4873 71.3267 27.9129 71.8719 27.2634 72.2469C26.3887 72.7519 25.5075 73.0355 24.6197 73.0978C23.7355 73.1464 22.9261 72.9844 22.1913 72.6118C21.4603 72.2256 20.8773 71.6558 20.4423 70.9023L17.4873 65.7841L15.8039 66.2884L15.7235 64.9491L20.7118 62.0691L21.2443 62.9915L20.5652 64.6652L23.0252 68.9261C23.4952 69.7402 24.0792 70.2517 24.7772 70.4607C25.4702 70.661 26.2584 70.5062 27.1418 69.9962C27.4795 69.8012 27.7579 69.5134 27.977 69.1329C28.1998 68.7387 28.3119 68.2929 28.3134 67.7955C28.3236 67.2931 28.1837 66.7908 27.8937 66.2885L25.1862 61.599L23.2603 61.9834L23.18 60.6441L26.8692 58.5141L27.4017 59.4365L26.7226 61.1102ZM43.8117 62.3463L40.746 64.1163L35.9097 61.0196L35.1841 61.0228L35.1238 60.0184L35.6564 59.7109C36.0461 59.4859 36.2736 59.1698 36.3387 58.7627C36.3989 58.3469 36.2815 57.8835 35.9865 57.3726C35.6615 56.8097 35.2543 56.4443 34.7648 56.2766C34.279 56.0952 33.7547 56.167 33.1918 56.492C32.854 56.687 32.5954 56.969 32.416 57.3382L36.601 64.5869L38.3199 64.1141L38.4002 65.4533L33.4119 68.3333L32.8794 67.411L33.4855 65.6408L29.5705 58.8598L27.8646 59.3251L27.7842 57.9859L30.3304 56.5159C31.0578 56.0959 31.7616 55.6549 32.4418 55.1929C32.9414 54.8583 33.3124 54.621 33.5549 54.481C34.265 54.071 34.9629 53.8297 35.6485 53.7572C36.3378 53.671 36.954 53.7483 37.4971 53.989C38.0402 54.2297 38.4617 54.6098 38.7617 55.1294C39.1017 55.7183 39.1569 56.4139 38.9273 57.2162C38.7063 58.0135 38.293 58.7775 37.6872 59.5083L39.0234 59.1526L42.1748 61.161L43.7314 61.0071L43.8117 62.3463ZM49.6968 47.8461L52.1793 52.1459C52.7043 53.0552 52.9205 53.9697 52.8279 54.8892C52.7439 55.8037 52.4548 56.623 51.9606 57.3471C51.4615 58.0625 50.8871 58.6077 50.2376 58.9827C49.3629 59.4877 48.4817 59.7714 47.5939 59.8336C46.7097 59.8822 45.9003 59.7202 45.1655 59.3477C44.4345 58.9614 43.8515 58.3916 43.4165 57.6382L40.4615 52.52L38.7781 53.0242L38.6977 51.685L43.686 48.805L44.2185 49.7273L43.5394 51.4011L45.9994 55.6619C46.4694 56.476 47.0534 56.9875 47.7514 57.1965C48.4444 57.3968 49.2326 57.242 50.116 56.732C50.4537 56.537 50.7321 56.2493 50.9512 55.8687C51.174 55.4745 51.2861 55.0288 51.2876 54.5314C51.2978 54.029 51.1579 53.5266 50.8679 53.0243L48.1604 48.3348L46.2345 48.7192L46.1542 47.38L49.8434 45.25L50.3759 46.1723L49.6968 47.8461ZM65.3909 46.6659L66.2667 47.3728L64.7239 50.2207C64.335 50.6069 63.9383 50.9399 63.5339 51.2195C63.1382 51.4941 62.6979 51.7715 62.2129 52.0515C61.1217 52.6815 60.0286 53.0181 58.9336 53.0614C57.8385 53.1048 56.8347 52.8761 55.922 52.3753C55.013 51.8609 54.2735 51.11 53.7035 50.1228C53.1185 49.1095 52.9206 47.9767 53.1098 46.7243C53.3026 45.4583 53.7631 44.286 54.4914 43.2073C55.2233 42.115 56.0482 41.3039 56.9662 40.7739C57.5378 40.4439 58.2421 40.1239 59.0792 39.8138C59.925 39.4987 60.5679 39.3122 61.008 39.2544L62.988 42.6839L61.3252 43.6439C60.5102 43.0522 59.7595 42.7119 59.0731 42.6232C58.3905 42.5208 57.772 42.6296 57.2178 42.9496C56.7241 43.2346 56.352 43.64 56.1013 44.1658C55.8543 44.6779 55.752 45.2508 55.7945 45.8844C55.8457 46.5131 56.0463 47.1305 56.3963 47.7367C56.8213 48.4728 57.3257 49.0765 57.9095 49.5477C58.4883 50.0103 59.1252 50.2834 59.8202 50.3672C60.5152 50.4509 61.2177 50.2878 61.9279 49.8778L62.3306 49.6453C62.6683 49.4503 62.9275 49.2891 63.108 49.1618L61.8255 46.9404L59.4176 47.6898L59.3372 46.3505L64.975 43.0955L65.5075 44.0179L64.8959 45.8086L65.3909 46.6659ZM73.8381 33.9081L76.3206 38.2079C76.8456 39.1172 77.0618 40.0317 76.9692 40.9512C76.8852 41.8657 76.5961 42.685 76.1019 43.4091C75.6028 44.1245 75.0284 44.6697 74.3789 45.0447C73.5042 45.5497 72.623 45.8334 71.7352 45.8956C70.851 45.9442 70.0416 45.7822 69.3068 45.4097C68.5758 45.0234 67.9928 44.4536 67.5578 43.7002L64.6028 38.582L62.9194 39.0862L62.839 37.747L67.8273 34.867L68.3598 35.7893L67.6807 37.4631L70.1407 41.7239C70.6107 42.538 71.1947 43.0495 71.8927 43.2585C72.5857 43.4589 73.3739 43.304 74.2573 42.794C74.595 42.599 74.8734 42.3113 75.0925 41.9307C75.3153 41.5366 75.4274 41.0908 75.4289 40.5934C75.4391 40.091 75.2992 39.5886 75.0092 39.0863L72.3017 34.3968L70.3758 34.7812L70.2955 33.442L73.9847 31.312L74.5172 32.2343L73.8381 33.9081ZM91.8755 34.5966L86.4975 37.7017L85.965 36.7793L87.0459 35.0814L85.4384 33.8271L81.6452 36.0171L81.8776 37.6497L84.2737 37.5999L84.3541 38.9392L80.0153 41.4442L79.4828 40.5218L80.3502 38.5142L78.9979 28.9719L81.3953 26.7044L90.0917 33.4269L91.7952 33.2574L91.8755 34.5966ZM80.7933 30.2216L81.4133 34.5056L84.2192 32.8856L80.7933 30.2216ZM97.0562 29.7696L98.7601 29.2708L98.8405 30.6101L93.9821 33.4151L93.4496 32.4928L94.1157 30.8265L93.3207 29.4495L86.5683 26.0041L85.406 26.1209L85.0658 24.9316L89.7943 22.2016L90.3268 23.124L89.8574 24.261L93.9318 26.308L94.3768 22.1887L92.0236 22.2829L91.9432 20.9437L96.282 18.4387L96.8145 19.361L96.0086 21.3851L95.4587 27.0027L97.0562 29.7696Z" fill="black"/>
</svg>
