<svg width="176" height="213" viewBox="0 0 176 213" fill="none" xmlns="http://www.w3.org/2000/svg">
<path d="M114.509 10.0366C115.337 9.81557 120.856 8.12415 121.343 9.25818C122.139 11.1081 120.979 13.1613 120.856 14.3082C120.491 15.8155 120.251 17.0425 120.375 18.4898C120.499 19.096 120.739 19.4564 121.107 19.6367C121.474 19.8169 121.979 19.7543 122.381 19.9407C123.168 20.3048 123.981 20.9836 124.136 21.9468C124.38 23.4651 124.4 25.7084 124.986 27.4683C125.472 28.9265 127.953 37.6339 124.733 41.1255C122.552 43.4902 122.895 47.3747 121.036 49.6179C119.88 51.0124 118.051 51.8561 117.883 53.4464C117.702 55.1449 117.954 56.5879 118.006 58.1286C118.19 63.5154 119.202 67.0891 118.749 69.6241C118.494 71.0451 118.505 72.9856 118.249 74.6241C117.826 77.3203 115.017 82.5152 116.736 83.8409C118.074 84.8731 120.093 85.1335 120.799 86.5734C120.979 86.9412 120.917 87.4452 121.103 87.8478C121.467 88.6342 122.17 88.9569 122.805 89.4225C124.387 90.5821 125.116 92.9125 126.63 93.5476C127.06 93.7279 127.709 93.6315 128.146 93.9136C128.993 94.4597 127.95 97.1119 129.663 98.4684C130.573 99.1893 131.953 99.0855 132.086 99.8028C132.266 100.773 132.335 102.694 134.092 103.502C135.798 104.287 137.62 104.846 138.52 106.113C139.555 107.571 140.669 108.946 141.372 110.482C142.097 112.064 141.315 114.74 142.586 115.881C143.193 116.425 144.331 116.236 144.893 116.913C145.497 117.642 145.275 119.241 146.287 120.25C146.834 120.795 149.133 120.453 149.198 122.133C149.255 123.591 148.295 125.492 148.346 127.782C148.409 130.565 148.761 132.262 149.055 133.68L149.055 133.68L149.076 133.784C149.379 135.242 149.648 136.92 150.779 138.517C151.811 139.975 151.149 145.543 153.749 146.624C154.475 146.926 155.102 147.395 155.388 147.985C155.568 148.356 155.465 149.112 155.692 149.624C156.42 151.262 155.62 154.558 157.15 155.931C157.756 156.476 158.357 157.092 158.787 157.814L158.826 157.88C159.614 159.206 160.637 160.927 162.249 161.269C163.098 161.449 164.658 159.872 167.288 161.271C168.315 161.817 168.164 164.515 170.249 165.124C170.866 165.304 171.549 166.388 171.776 167.227C172.316 169.23 172.249 172.124 171.607 172.44C171.319 172.583 171.005 172.641 170.704 172.792C170.107 173.141 169.505 173.441 168.704 173.589C166.51 173.74 165.233 173.675 160.109 174.639C156.926 175.238 155.402 177.572 153.128 177.733C151.732 177.831 150.822 177.931 150.249 178.124C149.049 178.527 147.926 179.143 146.744 179.931C146.146 180.329 143.638 179.887 140.445 180.578C138.356 181.03 137.398 182.105 136.212 182.877C135.061 183.624 134.267 183.59 133.249 184.624C133.049 184.826 131.492 185.914 131.249 186.124C130.148 187.075 132.257 187.257 128.249 187.624C126.597 187.775 116.273 188.509 113.249 187.624C111.703 187.172 104.774 186.102 101.749 187.624C100.549 188.228 98.4393 188.83 97.2485 189.624C96.049 190.424 95.7638 190.524 94.228 190.661C92.5313 190.812 90.5601 191.249 88.7485 191.124C86.5546 190.973 85.5922 190.711 83.7485 190.624C81.6535 190.525 80.3164 190.034 79.7485 190.624L78.2485 191.624C76.9027 193.022 76.2082 192.657 74.7485 193.124C73.4996 193.524 72.4099 193.154 70.7485 194.124C70.1611 194.467 68.745 194.634 68.2973 195.179L68.2742 195.207C67.3727 196.305 66.7081 198.188 64.9212 198.349C63.2754 198.498 61.8957 198.452 61.384 198.849C60.2863 199.702 59.488 201.096 58.3395 202.045C57.1894 202.996 56.9218 205.086 55.6394 205.238C54.392 205.386 53.073 206.09 52.2485 207.624C51.4968 209.023 49.3225 209.926 47.9046 209.479C46.3052 208.974 45.4125 207.54 45.2148 206.884C44.8251 205.59 45.5143 204.578 45.4125 203.931C45.3107 203.284 45.113 202.987 44.7087 202.839C43.7113 202.691 42.6831 202.752 42.2662 202.288C41.8184 201.789 42.579 198.454 40.7177 197.996C39.5182 197.701 37.9299 197.939 36.5246 198.2C34.9177 198.498 32.7885 198.485 31.6816 197.494C30.2334 196.197 27.3177 196.683 27.0931 195.246C26.9448 194.298 26.9528 193.159 26.1856 192.955C25.627 192.807 24.5578 192.978 24.0935 192.654C23.4496 192.205 24.1325 190.344 22.5975 189.759C21.949 189.512 20.4958 189.584 19.854 188.51C19.556 188.012 19.9918 186.497 19.4062 184.812C18.8521 183.217 16.5273 182.823 15.7485 181.624C15.0013 180.474 14.6261 179.193 14.4643 177.725C14.3655 176.828 14.5167 175.933 14.6156 174.977C14.8687 172.53 15.3003 170.671 16.1146 168.941C16.8694 167.337 18.8203 166.414 19.3598 165.198L19.3724 165.17C19.9744 163.813 20.9686 161.572 20.0037 160.205C19.0498 158.855 17.8263 157.153 16.4066 156.965C15.6594 156.866 15.977 154.037 15.1622 149.961C14.665 147.473 14.6331 145.646 13.4131 144.983C12.865 144.685 12.2629 144.484 11.6654 144.285C10.4659 143.885 8.15122 144.366 7.57415 143.035C7.07546 141.885 6.80313 140.513 5.67526 139.842C4.57757 139.189 3.5802 138.195 3.28369 137.697C3.48736 137.092 3.68503 136.796 3.98754 136.495C4.68539 135.897 5.28441 135.295 5.73367 134.8C6.88378 134.301 9.97181 134.941 10.7759 133.196L10.7996 133.144C11.3882 131.867 11.9344 130.682 11.92 128.835C11.8685 122.237 11.2499 121.127 10.5079 119.795L10.4674 119.722C9.57336 118.116 7.8244 113.941 10.4839 113.283C12.2809 112.838 13.9842 112.19 15.2685 111.887C17.5882 111.341 21.3363 110.833 23.4571 111.742C24.8543 112.341 26.1165 113.887 27.4989 113.386C28.7479 112.934 31.1272 112.945 31.2892 111.582C31.4375 110.334 30.5168 108.872 30.9897 107.742C31.2398 107.145 31.6455 106.061 32.5906 105.195C33.8395 104.051 36.0341 103.769 36.0304 102.552C36.0289 102.053 35.5311 101.101 36.0319 100.353C37.0383 98.8512 39.1284 97.4361 39.1258 95.9595C39.1228 94.2628 38.8273 92.7851 37.7736 91.5687C36.8226 90.471 35.6276 89.6743 35.3311 89.1771C34.8698 88.4038 34.4728 88.0652 34.4404 87.7165C34.408 87.3678 34.3451 87.1792 34.0545 86.9877C32.4987 86.2893 31.3433 85.7608 30.6588 84.7C29.9605 83.6177 29.08 82.552 29.4888 81.1062C29.8385 79.8695 30.2877 78.6361 30.9828 78.1907C31.4258 77.9067 31.9858 77.8378 32.3481 77.396C33.0779 76.5062 34.5955 75.509 35.619 74.5701C35.9992 74.2214 37.109 72.6936 37.3016 70.3379C37.4569 68.438 38.4324 64.4509 36.8833 64.4087C35.7991 64.3792 33.5621 64.031 32.755 64.9528C31.8622 65.9722 30.9121 67.6396 29.767 67.9369C28.3064 68.3161 27.2293 68.9911 26.2751 68.6324C25.7682 68.4418 25.3775 67.2943 24.2381 67.0432C23.0966 66.7916 22.0825 67.2674 20.4613 67.1404C20.0478 67.108 19.7333 67.0451 19.5761 65.815C19.4189 64.585 19.3184 62.252 19.4513 60.933C19.6743 58.7197 19.0592 56.414 20.0887 55.3869C20.5013 54.9753 21.1344 54.6375 21.8047 54.4036C23.634 53.7653 26.6691 53.1833 27.2022 52.115C27.6776 51.1623 27.9832 50.1686 28.3769 49.1605C28.8857 47.858 29.01 46.5871 29.7756 46.083C29.9681 45.9563 30.2188 45.8544 30.8313 45.862C33.5238 45.8953 34.0885 46.369 34.6634 46.4022C37.9352 46.5908 40.9533 47.0368 41.9728 46.6233C43.3066 46.3374 44.41 45.9608 45.3056 45.257C46.0354 44.6834 46.3552 43.6522 47.879 41.8556C48.768 40.8075 49.9242 40.641 50.8002 39.8252C51.2433 39.4127 51.1274 38.0394 52.0093 35.875C53.4671 32.2973 54.6939 31.6955 55.2135 30.7424C55.7537 29.7515 56.2851 28.3569 56.1634 26.4177C56.0053 23.8976 56.095 21.3609 56.4197 20.3866C56.8971 18.9546 57.6831 17.6363 59.9507 15.7809C61.3446 14.6404 61.5051 13.3644 62.6166 13.1808C63.3779 13.055 65.3445 14.0694 66.7783 13.177C67.1947 12.9178 67.8025 12.484 68.0465 12.0012C69.0316 10.0519 70.2402 6.99787 71.6346 6.79717C73.1705 6.57613 75.5876 7.31299 76.5567 6.76573C77.3513 6.31697 76.9903 4.35654 78.3727 4.12844C79.7066 3.90835 81.1844 3.39841 82.9803 3.39957C85.9301 3.40147 86.7073 3.02705 87.1325 3.0499C88.9942 3.14994 92.1889 4.37651 93.1665 4.09795C94.0592 3.84356 99.1122 1.73826 100.026 4.13321C100.405 5.1241 100.39 6.43548 100.92 6.4818C102 6.57613 103.217 6.4602 103.776 7.02679C104.094 7.34978 104.273 7.96879 104.568 8.29589C105.428 9.24772 106.35 9.57059 107.269 9.84797C108.221 10.1357 112.227 10.6457 114.509 10.0366Z" fill="#F68F58" stroke="black" stroke-width="6" stroke-linecap="round"/>
<path d="M49.611 125.004L51.911 125.564L51.111 127.164H43.631V125.744L45.511 124.264V122.144L40.011 113.664L38.591 113.024L38.991 111.424H46.271V112.844L44.971 113.844L48.311 118.924L51.571 114.464L48.791 113.004L49.591 111.404H56.271V112.824L53.991 114.624L49.611 120.744V125.004ZM72.132 114.304V120.924C72.132 122.324 71.772 123.524 71.052 124.524C70.3453 125.524 69.4653 126.277 68.412 126.784C67.3586 127.277 66.332 127.524 65.332 127.524C63.9853 127.524 62.7786 127.264 61.712 126.744C60.6586 126.211 59.832 125.484 59.232 124.564C58.6453 123.631 58.352 122.584 58.352 121.424V113.544L56.072 113.004L56.872 111.404H64.552V112.824L62.652 114.304V120.864C62.652 122.117 62.9853 123.097 63.652 123.804C64.3186 124.497 65.332 124.844 66.692 124.844C67.212 124.844 67.7253 124.697 68.232 124.404C68.752 124.097 69.1786 123.657 69.512 123.084C69.8586 122.511 70.032 121.837 70.032 121.064V113.844L67.552 113.004L68.352 111.404H74.032V112.824L72.132 114.304ZM83.5207 125.504L82.7207 127.104H75.0407V125.684L76.9207 124.044V113.604L74.6407 113.004L75.4407 111.404H83.1207V112.824L81.2207 114.484V124.904L83.5207 125.504ZM91.8007 127.104H87.1807L81.7807 119.224L87.3407 114.304L85.0007 112.984L85.8007 111.384H92.1807V112.804L86.0407 118.224L90.4807 124.544L92.6007 125.504L91.8007 127.104ZM103.334 111.004C104.934 111.004 106.348 111.344 107.574 112.024C108.801 112.704 109.748 113.644 110.414 114.844C111.081 116.044 111.414 117.404 111.414 118.924C111.414 120.484 110.908 121.924 109.894 123.244C108.894 124.564 107.648 125.611 106.154 126.384C104.661 127.144 103.248 127.524 101.914 127.524C100.314 127.524 98.9011 127.191 97.6745 126.524C96.4611 125.844 95.5145 124.904 94.8345 123.704C94.1678 122.504 93.8345 121.144 93.8345 119.624C93.8345 118.064 94.3345 116.624 95.3345 115.304C96.3478 113.971 97.6011 112.924 99.0945 112.164C100.588 111.391 102.001 111.004 103.334 111.004ZM102.174 113.684C101.508 113.684 100.894 113.904 100.334 114.344C99.7878 114.771 99.3478 115.364 99.0145 116.124C98.6945 116.884 98.5345 117.731 98.5345 118.664C98.5345 119.797 98.7011 120.831 99.0345 121.764C99.3678 122.697 99.8745 123.444 100.554 124.004C101.248 124.564 102.088 124.844 103.074 124.844C103.741 124.844 104.348 124.631 104.894 124.204C105.454 123.764 105.894 123.164 106.214 122.404C106.548 121.644 106.714 120.797 106.714 119.864C106.714 118.717 106.548 117.677 106.214 116.744C105.881 115.811 105.374 115.071 104.694 114.524C104.014 113.964 103.174 113.684 102.174 113.684ZM128.585 114.464V127.104H126.485L117.185 117.204V124.444L120.485 125.524L119.685 127.124H113.205V125.704L115.085 124.064V114.304L112.805 113.004L113.605 111.404H117.425L126.485 121.024V114.064L123.205 113.004L124.005 111.404H130.485V112.804L128.585 114.464Z" fill="black"/>
</svg>
