<svg width="187" height="123" viewBox="0 0 187 123" fill="none" xmlns="http://www.w3.org/2000/svg">
<path d="M183.361 54.8555C183.657 54.0348 183.469 52.4731 183.235 51.4158C183.123 50.9117 182.983 50.7474 182.771 50.5371C181.976 49.7377 181.817 48.4444 180.799 48.0206C180.296 47.8116 179.53 47.9868 178.825 47.6001C177.524 46.8876 176.416 46.3997 175.258 45.6275C173.999 44.7878 172.806 44.175 171.524 43.6989C170.389 43.2771 169.153 42.4202 167.117 42.0195C165.857 41.7715 165.008 41.1677 163.93 40.7191C163.427 40.5101 162.475 40.2548 161.282 40.4698C159.648 40.7644 157.574 41.1052 155.914 40.4673C155.37 40.2583 154.923 39.8465 154.615 39.2059C154.028 37.9848 153.776 36.139 152.386 35.7679C151.918 35.6432 151.254 35.6432 150.879 35.7716C150.504 35.9 150.439 36.2317 150.25 36.2311C149.849 36.2299 149.296 35.9853 148.694 35.7196L148.613 35.6835C147.563 35.2202 146.836 34.0425 145.55 33.668C143.685 33.1255 140.517 34.5869 138.918 33.5006C137.743 32.7025 137.412 31.5272 136.444 30.8985C135.477 30.2703 134.164 30.0457 133.507 29.0089C132.708 27.7475 130.97 26.416 131.624 25.3581C131.96 24.8143 132.567 24.5852 132.883 24.1836C133.05 23.9708 133.155 23.5282 132.576 23.4723C130.855 23.3061 129.235 23.268 128.722 22.7145C128.178 22.1278 127.931 21.0711 127.166 20.9545C126.076 20.7884 124.988 20.9011 124.652 20.4497C123.901 19.4388 123.941 17.6294 122.805 17.3881C122.219 17.2635 121.309 18.2484 118.733 17.6386C118.19 17.5102 118.007 17.2689 117.898 17.0079C117.689 16.5056 117.985 15.5827 117.478 14.9093C117.1 14.4083 115.677 14.4183 115.465 13.1884C115.255 11.9711 114.92 10.9665 114.541 9.74791C114.081 8.26997 114.174 6.19903 113.281 5.46895C112.82 5.09254 111.492 4.56185 109.919 4.96917C108.452 5.34935 107.297 6.14495 106.231 6.60698C105.264 7.02619 102.918 7.10416 101.066 6.98213C99.1358 6.85498 98.0307 6.37602 96.9567 5.97376C95.9483 5.5961 94.992 5.04058 93.9354 4.92511C91.6429 4.67459 88.1686 5.15604 86.2851 5.1366C82.015 5.09254 80.5288 4.64322 79.2895 4.46436C77.8153 4.2516 76.9733 4.05623 75.9688 3.97314C75.4688 3.97314 74.2441 3.4696 74.0104 3.36743C73.0553 3.16 71.6331 2.66789 70.8889 3.34576C70.012 4.14451 69.1268 4.4973 67.8704 5.92622C67.1204 6.77915 66.165 7.91842 64.5151 10.3147C63.7179 11.4726 63.3392 12.3261 62.7118 12.8387C62.4285 13.0701 61.9997 13.1038 61.5237 13.2249C60.5137 13.4818 59.443 13.4152 58.8411 13.663C58.1664 13.9406 57.6103 14.3618 55.9292 15.635L55.7676 15.7574C54.4797 16.7326 53.7123 17.248 52.8032 17.6892C51.7955 18.1784 50.8782 18.4953 50.2506 19.2116C49.5231 20.0421 48.655 21.5271 47.8768 21.6613C46.8358 21.8409 45.3395 21.9194 44.3668 22.4616C43.4365 22.9802 42.634 23.5254 41.8653 23.9577C41.2198 24.3207 40.7681 24.9663 40.2663 25.9987C39.7771 27.0049 40.2686 29.0838 39.3375 29.5304C38.6904 29.8407 37.2279 30.1133 37.1456 31.292C36.9908 33.5063 36.9032 34.4965 36.3708 34.9746C36.1131 35.206 35.7067 35.4391 35.2083 35.6193C34.3561 35.9273 33.5718 36.0918 32.7563 36.5752C30.5172 37.9026 27.8983 40.1851 26.6937 40.3398C25.6875 40.4691 24.982 40.7241 24.3477 40.8816C23.7278 41.0356 22.9033 41.5755 22.0258 41.8375C20.5637 42.274 18.0659 42.0227 17.7441 42.5078C17.5901 42.74 17.2687 43.0414 16.7372 43.4884C16.0901 44.0325 14.9537 44.2234 14.3115 44.8034C13.5607 45.4814 13.037 46.6068 12.8943 47.2298C12.7403 47.9024 12.6128 49.2559 12.4044 50.4295C12.2759 51.1531 12.3642 52.212 11.6544 52.5951C10.9818 52.9581 10.4012 53.5297 9.74501 53.705C8.4958 54.0386 6.58082 53.9869 5.848 54.4016C4.8426 54.9704 4.27969 55.5331 4.12279 56.208C3.96645 56.8806 3.69683 57.7177 3.42543 58.4278C3.0903 59.3047 2.77297 60.1976 3.22188 61.5245C3.60732 62.6638 2.97288 64.5059 3.40299 65.4726C3.71258 66.1684 4.15143 66.7512 4.30468 67.173C4.53919 67.8186 4.57987 68.9696 5.05389 69.6753C5.15838 69.8309 5.29982 70.0114 5.57246 70.1134C6.19087 70.3448 7.51424 70.2387 8.98031 70.4733C10.1119 70.6544 13.1192 70.2112 14.4431 70.7566C14.9688 70.9731 15.3527 71.0987 15.5903 71.0718C16.5725 70.9403 17.8334 71.1526 21.4374 71.311C23.4382 71.4694 25.2649 71.146 26.5518 71.6009C28.2952 72.2171 30.1274 74.4362 32.212 74.6916C34.7982 75.0084 36.6633 75.319 36.8156 75.1098C36.894 75.0021 36.8806 74.7253 37.2441 74.6884C38.2738 74.5839 40.2761 74.4689 40.9883 75.1938C41.1205 75.3284 41.2305 75.5887 41.2774 75.8282C41.4374 76.6464 41.7436 80.5347 44.2429 80.8959C45.5086 81.0789 46.674 81.6678 47.7494 81.1565C48.2492 80.9189 48.5742 80.2276 48.8037 80.4191C49.412 80.9268 49.7966 82.0627 50.5201 82.4532C51.2084 82.8246 52.3271 82.9854 52.6841 83.6421C52.8417 83.932 52.9696 84.2461 53.0263 84.5934C53.1601 85.4132 53.3228 86.5637 54.0322 86.9419C54.4274 87.1526 54.8528 87.308 55.2465 87.4163C56.0148 87.6278 59.7936 87.8221 59.2282 87.9177C59.069 87.9446 59.8027 87.9762 59.9688 87.9731C61.4507 87.9454 62.0473 87.8439 62.7181 87.2286C63.0342 86.9387 63.391 86.4749 63.6417 85.8266C64.0908 84.6654 64.0016 83.6163 66.1526 80.6757C66.9423 79.5961 67.4266 78.6583 68.2896 78.1736C68.4757 78.069 68.6877 78.0537 68.8702 78.0959L69.0859 78.1736C69.4234 78.2515 69.6326 78.272 69.8199 78.6266C70.0567 79.075 70.2495 79.5112 70.5066 79.8678C71.1149 80.7114 71.6839 81.31 72.7292 81.5827C74.4417 82.0294 75.3591 80.992 77.3739 80.7351C78.4052 80.6037 79.9138 80.6933 80.646 81.292C81.3581 81.8742 81.944 82.357 82.3609 82.9823C82.7838 83.6167 83.6448 84.2681 83.2828 87.5042C83.0975 89.1613 82.8046 89.7523 82.6745 90.8025C82.3593 93.3466 82.2648 95.4702 82.7577 95.9993C83.4714 96.7652 84.2566 97.0894 85.0286 97.5288C85.6353 97.8741 85.7077 99.2852 86.6658 99.8797C87.4317 100.355 88.2006 100.537 89.94 100.695C90.3875 100.616 90.8121 100.564 91.2065 100.645C91.5487 100.882 91.8549 101.167 92.1832 101.358C92.8176 101.727 93.3909 102.149 94.0842 102.467C94.7725 102.782 95.5988 103.042 96.302 103.258C96.9903 103.469 97.8694 103.461 98.5198 103.733C99.1543 103.998 100.051 104.285 100.525 105.002C100.631 105.161 100.683 105.318 100.601 105.396C100.52 105.475 100.93 105.963 100.969 105.973C101.26 106.052 101.408 105.942 101.978 106.48C102.481 106.954 103.326 107.199 104.038 107.747C104.38 108.011 104.154 109.465 104.723 110.52C104.908 110.863 105.161 111.321 105.649 111.47C106.765 111.811 108.188 111.227 109.214 111.575C109.451 111.656 109.649 111.802 109.687 112.026C109.765 112.501 109.75 113.154 109.924 113.796C110.189 114.774 110.39 115.948 111.325 116.328C112.04 116.618 112.848 116.851 113.384 117.385C113.941 117.939 114.64 118.512 115.312 118.597C115.946 118.677 116.63 119.274 117.533 119.205L117.641 119.196C119.037 119.09 120.612 118.97 122.681 117.697C123.496 117.194 124.132 116.777 124.844 116.112C125.61 115.398 126.367 114.389 127.458 113.922C127.826 113.765 128.469 114.473 129.351 113.537C129.861 112.996 129.351 112.072 129.304 111.525C129.031 110.118 128.941 108.107 128.803 106.631C128.712 106.063 128.184 104.532 128.646 102.545C129.217 100.094 129.519 99.2358 130.15 98.6602C130.723 98.1368 132.001 98.0437 132.131 97.2921C132.221 96.7687 131.82 95.9266 132.016 95.0814C132.27 93.9874 132.474 91.8189 133.411 91.737C134.185 91.6694 135.125 91.6994 135.664 91.3017C135.914 91.1172 136.028 90.8306 136.187 90.6416C136.78 89.9336 139.07 87.3992 140.72 87.455C141.427 87.4789 142.167 87.5943 143.163 87.822C145.44 88.3427 146.751 87.6683 148.878 87.1338C150.41 86.7491 152.558 86.9014 152.951 86.1778C153.087 85.9277 153.284 85.5711 153.635 85.2662C154.184 84.7892 155.382 84.6074 156.004 84.1284C156.691 83.6001 158.012 83.3515 158.829 82.7842C159.422 82.3728 159.978 80.5566 160.833 79.7767C161.382 79.2758 162.493 78.8289 163.248 78.6395C163.795 78.5022 165.061 78.8446 165.458 78.1585C166.026 77.1765 165.954 76.0481 166.758 75.6546C166.988 75.5418 167.335 75.5968 167.531 75.4489C167.894 75.1755 168.111 74.8018 168.327 74.4689C168.759 73.8061 168.73 72.7717 169.309 72.6027C169.541 72.535 169.983 72.6297 170.336 72.4421C171.539 71.8024 171.65 70.7294 172.565 70.1637C173.226 69.7551 175.678 70.5131 175.958 68.7266C176.047 68.1587 175.298 65.6269 176.14 64.3783C176.233 64.2416 176.371 64.1558 176.552 64.0134C177.419 63.3286 179.079 62.9739 179.124 61.7084C179.19 59.8626 178.805 58.1892 179.512 57.5446C180.013 57.0881 180.457 56.7013 181.814 56.087C182.52 55.7678 183.149 55.442 183.361 54.8555Z" fill="#BF7C52" stroke="black" stroke-width="6" stroke-linecap="round"/>
<path d="M67.2931 46.2058L71.4833 43.297L72.5272 44.4062L70.1312 49.907L68.7531 48.9141L57.128 43.8506L57.8867 42.1087L71.3014 34.95L66.7356 32.9613L62.9436 35.6072L61.8997 34.498L64.1359 29.3639L65.5141 30.3569L76.7541 35.2526L75.9954 36.9946L62.5624 44.1453L67.2931 46.2058ZM87.8418 57.2284L80.2506 53.922L80.8176 52.6201L83.4948 52.4337L83.566 49.716L78.2118 47.3839L76.6454 48.9268L78.5975 51.4568L77.2251 52.6042L71.1008 49.9367L71.6679 48.6348L74.508 47.974L83.6687 38.9624L88 39.7364L87.6825 54.3886L89.2141 56.081L87.8418 57.2284ZM83.7513 41.878L79.649 45.9375L83.6096 47.6626L83.7513 41.878ZM96.173 60.8572L89.1319 57.7904L89.6989 56.4885L92.0774 55.7357L96.2464 46.1642L94.3957 44.7036L95.768 43.5562L102.809 46.623L102.242 47.9249L99.8373 48.6881L95.6763 58.2412L97.5453 59.7098L96.173 60.8572ZM112.682 68.0481L108.355 66.1633L107.843 58.5233L107.265 57.7478L108.294 56.8873L109.046 57.2147C109.596 57.4543 110.115 57.4477 110.603 57.195C111.097 56.93 111.501 56.4369 111.815 55.7157C112.161 54.9212 112.23 54.195 112.022 53.5372C111.832 52.8725 111.339 52.3672 110.545 52.0211C110.068 51.8134 109.56 51.7597 109.022 51.8598L104.566 62.0914L106.435 63.5599L105.063 64.7073L98.0214 61.6405L98.5885 60.3386L100.967 59.5858L105.136 50.0143L103.285 48.5538L104.658 47.4064L108.252 48.9717C109.278 49.419 110.309 49.8242 111.343 50.1875C112.098 50.458 112.646 50.6679 112.989 50.8169C113.991 51.2535 114.803 51.8107 115.424 52.4884C116.062 53.1592 116.468 53.8812 116.64 54.6543C116.812 55.4274 116.739 56.1807 116.419 56.9141C116.057 57.7454 115.355 58.3558 114.313 58.7453C113.283 59.1401 112.136 59.3023 110.872 59.2319L112.313 60.3827L112.656 65.3535L114.055 66.9007L112.682 68.0481ZM125.905 73.8073L113.968 68.6081L114.535 67.3062L116.85 66.7001L121.083 56.9819L119.24 55.503L120.612 54.3556L131.999 59.3153L133.665 59.6481L131.508 64.5989L129.985 64.5899L129.168 60.1547L125.153 58.4057L123.22 62.843L124.999 63.6177L127.16 62.3121L128.462 62.8791L126.193 68.0866L124.407 68.1811L124.185 65.3357L122.461 64.5849L120.393 69.334L124.243 71.0112L128.555 68.3736L129.599 69.4828L127.283 74.8003L125.905 73.8073Z" fill="black"/>
</svg>
